<?xml version="1.0" encoding="UTF-8"?><svg id="Layer_2" xmlns="http://www.w3.org/2000/svg" viewBox="0 0 426.5103 79.0331"><g id="Components"><g id="_x34_52e749a-1960-4be0-b7b2-986c81027309_x40_1"><circle cx="22.3583" cy="56.6748" r="22.3583" style="fill:none;"/><rect x="38.488" y="66.7108" width="3.463" height="2.4745" rx="1.2372" ry="1.2372" transform="translate(118.9336 74.1627) rotate(125.1362)" style="fill:#f04e37;"/><rect x="34.3356" y="61.1854" width="3.463" height="7.6808" rx="1.7315" ry="1.7315" transform="translate(110.0016 72.9545) rotate(125.1363)" style="fill:#00afad;"/><rect x="34.945" y="70.6751" width="3.463" height="2.7145" rx="1.3572" ry="1.3572" transform="translate(111.1209 103.5261) rotate(139.9145)" style="fill:#f04e37;"/><path d="M33.3062,64.1511h0c.9556,0,1.7315.7759,1.7315,1.7315v4.2905c0,.9556-.7759,1.7315-1.7315,1.7315h0c-.9556,0-1.7315-.7759-1.7315-1.7315v-4.2906c0-.9556.7759-1.7315,1.7315-1.7315Z" transform="translate(102.5934 98.6282) rotate(139.9145)" style="fill:#00afad;"/><rect x="30.5207" y="73.655" width="3.463" height="2.8801" rx="1.4401" ry="1.4401" transform="translate(93.5101 129.1962) rotate(154.6928)" style="fill:#f04e37;"/><path d="M29.9642,66.344h0c.9556,0,1.7315.7759,1.7315,1.7315v4.3617c0,.9556-.7759,1.7315-1.7315,1.7315h0c-.9556,0-1.7315-.7759-1.7315-1.7315v-4.3617c0-.9556.7759-1.7315,1.7315-1.7315Z" transform="translate(87.0853 120.9612) rotate(154.6929)" style="fill:#00afad;"/><rect x="25.4747" y="75.3359" width="3.463" height="3.1081" rx="1.5541" ry="1.5541" transform="translate(68.0045 147.514) rotate(169.4711)" style="fill:#f04e37;"/><path d="M26.2095,67.6278h0c.9556,0,1.7315.7759,1.7315,1.7315v4.337c0,.9556-.7759,1.7315-1.7315,1.7315h0c-.9556,0-1.7315-.7759-1.7315-1.7315v-4.337c0-.9556.7759-1.7315,1.7315-1.7315Z" transform="translate(65.0477 137.0622) rotate(169.4715)" style="fill:#00afad;"/><rect x="20.1687" y="75.5916" width="3.463" height="3.4135" rx="1.7068" ry="1.7068" transform="translate(38.0125 156.0071) rotate(-175.7506)" style="fill:#f04e37;"/><path d="M22.308,68.0128h0c.9556,0,1.7315.7759,1.7315,1.7315v4.131c0,.9556-.7759,1.7315-1.7315,1.7315h0c-.9556,0-1.7315-.7759-1.7315-1.7315v-4.131c0-.9556.7759-1.7315,1.7315-1.7315Z" transform="translate(39.2334 145.0752) rotate(-175.7502)" style="fill:#00afad;"/><path d="M16.6659,74.7323h0c.9556,0,1.7315.7759,1.7315,1.7315v.005c0,.9556-.7759,1.7315-1.7315,1.7315h0c-.9556,0-1.7315-.7759-1.7315-1.7315v-.005c0-.9556.7759-1.7315,1.7315-1.7315Z" transform="translate(7.4912 154.188) rotate(-160.9723)" style="fill:#f04e37;"/><rect x="16.7382" y="67.4371" width="3.463" height="7.5975" rx="1.7315" ry="1.7315" transform="translate(12.7053 144.6011) rotate(-160.9722)" style="fill:#00afad;"/><path d="M11.8317,72.5364h0c.9556,0,1.7315.7759,1.7315,1.7315v.0951c0,.9556-.7759,1.7315-1.7315,1.7315h0c-.9556,0-1.7315-.7759-1.7315-1.7315v-.0951c0-.9556.7759-1.7315,1.7315-1.7315Z" transform="translate(-19.685 142.649) rotate(-146.1939)" style="fill:#f04e37;"/><path d="M14.8949,66.0143h0c.9556,0,1.7315.7759,1.7315,1.7315v3.99c0,.9556-.7759,1.7315-1.7315,1.7315h0c-.9556,0-1.7315-.7759-1.7315-1.7315v-3.99c0-.9556.7759-1.7315,1.7315-1.7315Z" transform="translate(-11.5315 135.9774) rotate(-146.1937)" style="fill:#00afad;"/><path d="M7.8239,68.9417h0c.9556,0,1.7315.7759,1.7315,1.7315v.4793c0,.9556-.7759,1.7315-1.7315,1.7315h0c-.9556,0-1.7315-.7759-1.7315-1.7315v-.4793c0-.9556.7759-1.7315,1.7315-1.7315Z" transform="translate(-40.18 123.6904) rotate(-131.4157)" style="fill:#f04e37;"/><path d="M11.9587,63.7234h0c.9556,0,1.7315.7759,1.7315,1.7315v3.6216c0,.9556-.7759,1.7315-1.7315,1.7315h0c-.9556,0-1.7315-.7759-1.7315-1.7315v-3.6216c0-.9556.7759-1.7315,1.7315-1.7315Z" transform="translate(-30.575 120.7312) rotate(-131.4157)" style="fill:#00afad;"/><path d="M4.9554,64.3008h0c.9556,0,1.7315.7759,1.7315,1.7315v1.1072c0,.9556-.7759,1.7315-1.7315,1.7315h0c-.9556,0-1.7315-.7759-1.7315-1.7315v-1.1072c0-.9556.7759-1.7315,1.7315-1.7315Z" transform="translate(-52.3415 100.8685) rotate(-116.6373)" style="fill:#f04e37;"/><path d="M9.8552,60.9317h0c.9556,0,1.7315.7759,1.7315,1.7315v2.9301c0,.9556-.7759,1.7315-1.7315,1.7315h0c-.9556,0-1.7315-.7759-1.7315-1.7315v-2.9301c0-.9556.7759-1.7315,1.7315-1.7315Z" transform="translate(-43.0483 101.6885) rotate(-116.637)" style="fill:#00afad;"/><path d="M3.2464,59.2282h0c.9556,0,1.7315.7759,1.7315,1.7315v1.6024c0,.9556-.7759,1.7315-1.7315,1.7315h0c-.9556,0-1.7315-.7759-1.7315-1.7315v-1.6024c0-.9556.7759-1.7315,1.7315-1.7315Z" transform="translate(-56.5292 77.6301) rotate(-101.859)" style="fill:#f04e37;"/><rect x="6.7244" y="57.8765" width="3.463" height="5.5809" rx="1.7315" ry="1.7315" transform="translate(-49.1786 81.4095) rotate(-101.8587)" style="fill:#00afad;"/><path d="M2.8629,53.9111h0c.9556,0,1.7315.7759,1.7315,1.7315v2.1651c0,.9556-.7759,1.7315-1.7315,1.7315h0c-.9556,0-1.7315-.7759-1.7315-1.7315v-2.1651c0-.9556.7759-1.7315,1.7315-1.7315Z" transform="translate(-53.9344 56.6953) rotate(-87.0807)" style="fill:#f04e37;"/><path d="M8.1939,54.4731h0c.9556,0,1.7315.7759,1.7315,1.7315v1.5847c0,.9556-.7759,1.7315-1.7315,1.7315h0c-.9556,0-1.7315-.7759-1.7315-1.7315v-1.5847c0-.9556.7759-1.7315,1.7315-1.7315Z" transform="translate(-49.1465 62.2771) rotate(-87.0804)" style="fill:#00afad;"/><path d="M3.6541,48.8136h0c.9556,0,1.7315.7759,1.7315,1.7315v2.4981c0,.9556-.7759,1.7315-1.7315,1.7315h0c-.9556,0-1.7315-.7759-1.7315-1.7315v-2.4981c0-.9556.7759-1.7315,1.7315-1.7315Z" transform="translate(-46.7997 39.5301) rotate(-72.3022)" style="fill:#f04e37;"/><path d="M8.7093,51.0815h0c.9556,0,1.7315.7759,1.7315,1.7315v1.1886c0,.9556-.7759,1.7315-1.7315,1.7315h0c-.9556,0-1.7315-.7759-1.7315-1.7315v-1.1887c0-.9556.7759-1.7315,1.7315-1.7315Z" transform="translate(-44.818 45.4687) rotate(-72.3021)" style="fill:#00afad;"/><path d="M5.6311,44.1359h0c.9556,0,1.7315.7759,1.7315,1.7315v2.7648c0,.9556-.7759,1.7315-1.7315,1.7315h0c-.9556,0-1.7315-.7759-1.7315-1.7315v-2.7648c0-.9556.7759-1.7315,1.7315-1.7315Z" transform="translate(-37.2532 26.6296) rotate(-57.5239)" style="fill:#f04e37;"/><path d="M10.1207,47.8994h0c.9556,0,1.7315.7759,1.7315,1.7315v.953c0,.9556-.7759,1.7315-1.7315,1.7315h0c-.9556,0-1.7315-.7759-1.7315-1.7315v-.953c0-.9556.7759-1.7315,1.7315-1.7315Z" transform="translate(-37.5849 31.7402) rotate(-57.5238)" style="fill:#00afad;"/><path d="M8.6845,40.1353h0c.9556,0,1.7315.7759,1.7315,1.7315v3.044c0,.9556-.7759,1.7315-1.7315,1.7315h0c-.9556,0-1.7315-.7759-1.7315-1.7315v-3.044c0-.9556.7759-1.7315,1.7315-1.7315Z" transform="translate(-27.1431 17.4197) rotate(-42.7455)" style="fill:#f04e37;"/><path d="M12.2907,45.231h0c.9556,0,1.7315.7759,1.7315,1.7315v.6561c0,.9556-.7759,1.7315-1.7315,1.7315h0c-.9556,0-1.7315-.7759-1.7315-1.7315v-.6561c0-.9556.7759-1.7315,1.7315-1.7315Z" transform="translate(-28.8335 20.9038) rotate(-42.7455)" style="fill:#00afad;"/><path d="M12.5721,37.0689h0c.9556,0,1.7315.7759,1.7315,1.7315v3.2378c0,.9556-.7759,1.7315-1.7315,1.7315h0c-.9556,0-1.7315-.7759-1.7315-1.7315v-3.2378c0-.9556.7759-1.7315,1.7315-1.7315Z" transform="translate(-17.4871 10.6163) rotate(-27.9673)" style="fill:#f04e37;"/><path d="M15.0267,43.1584h0c.9556,0,1.7315.7759,1.7315,1.7315v.3042c0,.9556-.7759,1.7315-1.7315,1.7315h0c-.9556,0-1.7315-.7759-1.7315-1.7315v-.3042c0-.9556.7759-1.7315,1.7315-1.7315Z" transform="translate(-19.3684 12.3073) rotate(-27.9673)" style="fill:#00afad;"/><path d="M17.0447,35.1032h0c.9556,0,1.7315.7759,1.7315,1.7315v3.2551c0,.9556-.7759,1.7315-1.7315,1.7315h0c-.9556,0-1.7315-.7759-1.7315-1.7315v-3.2551c0-.9556.7759-1.7315,1.7315-1.7315Z" transform="translate(-8.3261 4.9035) rotate(-13.189)" style="fill:#f04e37;"/><path d="M18.2062,41.687h0c.9556,0,1.7315.7759,1.7315,1.7315h0c0,.9556-.7759,1.7315-1.7315,1.7315h0c-.9556,0-1.7315-.7759-1.7315-1.7315h0c0-.9557.7759-1.7315,1.7315-1.7315Z" transform="translate(-9.4262 5.2991) rotate(-13.1888)" style="fill:#00afad;"/><path d="M21.8646,34.3439h0c.9556,0,1.7315.7759,1.7315,1.7315v3.4314c0,.9556-.7759,1.7315-1.7315,1.7315h0c-.9556,0-1.7315-.7759-1.7315-1.7315v-3.4313c0-.9556.7759-1.7315,1.7315-1.7315Z" transform="translate(1.0565 -.5919) rotate(1.5892)" style="fill:#f04e37;"/><rect x="19.9944" y="41.2363" width="3.463" height="3.101" rx="1.5505" ry="1.5505" transform="translate(1.1952 -.5862) rotate(1.5895)" style="fill:#00afad;"/><path d="M26.6806,34.8323h0c.9556,0,1.7315.7759,1.7315,1.7315v3.5644c0,.9556-.7759,1.7315-1.7315,1.7315h0c-.9556,0-1.7315-.7759-1.7315-1.7315v-3.5643c0-.9556.7759-1.7315,1.7315-1.7315Z" transform="translate(11.887 -5.9645) rotate(16.3675)" style="fill:#f04e37;"/><rect x="23.5529" y="41.6588" width="3.463" height="2.882" rx="1.441" ry="1.441" transform="translate(13.1704 -5.3785) rotate(16.3679)" style="fill:#00afad;"/><path d="M31.1613,36.5194h0c.9556,0,1.7315.7759,1.7315,1.7315v3.7667c0,.9556-.7759,1.7315-1.7315,1.7315h0c-.9556,0-1.7315-.7759-1.7315-1.7315v-3.7667c0-.9556.7759-1.7315,1.7315-1.7315Z" transform="translate(25.2498 -10.332) rotate(31.1457)" style="fill:#f04e37;"/><rect x="26.8162" y="43.0207" width="3.463" height="2.8764" rx="1.4382" ry="1.4382" transform="translate(27.1103 -8.3568) rotate(31.1462)" style="fill:#00afad;"/><path d="M34.9618,39.2508h0c.9556,0,1.7315.7759,1.7315,1.7315v4.1236c0,.9556-.7759,1.7315-1.7315,1.7315h0c-.9556,0-1.7315-.7759-1.7315-1.7315v-4.1236c0-.9557.7759-1.7315,1.7315-1.7315Z" transform="translate(41.5654 -12.0151) rotate(45.9238)" style="fill:#f04e37;"/><rect x="29.5184" y="45.2647" width="3.463" height="2.747" rx="1.3735" ry="1.3735" transform="translate(43.0182 -8.2543) rotate(45.9245)" style="fill:#00afad;"/><path d="M37.9287,42.8547h0c.9556,0,1.7315.7759,1.7315,1.7315v4.3388c0,.9556-.7759,1.7315-1.7315,1.7315h0c-.9556,0-1.7315-.7759-1.7315-1.7315v-4.3388c0-.9556.7759-1.7315,1.7315-1.7315Z" transform="translate(60.1436 -9.2012) rotate(60.7025)" style="fill:#f04e37;"/><rect x="31.5531" y="47.9371" width="3.463" height="2.8486" rx="1.4243" ry="1.4243" transform="translate(60.0449 -3.8203) rotate(60.7028)" style="fill:#00afad;"/><rect x="15.1265" y="57.1248" width="2.4242" height="2.4242" rx="1.2121" ry="1.2121" transform="translate(-25.0828 14.1282) rotate(-27.4896)" style="fill:#00afad;"/><rect x="17.1165" y="53.1176" width="11.0718" height="3.8679" rx="1.9339" ry="1.9339" transform="translate(-22.8537 16.6718) rotate(-27.4898)" style="fill:#00afad;"/><rect x="27.6726" y="49.8472" width="3.8679" height="3.1716" rx="1.5858" ry="1.5858" transform="translate(-20.3982 19.4732) rotate(-27.4898)" style="fill:#00afad;"/><path d="M55.4976,0c2.7153,0,4.6782.8604,6.5063,2.5.2422.2148.2422.5381.0269.7529l-1.6401,1.6943c-.188.2148-.457.2148-.6719,0-1.1294-.9951-2.6348-1.5869-4.1406-1.5869-3.4414,0-5.9956,2.877-5.9956,6.2646,0,3.3604,2.5811,6.2109,6.0225,6.2109,1.6133,0,2.9844-.6191,4.1138-1.5332.2148-.1875.5107-.1611.6719,0l1.667,1.7207c.2153.1885.1616.5381-.0269.7266-1.8281,1.7744-4.1401,2.6074-6.5332,2.6074-5.377,0-9.7061-4.2744-9.7061-9.6514S50.1207,0,55.4976,0Z" style="fill:#808285;"/><path d="M64.4488.7793c0-.2686.2148-.5107.5107-.5107h10.9424c.2959,0,.5107.2422.5107.5107v2.2051c0,.2686-.2148.5107-.5107.5107h-7.958v4.4092h6.6406c.269,0,.5107.2422.5107.5107v2.2314c0,.2959-.2417.5107-.5107.5107h-6.6406v4.7051h7.958c.2959,0,.5107.2422.5107.5107v2.2051c0,.2686-.2148.5107-.5107.5107h-10.9424c-.2959,0-.5107-.2422-.5107-.5107V.7793Z" style="fill:#808285;"/><path d="M79.1543.4834c0-.2686.2417-.4834.5107-.4834h.6719l11.1846,11.8838h.0269V.7793c0-.2686.2153-.5107.5112-.5107h2.4731c.269,0,.5112.2422.5112.5107v18.0947c0,.2686-.2422.4834-.5112.4834h-.645l-11.2383-12.3408h-.0269v11.5615c0,.2686-.2153.5107-.5107.5107h-2.4468c-.269,0-.5107-.2422-.5107-.5107V.4834Z" style="fill:#808285;"/><path d="M101.3604,3.4951h-4.1138c-.2959,0-.5107-.2422-.5107-.5107V.7793c0-.2686.2148-.5107.5107-.5107h11.749c.2959,0,.5107.2422.5107.5107v2.2051c0,.2686-.2148.5107-.5107.5107h-4.1133v15.083c0,.2686-.2422.5107-.5107.5107h-2.5005c-.269,0-.5107-.2422-.5107-.5107V3.4951Z" style="fill:#808285;"/><path d="M111.1993.7793c0-.2686.2148-.5107.5107-.5107h7.6895c3.2261,0,5.8608,2.5811,5.8608,5.7803,0,2.4736-1.6396,4.4902-3.979,5.4316l3.6836,6.8291c.188.3486,0,.7793-.457.7793h-2.8232c-.2417,0-.3765-.1348-.4302-.2422l-3.5757-7.125h-2.9844v6.8564c0,.2686-.2422.5107-.5107.5107h-2.4736c-.2959,0-.5107-.2422-.5107-.5107V.7793ZM119.1036,8.8457c1.4248,0,2.6616-1.2373,2.6616-2.7432,0-1.4248-1.2368-2.6074-2.6616-2.6074h-4.3823v5.3506h4.3823Z" style="fill:#808285;"/><path d="M136.3086,0c5.3774,0,9.6792,4.3281,9.6792,9.7061s-4.3018,9.6514-9.6792,9.6514-9.6519-4.2744-9.6519-9.6514,4.2744-9.7061,9.6519-9.7061ZM136.3086,15.8623c3.3877,0,6.1836-2.7686,6.1836-6.1563s-2.7959-6.2109-6.1836-6.2109-6.1567,2.8232-6.1567,6.2109,2.769,6.1563,6.1567,6.1563Z" style="fill:#808285;"/><path d="M153.2442.7793c0-.2686.2148-.5107.5107-.5107h6.3184c3.3066,0,6.0225,2.6885,6.0225,5.9424,0,3.333-2.7158,6.0488-5.9956,6.0488h-3.3608v6.3184c0,.2686-.2422.5107-.5107.5107h-2.4736c-.2959,0-.5107-.2422-.5107-.5107V.7793ZM159.858,8.9795c1.5059,0,2.7695-1.21,2.7695-2.7959,0-1.4785-1.2637-2.6084-2.7695-2.6084h-3.1187v5.4043h3.1187Z" style="fill:#808285;"/><path d="M164.5621,18.3896L172.9234.2959c.0811-.1621.2153-.2959.457-.2959h.269c.269,0,.3765.1338.457.2959l8.2808,18.0938c.1616.3496-.0537.6992-.457.6992h-2.3389c-.4033,0-.5913-.1611-.7798-.5381l-1.3174-2.9033h-8.0391l-1.3174,2.9033c-.1074.2695-.3491.5381-.7798.5381h-2.3389c-.4033,0-.6182-.3496-.457-.6992ZM176.1768,12.6631l-2.6885-5.915h-.0806l-2.6353,5.915h5.4043Z" style="fill:#808285;"/><path d="M183.73.7793c0-.2686.2148-.5107.5107-.5107h7.6895c3.2261,0,5.8608,2.5811,5.8608,5.7803,0,2.4736-1.6396,4.4902-3.979,5.4316l3.6836,6.8291c.188.3486,0,.7793-.457.7793h-2.8232c-.2422,0-.3765-.1348-.4302-.2422l-3.5757-7.125h-2.9844v6.8564c0,.2686-.2422.5107-.5107.5107h-2.4736c-.2959,0-.5107-.2422-.5107-.5107V.7793ZM191.6343,8.8457c1.4248,0,2.6616-1.2373,2.6616-2.7432,0-1.4248-1.2368-2.6074-2.6616-2.6074h-4.3823v5.3506h4.3823Z" style="fill:#808285;"/><path d="M198.085,18.3896L206.4463.2959c.0811-.1621.2153-.2959.4575-.2959h.2686c.269,0,.3765.1338.457.2959l8.2808,18.0938c.1616.3496-.0537.6992-.457.6992h-2.3389c-.4033,0-.5913-.1611-.7798-.5381l-1.3174-2.9033h-8.0391l-1.3174,2.9033c-.1074.2695-.3496.5381-.7793.5381h-2.3394c-.4033,0-.6182-.3496-.457-.6992ZM209.6998,12.6631l-2.6885-5.915h-.0806l-2.6353,5.915h5.4043Z" style="fill:#808285;"/><path d="M224.0547.4033c.0269-.2148.1885-.4033.4839-.4033h.4302c.2153,0,.3765.1074.457.2686l5.915,12.6904h.0806l5.915-12.6904c.0806-.1611.2153-.2686.457-.2686h.4302c.2959,0,.457.1885.4839.4033l3.1729,18.0674c.0806.376-.1348.6182-.4839.6182h-2.4468c-.2422,0-.457-.2148-.5107-.4033l-1.5864-10.1895h-.0806l-4.7051,10.5654c-.0537.1621-.2153.2959-.457.2959h-.4839c-.2422,0-.3765-.1338-.457-.2959l-4.7588-10.5654h-.0811l-1.5591,10.1895c-.0269.1885-.2422.4033-.4839.4033h-2.4199c-.3496,0-.5645-.2422-.5107-.6182l3.1992-18.0674Z" style="fill:#808285;"/><path d="M244.19.7793c0-.2686.2422-.5107.5107-.5107h2.5542c.2959,0,.5107.2422.5107.5107v10.9961c0,2.2861,1.5596,4.0869,3.8984,4.0869s3.9258-1.8008,3.9258-4.0596V.7793c0-.2686.2148-.5107.5107-.5107h2.5542c.2686,0,.5107.2422.5107.5107v11.1846c0,4.0869-3.2534,7.3936-7.5015,7.3936-4.2207,0-7.4741-3.3066-7.4741-7.3936V.7793Z" style="fill:#808285;"/><path d="M262.6856.7793c0-.2686.2148-.5107.4839-.5107h6.3721c5.189,0,9.437,4.2217,9.437,9.3838,0,5.2158-4.248,9.4365-9.437,9.4365h-6.3721c-.269,0-.4839-.2422-.4839-.5107V.7793ZM269.2188,15.8086c3.4951,0,6.0493-2.6348,6.0493-6.1563,0-3.4961-2.5542-6.1309-6.0493-6.1309h-3.0649v12.2871h3.0649Z" style="fill:#808285;"/><path d="M278.8155,18.3896L287.1768.2959c.0811-.1621.2153-.2959.4575-.2959h.2686c.269,0,.3765.1338.457.2959l8.2808,18.0938c.1616.3496-.0537.6992-.457.6992h-2.3389c-.4033,0-.5913-.1611-.7798-.5381l-1.3174-2.9033h-8.0391l-1.3174,2.9033c-.1074.2695-.3496.5381-.7793.5381h-2.3394c-.4033,0-.6182-.3496-.457-.6992ZM290.4302,12.6631l-2.6885-5.915h-.0806l-2.6353,5.915h5.4043Z" style="fill:#808285;"/><path d="M297.9834.4834c0-.2686.2417-.4834.5107-.4834h.6719l11.1846,11.8838h.0269V.7793c0-.2686.2153-.5107.5112-.5107h2.4731c.269,0,.5112.2422.5112.5107v18.0947c0,.2686-.2422.4834-.5112.4834h-.645l-11.2383-12.3408h-.0269v11.5615c0,.2686-.2153.5107-.5107.5107h-2.4468c-.269,0-.5107-.2422-.5107-.5107V.4834Z" style="fill:#808285;"/><path d="M316.3179,9.7061c0-5.3779,4.3286-9.7061,9.7056-9.7061,2.7153,0,4.6782.8604,6.5063,2.5.2422.2148.2422.5381.0269.7529l-1.6401,1.6943c-.188.2148-.457.2148-.6719,0-1.1294-.9951-2.6348-1.5869-4.1406-1.5869-3.4414,0-5.9956,2.877-5.9956,6.2646,0,3.3604,2.5811,6.2109,6.0225,6.2109,1.6133,0,2.9844-.6191,4.1138-1.5332.2148-.1875.5107-.1611.6719,0l1.667,1.7207c.2153.1885.1616.5381-.0269.7266-1.8281,1.7744-4.1133,2.5811-6.4795,2.6074v1.1299c1.6401.2148,2.6079,1.2637,2.6079,2.7686,0,1.5596-1.2637,2.8232-2.8496,2.8232-.8066,0-1.5864-.4033-2.0435-.9404-.2153-.2422-.1611-.5381.0806-.7529l.5376-.457c.1616-.1621.4302-.1348.5649.0264.2148.2422.5645.3232.8066.3232.5376,0,.9409-.458.9409-.9951,0-.6455-.5649-1.21-1.9629-1.3174-.4033-.0537-.457-.3496-.457-.4844v-2.2852c-4.5435-.7793-7.9849-4.7051-7.9849-9.4902Z" style="fill:#808285;"/><path d="M332.5552,18.3896L340.9166.2959c.0811-.1621.2153-.2959.457-.2959h.269c.269,0,.3765.1338.457.2959l8.2808,18.0938c.1616.3496-.0537.6992-.457.6992h-2.3389c-.4033,0-.5913-.1611-.7798-.5381l-1.3174-2.9033h-8.0391l-1.3174,2.9033c-.1074.2695-.3491.5381-.7798.5381h-2.3389c-.4033,0-.6182-.3496-.457-.6992ZM344.17,12.6631l-2.6885-5.915h-.0806l-2.6353,5.915h5.4043Z" style="fill:#808285;"/><path d="M350.6207,16.4541l.9678-1.667c.2153-.376.6724-.376.9141-.1885.1348.0811,2.3125,1.667,4.0601,1.667,1.3979,0,2.4468-.9141,2.4468-2.0703,0-1.3711-1.1563-2.3115-3.4146-3.2256-2.5273-1.0225-5.0547-2.6357-5.0547-5.8076,0-2.3926,1.7744-5.1621,6.0493-5.1621,2.7422,0,4.8394,1.3975,5.377,1.8008.269.1621.3496.6191.1616.8877l-1.022,1.5322c-.2148.3232-.6182.5381-.9409.3232-.2148-.1348-2.2583-1.4795-3.7368-1.4795-1.5327,0-2.3662,1.0225-2.3662,1.8828,0,1.2637.9946,2.124,3.1729,3.0107,2.6079,1.0488,5.6191,2.6084,5.6191,6.0762,0,2.7695-2.3931,5.3232-6.1841,5.3232-3.3877,0-5.377-1.5859-5.915-2.0967-.2417-.2422-.376-.377-.1343-.8066Z" style="fill:#808285;"/><path d="M57.795,55.8652l-12.0835-19.3955c-.4956-.8047,0-1.7344,1.0537-1.7344h3.3462c.4336,0,.8677.248,1.0532.5576l9.543,16.4209h.062l9.6665-16.4209c.186-.3096.5576-.5576,1.0537-.5576h3.3457c1.0537,0,1.5493.9297,1.0537,1.7344l-12.0835,19.3955,12.5171,20.5107c.4956.8682,0,1.7354-1.0532,1.7354h-2.8506c-.4956,0-.9292-.3096-1.0532-.5576l-10.5962-17.5361h-.062l-10.4722,17.5361c-.186.3096-.5581.5576-1.0537.5576h-2.8501c-1.1157,0-1.6113-.9297-1.1157-1.7354l12.5791-20.5107Z" style="fill:#f04e37;"/><path d="M82.5772,35.9121c0-.6191.4961-1.1768,1.1777-1.1768h13.6943c7.6216,0,13.8804,6.1963,13.8804,13.6943,0,7.6836-6.2588,13.9424-13.8184,13.9424h-10.2246v14.5615c0,.6201-.5576,1.1777-1.1772,1.1777h-2.3545c-.6816,0-1.1777-.5576-1.1777-1.1777v-41.0215ZM97.1392,57.7861c5.0815,0,9.4189-4.1514,9.4189-9.4805,0-5.0195-4.3374-8.8613-9.4189-8.8613h-9.8525v18.3418h9.8525Z" style="fill:#f04e37;"/><path d="M135.9878,34.1152c12.3931,0,22.3076,9.9766,22.3076,22.3701s-9.9146,22.2461-22.3076,22.2461-22.2461-9.8535-22.2461-22.2461,9.8525-22.3701,22.2461-22.3701ZM135.9878,74.3936c9.8525,0,17.9697-8.0557,17.9697-17.9082s-8.1172-18.0322-17.9697-18.0322-17.9082,8.1797-17.9082,18.0322,8.0552,17.9082,17.9082,17.9082Z" style="fill:#f04e37;"/><path d="M164.8584,35.2305c0-.6191.5576-1.1152,1.1772-1.1152h1.5493l26.8931,31.1074h.062v-29.3105c0-.6191.4956-1.1768,1.1772-1.1768h3.9658c.6196,0,1.1772.5576,1.1772,1.1768v41.7031c0,.6201-.5576,1.1162-1.1772,1.1162h-1.6108l-26.8936-31.9746h-.062v30.1768c0,.6201-.4956,1.1777-1.1772,1.1777h-3.9038c-.6196,0-1.1772-.5576-1.1772-1.1777v-41.7031Z" style="fill:#f04e37;"/><path d="M210.212,35.9121c0-.6191.4956-1.1768,1.1772-1.1768h24.7866c.6816,0,1.1772.5576,1.1772,1.1768v3.4707c0,.6191-.4956,1.1768-1.1772,1.1768h-19.5815v12.6416h16.5449c.6196,0,1.1772.5576,1.1772,1.1768v3.4707c0,.6816-.5576,1.1768-1.1772,1.1768h-16.5449v13.3232h19.5815c.6816,0,1.1772.5576,1.1772,1.1768v3.4082c0,.6201-.4956,1.1777-1.1772,1.1777h-24.7866c-.6816,0-1.1772-.5576-1.1772-1.1777v-41.0215Z" style="fill:#f04e37;"/><path d="M244.0411,35.2305c0-.6191.5576-1.1152,1.1772-1.1152h1.5493l26.8931,31.1074h.062v-29.3105c0-.6191.4956-1.1768,1.1772-1.1768h3.9658c.6196,0,1.1772.5576,1.1772,1.1768v41.7031c0,.6201-.5576,1.1162-1.1772,1.1162h-1.6108l-26.8936-31.9746h-.062v30.1768c0,.6201-.4956,1.1777-1.1772,1.1777h-3.9038c-.6196,0-1.1772-.5576-1.1772-1.1777v-41.7031Z" style="fill:#f04e37;"/><path d="M308.232,34.1152c6.2588,0,10.7822,1.9834,14.9961,5.7627.5576.4961.5576,1.2393.062,1.7354l-3.7803,3.9043c-.4336.4951-1.0532.4951-1.5488,0-2.6025-2.293-6.0728-3.6562-9.543-3.6562-7.9316,0-13.8184,6.6299-13.8184,14.4385,0,7.7451,5.9487,14.3135,13.8804,14.3135,3.7178,0,6.8784-1.4248,9.481-3.5322.4956-.4336,1.1772-.3711,1.5488,0l3.8423,3.9658c.4956.4346.3716,1.2393-.062,1.6738-4.2139,4.0889-9.543,6.0107-15.0581,6.0107-12.3931,0-22.3696-9.8535-22.3696-22.2461s9.9766-22.3701,22.3696-22.3701Z" style="fill:#f04e37;"/><path d="M328.7994,35.9121c0-.6191.5581-1.1768,1.1777-1.1768h5.7627c.6196,0,1.1772.5576,1.1772,1.1768v41.0215c0,.6201-.5576,1.1777-1.1772,1.1777h-5.7627c-.6196,0-1.1777-.5576-1.1777-1.1777v-41.0215Z" style="fill:#f04e37;"/><path d="M339.9512,76.5l19.2715-41.7031c.186-.3711.4956-.6816,1.0532-.6816h.6196c.6196,0,.8677.3105,1.0537.6816l19.0854,41.7031c.3716.8057-.124,1.6113-1.0537,1.6113h-5.3906c-.9297,0-1.3633-.3721-1.7974-1.2393l-3.0361-6.6924h-18.5278l-3.0361,6.6924c-.248.6191-.8057,1.2393-1.7974,1.2393h-5.3911c-.9292,0-1.4248-.8057-1.0532-1.6113ZM366.7203,63.3018l-6.1963-13.6328h-.186l-6.0728,13.6328h12.4551Z" style="fill:#f04e37;"/><path d="M384.066,35.9121c0-.6191.5581-1.1768,1.1777-1.1768h5.7627c.6196,0,1.1772.5576,1.1772,1.1768v41.0215c0,.6201-.5576,1.1777-1.1772,1.1777h-5.7627c-.6196,0-1.1777-.5576-1.1777-1.1777v-41.0215Z" style="fill:#f04e37;"/><path d="M398.3155,72.0391l2.231-3.8428c.4956-.8672,1.5493-.8672,2.1069-.4336.3096.1865,5.3291,3.8418,9.3569,3.8418,3.2222,0,5.6387-2.1064,5.6387-4.7705,0-3.1611-2.6646-5.3291-7.8696-7.4365-5.8247-2.3545-11.6494-6.0723-11.6494-13.3848,0-5.5146,4.0894-11.8975,13.9419-11.8975,6.3208,0,11.1543,3.2227,12.3936,4.1523.6196.3711.8057,1.4248.3716,2.0449l-2.3545,3.5312c-.4956.7441-1.4253,1.2393-2.1689.7441-.4956-.3096-5.2051-3.4082-8.6133-3.4082-3.5322,0-5.4531,2.3545-5.4531,4.3379,0,2.9121,2.293,4.8945,7.312,6.9395,6.0107,2.417,12.9512,6.0107,12.9512,14.0049,0,6.3818-5.5151,12.2695-14.2524,12.2695-7.8076,0-12.3931-3.6562-13.6323-4.834-.5576-.5576-.8677-.8672-.3101-1.8584Z" style="fill:#f04e37;"/></g></g></svg>