<svg xmlns="http://www.w3.org/2000/svg" xmlns:xlink="http://www.w3.org/1999/xlink" width="157.239" height="65" viewBox="0 0 157.239 65">
  <defs>
    <linearGradient id="linear-gradient" x1="0.5" y1="1" x2="0.5" gradientUnits="objectBoundingBox">
      <stop offset="0.05" stop-color="#b6d223"/>
      <stop offset="0.498" stop-color="#35ac5c"/>
      <stop offset="0.95" stop-color="#009fcb"/>
    </linearGradient>
    <linearGradient id="linear-gradient-2" y1="0.5" x2="1" y2="0.5" gradientUnits="objectBoundingBox">
      <stop offset="0" stop-color="#f4c71f"/>
      <stop offset="0.95" stop-color="#b2d225"/>
    </linearGradient>
    <linearGradient id="linear-gradient-3" y1="0.5" x2="1" y2="0.5" gradientUnits="objectBoundingBox">
      <stop offset="0" stop-color="#187ef2"/>
      <stop offset="0.95" stop-color="#009fcb"/>
    </linearGradient>
  </defs>
  <g id="logo" transform="translate(-55.5 -53.03)">
    <g id="Group_336" data-name="Group 336" transform="translate(55.5 78.991)">
      <path id="Path_312" data-name="Path 312" d="M91.341,135.343l-.149-.135a3.49,3.49,0,0,0-2.664-.895,4.163,4.163,0,0,0-3.1,1.32,4.631,4.631,0,0,0-1.264,3.336,4.532,4.532,0,0,0,1.3,3.291,4.16,4.16,0,0,0,3.122,1.274,3.744,3.744,0,0,0,2.6-.814l.152-.151v.015a.808.808,0,0,0,.808.808H92.9a.807.807,0,0,0,.808-.807l.005-7.341a.808.808,0,0,0-.807-.808H92.15a.808.808,0,0,0-.808.807Zm-2.374,6.384a2.771,2.771,0,1,1,2.663-2.767A2.72,2.72,0,0,1,88.968,141.727Z" transform="translate(-73.936 -131.275)" fill="#2a2a44"/>
      <path id="Path_313" data-name="Path 313" d="M117.138,125.8h-.684a.808.808,0,0,0-.808.808v7.239A4.055,4.055,0,0,0,119.7,137.9h.168a.85.85,0,0,0,.851-.851v-.593a.78.78,0,0,0-.78-.78h0a1.9,1.9,0,0,1-1.994-2.083v-2.732h1.966a.808.808,0,0,0,.808-.808v-.31a.808.808,0,0,0-.808-.808h-1.966V126.6A.807.807,0,0,0,117.138,125.8Z" transform="translate(-94.187 -125.796)" fill="#2a2a44"/>
      <path id="Path_314" data-name="Path 314" d="M194.716,138.667v4.093a.808.808,0,0,0,.808.808h.762a.808.808,0,0,0,.808-.808v-4.009a1.917,1.917,0,0,1,1.715-1.906c.035,0,.534-.006,1-.008a.807.807,0,0,0,.8-.808v-.61a.807.807,0,0,0-.808-.808h-1.033A4.055,4.055,0,0,0,194.716,138.667Z" transform="translate(-145.047 -131.467)" fill="#2a2a44"/>
      <rect id="Rectangle_316" data-name="Rectangle 316" width="2.373" height="8.956" rx="1.186" transform="translate(57.244 3.145)" fill="#2a2a44"/>
      <path id="Path_315" data-name="Path 315" d="M232.54,140.147l-3.233-5.157a.808.808,0,0,0-.684-.379h-.513a.808.808,0,0,0-.691,1.225l4.431,7.34a.807.807,0,0,0,.691.39h0a.808.808,0,0,0,.691-.39l4.43-7.34a.808.808,0,0,0-.691-1.225h-.633a.808.808,0,0,0-.692.39Z" transform="translate(-166.006 -131.467)" fill="#2a2a44"/>
      <path id="Path_316" data-name="Path 316" d="M58.695,127.478H56.308a.808.808,0,0,0-.808.808v.623a.808.808,0,0,0,.808.808h2.549v0a3.517,3.517,0,1,1,0,7.033v0H57.738v-2.065a.808.808,0,0,0-.808-.808h-.623a.808.808,0,0,0-.808.808v3.5a.808.808,0,0,0,.808.808h2.549A5.75,5.75,0,0,0,64.6,132.95,5.857,5.857,0,0,0,58.695,127.478Z" transform="translate(-55.5 -126.878)" fill="#2a2a44"/>
      <path id="Path_317" data-name="Path 317" d="M291.1,135.759a4.519,4.519,0,0,0-1.379,3.348,4.646,4.646,0,0,0,4.691,4.465H297.2a.808.808,0,0,0,.808-.808v-.626a.808.808,0,0,0-.808-.808h-3.026a2.311,2.311,0,0,1-.01-4.618H297.2a.808.808,0,0,0,.808-.808v-.626a.808.808,0,0,0-.808-.808h-2.787A4.73,4.73,0,0,0,291.1,135.759Z" transform="translate(-206.157 -131.377)" fill="#2a2a44"/>
      <path id="Path_318" data-name="Path 318" d="M357.689,132.493l-.362-.262.289-.341a2.659,2.659,0,0,0-2.029-4.38h-4.934a.512.512,0,0,0-.512.511v6.92a.512.512,0,1,0,1.023,0v-2.109h4.422a2.572,2.572,0,0,1,0,5.144h-4.934a.511.511,0,1,0,0,1.023h4.934a3.592,3.592,0,0,0,2.1-6.507Zm-2.1-.683h-4.422v-3.276h4.422a1.644,1.644,0,1,1,0,3.276Z" transform="translate(-245.019 -126.899)" fill="#2a2a44"/>
      <path id="Path_319" data-name="Path 319" d="M387.359,134.278l.291-.2a3.6,3.6,0,0,0-2.019-6.569H380.7a.511.511,0,0,0,0,1.023h4.934a2.572,2.572,0,0,1,0,5.144h-4.422v-2.11a.511.511,0,1,0-1.023,0v6.92a.511.511,0,1,0,1.023,0V134.7h.413c1.742,0,4.383-.006,4.52-.011l.273-.009.117.248,1.72,3.7a.515.515,0,0,0,.67.246.512.512,0,0,0,.255-.687Z" transform="translate(-264.344 -126.899)" fill="#2a2a44"/>
      <path id="Path_320" data-name="Path 320" d="M169.513,127.49v-.012h-4.22a.808.808,0,0,0-.808.808v.623a.808.808,0,0,0,.808.808h4.13a2.136,2.136,0,0,1,2.155,1.872,2.076,2.076,0,0,1-2.066,2.28h-4.22a.808.808,0,0,0-.808.808v3.5a.808.808,0,0,0,.808.808h.623a.808.808,0,0,0,.808-.808v-2.066h2.789v-.012a4.308,4.308,0,0,0,0-8.6Z" transform="translate(-125.602 -126.878)" fill="#2a2a44"/>
      <path id="Path_321" data-name="Path 321" d="M321.307,140.137l-3.226-5.146a.809.809,0,0,0-.685-.379h-.513a.808.808,0,0,0-.691,1.225l3.853,6.383-1.254,2.027a.808.808,0,0,0,.691,1.226h.632a.807.807,0,0,0,.691-.389l5.628-9.246a.808.808,0,0,0-.691-1.226h-.631a.807.807,0,0,0-.691.389Z" transform="translate(-223.107 -131.467)" fill="#2a2a44"/>
      <path id="Path_322" data-name="Path 322" d="M140.182,135.343l-.149-.135a3.489,3.489,0,0,0-2.664-.895,4.163,4.163,0,0,0-3.1,1.32A4.63,4.63,0,0,0,133,138.97a4.533,4.533,0,0,0,1.3,3.291,4.162,4.162,0,0,0,3.123,1.274,3.742,3.742,0,0,0,2.6-.814l.152-.151v.015a.808.808,0,0,0,.808.808h.759a.807.807,0,0,0,.808-.807l.005-7.341a.808.808,0,0,0-.807-.808h-.759a.808.808,0,0,0-.808.807Zm-2.374,6.384a2.771,2.771,0,1,1,2.663-2.767A2.72,2.72,0,0,1,137.808,141.727Z" transform="translate(-105.351 -131.275)" fill="#2a2a44"/>
      <path id="Path_323" data-name="Path 323" d="M265.42,135.343l-.149-.135a3.489,3.489,0,0,0-2.664-.895,4.164,4.164,0,0,0-3.1,1.32,4.63,4.63,0,0,0-1.264,3.336,4.533,4.533,0,0,0,1.3,3.291,4.16,4.16,0,0,0,3.122,1.274,3.743,3.743,0,0,0,2.6-.814l.152-.151v.015a.808.808,0,0,0,.807.808h.759a.808.808,0,0,0,.808-.807l0-7.341a.808.808,0,0,0-.807-.808h-.759a.808.808,0,0,0-.808.807Zm-2.374,6.384a2.771,2.771,0,1,1,2.663-2.767A2.72,2.72,0,0,1,263.046,141.727Z" transform="translate(-185.906 -131.275)" fill="#2a2a44"/>
    </g>
    <g id="Group_342" data-name="Group 342" transform="translate(137.37 53.03)">
      <g id="Group_337" data-name="Group 337" transform="translate(29.837 0)">
        <path id="Path_324" data-name="Path 324" d="M381.629,118.03a32.411,32.411,0,0,1-10.833-1.852l-2.2-1.06s2.479-.86,2.639-.919a30.579,30.579,0,0,0-.44-57.5l-2.2-.76a19.21,19.21,0,0,1,2.595-1.2,33.4,33.4,0,0,1,10.437-1.715,32.5,32.5,0,1,1,0,65Zm-7.615-2.889a30.569,30.569,0,1,0,0-59.223,32.51,32.51,0,0,1,0,59.223Z" transform="translate(-368.597 -53.03)" fill="url(#linear-gradient)"/>
      </g>
      <g id="Group_339" data-name="Group 339" transform="translate(0 46.753)">
        <g id="Group_338" data-name="Group 338">
          <path id="Path_325" data-name="Path 325" d="M307.438,202.317c-6.247,0-14.992-1.771-20.145-6.846a7.185,7.185,0,0,1-2.267-6,5.62,5.62,0,0,1,3.009-4.2c3.514-1.911,9.474-2.051,15.667,3.292.768.663,1.507,1.319,2.235,1.965,3.7,3.288,6.9,6.127,11.914,8.114l2.373.78-2.407,1.028a27.759,27.759,0,0,1-9.66,1.852C307.921,202.315,307.681,202.317,307.438,202.317ZM293.044,186a8.551,8.551,0,0,0-4.087.976,3.687,3.687,0,0,0-2.019,2.77,5.261,5.261,0,0,0,1.71,4.352c4.924,4.849,13.562,6.421,19.465,6.283a24.878,24.878,0,0,0,6.694-.974c-4.072-2.025-7.039-4.661-10.152-7.426-.721-.64-1.453-1.291-2.214-1.947C299.02,187.081,295.74,186,293.044,186Z" transform="translate(-284.97 -184.07)" fill="url(#linear-gradient-2)"/>
        </g>
      </g>
      <g id="Group_341" data-name="Group 341" transform="translate(0 0.001)">
        <g id="Group_340" data-name="Group 340">
          <path id="Path_326" data-name="Path 326" d="M293.048,71.279a10.5,10.5,0,0,1-5.013-1.208,5.619,5.619,0,0,1-3.009-4.2,7.186,7.186,0,0,1,2.267-6c5.353-5.272,14.589-6.975,20.863-6.838a27.771,27.771,0,0,1,9.66,1.852l2.407,1.028s-1.541.5-2.772.946c-4.82,1.761-7.937,4.769-11.515,7.948-.728.646-1.467,1.3-2.235,1.966C299.891,70.067,296.167,71.279,293.048,71.279Zm14.375-16.316c-5.868,0-14.04,1.627-18.775,6.29a5.26,5.26,0,0,0-1.71,4.352,3.686,3.686,0,0,0,2.019,2.769c2.947,1.6,8.037,1.642,13.483-3.057.761-.656,1.493-1.307,2.214-1.947,3.113-2.765,6.08-5.4,10.152-7.427a24.894,24.894,0,0,0-6.694-.973Q307.774,54.963,307.423,54.963Z" transform="translate(-284.97 -53.033)" fill="url(#linear-gradient-3)"/>
        </g>
      </g>
    </g>
  </g>
</svg>
