<?xml version="1.0" encoding="UTF-8"?>
<svg id="Layer_1" xmlns="http://www.w3.org/2000/svg" version="1.1" viewBox="0 0 377.7 55.1">
  <!-- Generator: Adobe Illustrator 29.5.1, SVG Export Plug-In . SVG Version: 2.1.0 Build 141)  -->
  <defs>
    <style>
      .st0 {
        fill: #8e8e8e;
      }

      .st1 {
        fill: #f7f7f7;
      }
    </style>
  </defs>
  <path class="st1" d="M370.7,54.2h-55.4V.9h55.4c3.3,0,5.9,2.6,5.9,5.9v41.5c0,3.3-2.6,5.9-5.9,5.9Z"/>
  <path class="st0" d="M371.6,0H7.7C3.4,0,0,3.5,0,7.7v39.7c0,4.3,3.4,7.7,7.7,7.7h363.8c3.4,0,6.1-2.7,6.1-6.1V6.1C377.6,2.7,374.9,0,371.5,0h.1ZM374.8,49c0,1.8-1.4,3.2-3.2,3.2h-54.3V2.9h54.3c1.8,0,3.2,1.4,3.2,3.2v42.9Z"/>
  <path class="st0" d="M360.3,8v-.2c0-.2-.2-.3-.4-.4h-9.9c-.4,0-.8.3-.8.8s.3.8.8.8h7.8l-7.9,7.9c-1.9-1.7-4.4-2.7-7.2-2.7-6,0-11,4.9-11,11s4.5,10.5,10.2,10.9v5h-6.9c-.4,0-.8.3-.8.8s.3.8.8.8h6.9v6.9c0,.4.3.8.8.8s.8-.3.8-.8v-6.9h6.9c.4,0,.8-.3.8-.8s-.3-.8-.8-.8h-6.9v-5c5.7-.4,10.2-5.1,10.2-10.9s-1-5.3-2.7-7.2l7.9-7.9v7.8c0,.4.3.8.8.8s.8-.3.8-.8v-9.7h0l-.2-.2ZM342.7,34.4c-5.2,0-9.4-4.2-9.4-9.4s4.2-9.4,9.4-9.4,9.4,4.2,9.4,9.4-4.2,9.4-9.4,9.4Z"/>
  <g>
    <path class="st1" d="M33.7,23.3c-.4-1.7-1.4-2.9-2.9-3.6-.9-.4-1.8-.6-2.9-.6-2,0-3.7.8-5,2.3s-1.9,3.8-1.9,6.9.7,5.2,2.1,6.5c1.4,1.3,3,1.9,4.8,1.9s3.2-.5,4.3-1.5c1.1-1,1.8-2.3,2.1-4h-5.8v-4.2h10.4v13.4h-3.5l-.5-3.1c-1,1.2-1.9,2-2.7,2.5-1.4.8-3.1,1.3-5.1,1.3-3.3,0-6-1.1-8.2-3.4-2.2-2.3-3.3-5.5-3.3-9.5s1.1-7.3,3.3-9.7,5.2-3.7,8.8-3.7,5.7.8,7.7,2.4c1.9,1.6,3,3.6,3.3,6h-5.1Z"/>
    <path class="st1" d="M62.4,19.9h-13.2v5.3h12.2v4.3h-12.2v6.4h13.9v4.5h-19V15.5h18.4v4.4Z"/>
    <path class="st1" d="M67,15.5h5.5l9.9,17.5V15.5h4.9v25h-5.2l-10.2-17.8v17.8h-4.9V15.5Z"/>
    <path class="st1" d="M106.9,16.1c1.8.6,3.2,1.6,4.3,3.2.9,1.2,1.5,2.6,1.8,4s.5,2.8.5,4.1c0,3.3-.7,6.1-2,8.5-1.8,3.1-4.6,4.7-8.4,4.7h-10.8V15.5h10.8c1.6,0,2.8.2,3.9.5ZM97.3,19.9v16.3h4.8c2.5,0,4.2-1.2,5.2-3.7.5-1.3.8-2.9.8-4.8s-.4-4.5-1.2-5.9c-.8-1.4-2.4-2-4.8-2h-4.8Z"/>
    <path class="st1" d="M135.8,19.9h-13.2v5.3h12.2v4.3h-12.2v6.4h13.9v4.5h-19V15.5h18.4v4.4Z"/>
    <path class="st1" d="M156.6,16.2c.9.4,1.7,1,2.3,1.7.5.6.9,1.3,1.3,2.1.3.8.5,1.6.5,2.6s-.3,2.4-.9,3.5c-.6,1.1-1.6,2-3,2.4,1.2.5,2,1.1,2.5,2s.7,2.2.7,3.9v1.7c0,1.1,0,1.9.1,2.3.1.6.5,1.1,1,1.4v.6h-5.8c-.2-.6-.3-1-.3-1.3-.1-.7-.2-1.4-.2-2.2v-2.3c0-1.6-.3-2.7-.9-3.2-.5-.5-1.5-.8-3-.8h-5.1v9.8h-5.1V15.5h12c1.7,0,3,.2,3.9.6ZM145.8,19.9v6.7h5.6c1.1,0,2-.1,2.5-.4,1-.5,1.5-1.4,1.5-2.8s-.5-2.5-1.4-3.1c-.5-.3-1.3-.4-2.4-.4h-5.8Z"/>
    <path class="st1" d="M193.8,19.9h-13.2v5.3h12.2v4.3h-12.2v6.4h13.9v4.5h-19V15.5h18.4v4.4Z"/>
    <path class="st1" d="M220.8,33.2c-.4,1.4-1.1,2.6-1.9,3.6l2.9,2.7-2.7,2.8-3-2.9c-.9.6-1.7.9-2.4,1.2-1.1.4-2.5.6-4,.6-3.3,0-6-1-8.1-2.9-2.6-2.3-3.9-5.8-3.9-10.3s1.3-8,4-10.4c2.2-1.9,4.9-2.9,8.1-2.9s6,1,8.2,3c2.5,2.3,3.8,5.6,3.8,9.8s-.3,4.1-.8,5.6ZM211.3,36.6c.3,0,.7-.2,1.2-.4l-2.5-2.4,2.7-2.8,2.5,2.4c.4-.8.7-1.5.8-2.1.2-.9.4-2,.4-3.2,0-2.8-.6-5-1.7-6.5s-2.8-2.3-5-2.3-3.7.7-5,2.2c-1.2,1.5-1.9,3.7-1.9,6.6s.9,5.9,2.7,7.4c1.1,1,2.5,1.4,4.1,1.4s1.2,0,1.7-.2Z"/>
    <path class="st1" d="M225.6,15.5h5.3v15.4c0,1.7.2,3,.6,3.8.6,1.4,2,2.1,4.1,2.1s3.5-.7,4.1-2.1c.4-.8.6-2,.6-3.8v-15.4h5.3v15.4c0,2.7-.4,4.7-1.2,6.2-1.5,2.7-4.5,4.1-8.8,4.1s-7.3-1.4-8.8-4.1c-.8-1.5-1.2-3.6-1.2-6.2v-15.4Z"/>
    <path class="st1" d="M255.5,40.5h-5.2V15.5h5.2v25Z"/>
    <path class="st1" d="M278.5,15.5v4.4h-7.5v20.6h-5.3v-20.6h-7.5v-4.4h20.3Z"/>
    <path class="st1" d="M295.9,15.5h5.9l-8.4,15.6v9.4h-5.2v-9.4l-8.7-15.6h6.2l5.2,10.9,5-10.9Z"/>
  </g>
</svg>