<?xml version="1.0" encoding="UTF-8"?>
<svg id="Layer_1" xmlns="http://www.w3.org/2000/svg" version="1.1" viewBox="0 0 363.5 55.1">
  <!-- Generator: Adobe Illustrator 29.5.1, SVG Export Plug-In . SVG Version: 2.1.0 Build 141)  -->
  <defs>
    <style>
      .st0 {
        fill: #b39567;
      }

      .st1 {
        fill: #f7f7f7;
      }
    </style>
  </defs>
  <path class="st1" d="M357.2,54.9h-56.9V.2h56.9c3.3,0,6.1,2.7,6.1,6.1v42.6c0,3.3-2.7,6.1-6.1,6.1h0Z"/>
  <path class="st0" d="M357.3,0H6C2.7,0,0,2.7,0,6v43c0,3.3,2.7,6,6,6h351.3c3.4,0,6.1-2.7,6.1-6.1V6.1C363.4,2.7,360.7,0,357.3,0ZM360.6,49c0,1.8-1.4,3.2-3.2,3.2h-54.3V2.9h54.3c1.8,0,3.2,1.4,3.2,3.2v42.9Z"/>
  <g>
    <path class="st0" d="M353.6,34.6l-6.8-3.6c-.4-.2-.8,0-1,.3l-.2.5h0l-.4.7c-4.6-3.7-8.8-3.8-12.5-.6l-7.2,2.2c-.6.2-1,.5-1.4.9l-7.3-4.8c-.7-.5-1.7-.7-2.5-.5s-1.5.7-2,1.4c-.9,1.5-.5,3.4.9,4.4l11.9,9c.2,0,.4.2.6,0l12.3-2.4,1.5.8-.5,1c-.2.4,0,.8.3,1l6.8,3.6h.6c.2,0,.3-.2.4-.4l6.8-12.9c.2-.4,0-.8-.3-1v.3ZM352.2,35.6l-6.1,11.5-5.5-2.9,6.1-11.5,5.5,2.9ZM324.8,36.3h.2c.2-.3.5-.6.9-.7l7.3-2.2c.1,0,.2,0,.3-.2,3.2-2.9,6.8-2.7,10.9.7l-4.3,8-1.7-.9c-.1,0-.3,0-.5,0l-12.2,2.3-11.6-8.8c-.8-.6-1-1.6-.5-2.5.2-.4.6-.6,1-.7h.4c.3,0,.7,0,1,.3l7.4,4.9c-.1.5-.1,1.1,0,1.6.5,1.6,2.2,2.5,3.9,2l3.4-1c.4,0,.6-.6.5-1s-.5-.6-.9-.5l-3.4,1c-.8.2-1.7-.2-2-1.1-.1-.4,0-.8,0-1.2h-.2.1Z"/>
    <path class="st0" d="M319,30.5c1.8,1,3.8,1.4,5.9,1.4s2.6-.2,3.9-.6c1-.3,2-.8,2.9-1.4h.1c1.9-1.2,3.4-2.9,4.4-4.9,1.6-3,1.9-6.5.8-9.8-1-3.3-3.3-5.9-6.3-7.5-3-1.6-6.5-1.9-9.8-.8-3.3,1-5.9,3.3-7.5,6.3-3.3,6.3-.8,14.1,5.5,17.3h.1ZM331.4,10.6c-.5.5-.6,1-.8,1.5v.2c-.3.7-.6,1.4-1,2s-.8,1-1.2,1-.8-.1-1.3-.3c-.3-.1-.7-.3-1.1-.4-.9-.2-2,0-2.9.6-.8.5-1.3,1.3-1.6,2.1-.3-.5-.4-1.1-.4-1.6s0-1.1.1-1.7c.1-.9.2-1.8,0-2.7s-.6-1.7-1.3-2.3c.5-.2,1-.4,1.5-.6,1.1-.4,2.3-.5,3.4-.5,1.8,0,3.5.4,5.1,1.2.7.3,1.3.7,1.8,1.2-.2,0-.3.2-.5.4h.2ZM318.5,9.9c.6.4,1,1.1,1.2,1.8.1.7,0,1.4,0,2.2s-.2,1.3-.1,2c0,1.1.5,2.2,1.1,3,.1.2.5.7,1.2.7h0c.7,0,1.2-.5,1.4-1.6,0-.5.4-1,.9-1.3s1.1-.5,1.6-.3c.3,0,.6.2.8.3.6.2,1.3.5,2.1.4.9-.1,1.7-.7,2.4-1.8.5-.8.9-1.6,1.2-2.5v-.2c.1-.3.2-.7.4-.8.1-.1.4-.2.7-.2.6.7,1.2,1.5,1.6,2.4h-.5c-1,0-2,.3-2.8,1s-1.3,1.6-1.4,2.6c0,.8.1,1.4.6,1.9.6.6,1.4.8,2,.8h.4c1,.2,1.8,1.1,1.8,2.2v.9c0,.2-.2.5-.3.7-.8,1.6-2,3-3.4,3.9-.3-.4-.5-1.1-.3-1.7,0-.4.3-.7.6-1.1.4-.5.6-1.2.4-1.8-.2-.6-.6-1.1-1.2-1.3-.5-.2-1.1-.3-1.7-.3s-1.3,0-2,.5c-.3.2-.5.5-.7.8-.3.5-.4.4-.5.4-.2,0-.4-.2-.5-.4-.9-1.1-2.6-1.3-3.8-.6-.4.2-.7.5-1,.8s-.6.6-.9.6-.5,0-.8-.3c-.6-.4-1.1-.9-1.4-1.6-.2-.5-.4-1-.6-1.6l-.2-.5c-.2-.7-.6-1.6-1.2-2.3-.5-.5-1-.9-1.7-1.1.2-1,.5-1.9,1-2.8.8-1.6,2.1-3,3.5-4v.2ZM336,20.2c-.6-.8-1.4-1.4-2.4-1.5h-.5c-.4,0-.9-.1-1-.3-.1-.1-.2-.4-.1-.6,0-.5.3-1.1.8-1.4.5-.4,1-.6,1.5-.6h1.3c.5,1.5.6,3.1.5,4.6v-.2ZM313.7,18.4c.2.1.4.3.6.5.4.5.7,1.2.9,1.8v.5c.3.6.5,1.2.8,1.8.5.9,1.2,1.7,2,2.2.7.4,1.4.6,2,.5.8-.1,1.3-.7,1.8-1.1.2-.2.4-.4.7-.6.5-.3,1.3-.2,1.6.2.4.5.9.8,1.4.9,1.3.3,1.9-.6,2.3-1,.1-.2.3-.3.4-.4.2-.1.4-.2.9-.1.4,0,.9.1,1.3.2h.1v.4c-.5.5-.8,1.1-.9,1.7-.3,1,0,2.1.5,3-3.1,1.6-6.9,1.7-10.2,0-2.7-1.4-4.6-3.7-5.5-6.5-.4-1.3-.6-2.7-.5-4h-.2Z"/>
  </g>
  <g>
    <path class="st1" d="M32.8,29.2c-1.5,1.2-3.6,1.8-6.3,1.8h-5.2v9h-5.2V15h10.7c2.5,0,4.5.6,5.9,1.9,1.5,1.3,2.2,3.3,2.2,6s-.7,5-2.2,6.3ZM28.8,20.2c-.7-.6-1.6-.8-2.8-.8h-4.7v7.4h4.7c1.2,0,2.1-.3,2.8-.9.7-.6,1-1.6,1-2.9s-.3-2.2-1-2.8Z"/>
    <path class="st1" d="M39.1,40.1V15h5.2v9.5h9.7v-9.5h5.2v25h-5.2v-11.2h-9.7v11.2h-5.2Z"/>
    <path class="st1" d="M69.1,40.1h-5.2V15h5.2v25Z"/>
    <path class="st1" d="M74,15h5.2v20.5h12.5v4.5h-17.7V15Z"/>
    <path class="st1" d="M102.4,15h5.9l8.9,25h-5.7l-1.7-5.1h-9.2l-1.7,5.1h-5.5l8.9-25ZM102,30.6h6.4l-3.2-9.9-3.2,9.9Z"/>
    <path class="st1" d="M120.2,15h5.5l9.9,17.5V15h4.9v25h-5.2l-10.2-17.8v17.8h-4.9V15Z"/>
    <path class="st1" d="M163.6,15v4.4h-7.5v20.6h-5.3v-20.6h-7.5v-4.4h20.3Z"/>
    <path class="st1" d="M166.7,40.1V15h5.2v9.5h9.7v-9.5h5.2v25h-5.2v-11.2h-9.7v11.2h-5.2Z"/>
    <path class="st1" d="M207.9,15.7c.9.4,1.7,1,2.3,1.8.5.6.9,1.3,1.3,2.1.3.8.5,1.6.5,2.6s-.3,2.4-.9,3.5c-.6,1.1-1.6,2-3,2.4,1.2.5,2,1.1,2.5,2,.5.9.7,2.2.7,3.9v1.7c0,1.1,0,1.9.1,2.3.1.6.5,1.1,1,1.4v.6h-5.8c-.2-.6-.3-1-.3-1.3-.1-.7-.2-1.4-.2-2.2v-2.3c0-1.6-.3-2.7-.9-3.2-.5-.5-1.5-.8-3-.8h-5.1v9.8h-5.1V15h12c1.7,0,3,.2,3.9.6ZM197,19.4v6.7h5.6c1.1,0,2-.1,2.5-.4,1-.5,1.5-1.4,1.5-2.8s-.5-2.5-1.4-3.1c-.5-.3-1.3-.4-2.4-.4h-5.8Z"/>
    <path class="st1" d="M236.2,37.8c-1.9,1.9-4.6,2.9-8.2,2.9s-6.3-1-8.2-2.9c-2.5-2.4-3.8-5.8-3.8-10.3s1.3-8,3.8-10.3c1.9-1.9,4.6-2.9,8.2-2.9s6.3,1,8.2,2.9c2.5,2.3,3.8,5.7,3.8,10.3s-1.3,7.9-3.8,10.3ZM232.9,34c1.2-1.5,1.8-3.7,1.8-6.5s-.6-5-1.8-6.5-2.9-2.3-4.9-2.3-3.7.8-5,2.3-1.9,3.7-1.9,6.5.6,5,1.9,6.5,2.9,2.3,5,2.3,3.7-.8,4.9-2.3Z"/>
    <path class="st1" d="M260.8,29.2c-1.5,1.2-3.6,1.8-6.3,1.8h-5.2v9h-5.2V15h10.7c2.5,0,4.5.6,5.9,1.9s2.2,3.3,2.2,6-.7,5-2.2,6.3ZM256.8,20.2c-.7-.6-1.6-.8-2.8-.8h-4.7v7.4h4.7c1.2,0,2.1-.3,2.8-.9.7-.6,1-1.6,1-2.9s-.3-2.2-1-2.8Z"/>
    <path class="st1" d="M281.5,15h5.9l-8.4,15.6v9.4h-5.2v-9.4l-8.7-15.6h6.2l5.2,10.9,5-10.9Z"/>
  </g>
</svg>