<?xml version="1.0" encoding="UTF-8"?>
<svg id="Layer_1" xmlns="http://www.w3.org/2000/svg" version="1.1" viewBox="0 0 599.7 55.1">
  <!-- Generator: Adobe Illustrator 29.5.1, SVG Export Plug-In . SVG Version: 2.1.0 Build 141)  -->
  <defs>
    <style>
      .st0 {
        fill-rule: evenodd;
      }

      .st0, .st1 {
        fill: #1f0300;
      }

      .st2 {
        fill: #f7f7f7;
      }
    </style>
  </defs>
  <path class="st2" d="M593.4,55.1h-57.2V0h57.2c3.4,0,6.1,2.7,6.1,6.1v42.9c-.1,3.4-2.8,6.1-6.1,6.1Z"/>
  <path class="st1" d="M593.4,0H8.2C3.7,0,0,3.7,0,8.2v38.6c0,4.6,3.7,8.2,8.2,8.2h585.1c3.4,0,6.1-2.7,6.1-6.1V6.1C599.4,2.7,596.7,0,593.3,0h.1ZM596.6,49c0,1.8-1.4,3.2-3.2,3.2h-54.3V2.9h54.3c1.8,0,3.2,1.4,3.2,3.2v42.9Z"/>
  <path class="st0" d="M588,29.6l-7.2-12.5h0l3.8-.8c.4,0,.7-.5.6-.9s-.5-.7-.9-.6l-4.6.9c-1,.2-2.1,0-3.4-.4-.6-.2-1.2-.5-1.8-.7,0,0-.2,0-.3-.1-.5-.2-1-.4-1.5-.6-1-.4-2.4-.7-4.1-.7v-1.4h.7c.9,0,1.5-1,1.1-1.8l-1.4-2.9c-.4-.9-1.8-.9-2.2,0l-1.5,2.9c-.4.8.2,1.8,1.1,1.8h.7v1.4c-2,0-3.6.4-4.7.9-.3.1-.6.3-1,.4-.8.4-1.6.7-2.4,1-1.1.4-2.2.6-3.1.4l-5-1c-.4,0-.8.2-.9.6,0,.4.2.8.6.9l4.3.9-7.2,12.5v.4c0,1,.2,2.1.6,3.1s1,1.8,1.7,2.6c.7.7,1.6,1.3,2.6,1.7s2,.6,3.1.6,2.1-.2,3.1-.6c1-.4,1.8-1,2.6-1.7.7-.7,1.3-1.6,1.7-2.6s.6-2,.6-3.1v-.4l-7.2-12.2c1.1,0,2.1-.2,3.1-.5.9-.3,1.8-.7,2.6-1.1.3-.1.6-.3.9-.4,1-.4,2.3-.8,4.1-.8v27.6h-5.8c-1,0-1.8.8-1.8,1.8v.8h-.8c-1,0-1.8.8-1.8,1.8v2.3h21v-2.3c0-1-.8-1.8-1.8-1.8h-.3v-.8c0-1-.8-1.8-1.8-1.8h-5.8V14.6c1.5,0,2.7.3,3.5.6.5.2,1,.4,1.5.6,0,0,.2,0,.3.1.6.3,1.3.5,1.9.8,1.1.4,2.4.7,3.6.6l-7.1,12.3v.4c0,1,.2,2.1.6,3.1.4,1,1,1.8,1.7,2.6.7.7,1.6,1.3,2.6,1.7s2,.6,3.1.6,2.1-.2,3.1-.6c1-.4,1.8-1,2.6-1.7.7-.7,1.3-1.6,1.7-2.6s.6-2,.6-3.1v-.4h0ZM561.6,32.5c-.3.8-.8,1.5-1.4,2.1-.6.6-1.3,1.1-2.1,1.4-.8.3-1.6.5-2.5.5s-1.7-.2-2.5-.5-1.5-.8-2.1-1.4c-.6-.6-1.1-1.3-1.4-2.1-.2-.6-.4-1.2-.5-1.8h12.9c0,.6-.2,1.2-.5,1.8h.1ZM561.5,29.2h-11.8l5.9-10.2,5.9,10.2ZM566.9,10.2l1.1-2.1,1,2.1s-2.1,0-2.1,0ZM576.4,46.2c0,0,.3,0,.3.3v.8h-18v-.8c0,0,.1-.3.3-.3h17.5,0ZM574.4,43.7c0,0,.3,0,.3.3v.8h-13.5v-.8c0,0,0-.3.3-.3h13,0ZM580.2,19l5.9,10.2h-11.8l5.9-10.2h0ZM586.1,32.5c-.3.8-.8,1.5-1.4,2.1-.6.6-1.3,1.1-2.1,1.4-.8.3-1.6.5-2.5.5s-1.7-.2-2.5-.5-1.5-.8-2.1-1.4c-.6-.6-1.1-1.3-1.4-2.1-.2-.6-.4-1.2-.5-1.8h12.9c0,.6-.2,1.2-.5,1.8h0Z"/>
  <g>
    <path class="st2" d="M32.2,15.7c.9.4,1.7,1,2.3,1.7.5.6.9,1.3,1.3,2.1.3.8.5,1.6.5,2.6s-.3,2.4-.9,3.5c-.6,1.1-1.6,2-3,2.4,1.2.5,2,1.1,2.5,2s.7,2.2.7,3.9v1.7c0,1.1,0,1.9.1,2.3.1.6.5,1.1,1,1.4v.6h-5.8c-.2-.6-.3-1-.3-1.3-.1-.7-.2-1.4-.2-2.2v-2.3c0-1.6-.3-2.7-.9-3.2-.5-.5-1.5-.8-3-.8h-5.1v9.8h-5.1V15h12c1.7,0,3,.2,3.9.6ZM21.4,19.4v6.7h5.6c1.1,0,2-.1,2.5-.4,1-.5,1.5-1.4,1.5-2.8s-.5-2.5-1.4-3.1c-.5-.3-1.3-.4-2.4-.4h-5.8Z"/>
    <path class="st2" d="M48.5,15h5.9l8.9,25h-5.7l-1.7-5.1h-9.2l-1.7,5.1h-5.5l8.9-25ZM48.1,30.6h6.4l-3.2-9.8-3.2,9.8Z"/>
    <path class="st2" d="M68.8,17.6c2-2.1,4.6-3.1,7.7-3.1s7.2,1.4,9.1,4.1c1.1,1.6,1.6,3.1,1.7,4.7h-5.2c-.3-1.2-.8-2.1-1.3-2.7-.9-1.1-2.3-1.6-4.1-1.6s-3.3.8-4.4,2.3c-1.1,1.5-1.6,3.7-1.6,6.5s.6,4.9,1.7,6.3c1.1,1.4,2.6,2.1,4.3,2.1s3.2-.6,4.1-1.8c.5-.6,1-1.6,1.3-2.9h5.2c-.4,2.7-1.6,4.9-3.4,6.7-1.8,1.7-4.2,2.6-7.1,2.6s-6.4-1.2-8.4-3.5c-2-2.3-3.1-5.5-3.1-9.5s1.2-7.7,3.5-10.1Z"/>
    <path class="st2" d="M96.3,40.1h-5.2V15h5.2v25Z"/>
    <path class="st2" d="M108.4,15h5.9l8.9,25h-5.7l-1.7-5.1h-9.2l-1.7,5.1h-5.5l8.9-25ZM108,30.6h6.4l-3.2-9.8-3.2,9.8Z"/>
    <path class="st2" d="M126.3,15h5.2v20.5h12.5v4.5h-17.7V15Z"/>
    <path class="st2" d="M162.5,15h5.9l8.9,25h-5.7l-1.7-5.1h-9.2l-1.7,5.1h-5.5l8.9-25ZM162.2,30.6h6.4l-3.2-9.8-3.2,9.8Z"/>
    <path class="st2" d="M180.4,15h5.5l9.9,17.5V15h4.9v25h-5.2l-10.2-17.8v17.8h-4.9V15Z"/>
    <path class="st2" d="M220.2,15.6c1.8.6,3.2,1.6,4.3,3.2.9,1.2,1.5,2.6,1.8,4s.5,2.8.5,4.1c0,3.3-.7,6.1-2,8.5-1.8,3.1-4.6,4.7-8.4,4.7h-10.8V15h10.8c1.6,0,2.8.2,3.9.5ZM210.7,19.4v16.3h4.8c2.5,0,4.2-1.2,5.2-3.7.5-1.3.8-2.9.8-4.8s-.4-4.5-1.2-5.9c-.8-1.4-2.4-2-4.8-2h-4.8Z"/>
    <path class="st2" d="M244.1,32.3c.2,1.1.5,2,1,2.6.9,1,2.4,1.5,4.5,1.5s2.3-.1,3.1-.4c1.5-.5,2.2-1.5,2.2-2.9s-.4-1.5-1.1-1.9c-.7-.4-1.9-.8-3.5-1.2l-2.7-.6c-2.7-.6-4.5-1.2-5.5-1.9-1.7-1.2-2.5-3-2.5-5.4s.8-4.1,2.5-5.6c1.7-1.5,4.1-2.2,7.3-2.2s4.9.7,6.8,2.1,2.9,3.4,3,6.1h-5c0-1.5-.8-2.6-2-3.2-.8-.4-1.9-.6-3.1-.6s-2.5.3-3.3.8c-.8.5-1.2,1.3-1.2,2.3s.4,1.6,1.2,2c.5.3,1.6.6,3.3,1l4.4,1c1.9.5,3.4,1.1,4.3,1.8,1.5,1.2,2.2,2.9,2.2,5.1s-.9,4.2-2.7,5.7c-1.8,1.5-4.3,2.3-7.5,2.3s-5.9-.7-7.8-2.2c-1.9-1.5-2.8-3.5-2.8-6.1h5Z"/>
    <path class="st2" d="M282.8,37.8c-1.9,1.9-4.6,2.9-8.2,2.9s-6.3-1-8.2-2.9c-2.5-2.4-3.8-5.8-3.8-10.3s1.3-8,3.8-10.3c1.9-1.9,4.6-2.9,8.2-2.9s6.3,1,8.2,2.9c2.5,2.3,3.8,5.7,3.8,10.3s-1.3,7.9-3.8,10.3ZM279.6,34c1.2-1.5,1.8-3.7,1.8-6.5s-.6-5-1.8-6.5c-1.2-1.5-2.9-2.3-4.9-2.3s-3.7.8-5,2.3c-1.2,1.5-1.9,3.7-1.9,6.5s.6,5,1.9,6.5c1.2,1.5,2.9,2.3,5,2.3s3.7-.8,4.9-2.3Z"/>
    <path class="st2" d="M293,17.6c2-2.1,4.6-3.1,7.7-3.1s7.2,1.4,9.1,4.1c1.1,1.6,1.6,3.1,1.7,4.7h-5.2c-.3-1.2-.8-2.1-1.3-2.7-.9-1.1-2.3-1.6-4.1-1.6s-3.3.8-4.4,2.3c-1.1,1.5-1.6,3.7-1.6,6.5s.6,4.9,1.7,6.3c1.1,1.4,2.6,2.1,4.3,2.1s3.2-.6,4.1-1.8c.5-.6,1-1.6,1.3-2.9h5.2c-.4,2.7-1.6,4.9-3.4,6.7-1.8,1.7-4.2,2.6-7.1,2.6s-6.4-1.2-8.4-3.5c-2-2.3-3.1-5.5-3.1-9.5s1.2-7.7,3.5-10.1Z"/>
    <path class="st2" d="M320.5,40.1h-5.2V15h5.2v25Z"/>
    <path class="st2" d="M332.6,15h5.9l8.9,25h-5.7l-1.7-5.1h-9.2l-1.7,5.1h-5.5l8.9-25ZM332.2,30.6h6.4l-3.2-9.8-3.2,9.8Z"/>
    <path class="st2" d="M350.5,15h5.2v20.5h12.5v4.5h-17.7V15Z"/>
    <path class="st2" d="M383.9,30.6v.6c0,1.9.2,3.3.6,4.1.4.8,1.1,1.2,2.3,1.2s1.9-.4,2.3-1.3c.2-.5.3-1.4.3-2.6V15h5.2v17.4c0,2.1-.4,3.8-1.1,5.1-1.2,2.1-3.4,3.2-6.6,3.2s-5.3-.9-6.4-2.6-1.6-4-1.6-7v-.6h4.9Z"/>
    <path class="st2" d="M400.2,15h5.3v15.4c0,1.7.2,3,.6,3.8.6,1.4,2,2.1,4.1,2.1s3.5-.7,4.1-2.1c.4-.8.6-2,.6-3.8v-15.4h5.3v15.4c0,2.7-.4,4.7-1.2,6.2-1.5,2.7-4.5,4.1-8.8,4.1s-7.3-1.4-8.8-4.1c-.8-1.5-1.2-3.6-1.2-6.2v-15.4Z"/>
    <path class="st2" d="M429,32.3c.2,1.1.5,2,1,2.6.9,1,2.4,1.5,4.5,1.5s2.3-.1,3.1-.4c1.5-.5,2.2-1.5,2.2-2.9s-.4-1.5-1.1-1.9c-.7-.4-1.9-.8-3.5-1.2l-2.7-.6c-2.7-.6-4.5-1.2-5.5-1.9-1.7-1.2-2.5-3-2.5-5.4s.8-4.1,2.5-5.6c1.7-1.5,4.1-2.2,7.3-2.2s4.9.7,6.8,2.1,2.9,3.4,3,6.1h-5c0-1.5-.8-2.6-2-3.2-.8-.4-1.9-.6-3.1-.6s-2.5.3-3.3.8c-.8.5-1.2,1.3-1.2,2.3s.4,1.6,1.2,2c.5.3,1.6.6,3.3,1l4.4,1c1.9.5,3.4,1.1,4.3,1.8,1.5,1.2,2.2,2.9,2.2,5.1s-.9,4.2-2.7,5.7c-1.8,1.5-4.3,2.3-7.5,2.3s-5.9-.7-7.8-2.2c-1.9-1.5-2.8-3.5-2.8-6.1h5Z"/>
    <path class="st2" d="M466.7,15v4.4h-7.5v20.6h-5.3v-20.6h-7.5v-4.4h20.3Z"/>
    <path class="st2" d="M474.5,40.1h-5.2V15h5.2v25Z"/>
    <path class="st2" d="M481.8,17.6c2-2.1,4.6-3.1,7.7-3.1s7.2,1.4,9.1,4.1c1.1,1.6,1.6,3.1,1.7,4.7h-5.2c-.3-1.2-.8-2.1-1.3-2.7-.9-1.1-2.3-1.6-4.1-1.6s-3.3.8-4.4,2.3c-1.1,1.5-1.6,3.7-1.6,6.5s.6,4.9,1.7,6.3c1.1,1.4,2.6,2.1,4.3,2.1s3.2-.6,4.1-1.8c.5-.6,1-1.6,1.3-2.9h5.2c-.4,2.7-1.6,4.9-3.4,6.7-1.8,1.7-4.2,2.6-7.1,2.6s-6.4-1.2-8.4-3.5c-2-2.3-3.1-5.5-3.1-9.5s1.2-7.7,3.5-10.1Z"/>
    <path class="st2" d="M523,19.4h-13.2v5.3h12.2v4.3h-12.2v6.4h13.9v4.5h-19V15h18.4v4.4Z"/>
  </g>
</svg>