<?xml version="1.0" encoding="UTF-8"?>
<svg id="Layer_1" xmlns="http://www.w3.org/2000/svg" version="1.1" viewBox="0 0 454.7 499.9">
  <!-- Generator: Adobe Illustrator 29.3.1, SVG Export Plug-In . SVG Version: 2.1.0 Build 151)  -->
  <defs>
    <style>
      .st0 {
        fill: #fff;
      }

      .st1 {
        fill: #453d3a;
      }
    </style>
  </defs>
  <g>
    <path class="st1" d="M203.7,99.6c1.9.4,4.1,0,6.4-.8,1.7-.6,3.3-1.3,4.9-2,.7-.3,1.3-.6,2-.9,2.4-1,5.6-1.8,9.8-1.9v-2.9h-1.4c-1.9,0-3.2-2.1-2.3-3.8l3.1-6c1-1.9,3.7-1.8,4.6,0l2.9,6c.8,1.7-.4,3.7-2.3,3.7h-1.5v2.9c3.5.1,6.2.7,8.4,1.5,1,.4,2.1.8,3.2,1.3.2,0,.4.2.6.2,1.3.5,2.6,1.1,3.8,1.5,2.6.9,4.9,1.3,7,.9l6.4-1.3-15.6-26.1c-7-11.7-24-11.7-31,0l-15.7,26.2,6.8,1.4h0Z"/>
    <path class="st1" d="M241.4,134c.7,1.6,1.7,3.1,2.9,4.4s2.7,2.2,4.4,2.9c1.6.7,3.4,1,5.1,1s3.5-.3,5.1-1c1.6-.7,3.1-1.7,4.4-2.9,1.2-1.2,2.2-2.7,2.9-4.4.5-1.2.8-2.4.9-3.7h-26.6c.1,1.3.4,2.5.9,3.7h0Z"/>
    <path class="st1" d="M246,162.5h-36.3c-.3,0-.5.2-.5.5v1.6h37.3v-1.6c0-.3-.2-.5-.5-.5h0Z"/>
    <polygon class="st1" points="241.6 127.3 266 127.3 253.8 106.1 241.6 127.3"/>
    <path class="st1" d="M241.8,157.3h-26.9c-.3,0-.5.2-.5.5v1.6h28v-1.6c0-.3-.2-.5-.5-.5h0Z"/>
    <path class="st1" d="M206.1,163c0-2,1.6-3.6,3.6-3.6h1.6v-1.6c0-2,1.6-3.6,3.6-3.6h11.9v-57.2c-3.8.1-6.6.8-8.6,1.7-.6.2-1.2.5-1.8.8-1.7.8-3.5,1.6-5.3,2.2-2,.7-4.2,1.2-6.4,1.1l14.6,25.3.2.4v.4c0,2.2-.4,4.3-1.3,6.3s-2,3.8-3.6,5.4c-1.5,1.5-3.4,2.8-5.4,3.6s-4.1,1.2-6.3,1.2-4.3-.4-6.3-1.2c-2-.8-3.8-2.1-5.4-3.6-1.5-1.5-2.8-3.4-3.6-5.4s-1.3-4.1-1.3-6.3v-.4l.2-.4,14.9-25.8-6.4-1.3-53.9,90c-1.9,3.1,2,6.4,4.8,4,16.8-14.2,37.4-24,60-27.9v-4.1h0Z"/>
    <path class="st1" d="M315.5,192.2l-54.6-91.2-5.8,1.2h0c0,0,15,26,15,26l.2.4v.4c0,2.2-.4,4.3-1.3,6.3-.8,2-2,3.8-3.6,5.4-1.5,1.5-3.4,2.8-5.4,3.6s-4.1,1.2-6.3,1.2-4.3-.4-6.3-1.2c-2-.8-3.8-2.1-5.4-3.6-1.5-1.5-2.8-3.4-3.6-5.4s-1.3-4.1-1.3-6.3v-.4l.2-.4,14.7-25.5c-2.5.2-5-.4-7.4-1.2-1.4-.5-2.7-1-4-1.6-.2,0-.4-.2-.6-.2-1.1-.4-2.1-.9-3-1.2-1.8-.7-4.2-1.2-7.3-1.3v57.2h11.9c2,0,3.6,1.6,3.6,3.6v1.6h.5c2,0,3.6,1.6,3.6,3.6v4.2c23.1,4,44.1,14.3,61.1,29,2.7,2.4,6.7-.9,4.8-4h0Z"/>
    <polygon class="st1" points="190.8 127.3 215.3 127.3 203.1 106.1 190.8 127.3"/>
    <path class="st1" d="M190.7,134c.7,1.6,1.7,3.1,2.9,4.4s2.7,2.2,4.4,2.9c1.6.7,3.4,1,5.1,1s3.5-.3,5.1-1c1.6-.7,3.1-1.7,4.4-2.9s2.2-2.7,2.9-4.4c.5-1.2.8-2.4.9-3.7h-26.6c.1,1.3.4,2.5.9,3.7h0Z"/>
    <polygon class="st1" points="228.5 83.6 226.3 87.9 230.6 87.9 228.5 83.6"/>
  </g>
  <g>
    <path class="st1" d="M33.1,380.6c0,11.7,9.5,21.2,21.2,21.2s21.2-9.5,21.2-21.2-9.5-21.2-21.2-21.2-21.2,9.5-21.2,21.2Z"/>
    <path class="st1" d="M54.2,355.4c6.2,0,11.9,2.3,16.3,6l17.1-17.1h-17.1c-1.1,0-2.1-.9-2.1-2s.9-2,2.1-2h21.9c-2.4-9.9-3.8-20.1-3.8-30.8s.9-17.7,2.7-26.1c.7-3.5-4-5.3-5.8-2.3l-48.5,80.9c4.5-4.1,10.5-6.6,17-6.6h0Z"/>
    <path class="st1" d="M52.2,436v-15.5h-15.5c-1.1,0-2-.9-2-2s.9-2,2-2h15.5v-10.7c-13-1-23.2-11.9-23.2-25.2s.3-4.2.8-6.1l-20.5,34.2c-7.2,12,1.5,27.4,15.5,27.4h27.4,0Z"/>
    <path class="st1" d="M175.9,429.9c-38.6-12.7-68.9-43.4-81.2-82.2v16.5c0,1.1-.9,2-2.1,2s-2.1-.9-2.1-2v-17.1l-17.1,17.1c3.8,4.4,6,10.1,6,16.3,0,13.2-10.2,24.1-23.2,25.2v10.7h15.4c1.1,0,2.1.9,2.1,2s-.9,2-2.1,2h-15.5v15.5h118.6c3.6,0,4.4-5,1-6.2h0Z"/>
  </g>
  <g>
    <circle class="st1" cx="384.6" cy="381.2" r="7.9"/>
    <path class="st1" d="M355,380.9c4.4,0,7.9-3.6,7.9-7.9s-3.6-7.9-7.9-7.9-2.3.3-3.3.8c-1.4,2.8-2.9,5.6-4.5,8.3.5,3.9,3.8,6.9,7.8,6.9h0Z"/>
    <circle class="st1" cx="414.1" cy="373" r="7.9"/>
    <path class="st1" d="M360.8,393h-11.5c-3.8,0-7,3.1-7,7v8h25.4v-8c0-3.8-3.1-7-7-7h0Z"/>
    <path class="st1" d="M419.9,393h-11.5c-3.8,0-7,3.1-7,7v8h25.4v-8c0-3.8-3.1-7-7-7h0Z"/>
    <path class="st1" d="M390.3,401.2h-11.5c-3.8,0-7,3.1-7,7v8h25.4v-8c0-3.8-3.1-7-7-7h0Z"/>
    <path class="st1" d="M445.1,408.7l-19.5-32.5c-1.4,5.1-6.1,8.9-11.6,8.9s-12-5.4-12-12,5.4-12,12-12,1.8.1,2.7.3l-13.2-22-20.2,20.3-10.2-10.2c-.8-.8-.8-2.1,0-2.9s2.1-.8,2.9,0l7.3,7.3,18.1-18.1-33.7-56.3c-1.9-3.1-6.6-1.2-5.8,2.4,2,8.9,3.1,18.2,3.1,27.7,0,18.4-3.9,35.8-11,51.6.4,0,.7,0,1.1,0,6.6,0,12,5.4,12,12s-5.4,12-12,12-8.6-2.6-10.6-6.4c-15.6,23.9-39,42.2-66.5,51.3-3.4,1.1-2.6,6.2,1,6.2h150.8c14,0,22.7-15.3,15.5-27.4h0ZM384.6,369.2c6.6,0,12,5.4,12,12s-5.4,12-12,12-12-5.4-12-12,5.4-12,12-12ZM430.9,412.1h-29.5v8.2h-33.6v-8.2h-29.5v-12.1c0-6.1,5-11,11-11h11.5c6,0,10.9,4.8,11,10.7,1.9-1.5,4.3-2.5,7-2.5h11.5c2.6,0,5.1.9,7,2.5.2-5.9,5-10.7,11-10.7h11.5c6.1,0,11,5,11,11v12.1h0Z"/>
  </g>
  <g>
    <polygon class="st1" points="216.4 330.1 183.4 329.7 179 329.7 178.8 350.8 221.5 351.3 221.8 330.2 216.4 330.1 216.4 330.1"/>
    <path class="st1" d="M185.2,319.5v6.8c0,0,29.8.4,29.8.4,3.9-17.2-.8-27.9-14.2-32.9-.2,0-.5-.2-.6-.4l-16.9-17.4c-1.1-1.1-2.5-1.7-4-1.7h-.3c-1.4,0-2.8.6-3.9,1.6-2.2,2.2-2.3,5.8-.1,8l7.8,8c.6.7.6,1.7,0,2.3-.6.7-1.7.7-2.4,0l-7.8-8c-3.5-3.6-3.4-9.4.2-12.9,1.3-1.2,2.9-2.1,4.6-2.4l3.1-28.5c.2-1.7-.4-3.4-1.5-4.8-1-1.2-2.4-1.9-4-2.1-3.4-.2-6.4,2.3-6.9,5.7l-7.9,45.8,24.6,31.3c.2.3.4.7.4,1.1h0Z"/>
    <path class="st1" d="M207.4,279.4c1.4-2.9,4.2-5.3,7.6-6,1.9-.4,3.9-.4,6,.1.5.1,1.1,0,1.5-.4.2-.2.5-.6.4-1.2-.2-1.4-.7-2.8-1.2-4.1-.6-1.4-1.2-2.2-2-2.6-.5-.2-1.2-.4-1.9-.5-1.8-.3-4.8-.8-5.7-4.4-.4-1.5-.2-3.2.5-4.9.8-2,0-4.6-2-5.7-.7-.4-1.7-.8-2.7-1.1-1.9-.6-4-1.3-5.4-3.2-1.1-1.5-1.5-3.5-1.3-5.9.3-3.1,1.4-6.1,3.2-8.7,1.2-1.7,2.7-3.1,4.1-4.5.4-.4.8-.7,1.1-1.1,1.4-1.4,3-3.2,3.9-5.2.5-1.2.6-2.6.5-3.7-13,5.4-22.2,18.3-22.2,33.3s6.2,23.2,15.7,29.8h0Z"/>
    <path class="st1" d="M251.8,271.5c0-.2-.2-.4-.2-.6-.7-1.7-2.2-3.1-4.2-3.9-1.9-.8-4-.8-5.7,0-1,.4-1.7,1.1-2,1.7-.4,1,.1,2.4.6,3.8.2.5.3,1,.5,1.4,1,3.5.3,7.1-1.7,10,5.6-1.9,10.6-5.1,14.7-9.2-.3-.3-.6-.6-.9-1-.5-.7-.8-1.5-1-2.1h0Z"/>
    <path class="st1" d="M212.3,228c-.4.4-.8.8-1.2,1.1-1.4,1.3-2.6,2.6-3.7,4-1.4,2-2.3,4.3-2.5,6.7-.1,1.4,0,2.5.6,3.2.7.9,2,1.3,3.4,1.8,1.2.4,2.4.8,3.5,1.5,3.6,2.2,5.2,6.9,3.6,10.6-.3.6-.5,1.6-.3,2.5.2.9.5,1.1,2.4,1.4.9.1,2,.3,3,.8,2.1,1,3.2,3.1,3.9,4.6.7,1.6,1.2,3.3,1.5,5,.3,1.8-.3,3.5-1.6,4.8-1.4,1.3-3.3,1.8-5.1,1.4-1.5-.4-2.9-.4-4.2,0-2.3.5-4.2,2.1-5,4,0,0,0,.2.1.3,5,2.6,10.7,4.2,16.8,4.2s1.9,0,2.9-.1h0s2.4-1.4,2.4-1.4c3.3-1.9,5-5.7,3.9-9.1-.1-.5-.3-.9-.4-1.3-.6-1.9-1.5-4.2-.6-6.5.6-1.7,2.1-3.1,4.1-4,2.7-1.1,5.9-1.1,8.8,0,2.9,1.2,5.2,3.4,6.4,6,.1.2.2.5.3.8.2.5.4.9.6,1.2,0,.1.2.2.2.2,2.2-2.8,4-6,5.2-9.4-.7-1-1.4-1.8-2.2-2.1-.8-.3-1.9,0-3.1.2h-.6c-2.8.6-5.7.7-8.5.4-3.8-.4-6.5-1.8-8-4-1.4-1.9-1.6-4.2-1.8-6.2-.1-1-.2-2-.4-2.9-.5-1.8-1.8-3.3-3.6-4.3s-3.8-1.2-5.6-.7c-1.1.3-4.4,1.4-5.8-1.3-.8-1.6,0-3.2.3-3.8,1.5-2.9,3.9-5.5,6.7-7.2,1.9-1.1,3.9-1.9,5.9-2.6,2.4-.9,4.6-1.7,6.4-3.1,2.1-1.6,3.4-4.1,3.6-6.7-5.1-2.8-11-4.4-17.2-4.4s-6.9.5-10.1,1.5c.5,2.1.3,4.4-.6,6.6-1.1,2.7-3,4.8-4.7,6.5h0Z"/>
    <path class="st1" d="M236.2,231.5c-1.9.7-3.6,1.3-5.2,2.2-2.1,1.2-3.9,3.1-5,5.2.2,0,.4-.1.6-.2,2.8-.9,5.9-.5,8.7,1,2.7,1.5,4.7,4,5.5,6.8.3,1.2.4,2.4.5,3.6.2,1.7.3,3.2,1.1,4.3.9,1.2,2.6,2,5.2,2.3,2.4.3,4.9.2,7.4-.2h.5c1.5-.4,3.3-.7,5.1-.1.9.3,1.7.8,2.3,1.4.6-2.6,1-5.3,1-8.1,0-12.1-6-22.9-15.3-29.4-.7,2.9-2.4,5.6-4.8,7.5-2.3,1.9-5,2.8-7.6,3.8h0Z"/>
    <path class="st1" d="M280.5,235.7c-1.6.1-3,.8-4,2.1-1.1,1.3-1.6,3-1.5,4.8l3.1,28.5c1.8.3,3.4,1.2,4.6,2.4,3.6,3.5,3.7,9.3.2,12.9l-7.8,8s0,0-.1.1c-.7.6-1.8.6-2.4-.1-.6-.7-.6-1.8.1-2.4l7.8-8c2.2-2.3,2.1-5.9-.1-8.1-1-1-2.4-1.6-3.9-1.6h-.3c-1.5,0-2.9.6-4,1.7l-16.9,17.4c-.2.2-.4.3-.6.4-13.4,5-18.1,15.7-14.2,32.9l29.9-.4v-6.8c0-.4,0-.8.3-1.1l24.6-31.3-7.9-45.7c-.5-3.4-3.5-5.9-6.9-5.7h0Z"/>
    <polygon class="st1" points="239.1 330.1 239.1 330.1 233.7 330.2 234 351.3 276.7 350.8 276.5 329.7 272.1 329.7 239.1 330.1"/>
    <path class="st1" d="M227.8,177.1c-69.7,0-126.2,56.5-126.2,126.2s56.5,126.2,126.2,126.2,126.2-56.5,126.2-126.2-56.5-126.2-126.2-126.2h0ZM227.8,209.5c22.1,0,40.1,18,40.1,40.1s-18,40.1-40.1,40.1-14.1-2-20.1-5.4c0,0,0,0-.1,0,0,0,0,0,0,0-11.9-7-19.9-19.9-19.9-34.6,0-22.1,18-40.1,40.1-40.1h0ZM175.3,352.5l.3-24.5c0-.9.8-1.7,1.7-1.7h4.4s0-6.2,0-6.2l-24.7-31.4c-.3-.4-.4-.9-.3-1.4l8-46.5c.8-5.1,5.3-8.8,10.5-8.5,2.5.1,4.8,1.3,6.4,3.2,1.7,2,2.5,4.7,2.3,7.3l-3,28.1c1.9.3,3.6,1.2,4.9,2.6l16.6,17.1c14.6,5.6,20,17.7,16.1,36h5c.9,0,1.7.8,1.7,1.8l-.3,24.5c0,.9-.8,1.7-1.7,1.7h0l-46.2-.6c-.9,0-1.7-.8-1.7-1.7h0ZM298.4,288.6l-24.7,31.4v6.2c0,0,4.4,0,4.4,0h0c.9,0,1.7.8,1.7,1.7l.3,24.5c0,.9-.7,1.7-1.7,1.7l-46.2.6h0c-.9,0-1.7-.8-1.7-1.7l-.3-24.5c0-.9.8-1.7,1.7-1.7h5c-3.9-18.4,1.5-30.5,16.1-36.1l16.6-17.1c1.3-1.4,3-2.3,4.9-2.6l-3-28.1c-.3-2.6.5-5.3,2.3-7.3,1.6-1.9,3.9-3.1,6.4-3.3,5.2-.3,9.7,3.4,10.5,8.5l8,46.5c0,.5,0,1-.3,1.4h0Z"/>
  </g>
  <g>
    <path class="st1" d="M33.1,458.8c-.2-.8-.6-1.3-1.3-1.7-.4-.2-.8-.3-1.3-.3-.9,0-1.7.4-2.3,1.1-.6.7-.9,1.8-.9,3.2s.3,2.4,1,3c.6.6,1.4.9,2.2.9s1.5-.2,2-.7c.5-.5.8-1.1,1-1.8h-2.7v-1.9h4.8v6.2h-1.6l-.2-1.4c-.5.5-.9.9-1.3,1.2-.6.4-1.4.6-2.4.6-1.5,0-2.8-.5-3.8-1.6-1-1.1-1.5-2.5-1.5-4.4s.5-3.4,1.5-4.5,2.4-1.7,4.1-1.7,2.6.4,3.5,1.1,1.4,1.7,1.5,2.8h-2.4Z"/>
    <path class="st1" d="M46.4,457.2h-6.1v2.5h5.6v2h-5.6v3h6.4v2.1h-8.8v-11.6h8.5v2Z"/>
    <path class="st1" d="M48.5,455.2h2.5l4.6,8.1v-8.1h2.3v11.6h-2.4l-4.7-8.2v8.2h-2.3v-11.6Z"/>
    <path class="st1" d="M66.9,455.4c.8.3,1.5.8,2,1.5.4.6.7,1.2.8,1.9.1.7.2,1.3.2,1.9,0,1.5-.3,2.8-.9,3.9-.8,1.4-2.1,2.2-3.9,2.2h-5v-11.6h5c.7,0,1.3,0,1.8.3ZM62.5,457.2v7.5h2.2c1.1,0,1.9-.6,2.4-1.7.2-.6.4-1.4.4-2.2s-.2-2.1-.6-2.7-1.1-.9-2.2-.9h-2.2Z"/>
    <path class="st1" d="M80.3,457.2h-6.1v2.5h5.6v2h-5.6v3h6.4v2.1h-8.8v-11.6h8.5v2Z"/>
    <path class="st1" d="M89.9,455.5c.4.2.8.5,1.1.8.2.3.4.6.6,1,.1.4.2.8.2,1.2s-.1,1.1-.4,1.6c-.3.5-.7.9-1.4,1.1.5.2.9.5,1.1.9.2.4.3,1,.3,1.8v.8c0,.5,0,.9,0,1.1,0,.3.2.5.4.7v.3h-2.7c0-.3-.1-.5-.2-.6,0-.3,0-.7-.1-1v-1.1c0-.7-.2-1.2-.4-1.5-.2-.2-.7-.4-1.4-.4h-2.4v4.5h-2.4v-11.6h5.5c.8,0,1.4.1,1.8.3ZM84.9,457.2v3.1h2.6c.5,0,.9,0,1.2-.2.5-.2.7-.7.7-1.3s-.2-1.2-.7-1.4c-.2-.1-.6-.2-1.1-.2h-2.7Z"/>
    <path class="st1" d="M107.1,457.2h-6.1v2.5h5.6v2h-5.6v3h6.4v2.1h-8.8v-11.6h8.5v2Z"/>
    <path class="st1" d="M119.5,463.4c-.2.7-.5,1.2-.9,1.7l1.3,1.2-1.3,1.3-1.4-1.3c-.4.3-.8.4-1.1.5-.5.2-1.1.3-1.9.3-1.5,0-2.8-.4-3.7-1.3-1.2-1.1-1.8-2.7-1.8-4.8s.6-3.7,1.8-4.8c1-.9,2.2-1.3,3.7-1.3s2.8.5,3.8,1.4c1.2,1.1,1.8,2.6,1.8,4.5s-.1,1.9-.4,2.6ZM115.2,464.9c.1,0,.3-.1.5-.2l-1.2-1.1,1.2-1.3,1.2,1.1c.2-.4.3-.7.4-1,.1-.4.2-.9.2-1.5,0-1.3-.3-2.3-.8-3-.5-.7-1.3-1.1-2.3-1.1s-1.7.3-2.3,1-.9,1.7-.9,3.1.4,2.7,1.2,3.4c.5.4,1.2.7,1.9.7s.5,0,.8-.1Z"/>
    <path class="st1" d="M121.8,455.2h2.5v7.1c0,.8,0,1.4.3,1.7.3.6.9,1,1.9,1s1.6-.3,1.9-1c.2-.4.3-.9.3-1.7v-7.1h2.5v7.1c0,1.2-.2,2.2-.6,2.9-.7,1.3-2.1,1.9-4.1,1.9s-3.4-.6-4.1-1.9c-.4-.7-.6-1.6-.6-2.9v-7.1Z"/>
    <path class="st1" d="M135.6,466.7h-2.4v-11.6h2.4v11.6Z"/>
    <path class="st1" d="M146.2,455.2v2h-3.5v9.5h-2.4v-9.5h-3.5v-2h9.4Z"/>
    <path class="st1" d="M154.2,455.2h2.7l-3.9,7.2v4.3h-2.4v-4.3l-4-7.2h2.8l2.4,5,2.3-5Z"/>
  </g>
  <g>
    <path class="st1" d="M154.5,15.7c.4.2.8.5,1.1.8.2.3.4.6.6,1s.2.8.2,1.2-.1,1.1-.4,1.6c-.3.5-.7.9-1.4,1.1.5.2.9.5,1.1.9.2.4.3,1,.3,1.8v.8c0,.5,0,.9,0,1.1,0,.3.2.5.4.7v.3h-2.7c0-.3-.1-.5-.2-.6,0-.3,0-.7-.1-1v-1.1c0-.7-.2-1.2-.4-1.5-.2-.2-.7-.4-1.4-.4h-2.4v4.5h-2.4v-11.6h5.5c.8,0,1.4.1,1.8.3ZM149.5,17.5v3.1h2.6c.5,0,.9,0,1.2-.2.5-.2.7-.7.7-1.3s-.2-1.2-.7-1.4c-.2-.1-.6-.2-1.1-.2h-2.7Z"/>
    <path class="st1" d="M162,15.4h2.7l4.1,11.6h-2.6l-.8-2.4h-4.3l-.8,2.4h-2.5l4.1-11.6ZM161.9,22.6h3l-1.5-4.5-1.5,4.5Z"/>
    <path class="st1" d="M171.4,16.7c.9-1,2.1-1.4,3.6-1.4s3.3.6,4.2,1.9c.5.7.8,1.4.8,2.2h-2.4c-.2-.6-.4-1-.6-1.3-.4-.5-1.1-.8-1.9-.8s-1.5.4-2,1.1-.7,1.7-.7,3,.3,2.3.8,2.9c.5.6,1.2,1,2,1s1.5-.3,1.9-.8c.2-.3.4-.7.6-1.3h2.4c-.2,1.3-.7,2.3-1.6,3.1-.9.8-1.9,1.2-3.3,1.2s-2.9-.5-3.9-1.6c-.9-1.1-1.4-2.5-1.4-4.4s.5-3.6,1.6-4.7Z"/>
    <path class="st1" d="M184.1,27h-2.4v-11.6h2.4v11.6Z"/>
    <path class="st1" d="M189.7,15.4h2.7l4.1,11.6h-2.6l-.8-2.4h-4.3l-.8,2.4h-2.5l4.1-11.6ZM189.5,22.6h3l-1.5-4.5-1.5,4.5Z"/>
    <path class="st1" d="M198,15.4h2.4v9.5h5.8v2.1h-8.2v-11.6Z"/>
    <path class="st1" d="M214.7,15.4h2.7l4.1,11.6h-2.6l-.8-2.4h-4.3l-.8,2.4h-2.5l4.1-11.6ZM214.5,22.6h3l-1.5-4.5-1.5,4.5Z"/>
    <path class="st1" d="M223,15.4h2.5l4.6,8.1v-8.1h2.3v11.6h-2.4l-4.7-8.2v8.2h-2.3v-11.6Z"/>
    <path class="st1" d="M241.4,15.7c.8.3,1.5.8,2,1.5.4.6.7,1.2.8,1.9.1.7.2,1.3.2,1.9,0,1.5-.3,2.8-.9,3.9-.8,1.4-2.1,2.2-3.9,2.2h-5v-11.6h5c.7,0,1.3,0,1.8.3ZM236.9,17.5v7.5h2.2c1.1,0,1.9-.6,2.4-1.7.2-.6.4-1.4.4-2.2s-.2-2.1-.6-2.7c-.4-.6-1.1-.9-2.2-.9h-2.2Z"/>
    <path class="st1" d="M252.4,23.4c0,.5.2.9.4,1.2.4.5,1.1.7,2.1.7s1.1,0,1.4-.2c.7-.2,1-.7,1-1.3s-.2-.7-.5-.9c-.3-.2-.9-.4-1.6-.5l-1.3-.3c-1.2-.3-2.1-.6-2.5-.9-.8-.5-1.2-1.4-1.2-2.5s.4-1.9,1.1-2.6c.8-.7,1.9-1,3.4-1s2.3.3,3.2,1c.9.6,1.3,1.6,1.4,2.8h-2.3c0-.7-.4-1.2-.9-1.5-.4-.2-.9-.3-1.4-.3s-1.1.1-1.5.4c-.4.3-.6.6-.6,1.1s.2.7.6.9c.2.1.8.3,1.5.5l2,.5c.9.2,1.6.5,2,.8.7.5,1,1.3,1,2.4s-.4,1.9-1.2,2.6c-.8.7-2,1-3.5,1s-2.7-.3-3.6-1-1.3-1.6-1.3-2.8h2.3Z"/>
    <path class="st1" d="M270.3,26c-.9.9-2.1,1.3-3.8,1.3s-2.9-.4-3.8-1.3c-1.2-1.1-1.8-2.7-1.8-4.8s.6-3.7,1.8-4.8c.9-.9,2.1-1.3,3.8-1.3s2.9.4,3.8,1.3c1.2,1.1,1.8,2.7,1.8,4.8s-.6,3.7-1.8,4.8ZM268.8,24.2c.6-.7.8-1.7.8-3s-.3-2.3-.8-3c-.6-.7-1.3-1.1-2.3-1.1s-1.7.4-2.3,1.1c-.6.7-.9,1.7-.9,3s.3,2.3.9,3,1.3,1.1,2.3,1.1,1.7-.4,2.3-1.1Z"/>
    <path class="st1" d="M275,16.7c.9-1,2.1-1.4,3.6-1.4s3.3.6,4.2,1.9c.5.7.8,1.4.8,2.2h-2.4c-.2-.6-.4-1-.6-1.3-.4-.5-1.1-.8-1.9-.8s-1.5.4-2,1.1c-.5.7-.7,1.7-.7,3s.3,2.3.8,2.9c.5.6,1.2,1,2,1s1.5-.3,1.9-.8c.2-.3.4-.7.6-1.3h2.4c-.2,1.3-.7,2.3-1.6,3.1-.9.8-1.9,1.2-3.3,1.2s-2.9-.5-3.9-1.6c-.9-1.1-1.4-2.5-1.4-4.4s.5-3.6,1.6-4.7Z"/>
    <path class="st1" d="M287.7,27h-2.4v-11.6h2.4v11.6Z"/>
    <path class="st1" d="M293.3,15.4h2.7l4.1,11.6h-2.6l-.8-2.4h-4.3l-.8,2.4h-2.5l4.1-11.6ZM293.1,22.6h3l-1.5-4.5-1.5,4.5Z"/>
    <path class="st1" d="M301.5,15.4h2.4v9.5h5.8v2.1h-8.2v-11.6Z"/>
    <path class="st1" d="M196.7,41.9v.3c0,.9.1,1.5.3,1.9.2.4.5.5,1.1.5s.9-.2,1.1-.6c.1-.2.2-.6.2-1.2v-8.1h2.4v8c0,1-.2,1.8-.5,2.3-.6,1-1.6,1.5-3,1.5s-2.5-.4-3-1.2-.8-1.9-.8-3.2v-.3h2.3Z"/>
    <path class="st1" d="M204.3,34.7h2.5v7.1c0,.8,0,1.4.3,1.7.3.6.9,1,1.9,1s1.6-.3,1.9-1c.2-.4.3-.9.3-1.7v-7.1h2.5v7.1c0,1.2-.2,2.2-.6,2.9-.7,1.3-2.1,1.9-4.1,1.9s-3.4-.6-4.1-1.9c-.4-.7-.6-1.6-.6-2.9v-7.1Z"/>
    <path class="st1" d="M217.6,42.7c0,.5.2.9.4,1.2.4.5,1.1.7,2.1.7s1.1,0,1.4-.2c.7-.2,1-.7,1-1.3s-.2-.7-.5-.9c-.3-.2-.9-.4-1.6-.5l-1.3-.3c-1.2-.3-2.1-.6-2.5-.9-.8-.5-1.2-1.4-1.2-2.5s.4-1.9,1.1-2.6,1.9-1,3.4-1,2.3.3,3.2,1,1.3,1.6,1.4,2.8h-2.3c0-.7-.4-1.2-.9-1.5-.4-.2-.9-.3-1.4-.3s-1.1.1-1.5.4c-.4.3-.6.6-.6,1.1s.2.7.6.9c.2.1.8.3,1.5.5l2,.5c.9.2,1.6.5,2,.8.7.5,1,1.3,1,2.4s-.4,1.9-1.2,2.6c-.8.7-2,1-3.5,1s-2.7-.3-3.6-1c-.9-.7-1.3-1.6-1.3-2.8h2.3Z"/>
    <path class="st1" d="M235,34.7v2h-3.5v9.5h-2.4v-9.5h-3.5v-2h9.4Z"/>
    <path class="st1" d="M238.6,46.3h-2.4v-11.6h2.4v11.6Z"/>
    <path class="st1" d="M241.9,35.9c.9-1,2.1-1.4,3.6-1.4s3.3.6,4.2,1.9c.5.7.8,1.4.8,2.2h-2.4c-.2-.6-.4-1-.6-1.3-.4-.5-1.1-.8-1.9-.8s-1.5.4-2,1.1c-.5.7-.7,1.7-.7,3s.3,2.3.8,2.9c.5.6,1.2,1,2,1s1.5-.3,1.9-.8c.2-.3.4-.7.6-1.3h2.4c-.2,1.3-.7,2.3-1.6,3.1-.9.8-1.9,1.2-3.3,1.2s-2.9-.5-3.9-1.6c-.9-1.1-1.4-2.5-1.4-4.4s.5-3.6,1.6-4.7Z"/>
    <path class="st1" d="M261,36.8h-6.1v2.5h5.6v2h-5.6v3h6.4v2.1h-8.8v-11.6h8.5v2Z"/>
  </g>
  <g>
    <path class="st1" d="M323.3,455.7c.8.3,1.5.8,2,1.5.4.6.7,1.2.8,1.9.1.7.2,1.3.2,1.9,0,1.5-.3,2.8-.9,3.9-.8,1.4-2.1,2.2-3.9,2.2h-5v-11.6h5c.7,0,1.3,0,1.8.3ZM318.8,457.4v7.5h2.2c1.1,0,1.9-.6,2.4-1.7.2-.6.4-1.4.4-2.2s-.2-2.1-.6-2.7c-.4-.6-1.1-.9-2.2-.9h-2.2Z"/>
    <path class="st1" d="M336.6,457.5h-6.1v2.5h5.6v2h-5.6v3h6.4v2.1h-8.8v-11.6h8.5v2Z"/>
    <path class="st1" d="M346.5,455.4h3.5v11.6h-2.3v-7.8c0-.2,0-.5,0-.9s0-.7,0-.9l-2.2,9.7h-2.3l-2.2-9.7c0,.2,0,.5,0,.9s0,.7,0,.9v7.8h-2.3v-11.6h3.5l2.1,9.1,2.1-9.1Z"/>
    <path class="st1" d="M361.1,466c-.9.9-2.1,1.3-3.8,1.3s-2.9-.4-3.8-1.3c-1.2-1.1-1.8-2.7-1.8-4.8s.6-3.7,1.8-4.8c.9-.9,2.1-1.3,3.8-1.3s2.9.5,3.8,1.3c1.2,1.1,1.7,2.7,1.7,4.8s-.6,3.7-1.7,4.8ZM359.6,464.2c.6-.7.8-1.7.8-3s-.3-2.3-.8-3c-.6-.7-1.3-1.1-2.3-1.1s-1.7.4-2.3,1.1c-.6.7-.9,1.7-.9,3s.3,2.3.9,3c.6.7,1.3,1.1,2.3,1.1s1.7-.4,2.3-1.1Z"/>
    <path class="st1" d="M365.8,456.6c.9-1,2.1-1.4,3.6-1.4s3.3.6,4.2,1.9c.5.7.8,1.4.8,2.2h-2.4c-.2-.6-.4-1-.6-1.3-.4-.5-1.1-.8-1.9-.8s-1.5.4-2,1.1c-.5.7-.7,1.7-.7,3s.3,2.3.8,2.9c.5.6,1.2,1,2,1s1.5-.3,1.9-.8c.2-.3.4-.7.6-1.3h2.4c-.2,1.3-.7,2.3-1.6,3.1-.8.8-1.9,1.2-3.3,1.2s-2.9-.5-3.9-1.6c-.9-1.1-1.4-2.5-1.4-4.4s.5-3.6,1.6-4.7Z"/>
    <path class="st1" d="M383.7,455.7c.4.2.8.5,1.1.8.2.3.4.6.6,1,.1.4.2.8.2,1.2s-.1,1.1-.4,1.6c-.3.5-.7.9-1.4,1.1.5.2.9.5,1.1.9.2.4.3,1,.3,1.8v.8c0,.5,0,.9,0,1.1,0,.3.2.5.4.7v.3h-2.7c0-.3-.1-.5-.2-.6,0-.3,0-.7-.1-1v-1.1c0-.7-.2-1.2-.4-1.5-.2-.2-.7-.4-1.4-.4h-2.4v4.5h-2.4v-11.6h5.5c.8,0,1.4.1,1.8.3ZM378.7,457.4v3.1h2.6c.5,0,.9,0,1.2-.2.5-.2.7-.7.7-1.3s-.2-1.2-.7-1.4c-.2-.1-.6-.2-1.1-.2h-2.7Z"/>
    <path class="st1" d="M391.2,455.4h2.7l4.1,11.6h-2.6l-.8-2.4h-4.3l-.8,2.4h-2.5l4.1-11.6ZM391,462.6h3l-1.5-4.5-1.5,4.5Z"/>
    <path class="st1" d="M400.6,456.6c.9-1,2.1-1.4,3.6-1.4s3.3.6,4.2,1.9c.5.7.8,1.4.8,2.2h-2.4c-.2-.6-.4-1-.6-1.3-.4-.5-1.1-.8-1.9-.8s-1.5.4-2,1.1c-.5.7-.7,1.7-.7,3s.3,2.3.8,2.9,1.2,1,2,1,1.5-.3,1.9-.8c.2-.3.4-.7.6-1.3h2.4c-.2,1.3-.7,2.3-1.6,3.1-.9.8-1.9,1.2-3.3,1.2s-2.9-.5-3.9-1.6c-.9-1.1-1.4-2.5-1.4-4.4s.5-3.6,1.6-4.7Z"/>
    <path class="st1" d="M417.7,455.4h2.7l-3.9,7.2v4.3h-2.4v-4.3l-4-7.2h2.8l2.4,5,2.3-5Z"/>
  </g>
  <g>
    <path class="st0" d="M159.3,377.8c-.8.7-2,1.1-3.6,1.1h-3v5.2h-3v-14.4h6.2c1.4,0,2.6.4,3.4,1.1.8.7,1.3,1.9,1.3,3.4s-.4,2.9-1.3,3.6ZM157.1,372.7c-.4-.3-.9-.5-1.6-.5h-2.7v4.2h2.7c.7,0,1.2-.2,1.6-.5.4-.3.6-.9.6-1.6s-.2-1.3-.6-1.6Z"/>
    <path class="st0" d="M163,384.1v-14.4h3v5.5h5.6v-5.5h3v14.4h-3v-6.4h-5.6v6.4h-3Z"/>
    <path class="st0" d="M180.2,384.1h-3v-14.4h3v14.4Z"/>
    <path class="st0" d="M183,369.7h3v11.8h7.2v2.6h-10.2v-14.4Z"/>
    <path class="st0" d="M199.4,369.7h3.4l5.1,14.4h-3.3l-.9-3h-5.3l-1,3h-3.1l5.1-14.4ZM199.2,378.6h3.7l-1.8-5.7-1.9,5.7Z"/>
    <path class="st0" d="M209.6,369.7h3.2l5.7,10v-10h2.8v14.4h-3l-5.9-10.2v10.2h-2.8v-14.4Z"/>
    <path class="st0" d="M234.6,369.7v2.5h-4.3v11.8h-3v-11.8h-4.3v-2.5h11.7Z"/>
    <path class="st0" d="M236.3,384.1v-14.4h3v5.5h5.6v-5.5h3v14.4h-3v-6.4h-5.6v6.4h-3Z"/>
    <path class="st0" d="M260,370.1c.5.2,1,.6,1.3,1,.3.4.5.8.7,1.2.2.4.3.9.3,1.5s-.2,1.4-.5,2c-.3.7-.9,1.1-1.7,1.4.7.3,1.1.6,1.4,1.1.3.5.4,1.2.4,2.3v1c0,.7,0,1.1,0,1.3,0,.4.3.6.6.8v.4h-3.3c0-.3-.2-.6-.2-.8,0-.4-.1-.8-.1-1.2v-1.3c0-.9-.2-1.5-.5-1.8-.3-.3-.9-.5-1.7-.5h-2.9v5.6h-2.9v-14.4h6.9c1,0,1.7.1,2.3.4ZM253.8,372.2v3.9h3.2c.6,0,1.1,0,1.4-.2.6-.3.9-.8.9-1.6s-.3-1.5-.8-1.8c-.3-.2-.8-.3-1.4-.3h-3.3Z"/>
    <path class="st0" d="M276.3,382.8c-1.1,1.1-2.7,1.7-4.7,1.7s-3.6-.6-4.7-1.7c-1.5-1.4-2.2-3.4-2.2-5.9s.7-4.6,2.2-5.9c1.1-1.1,2.7-1.7,4.7-1.7s3.6.6,4.7,1.7c1.5,1.3,2.2,3.3,2.2,5.9s-.7,4.6-2.2,5.9ZM274.4,380.6c.7-.9,1-2.1,1-3.8s-.3-2.9-1-3.7c-.7-.9-1.6-1.3-2.8-1.3s-2.1.4-2.9,1.3-1.1,2.1-1.1,3.8.4,2.9,1.1,3.8,1.7,1.3,2.9,1.3,2.1-.4,2.8-1.3Z"/>
    <path class="st0" d="M290.5,377.8c-.8.7-2,1.1-3.6,1.1h-3v5.2h-3v-14.4h6.2c1.4,0,2.6.4,3.4,1.1.8.7,1.3,1.9,1.3,3.4s-.4,2.9-1.3,3.6ZM288.2,372.7c-.4-.3-.9-.5-1.6-.5h-2.7v4.2h2.7c.7,0,1.2-.2,1.6-.5.4-.3.6-.9.6-1.6s-.2-1.3-.6-1.6Z"/>
    <path class="st0" d="M302.3,369.7h3.4l-4.8,9v5.4h-3v-5.4l-5-9h3.5l3,6.3,2.9-6.3Z"/>
  </g>
</svg>