<?xml version="1.0" encoding="UTF-8"?>
<svg id="Layer_1" xmlns="http://www.w3.org/2000/svg" version="1.1" viewBox="0 0 454.72 499.89">
  <!-- Generator: Adobe Illustrator 29.3.1, SVG Export Plug-In . SVG Version: 2.1.0 Build 151)  -->
  <defs>
    <style>
      .st0 {
        fill: #210e0d;
      }
    </style>
  </defs>
  <g>
    <path class="st0" d="M47.53,456.65h-6.17v2.47h5.66v2.02h-5.66v3h6.45v2.1h-8.83v-11.66h8.55v2.06Z"/>
    <path class="st0" d="M60.08,462.83c-.21.67-.51,1.22-.91,1.67l1.34,1.26-1.27,1.32-1.4-1.33c-.43.26-.8.44-1.11.55-.52.17-1.15.26-1.87.26-1.52,0-2.78-.45-3.77-1.36-1.2-1.09-1.8-2.69-1.8-4.81s.62-3.74,1.85-4.83c1.01-.89,2.26-1.34,3.76-1.34s2.77.47,3.8,1.42c1.18,1.09,1.77,2.62,1.77,4.58,0,1.04-.13,1.91-.38,2.61ZM55.66,464.4c.14-.04.32-.1.55-.2l-1.18-1.12,1.25-1.31,1.19,1.12c.18-.38.31-.71.39-1,.12-.43.17-.93.17-1.5,0-1.31-.27-2.32-.8-3.03-.54-.71-1.32-1.07-2.34-1.07-.97,0-1.73.34-2.31,1.03-.57.68-.86,1.71-.86,3.08,0,1.6.41,2.74,1.24,3.43.53.45,1.17.67,1.91.67.28,0,.55-.04.81-.1Z"/>
    <path class="st0" d="M62.31,454.58h2.47v7.16c0,.8.09,1.39.28,1.75.29.65.93.98,1.92.98s1.62-.33,1.92-.98c.19-.37.28-.95.28-1.75v-7.16h2.48v7.16c0,1.24-.19,2.2-.58,2.89-.72,1.27-2.08,1.9-4.1,1.9s-3.38-.63-4.1-1.9c-.38-.69-.58-1.66-.58-2.89v-7.16Z"/>
    <path class="st0" d="M76.23,466.24h-2.42v-11.66h2.42v11.66Z"/>
    <path class="st0" d="M85.34,454.84c.82.27,1.48.76,1.99,1.48.41.58.68,1.21.83,1.88.15.67.22,1.32.22,1.93,0,1.55-.31,2.86-.93,3.94-.84,1.45-2.15,2.17-3.91,2.17h-5.03v-11.66h5.03c.72.01,1.32.09,1.81.25ZM80.87,456.61v7.61h2.25c1.15,0,1.95-.57,2.41-1.7.25-.62.37-1.36.37-2.22,0-1.19-.19-2.1-.56-2.73s-1.11-.95-2.22-.95h-2.25Z"/>
    <path class="st0" d="M93.54,454.58h2.76l4.13,11.66h-2.64l-.77-2.4h-4.29l-.79,2.4h-2.55l4.16-11.66ZM93.38,461.83h2.99l-1.47-4.59-1.51,4.59Z"/>
    <path class="st0" d="M108.74,454.84c.82.27,1.48.76,1.99,1.48.41.58.68,1.21.83,1.88.15.67.22,1.32.22,1.93,0,1.55-.31,2.86-.93,3.94-.84,1.45-2.15,2.17-3.91,2.17h-5.03v-11.66h5.03c.72.01,1.32.09,1.81.25ZM104.27,456.61v7.61h2.25c1.15,0,1.95-.57,2.41-1.7.25-.62.37-1.36.37-2.22,0-1.19-.19-2.1-.56-2.73s-1.11-.95-2.22-.95h-2.25Z"/>
    <path class="st0" d="M122.22,456.65h-6.17v2.47h5.66v2.02h-5.66v3h6.45v2.1h-8.83v-11.66h8.55v2.06Z"/>
    <path class="st0" d="M39.89,474.27c.82.27,1.48.76,1.99,1.48.41.58.68,1.21.83,1.88.15.67.22,1.32.22,1.93,0,1.55-.31,2.86-.93,3.94-.84,1.45-2.15,2.17-3.91,2.17h-5.03v-11.66h5.03c.72.01,1.32.09,1.81.25ZM35.42,476.04v7.61h2.25c1.15,0,1.95-.57,2.41-1.7.25-.62.37-1.36.37-2.22,0-1.19-.19-2.1-.56-2.73s-1.11-.95-2.22-.95h-2.25Z"/>
    <path class="st0" d="M53.38,476.08h-6.17v2.48h5.66v2.02h-5.66v3h6.45v2.1h-8.83v-11.66h8.55v2.06Z"/>
    <path class="st0" d="M67.9,477.66c-.18-.8-.64-1.35-1.35-1.67-.4-.17-.85-.26-1.34-.26-.94,0-1.71.35-2.31,1.06s-.91,1.77-.91,3.19.33,2.44.98,3.04c.65.59,1.4.89,2.23.89s1.49-.23,2.01-.7c.52-.47.84-1.08.96-1.84h-2.7v-1.95h4.85v6.26h-1.61l-.24-1.45c-.47.55-.89.94-1.27,1.16-.64.39-1.43.59-2.37.59-1.55,0-2.81-.53-3.8-1.6-1.03-1.07-1.54-2.54-1.54-4.41s.52-3.4,1.56-4.54,2.41-1.71,4.12-1.71c1.48,0,2.67.38,3.57,1.13.9.75,1.41,1.69,1.55,2.81h-2.4Z"/>
    <path class="st0" d="M81.28,476.08h-6.17v2.48h5.66v2.02h-5.66v3h6.45v2.1h-8.83v-11.66h8.55v2.06ZM79.92,473.09h-1.83l-1.03-1.33-1.04,1.33h-1.83l1.86-2.37h2.02l1.85,2.37Z"/>
    <path class="st0" d="M83.42,474.02h2.55l4.63,8.13v-8.13h2.27v11.66h-2.44l-4.75-8.27v8.27h-2.27v-11.66Z"/>
    <path class="st0" d="M103.78,476.08h-6.17v2.48h5.66v2.02h-5.66v3h6.45v2.1h-8.83v-11.66h8.55v2.06Z"/>
    <path class="st0" d="M113.43,474.32c.43.18.79.46,1.09.81.25.3.44.62.58.98.14.36.22.77.22,1.23,0,.55-.14,1.1-.42,1.63s-.74.91-1.38,1.13c.54.22.92.52,1.14.92s.34,1,.34,1.82v.78c0,.53.02.89.06,1.08.06.3.21.52.45.66v.29h-2.69c-.07-.26-.13-.47-.16-.63-.06-.33-.1-.66-.1-1l-.02-1.08c-.01-.74-.14-1.24-.39-1.49-.25-.25-.71-.37-1.39-.37h-2.38v4.57h-2.38v-11.66h5.57c.8.02,1.41.11,1.84.3ZM108.4,476.04v3.13h2.62c.52,0,.91-.06,1.17-.19.46-.22.69-.66.69-1.31,0-.71-.22-1.18-.67-1.42-.25-.14-.63-.21-1.13-.21h-2.69Z"/>
    <path class="st0" d="M126.63,484.64c-.88.91-2.15,1.36-3.82,1.36s-2.94-.45-3.82-1.36c-1.18-1.11-1.77-2.71-1.77-4.81s.59-3.74,1.77-4.81c.88-.91,2.15-1.36,3.82-1.36s2.94.45,3.82,1.36c1.17,1.07,1.76,2.67,1.76,4.81s-.59,3.7-1.76,4.81ZM125.11,482.87c.57-.71.85-1.72.85-3.04s-.28-2.32-.85-3.03c-.57-.71-1.33-1.07-2.3-1.07s-1.73.36-2.31,1.07c-.57.71-.86,1.72-.86,3.04s.29,2.32.86,3.04c.57.71,1.34,1.07,2.31,1.07s1.73-.36,2.3-1.07Z"/>
  </g>
  <path class="st0" d="M322.07,454.48c.82.27,1.48.76,1.99,1.48.41.58.68,1.21.83,1.88.15.67.22,1.32.22,1.93,0,1.55-.31,2.86-.93,3.94-.84,1.45-2.15,2.17-3.91,2.17h-5.03v-11.66h5.03c.72.01,1.32.09,1.81.25ZM317.6,456.25v7.61h2.25c1.15,0,1.95-.57,2.41-1.7.25-.62.37-1.36.37-2.22,0-1.19-.19-2.1-.56-2.73-.37-.63-1.11-.95-2.22-.95h-2.25Z"/>
  <path class="st0" d="M335.56,456.29h-6.17v2.48h5.66v2.02h-5.66v3h6.45v2.1h-8.83v-11.66h8.55v2.06Z"/>
  <path class="st0" d="M345.47,454.23h3.5v11.66h-2.27v-7.88c0-.23,0-.54,0-.95,0-.41,0-.72,0-.95l-2.21,9.78h-2.37l-2.19-9.78c0,.22,0,.54,0,.95,0,.41,0,.72,0,.95v7.88h-2.27v-11.66h3.55l2.12,9.17,2.11-9.17Z"/>
  <path class="st0" d="M360.21,465.2c-.88.91-2.15,1.36-3.82,1.36s-2.94-.45-3.82-1.36c-1.18-1.11-1.77-2.72-1.77-4.81s.59-3.74,1.77-4.81c.88-.91,2.15-1.36,3.82-1.36s2.94.45,3.82,1.36c1.17,1.07,1.76,2.67,1.76,4.81s-.59,3.7-1.76,4.81ZM358.68,463.43c.57-.71.85-1.72.85-3.04s-.28-2.32-.85-3.03c-.57-.71-1.33-1.07-2.3-1.07s-1.73.36-2.31,1.07c-.57.71-.86,1.72-.86,3.04s.29,2.33.86,3.04,1.34,1.07,2.31,1.07,1.73-.36,2.3-1.07Z"/>
  <path class="st0" d="M364.94,455.66c.94-.96,2.13-1.44,3.58-1.44,1.94,0,3.36.64,4.26,1.93.5.72.76,1.45.8,2.18h-2.44c-.15-.56-.35-.98-.6-1.27-.43-.51-1.08-.76-1.93-.76s-1.55.36-2.05,1.07-.75,1.73-.75,3.03.26,2.29.79,2.94c.53.65,1.2.98,2.01.98s1.47-.28,1.91-.84c.24-.3.44-.75.6-1.35h2.42c-.21,1.27-.74,2.3-1.6,3.1s-1.96,1.2-3.3,1.2c-1.66,0-2.96-.54-3.91-1.61-.95-1.08-1.42-2.56-1.42-4.45,0-2.03.54-3.6,1.62-4.7Z"/>
  <path class="st0" d="M383,454.53c.43.19.79.46,1.09.82.25.3.44.62.58.98.14.36.22.77.22,1.23,0,.55-.14,1.1-.42,1.63-.28.54-.74.91-1.38,1.13.54.22.92.52,1.14.92s.34,1.01.34,1.82v.78c0,.53.02.89.06,1.08.06.3.21.52.45.66v.29h-2.69c-.07-.26-.13-.47-.16-.62-.06-.33-.1-.66-.1-1l-.02-1.08c-.01-.74-.14-1.24-.39-1.49-.25-.25-.71-.37-1.39-.37h-2.38v4.57h-2.38v-11.66h5.57c.8.02,1.41.12,1.84.3ZM377.96,456.25v3.13h2.62c.52,0,.91-.06,1.17-.19.46-.22.69-.66.69-1.31,0-.71-.22-1.18-.67-1.42-.25-.14-.63-.21-1.13-.21h-2.69Z"/>
  <path class="st0" d="M390.56,454.23h2.76l4.13,11.66h-2.64l-.77-2.4h-4.29l-.79,2.4h-2.55l4.16-11.66ZM390.4,461.48h2.99l-1.47-4.59-1.51,4.59Z"/>
  <path class="st0" d="M400.03,455.66c.94-.96,2.13-1.44,3.58-1.44,1.94,0,3.36.64,4.26,1.93.5.72.76,1.45.8,2.18h-2.44c-.15-.56-.35-.98-.6-1.27-.43-.51-1.08-.76-1.93-.76s-1.55.36-2.05,1.07-.75,1.73-.75,3.03.26,2.29.79,2.94c.53.65,1.2.98,2.01.98s1.47-.28,1.91-.84c.24-.3.44-.75.6-1.35h2.42c-.21,1.27-.74,2.3-1.6,3.1s-1.96,1.2-3.3,1.2c-1.66,0-2.96-.54-3.91-1.61-.95-1.08-1.42-2.56-1.42-4.45,0-2.03.54-3.6,1.62-4.7Z"/>
  <path class="st0" d="M412.84,465.88h-2.42v-11.66h2.42v11.66Z"/>
  <path class="st0" d="M418.45,454.23h2.76l4.13,11.66h-2.64l-.77-2.4h-4.29l-.79,2.4h-2.55l4.16-11.66ZM418.29,461.48h2.99l-1.47-4.59-1.51,4.59Z"/>
  <g>
    <path class="st0" d="M164.04,21.59v.27c.02.9.11,1.54.28,1.9.17.37.52.55,1.07.55s.9-.2,1.07-.6c.1-.24.16-.64.16-1.2v-8.15h2.44v8.11c0,.99-.17,1.78-.5,2.36-.57.98-1.59,1.47-3.07,1.47s-2.47-.4-2.98-1.19c-.51-.79-.76-1.88-.76-3.25v-.27h2.3Z"/>
    <path class="st0" d="M171.63,14.36h2.47v7.16c0,.8.09,1.39.28,1.75.29.65.93.98,1.92.98s1.62-.33,1.92-.98c.19-.37.28-.95.28-1.75v-7.16h2.48v7.16c0,1.24-.19,2.2-.58,2.9-.72,1.27-2.08,1.9-4.1,1.9s-3.38-.63-4.1-1.9c-.38-.69-.58-1.66-.58-2.9v-7.16Z"/>
    <path class="st0" d="M185.08,22.42c.08.53.22.93.45,1.19.4.48,1.1.72,2.08.72.59,0,1.06-.06,1.43-.19.69-.24,1.04-.69,1.04-1.35,0-.39-.17-.68-.51-.89-.34-.2-.88-.39-1.62-.55l-1.26-.28c-1.24-.27-2.09-.57-2.56-.89-.79-.54-1.18-1.38-1.18-2.52,0-1.04.38-1.91,1.15-2.6.77-.69,1.9-1.04,3.39-1.04,1.24,0,2.3.33,3.18.98.88.65,1.34,1.6,1.38,2.84h-2.34c-.04-.7-.36-1.2-.94-1.5-.39-.19-.87-.29-1.45-.29-.64,0-1.16.13-1.54.38-.38.25-.57.61-.57,1.06,0,.42.19.73.57.93.24.14.76.3,1.55.48l2.05.48c.9.21,1.57.49,2.02.85.69.55,1.04,1.34,1.04,2.38s-.41,1.95-1.24,2.65c-.82.7-1.99,1.06-3.49,1.06s-2.74-.35-3.62-1.04c-.88-.69-1.32-1.65-1.32-2.86h2.32Z"/>
    <path class="st0" d="M202.6,14.36v2.06h-3.49v9.59h-2.45v-9.59h-3.5v-2.06h9.44Z"/>
    <path class="st0" d="M206.24,26.01h-2.42v-11.66h2.42v11.66Z"/>
    <path class="st0" d="M209.63,15.57c.94-.96,2.13-1.44,3.58-1.44,1.94,0,3.36.64,4.26,1.93.5.72.76,1.45.8,2.18h-2.44c-.15-.56-.35-.98-.6-1.27-.43-.51-1.08-.76-1.93-.76s-1.55.36-2.05,1.07-.75,1.73-.75,3.03.26,2.29.79,2.94c.53.65,1.2.98,2.01.98s1.47-.28,1.91-.84c.24-.3.44-.75.6-1.35h2.42c-.21,1.27-.74,2.3-1.6,3.1-.86.8-1.89,1.19-3.1,1.19l-.48.71c.18-.04.3-.06.37-.08s.15-.02.24-.02c.43,0,.77.1,1.02.31s.38.51.38.9c0,.49-.2.87-.59,1.15-.39.28-.9.42-1.53.42-.27,0-.59-.05-.97-.17-.17-.05-.42-.14-.74-.25l.3-.68c.3.09.51.15.62.17.25.06.46.09.62.09.32,0,.54-.07.68-.2.14-.13.21-.28.21-.42,0-.22-.08-.38-.23-.47-.15-.09-.32-.13-.49-.13-.1,0-.2.01-.31.04-.1.02-.22.06-.36.1l-.34-.32.74-1.16c-1.23,0-2.32-.54-3.26-1.61-.94-1.08-1.41-2.56-1.41-4.45,0-2.03.54-3.6,1.62-4.7Z"/>
    <path class="st0" d="M223.55,14.36h2.76l4.13,11.66h-2.64l-.77-2.4h-4.29l-.79,2.4h-2.55l4.16-11.66ZM223.39,21.61h2.99l-1.47-4.59-1.51,4.59Z"/>
    <path class="st0" d="M237.58,22.42c.08.53.22.93.45,1.19.4.48,1.1.72,2.08.72.59,0,1.06-.06,1.43-.19.69-.24,1.04-.69,1.04-1.35,0-.39-.17-.68-.51-.89-.34-.2-.88-.39-1.62-.55l-1.26-.28c-1.24-.27-2.09-.57-2.56-.89-.79-.54-1.18-1.38-1.18-2.52,0-1.04.38-1.91,1.15-2.6.77-.69,1.9-1.04,3.39-1.04,1.24,0,2.3.33,3.18.98.88.65,1.34,1.6,1.38,2.84h-2.34c-.04-.7-.36-1.2-.94-1.5-.39-.19-.87-.29-1.45-.29-.64,0-1.16.13-1.54.38-.38.25-.57.61-.57,1.06,0,.42.19.73.57.93.24.14.76.3,1.55.48l2.05.48c.9.21,1.57.49,2.02.85.69.55,1.04,1.34,1.04,2.38s-.41,1.95-1.24,2.65c-.82.7-1.99,1.06-3.49,1.06s-2.74-.35-3.62-1.04c-.88-.69-1.32-1.65-1.32-2.86h2.32Z"/>
    <path class="st0" d="M255.6,24.98c-.88.91-2.15,1.36-3.82,1.36s-2.94-.45-3.82-1.36c-1.18-1.11-1.77-2.72-1.77-4.81s.59-3.74,1.77-4.81c.88-.91,2.15-1.36,3.82-1.36s2.94.45,3.82,1.36c1.17,1.07,1.76,2.67,1.76,4.81s-.59,3.7-1.76,4.81ZM254.08,23.21c.57-.71.85-1.72.85-3.04s-.28-2.32-.85-3.03c-.57-.71-1.33-1.07-2.3-1.07s-1.73.36-2.31,1.07c-.57.71-.86,1.72-.86,3.04s.29,2.33.86,3.04c.57.71,1.34,1.07,2.31,1.07s1.73-.36,2.3-1.07Z"/>
    <path class="st0" d="M260.33,15.57c.94-.96,2.13-1.44,3.58-1.44,1.94,0,3.36.64,4.26,1.93.5.72.76,1.45.8,2.18h-2.44c-.15-.56-.35-.98-.6-1.27-.43-.51-1.08-.76-1.93-.76s-1.55.36-2.05,1.07-.75,1.73-.75,3.03.26,2.29.79,2.94c.53.65,1.2.98,2.01.98s1.47-.28,1.91-.84c.24-.3.44-.75.6-1.35h2.42c-.21,1.27-.74,2.3-1.6,3.1-.86.8-1.96,1.19-3.3,1.19-1.66,0-2.96-.54-3.91-1.61-.95-1.08-1.42-2.56-1.42-4.45,0-2.03.54-3.6,1.62-4.7Z"/>
    <path class="st0" d="M273.14,26.01h-2.42v-11.66h2.42v11.66Z"/>
    <path class="st0" d="M278.75,14.36h2.76l4.13,11.66h-2.64l-.77-2.4h-4.29l-.79,2.4h-2.55l4.16-11.66ZM278.59,21.61h2.99l-1.47-4.59-1.51,4.59Z"/>
    <path class="st0" d="M287.12,14.36h2.44v9.56h5.82v2.1h-8.26v-11.66Z"/>
    <path class="st0" d="M200.19,35.86h-6.17v2.48h5.66v2.02h-5.66v3h6.45v2.1h-8.83v-11.66h8.55v2.06Z"/>
    <path class="st0" d="M214.34,34.09c.43.18.79.46,1.09.82.25.29.44.62.58.98.14.36.22.77.22,1.23,0,.55-.14,1.1-.42,1.63s-.74.91-1.38,1.13c.54.22.92.52,1.14.92s.34,1,.34,1.82v.78c0,.53.02.89.06,1.08.06.3.21.52.45.66v.29h-2.69c-.07-.26-.13-.47-.16-.63-.06-.33-.1-.66-.1-1l-.02-1.08c-.01-.74-.14-1.24-.39-1.49-.25-.25-.71-.37-1.39-.37h-2.38v4.57h-2.38v-11.66h5.57c.8.02,1.41.12,1.84.3ZM209.31,35.82v3.13h2.62c.52,0,.91-.06,1.17-.19.46-.22.69-.66.69-1.31,0-.71-.22-1.18-.67-1.42-.25-.14-.63-.21-1.13-.21h-2.69Z"/>
    <path class="st0" d="M221.9,33.79h2.76l4.13,11.66h-2.64l-.77-2.4h-4.29l-.79,2.4h-2.55l4.16-11.66ZM221.74,41.05h2.99l-1.47-4.59-1.51,4.59Z"/>
    <path class="st0" d="M231.38,35.01c.94-.96,2.13-1.44,3.58-1.44,1.94,0,3.36.64,4.26,1.93.5.72.76,1.45.8,2.17h-2.44c-.15-.56-.35-.98-.6-1.26-.43-.51-1.08-.76-1.93-.76s-1.55.36-2.05,1.07-.75,1.73-.75,3.03.26,2.29.79,2.94c.53.65,1.2.98,2.01.98s1.47-.28,1.91-.84c.24-.3.44-.75.6-1.35h2.42c-.21,1.27-.74,2.3-1.6,3.1s-1.96,1.19-3.3,1.19c-1.66,0-2.96-.54-3.91-1.61-.95-1.08-1.42-2.56-1.42-4.44,0-2.04.54-3.6,1.62-4.71Z"/>
    <path class="st0" d="M244.19,45.45h-2.42v-11.66h2.42v11.66Z"/>
    <path class="st0" d="M249.8,33.79h2.76l4.13,11.66h-2.64l-.77-2.4h-4.29l-.79,2.4h-2.55l4.16-11.66ZM249.64,41.05h2.99l-1.47-4.59-1.51,4.59Z"/>
    <path class="st0" d="M258.16,33.79h2.44v9.56h5.82v2.1h-8.26v-11.66Z"/>
  </g>
  <g>
    <path class="st0" d="M203.71,99.55c1.93.39,4.09.02,6.42-.77,1.68-.57,3.3-1.3,4.93-2.03.66-.3,1.32-.59,1.98-.87,2.42-1.04,5.61-1.81,9.79-1.95v-2.93h-1.4c-1.94,0-3.19-2.06-2.3-3.78l3.1-5.97c.98-1.89,3.71-1.85,4.63.07l2.87,5.97c.83,1.72-.42,3.72-2.33,3.72h-1.46v2.95c3.48.14,6.22.72,8.39,1.53,1.02.38,2.1.84,3.17,1.29.19.08.39.17.59.25,1.27.53,2.55,1.06,3.82,1.49,2.57.88,4.91,1.33,6.97.91l6.36-1.29-15.63-26.1c-7.02-11.72-24-11.72-31.01,0l-15.66,26.15,6.78,1.38Z"/>
    <path class="st0" d="M241.44,134.04c.68,1.63,1.66,3.1,2.91,4.35,1.25,1.25,2.72,2.23,4.35,2.91,1.62.68,3.37,1.02,5.13,1.02s3.51-.34,5.13-1.02c1.63-.67,3.1-1.66,4.35-2.91,1.24-1.24,2.23-2.72,2.91-4.35.49-1.18.8-2.41.94-3.67h-26.65c.14,1.26.45,2.49.94,3.67Z"/>
    <path class="st0" d="M245.99,162.49h-36.27c-.29,0-.52.23-.52.52v1.55h37.3v-1.55c0-.29-.23-.52-.52-.52Z"/>
    <polygon class="st0" points="241.61 127.26 266.04 127.26 253.83 106.11 241.61 127.26"/>
    <path class="st0" d="M241.84,157.31h-26.94c-.29,0-.52.23-.52.52v1.55h27.98v-1.55c0-.29-.23-.52-.52-.52Z"/>
    <path class="st0" d="M206.1,163.01c0-2,1.62-3.63,3.63-3.63h1.55v-1.55c0-2,1.62-3.63,3.63-3.63h11.92v-57.16c-3.8.14-6.57.84-8.56,1.7-.57.24-1.17.51-1.79.79-1.67.75-3.51,1.57-5.33,2.19-2.03.69-4.21,1.19-6.4,1.08l14.63,25.33.21.36v.41c0,2.17-.43,4.32-1.26,6.32-.83,2-2.04,3.82-3.58,5.36-1.53,1.53-3.36,2.75-5.36,3.58s-4.15,1.25-6.32,1.25-4.31-.43-6.32-1.25c-2-.83-3.82-2.05-5.36-3.58-1.53-1.53-2.75-3.36-3.58-5.36-.83-2-1.26-4.15-1.26-6.32v-.41l.21-.36,14.92-25.82-6.43-1.3-53.88,90c-1.85,3.09,2.03,6.35,4.79,4.03,16.82-14.16,37.37-24,59.96-27.89v-4.14Z"/>
    <path class="st0" d="M315.52,192.18l-54.61-91.23-5.8,1.17.06.1,14.96,25.9.21.36v.41c0,2.17-.43,4.32-1.26,6.32-.83,2-2.04,3.82-3.58,5.36-1.53,1.53-3.36,2.75-5.36,3.58-2,.83-4.15,1.25-6.32,1.25s-4.31-.42-6.32-1.25c-2-.83-3.82-2.05-5.36-3.58-1.53-1.53-2.75-3.36-3.58-5.36-.83-2-1.26-4.15-1.26-6.32v-.41l.21-.36,14.73-25.49c-2.5.21-5.03-.4-7.37-1.2-1.37-.47-2.73-1.03-4.01-1.57-.2-.09-.4-.17-.6-.25-1.07-.45-2.08-.87-3.04-1.24-1.78-.67-4.16-1.19-7.29-1.33v57.15h11.92c2,0,3.63,1.62,3.63,3.63v1.55h.52c2,0,3.63,1.62,3.63,3.63v4.18c23.11,4.02,44.09,14.27,61.1,29,2.74,2.37,6.67-.9,4.81-4Z"/>
    <polygon class="st0" points="190.84 127.26 215.26 127.26 203.05 106.11 190.84 127.26"/>
    <path class="st0" d="M190.67,134.04c.68,1.63,1.66,3.1,2.91,4.35,1.25,1.25,2.72,2.23,4.35,2.91,1.62.68,3.37,1.02,5.13,1.02s3.51-.34,5.13-1.02c1.63-.67,3.1-1.66,4.35-2.91,1.24-1.24,2.23-2.72,2.91-4.35.49-1.18.8-2.41.94-3.67h-26.65c.14,1.26.45,2.49.94,3.67Z"/>
    <polygon class="st0" points="228.49 83.59 226.27 87.88 230.56 87.88 228.49 83.59"/>
  </g>
  <g>
    <path class="st0" d="M33.09,380.62c0,11.67,9.49,21.16,21.16,21.16s21.16-9.49,21.16-21.16-9.49-21.16-21.16-21.16-21.16,9.49-21.16,21.16Z"/>
    <path class="st0" d="M54.25,355.36c6.23,0,11.93,2.28,16.34,6.03l17.14-17.14h-17.07c-1.13,0-2.05-.92-2.05-2.05s.92-2.05,2.05-2.05h21.92c-2.45-9.85-3.76-20.15-3.76-30.75,0-8.94.93-17.66,2.7-26.08.73-3.49-3.98-5.33-5.82-2.26l-48.45,80.94c4.49-4.1,10.45-6.62,16.99-6.62Z"/>
    <path class="st0" d="M52.2,436.03v-15.46h-15.45c-1.13,0-2.05-.92-2.05-2.05s.92-2.05,2.05-2.05h15.45v-10.68c-12.97-1.05-23.21-11.92-23.21-25.16,0-2.12.29-4.16.78-6.13l-20.46,34.18c-7.21,12.05,1.47,27.35,15.51,27.35h27.39Z"/>
    <path class="st0" d="M175.91,429.86c-38.56-12.71-68.91-43.42-81.18-82.18v16.53c0,1.13-.92,2.05-2.05,2.05s-2.05-.92-2.05-2.05v-17.07l-17.14,17.14c3.75,4.41,6.03,10.11,6.03,16.34,0,13.24-10.24,24.11-23.21,25.16v10.68h15.45c1.13,0,2.05.92,2.05,2.05s-.92,2.05-2.05,2.05h-15.45v15.46h0s118.59,0,118.59,0c3.59,0,4.43-5.04,1.02-6.17Z"/>
  </g>
  <g>
    <circle class="st0" cx="384.56" cy="381.24" r="7.94"/>
    <path class="st0" d="M355.03,380.93c4.38,0,7.94-3.56,7.94-7.94s-3.56-7.94-7.94-7.94c-1.19,0-2.31.28-3.32.75-1.4,2.82-2.91,5.58-4.51,8.28.54,3.86,3.82,6.85,7.83,6.85Z"/>
    <circle class="st0" cx="414.08" cy="372.99" r="7.94"/>
    <path class="st0" d="M360.79,393.01h-11.53c-3.83,0-6.95,3.12-6.95,6.95v8.04h25.42v-8.04c0-3.83-3.12-6.95-6.95-6.95Z"/>
    <path class="st0" d="M419.85,393.01h-11.53c-3.83,0-6.95,3.12-6.95,6.95v8.04h25.42v-8.04c0-3.83-3.12-6.95-6.95-6.95Z"/>
    <path class="st0" d="M390.32,401.25h-11.53c-3.83,0-6.95,3.12-6.95,6.95v8.04h25.42v-8.04c0-3.83-3.12-6.95-6.95-6.95Z"/>
    <path class="st0" d="M445.14,408.67l-19.46-32.5c-1.4,5.1-6.07,8.86-11.6,8.86-6.64,0-12.04-5.4-12.04-12.04s5.4-12.04,12.04-12.04c.92,0,1.81.11,2.67.31l-13.19-22.04-20.25,20.26-10.2-10.2c-.8-.8-.8-2.1,0-2.9.8-.8,2.1-.8,2.9,0l7.3,7.3,18.08-18.08-33.7-56.3c-1.86-3.11-6.59-1.18-5.8,2.35,2,8.93,3.06,18.21,3.06,27.74,0,18.38-3.93,35.84-10.97,51.61.35-.03.7-.05,1.06-.05,6.64,0,12.04,5.4,12.04,12.04s-5.4,12.04-12.04,12.04c-4.62,0-8.63-2.61-10.65-6.43-15.57,23.86-38.95,42.17-66.52,51.26-3.41,1.12-2.57,6.17,1.02,6.17h150.76c14.04,0,22.72-15.31,15.51-27.35ZM384.56,369.19c6.64,0,12.04,5.4,12.04,12.04s-5.4,12.04-12.04,12.04-12.04-5.4-12.04-12.04,5.4-12.04,12.04-12.04ZM430.9,412.1h-29.53v8.24h-33.63v-8.24h-29.53v-12.14c0-6.09,4.96-11.05,11.05-11.05h11.53c5.98,0,10.86,4.78,11.04,10.72,1.9-1.55,4.33-2.48,6.97-2.48h11.53c2.64,0,5.06.93,6.97,2.48.18-5.94,5.05-10.72,11.03-10.72h11.53c6.09,0,11.05,4.96,11.05,11.05v12.14Z"/>
  </g>
  <g>
    <polygon class="st0" points="194.99 378.45 198.81 378.45 196.93 372.58 194.99 378.45"/>
    <polygon class="st0" points="216.36 330.12 183.37 329.71 179.02 329.66 178.76 350.78 221.5 351.3 221.76 330.18 216.39 330.12 216.36 330.12"/>
    <path class="st0" d="M255.06,371.36c-1.23,0-2.22.46-2.95,1.37s-1.1,2.2-1.1,3.88.37,2.97,1.1,3.88,1.72,1.37,2.95,1.37,2.21-.46,2.94-1.37,1.09-2.2,1.09-3.88-.36-2.97-1.09-3.88-1.7-1.37-2.94-1.37Z"/>
    <path class="st0" d="M185.21,319.5l-.08,6.81,29.91.37c3.86-17.16-.79-27.93-14.19-32.89-.24-.09-.46-.23-.64-.41l-16.88-17.41c-1.05-1.07-2.48-1.68-3.97-1.69h-.29c-1.45.05-2.82.63-3.86,1.63-2.24,2.2-2.28,5.8-.1,8.05l7.79,7.98c.59.66.58,1.66-.03,2.31-.65.69-1.73.72-2.42.08l-7.79-7.98c-3.51-3.61-3.43-9.37.16-12.89,1.28-1.24,2.9-2.09,4.65-2.43l3.06-28.53c.18-1.72-.36-3.44-1.47-4.75-1-1.21-2.45-1.95-4.02-2.05-3.43-.18-6.42,2.29-6.91,5.68l-7.87,45.75,24.59,31.3c.24.31.37.69.37,1.08Z"/>
    <path class="st0" d="M241.5,372.02c-.32-.18-.8-.26-1.44-.26h-3.44v4.01h3.35c.67,0,1.16-.08,1.5-.24.59-.28.88-.84.88-1.68,0-.9-.28-1.51-.85-1.82Z"/>
    <path class="st0" d="M207.36,279.35c1.35-2.93,4.2-5.28,7.6-6.03,1.91-.42,3.93-.38,5.99.11.53.12,1.08-.01,1.47-.38.19-.18.5-.57.39-1.17-.25-1.42-.67-2.81-1.24-4.11-.61-1.39-1.25-2.24-1.97-2.59-.48-.24-1.17-.35-1.89-.47-1.8-.29-4.8-.79-5.67-4.41-.37-1.55-.2-3.25.49-4.93.82-1.98-.08-4.55-2.01-5.72-.74-.45-1.69-.76-2.69-1.08-1.88-.61-4.01-1.3-5.43-3.23-1.09-1.49-1.54-3.48-1.32-5.93.27-3.12,1.38-6.12,3.21-8.67,1.22-1.71,2.7-3.14,4.13-4.51.37-.36.75-.72,1.12-1.08,1.44-1.43,3.03-3.16,3.87-5.17.52-1.25.65-2.55.46-3.7-13.03,5.45-22.22,18.33-22.22,33.32,0,12.34,6.23,23.25,15.71,29.76Z"/>
    <path class="st0" d="M251.79,271.5c-.08-.21-.16-.42-.25-.63-.72-1.71-2.24-3.14-4.17-3.91-1.93-.78-4.01-.8-5.72-.07-1.01.43-1.73,1.06-1.98,1.71-.37.98.11,2.35.61,3.79.17.48.34.96.48,1.43,1.02,3.47.29,7.14-1.71,10.03,5.63-1.86,10.65-5.07,14.67-9.25-.34-.28-.65-.61-.91-1-.49-.71-.77-1.45-1.02-2.11Z"/>
    <path class="st0" d="M212.33,227.97c-.38.38-.77.75-1.16,1.12-1.36,1.31-2.64,2.55-3.66,3.96-1.41,1.97-2.27,4.3-2.48,6.71-.13,1.45.06,2.54.56,3.22.66.9,1.96,1.31,3.45,1.8,1.17.38,2.39.77,3.52,1.46,3.59,2.18,5.18,6.85,3.62,10.63-.26.63-.52,1.57-.3,2.49.22.93.52,1.1,2.45,1.42.94.15,2,.33,3.01.83,2.13,1.05,3.22,3.11,3.86,4.57.69,1.59,1.2,3.27,1.51,5,.31,1.75-.28,3.53-1.58,4.76-1.37,1.29-3.28,1.79-5.12,1.35-1.47-.35-2.89-.39-4.21-.09-2.29.5-4.21,2.09-4.97,4.02.06.09.09.2.13.29,5.02,2.65,10.72,4.17,16.78,4.17.97,0,1.92-.07,2.87-.15l-.02-.04,2.43-1.37c3.3-1.85,4.96-5.68,3.95-9.1-.15-.49-.3-.92-.45-1.34-.65-1.86-1.47-4.18-.58-6.52.64-1.68,2.1-3.08,4.13-3.95,2.67-1.15,5.87-1.14,8.77.03,2.9,1.17,5.22,3.37,6.35,6.05.11.25.21.51.31.78.18.48.36.94.57,1.25.08.12.17.19.24.23,2.19-2.84,3.96-6,5.23-9.42-.7-1-1.39-1.8-2.21-2.07-.82-.27-1.93-.06-3.1.16l-.56.11c-2.81.51-5.68.61-8.52.28-3.77-.43-6.47-1.76-8-3.95-1.36-1.94-1.57-4.21-1.76-6.2-.1-1.04-.19-2.02-.42-2.9-.47-1.76-1.77-3.34-3.57-4.33-1.8-.99-3.82-1.25-5.56-.72-1.1.34-4.43,1.36-5.79-1.3-.82-1.61,0-3.23.27-3.76,1.49-2.94,3.87-5.49,6.71-7.19,1.88-1.12,3.9-1.86,5.86-2.57,2.39-.87,4.65-1.69,6.44-3.13,2.05-1.65,3.36-4.13,3.63-6.73-5.12-2.79-10.98-4.37-17.21-4.37-3.5,0-6.87.53-10.08,1.46.5,2.05.31,4.36-.6,6.55-1.11,2.66-3.02,4.76-4.74,6.47Z"/>
    <path class="st0" d="M236.24,231.46c-1.86.68-3.62,1.31-5.18,2.24-2.08,1.24-3.85,3.08-5.01,5.21.17-.05.38-.1.62-.18,2.77-.85,5.92-.48,8.66,1.04,2.74,1.51,4.74,3.98,5.49,6.78.32,1.2.43,2.4.54,3.56.16,1.72.3,3.21,1.06,4.29.85,1.22,2.6,1.98,5.2,2.28,2.45.28,4.93.2,7.36-.24l.53-.1c1.55-.29,3.3-.63,5.1-.03.9.3,1.66.79,2.31,1.36.6-2.6.95-5.3.95-8.09,0-12.14-6.04-22.88-15.26-29.42-.73,2.93-2.41,5.62-4.77,7.52-2.3,1.86-4.98,2.83-7.58,3.77Z"/>
    <path class="st0" d="M280.45,235.7c-1.57.1-3.02.84-4.02,2.05-1.12,1.32-1.65,3.03-1.47,4.75l3.06,28.52c1.75.34,3.37,1.19,4.65,2.43,3.59,3.52,3.66,9.28.16,12.89l-7.79,7.98s-.08.09-.12.13c-.69.64-1.78.6-2.42-.1-.64-.69-.6-1.78.1-2.42l7.79-7.98c2.18-2.26,2.14-5.85-.1-8.06-1.04-1-2.42-1.58-3.86-1.63h-.3c-1.5,0-2.93.62-3.97,1.69l-16.85,17.42c-.18.18-.4.32-.64.41-13.4,4.96-18.05,15.73-14.19,32.89l29.9-.37-.08-6.81c0-.39.13-.77.37-1.08l24.59-31.31-7.88-45.74c-.49-3.39-3.49-5.86-6.92-5.68Z"/>
    <polygon class="st0" points="239.13 330.12 239.11 330.12 233.73 330.18 233.99 351.3 276.73 350.78 276.47 329.66 272.12 329.71 239.13 330.12"/>
    <polygon class="st0" points="288.21 378.45 292.03 378.45 290.14 372.58 288.21 378.45"/>
    <path class="st0" d="M227.75,177.14c-69.69,0-126.18,56.49-126.18,126.18s56.49,126.18,126.18,126.18,126.18-56.49,126.18-126.18-56.49-126.18-126.18-126.18ZM227.75,209.52c22.1,0,40.08,17.98,40.08,40.08s-17.98,40.08-40.08,40.08c-7.3,0-14.15-1.97-20.06-5.4-.04-.03-.09-.04-.13-.07,0,0-.02-.02-.03-.03-11.87-6.97-19.86-19.85-19.86-34.58,0-22.1,17.98-40.08,40.07-40.08ZM170.5,371.81h-7.54v3.43h6.6v2.59h-6.6v6.25h-3.1v-14.89h10.63v2.62ZM175.37,384.08h-3.1v-14.91h3.1v14.91ZM175.32,352.45l.3-24.54c.01-.94.77-1.69,1.71-1.69h.02l4.35.05.08-6.21-24.69-31.43c-.3-.38-.42-.87-.34-1.35l8-46.49c.77-5.12,5.31-8.81,10.48-8.52,2.5.15,4.83,1.33,6.43,3.25,1.72,2.03,2.54,4.68,2.27,7.33l-3.02,28.12c1.86.32,3.57,1.23,4.89,2.59l16.6,17.14c14.62,5.58,20.04,17.68,16.13,36l5,.06h0c.94,0,1.7.78,1.69,1.73l-.3,24.55c-.01.94-.77,1.69-1.71,1.69h-.02l-46.16-.57c-.94-.01-1.7-.79-1.69-1.73ZM188.84,384.08h-10.56v-14.91h3.12v12.23h7.44v2.68ZM200.62,384.08l-.98-3.06h-5.49l-1.01,3.06h-3.26l5.32-14.91h3.52l5.27,14.91h-3.38ZM217.93,384.08h-3.12l-6.07-10.58v10.58h-2.9v-14.91h3.27l5.92,10.39v-10.39h2.9v14.91ZM231.69,371.81h-4.46v12.27h-3.14v-12.27h-4.48v-2.64h12.08v2.64ZM245.72,384.08h-3.44c-.09-.33-.16-.6-.2-.8-.08-.42-.12-.85-.13-1.28l-.02-1.39c-.01-.95-.18-1.58-.49-1.9-.32-.32-.91-.48-1.78-.48h-3.04v5.85h-3.04v-14.91h7.13c1.02.02,1.8.15,2.35.38.55.24,1.01.58,1.39,1.04.32.38.57.8.75,1.25s.28.98.28,1.57c0,.71-.18,1.4-.54,2.09s-.95,1.17-1.77,1.45c.69.28,1.17.67,1.46,1.18s.43,1.29.43,2.33v1c0,.68.03,1.14.08,1.39.08.38.27.67.57.85v.37ZM259.95,382.76c-1.13,1.16-2.75,1.74-4.89,1.74s-3.76-.58-4.89-1.74c-1.51-1.42-2.27-3.47-2.27-6.15s.76-4.78,2.27-6.15c1.13-1.16,2.75-1.74,4.89-1.74s3.76.58,4.89,1.74c1.5,1.37,2.26,3.42,2.26,6.15s-.75,4.73-2.26,6.15ZM274.59,377.63c-.87.73-2.12,1.09-3.74,1.09h-3.1v5.36h-3.1v-14.91h6.4c1.48,0,2.65.38,3.53,1.15.88.77,1.32,1.96,1.32,3.57,0,1.76-.44,3-1.31,3.73ZM281.24,384.08h-3.1v-14.91h3.1v14.91ZM293.83,384.08l-.98-3.06h-5.49l-1.01,3.06h-3.26l5.32-14.91h3.52l5.27,14.91h-3.38ZM298.4,288.64l-24.69,31.43.08,6.21,4.35-.05s0,0,0,0c.94,0,1.71.75,1.72,1.69l.3,24.54c.01.94-.74,1.72-1.69,1.73l-46.16.57h-.02c-.94,0-1.71-.76-1.71-1.7l-.3-24.54c0-.94.75-1.71,1.69-1.73l4.99-.06c-3.91-18.32,1.51-30.42,16.13-36l16.59-17.14c1.31-1.36,3.03-2.26,4.89-2.59l-3.02-28.12c-.28-2.65.54-5.3,2.27-7.33,1.6-1.93,3.93-3.11,6.43-3.26,5.17-.3,9.71,3.4,10.48,8.52l8,46.49c.08.48-.04.97-.34,1.35Z"/>
    <path class="st0" d="M270.55,371.76h-2.81v4.39h2.81c.71,0,1.26-.18,1.66-.54s.59-.92.59-1.7-.2-1.33-.59-1.66-.95-.5-1.66-.5Z"/>
  </g>
</svg>