<?xml version="1.0" encoding="UTF-8"?>
<svg id="Marcação" xmlns="http://www.w3.org/2000/svg" version="1.1" viewBox="0 0 2700 1534">
  <!-- Generator: Adobe Illustrator 29.3.1, SVG Export Plug-In . SVG Version: 2.1.0 Build 151)  -->
  <defs>
    <style>
      .st0 {
        fill: #b19465;
      }

      .st1 {
        fill: #f7f7f7;
      }

      .st2 {
        fill: none;
        stroke: #f7f7f7;
        stroke-dasharray: 3;
        stroke-miterlimit: 10;
        stroke-width: 2px;
      }

      .st3 {
        fill: #bda88b;
      }
    </style>
  </defs>
  <polygon class="st1" points="1675.66 1106.52 1664.11 1106.52 1664.11 1119.59 1651.22 1119.59 1651.22 1132.38 1615.15 1132.38 1615.15 1144.69 1589.84 1144.69 1589.84 1157.37 1577.66 1157.37 1577.66 1169.68 1565.72 1169.68 1565.72 1182.23 1552.35 1182.23 1552.35 1169.68 1539.93 1169.68 1539.93 1157.37 1528.22 1157.37 1528.22 1132.38 1515.09 1132.38 1515.09 1095.44 1478.55 1095.44 1478.55 1083.48 1417.65 1083.48 1417.65 1058.32 1429.35 1058.32 1429.35 1045.23 1442.01 1045.23 1442.01 1008.65 1453.95 1008.65 1454.19 996.45 1465.89 996.45 1465.89 983.78 1503.86 983.78 1503.86 996.45 1565.48 996.45 1565.48 983.78 1589.84 983.78 1589.84 1008.65 1601.62 1008.65 1601.62 1045.23 1614.68 1045.23 1614.68 1058.32 1601.62 1058.32 1601.62 1095.44 1626.38 1095.44 1626.38 1082.41 1675.66 1082.41 1675.66 1106.52"/>
  <g>
    <polygon class="st1" points="1355.32 1242.32 1355.32 1253.8 1342.58 1253.8 1342.58 1266.87 1319.02 1266.87 1319.02 1279.78 1307.24 1279.78 1307.24 1291.42 1294.18 1291.42 1294.18 1316.6 1281.44 1316.6 1281.44 1328.08 1269.66 1328.08 1269.66 1341.47 1256.92 1341.47 1256.92 1353.42 1281.44 1353.42 1281.44 1365.7 1291.95 1365.7 1291.95 1378.45 1330.16 1378.45 1330.16 1402.83 1368.06 1402.83 1368.06 1428.18 1379.52 1428.18 1379.52 1477.59 1393.53 1477.59 1393.53 1465.16 1404.67 1465.16 1404.67 1440.29 1417.73 1440.29 1417.73 1428.18 1429.51 1428.18 1429.51 1402.83 1441.93 1402.83 1441.93 1391.2 1454.03 1391.2 1454.03 1378.45 1467.4 1378.45 1467.4 1353.42 1478.87 1353.42 1478.87 1341.47 1491.29 1341.47 1491.61 1316.6 1515.81 1316.6 1515.81 1304.17 1490.97 1304.17 1490.97 1291.42 1454.03 1291.42 1454.03 1279.78 1442.25 1279.78 1442.25 1266.87 1429.51 1266.87 1429.51 1253.8 1368.06 1253.8 1368.06 1242.32 1355.32 1242.32"/>
    <g>
      <path class="st1" d="M1823.09,1476.36h88.29c2,0,3.62-1.62,3.62-3.62v-39.29c0-2-1.62-3.62-3.62-3.62h-88.29v46.54Z"/>
      <path class="st3" d="M1914.25,1472.17c0,1.58-1.28,2.86-2.86,2.86h-87.55v-43.87h87.55c1.58,0,2.86,1.28,2.86,2.86v38.16ZM1911.39,1428.59h-427.54c-2.99,0-5.42,2.43-5.42,5.42v38.16c0,2.99,2.43,5.42,5.42,5.42h427.54c2.99,0,5.42-2.43,5.42-5.42v-38.16c0-2.99-2.43-5.42-5.42-5.42"/>
      <path class="st3" d="M1846.08,1458.54c.18,1.54.9,2.61,2.15,3.2.64.3,1.38.45,2.22.45,1.6,0,2.78-.51,3.56-1.53.77-1.02,1.16-2.15,1.16-3.39,0-1.5-.46-2.66-1.38-3.48-.91-.82-2.01-1.23-3.29-1.23-.93,0-1.73.18-2.39.54-.66.36-1.23.86-1.7,1.5l-2.34-.13,1.64-11.57h11.16v2.61h-9.14l-.91,5.97c.5-.38.97-.66,1.42-.86.8-.33,1.73-.49,2.78-.49,1.97,0,3.64.64,5.01,1.91,1.37,1.27,2.06,2.88,2.06,4.83s-.63,3.82-1.88,5.37c-1.26,1.55-3.26,2.33-6.01,2.33-1.75,0-3.3-.49-4.64-1.48-1.34-.99-2.1-2.5-2.26-4.54h2.81Z"/>
      <path class="st3" d="M1861.93,1467.15c.69-.12,1.17-.61,1.46-1.46.15-.45.22-.88.22-1.31,0-.07,0-.13,0-.19,0-.05-.02-.11-.04-.19h-1.63v-3.27h3.21v3.03c0,1.19-.24,2.23-.72,3.13-.48.9-1.31,1.46-2.49,1.66v-1.42Z"/>
      <path class="st3" d="M1870.02,1459.18c.66-1.37,1.96-2.61,3.89-3.74l2.88-1.67c1.29-.75,2.2-1.39,2.72-1.92.82-.83,1.23-1.78,1.23-2.85,0-1.25-.38-2.24-1.12-2.98-.75-.73-1.75-1.1-3-1.1-1.85,0-3.13.7-3.84,2.1-.38.75-.59,1.79-.63,3.12h-2.75c.03-1.87.37-3.4,1.03-4.58,1.17-2.08,3.24-3.12,6.2-3.12,2.46,0,4.26.66,5.4,2,1.13,1.33,1.7,2.81,1.7,4.44,0,1.72-.6,3.19-1.81,4.41-.7.71-1.96,1.57-3.77,2.58l-2.06,1.14c-.98.54-1.75,1.06-2.31,1.55-1,.87-1.63,1.84-1.89,2.9h11.73v2.55h-14.75c.1-1.85.49-3.46,1.15-4.83"/>
      <path class="st3" d="M1898.49,1452.01c.35-.35.53-.78.53-1.27s-.18-.92-.53-1.27c-.35-.35-.78-.53-1.27-.53s-.93.18-1.28.53c-.35.35-.53.78-.53,1.27s.18.92.53,1.27c.35.35.78.53,1.28.53s.92-.18,1.27-.53M1899.37,1448.58c.6.6.89,1.31.89,2.15s-.3,1.55-.89,2.15c-.59.6-1.31.89-2.15.89s-1.57-.3-2.16-.89c-.59-.59-.89-1.31-.89-2.15s.3-1.56.89-2.15c.59-.59,1.32-.89,2.16-.89s1.56.3,2.15.89M1895.95,1441.31h.97l-7.01,12.8h-.97l7.01-12.8ZM1889.91,1445.95c.35-.35.53-.78.53-1.27s-.18-.92-.53-1.27c-.35-.35-.78-.53-1.28-.53s-.92.18-1.27.53c-.35.35-.53.78-.53,1.28s.18.92.53,1.27c.35.35.78.53,1.27.53s.93-.18,1.28-.53M1890.78,1442.53c.6.6.89,1.32.89,2.15s-.3,1.56-.89,2.15c-.6.59-1.32.89-2.16.89s-1.55-.3-2.15-.89c-.59-.6-.89-1.32-.89-2.15s.3-1.56.89-2.15c.6-.6,1.31-.9,2.15-.9s1.56.3,2.16.9"/>
      <path class="st1" d="M1496.78,1445.91v5.94h4.97c.99,0,1.73-.12,2.23-.36.87-.42,1.31-1.25,1.31-2.49,0-1.34-.42-2.24-1.27-2.7-.47-.26-1.18-.39-2.14-.39h-5.1ZM1506.34,1442.63c.81.35,1.5.87,2.07,1.55.47.56.84,1.18,1.11,1.86.27.68.41,1.46.41,2.32,0,1.05-.26,2.08-.79,3.1-.53,1.02-1.41,1.73-2.63,2.15,1.02.41,1.74.99,2.16,1.75.43.75.64,1.91.64,3.46v1.48c0,1.01.04,1.7.12,2.06.12.57.4.99.86,1.26v.56h-5.1c-.14-.49-.24-.88-.3-1.18-.12-.62-.19-1.25-.2-1.91l-.03-2.06c-.02-1.41-.26-2.35-.73-2.82-.47-.47-1.35-.7-2.63-.7h-4.51v8.67h-4.52v-22.12h10.58c1.51.03,2.68.22,3.49.57"/>
      <rect class="st1" x="1513.98" y="1442.06" width="4.59" height="22.12"/>
      <g>
        <path class="st1" d="M1537.03,1458.85c1.08-1.35,1.62-3.27,1.62-5.76s-.54-4.4-1.62-5.75c-1.07-1.36-2.53-2.03-4.35-2.03s-3.29.68-4.38,2.03c-1.09,1.35-1.64,3.27-1.64,5.76s.55,4.41,1.64,5.76c1.09,1.35,2.55,2.03,4.38,2.03s3.28-.68,4.35-2.03M1539.92,1462.21c-1.67,1.72-4.09,2.58-7.25,2.58s-5.58-.86-7.25-2.58c-2.24-2.11-3.36-5.15-3.36-9.12s1.12-7.09,3.36-9.12c1.67-1.72,4.09-2.58,7.25-2.58s5.58.86,7.25,2.58c2.23,2.03,3.35,5.07,3.35,9.12s-1.11,7.01-3.35,9.12"/>
        <path class="st1" d="M1570.2,1448.96c-.35-1.51-1.21-2.57-2.57-3.17-.76-.33-1.61-.49-2.53-.49-1.78,0-3.25.67-4.39,2.02-1.14,1.34-1.71,3.36-1.71,6.06s.62,4.64,1.86,5.76c1.24,1.13,2.65,1.7,4.23,1.7s2.82-.45,3.81-1.34c.99-.89,1.6-2.06,1.83-3.5h-5.12v-3.69h9.21v11.87h-3.06l-.47-2.76c-.89,1.04-1.69,1.78-2.4,2.21-1.22.75-2.72,1.12-4.5,1.12-2.93,0-5.33-1.02-7.2-3.04-1.95-2.04-2.92-4.83-2.92-8.37s.98-6.45,2.96-8.61c1.97-2.16,4.57-3.24,7.82-3.24,2.81,0,5.07.72,6.77,2.14,1.71,1.43,2.69,3.21,2.94,5.33h-4.55Z"/>
        <path class="st1" d="M1583.85,1445.91v5.94h4.97c.99,0,1.73-.12,2.23-.36.87-.42,1.31-1.25,1.31-2.49,0-1.34-.42-2.24-1.27-2.7-.48-.26-1.18-.39-2.14-.39h-5.1ZM1593.4,1442.63c.81.35,1.5.87,2.07,1.55.47.56.84,1.18,1.12,1.86.27.68.41,1.46.41,2.32,0,1.05-.26,2.08-.79,3.1-.53,1.02-1.4,1.73-2.63,2.15,1.02.41,1.74.99,2.17,1.75.42.75.64,1.91.64,3.46v1.48c0,1.01.04,1.7.12,2.06.12.57.41.99.86,1.26v.56h-5.1c-.14-.49-.24-.88-.3-1.18-.12-.62-.19-1.25-.19-1.91l-.03-2.06c-.02-1.41-.26-2.35-.73-2.82-.47-.47-1.35-.7-2.64-.7h-4.51v8.67h-4.52v-22.12h10.58c1.51.03,2.68.22,3.49.57"/>
      </g>
      <path class="st1" d="M1607.44,1455.82h5.67l-2.79-8.7-2.87,8.7ZM1607.74,1442.06h5.23l7.82,22.12h-5.01l-1.46-4.55h-8.14l-1.5,4.55h-4.83l7.89-22.12Z"/>
      <polygon class="st1" points="1623.54 1442.06 1628.38 1442.06 1637.16 1457.49 1637.16 1442.06 1641.47 1442.06 1641.47 1464.18 1636.85 1464.18 1627.84 1448.49 1627.84 1464.18 1623.54 1464.18 1623.54 1442.06"/>
      <path class="st1" d="M1650.29,1445.9v14.43h4.27c2.18,0,3.71-1.08,4.57-3.22.47-1.18.7-2.59.7-4.22,0-2.25-.35-3.98-1.06-5.18-.71-1.2-2.11-1.81-4.21-1.81h-4.27ZM1658.76,1442.54c1.55.51,2.81,1.45,3.77,2.81.78,1.1,1.3,2.29,1.58,3.57.28,1.28.42,2.5.42,3.66,0,2.94-.59,5.43-1.77,7.47-1.6,2.75-4.07,4.12-7.42,4.12h-9.53v-22.11h9.53c1.38.02,2.52.18,3.43.48"/>
      <polygon class="st1" points="1684.35 1445.98 1672.65 1445.98 1672.65 1450.67 1683.39 1450.67 1683.39 1454.52 1672.65 1454.52 1672.65 1460.2 1684.89 1460.2 1684.89 1464.18 1668.13 1464.18 1668.13 1442.06 1684.35 1442.06 1684.35 1445.98"/>
      <g>
        <path class="st1" d="M1701.51,1445.9v14.43h4.27c2.19,0,3.71-1.08,4.57-3.22.47-1.18.71-2.59.71-4.22,0-2.25-.35-3.98-1.06-5.18-.71-1.2-2.11-1.81-4.22-1.81h-4.27ZM1709.99,1442.54c1.55.51,2.81,1.45,3.77,2.81.77,1.1,1.3,2.29,1.58,3.57.28,1.28.42,2.5.42,3.66,0,2.94-.59,5.43-1.77,7.47-1.6,2.75-4.07,4.12-7.42,4.12h-9.53v-22.11h9.53c1.38.02,2.52.18,3.43.48"/>
        <path class="st1" d="M1733.36,1458.85c1.08-1.35,1.62-3.27,1.62-5.76s-.54-4.4-1.62-5.75c-1.07-1.36-2.53-2.03-4.35-2.03s-3.29.68-4.38,2.03c-1.09,1.35-1.64,3.27-1.64,5.76s.55,4.41,1.64,5.76c1.09,1.35,2.55,2.03,4.38,2.03s3.28-.68,4.35-2.03M1736.25,1462.21c-1.67,1.72-4.09,2.58-7.25,2.58s-5.58-.86-7.25-2.58c-2.24-2.11-3.36-5.15-3.36-9.12s1.12-7.09,3.36-9.12c1.67-1.72,4.09-2.58,7.25-2.58s5.58.86,7.25,2.58c2.23,2.03,3.35,5.07,3.35,9.12s-1.11,7.01-3.35,9.12"/>
        <path class="st1" d="M1754.99,1457.35c.14,1.01.42,1.77.84,2.27.77.91,2.08,1.36,3.94,1.36,1.11,0,2.02-.12,2.72-.36,1.32-.46,1.98-1.32,1.98-2.57,0-.73-.33-1.3-.97-1.7-.65-.39-1.67-.73-3.07-1.03l-2.39-.53c-2.36-.52-3.97-1.09-4.85-1.7-1.49-1.02-2.23-2.61-2.23-4.79,0-1.98.72-3.63,2.19-4.94,1.46-1.31,3.6-1.96,6.43-1.96,2.36,0,4.37.62,6.04,1.85,1.66,1.24,2.54,3.03,2.62,5.38h-4.44c-.08-1.33-.68-2.28-1.78-2.83-.74-.37-1.65-.56-2.76-.56-1.22,0-2.19.24-2.92.72-.72.48-1.09,1.15-1.09,2.01,0,.79.36,1.38,1.08,1.77.46.26,1.44.57,2.94.92l3.88.91c1.7.4,2.98.94,3.82,1.61,1.32,1.04,1.98,2.55,1.98,4.52s-.78,3.7-2.35,5.03c-1.56,1.33-3.77,2-6.62,2s-5.2-.66-6.87-1.97c-1.67-1.32-2.5-3.12-2.5-5.42h4.41Z"/>
        <path class="st1" d="M1772.15,1442.06h4.7v13.58c0,1.52.18,2.63.54,3.33.56,1.24,1.77,1.86,3.65,1.86s3.08-.62,3.63-1.86c.36-.7.54-1.81.54-3.33v-13.58h4.7v13.59c0,2.35-.36,4.18-1.1,5.49-1.36,2.4-3.95,3.6-7.77,3.6s-6.42-1.2-7.79-3.6c-.73-1.31-1.09-3.14-1.09-5.49v-13.59Z"/>
      </g>
      <polygon class="st1" points="1794.35 1442.06 1798.97 1442.06 1798.97 1460.2 1810.01 1460.2 1810.01 1464.18 1794.35 1464.18 1794.35 1442.06"/>
    </g>
    <line class="st2" x1="1459.08" y1="1387.17" x2="1684.89" y2="1426.28"/>
  </g>
  <g>
    <g>
      <g>
        <path class="st1" d="M1858,1302.08h88.29c2,0,3.62-1.62,3.62-3.62v-39.29c0-2-1.62-3.62-3.62-3.62h-88.29v46.54Z"/>
        <path class="st3" d="M1948.41,1297.89c0,1.58-1.28,2.86-2.86,2.86h-87.55v-43.87h87.55c1.58,0,2.86,1.28,2.86,2.86v38.16ZM1945.55,1254.32h-287.46c-2.99,0-5.42,2.43-5.42,5.42v38.16c0,2.99,2.43,5.42,5.42,5.42h287.46c2.99,0,5.42-2.43,5.42-5.42v-38.16c0-2.99-2.43-5.42-5.42-5.42"/>
      </g>
      <path class="st3" d="M1876.24,1282.13v-9.74l-6.89,9.74h6.89ZM1876.29,1289.73v-5.25h-9.42v-2.64l9.85-13.65h2.28v13.94h3.17v2.36h-3.17v5.25h-2.7Z"/>
      <g>
        <path class="st3" d="M1885.29,1284.9c.66-1.37,1.96-2.61,3.89-3.74l2.88-1.67c1.29-.75,2.2-1.39,2.72-1.92.82-.83,1.23-1.78,1.23-2.85,0-1.25-.37-2.24-1.12-2.98-.75-.73-1.75-1.1-3-1.1-1.85,0-3.13.7-3.84,2.1-.38.75-.59,1.79-.63,3.12h-2.75c.03-1.87.38-3.4,1.03-4.58,1.17-2.08,3.24-3.12,6.2-3.12,2.46,0,4.26.66,5.4,2,1.13,1.33,1.7,2.81,1.7,4.44,0,1.72-.61,3.19-1.82,4.41-.7.71-1.96,1.57-3.77,2.58l-2.06,1.14c-.98.54-1.75,1.06-2.31,1.55-1,.87-1.63,1.84-1.89,2.9h11.74v2.55h-14.75c.1-1.85.49-3.46,1.15-4.83"/>
        <path class="st3" d="M1902.82,1292.87c.69-.12,1.17-.61,1.46-1.46.15-.45.22-.88.22-1.31,0-.07,0-.13,0-.19,0-.05-.02-.11-.04-.19h-1.63v-3.27h3.21v3.03c0,1.19-.24,2.23-.72,3.13-.48.9-1.31,1.46-2.49,1.66v-1.42Z"/>
        <path class="st3" d="M1910.91,1284.9c.66-1.37,1.96-2.61,3.89-3.74l2.88-1.67c1.29-.75,2.2-1.39,2.72-1.92.82-.83,1.23-1.78,1.23-2.85,0-1.25-.37-2.24-1.12-2.98-.75-.73-1.75-1.1-3-1.1-1.85,0-3.13.7-3.84,2.1-.38.75-.59,1.79-.63,3.12h-2.75c.03-1.87.38-3.4,1.03-4.58,1.17-2.08,3.24-3.12,6.2-3.12,2.46,0,4.26.66,5.4,2,1.13,1.33,1.7,2.81,1.7,4.44,0,1.72-.6,3.19-1.81,4.41-.7.71-1.96,1.57-3.77,2.58l-2.06,1.14c-.98.54-1.75,1.06-2.31,1.55-1,.87-1.63,1.84-1.89,2.9h11.74v2.55h-14.75c.1-1.85.49-3.46,1.15-4.83"/>
        <path class="st3" d="M1939.38,1277.73c.35-.35.53-.78.53-1.27s-.18-.92-.53-1.27c-.35-.35-.78-.53-1.27-.53s-.93.18-1.28.53c-.36.35-.53.78-.53,1.27s.17.92.53,1.27c.35.35.78.53,1.28.53s.92-.18,1.27-.53M1940.26,1274.3c.6.6.9,1.31.9,2.15s-.3,1.55-.9,2.15c-.59.6-1.31.89-2.15.89s-1.57-.3-2.16-.89c-.59-.59-.89-1.31-.89-2.15s.3-1.56.89-2.15c.59-.59,1.32-.89,2.16-.89s1.55.3,2.15.89M1936.84,1267.03h.97l-7.01,12.8h-.97l7.01-12.8ZM1930.8,1271.68c.35-.35.52-.78.52-1.27s-.17-.92-.52-1.27c-.35-.35-.78-.53-1.29-.53s-.92.18-1.27.53c-.35.35-.53.78-.53,1.28s.18.92.53,1.27c.35.35.78.53,1.27.53s.93-.18,1.29-.53M1931.67,1268.25c.6.6.9,1.32.9,2.15s-.3,1.56-.9,2.15c-.59.59-1.32.89-2.16.89s-1.55-.3-2.15-.89c-.6-.6-.89-1.32-.89-2.15s.29-1.56.89-2.15c.59-.6,1.31-.9,2.15-.9s1.57.3,2.16.9"/>
        <path class="st1" d="M1669.73,1285.69c.14,1.01.42,1.77.84,2.27.77.91,2.08,1.36,3.94,1.36,1.12,0,2.02-.12,2.72-.36,1.32-.46,1.98-1.32,1.98-2.57,0-.73-.33-1.3-.97-1.7-.64-.39-1.67-.73-3.07-1.03l-2.39-.53c-2.36-.52-3.97-1.09-4.85-1.7-1.49-1.02-2.23-2.61-2.23-4.79,0-1.98.72-3.63,2.19-4.94,1.46-1.31,3.6-1.96,6.43-1.96,2.36,0,4.37.62,6.04,1.85,1.67,1.24,2.54,3.03,2.62,5.38h-4.44c-.09-1.33-.68-2.28-1.79-2.83-.74-.37-1.65-.56-2.76-.56-1.22,0-2.19.24-2.92.72-.72.48-1.09,1.15-1.09,2.01,0,.79.36,1.38,1.07,1.77.46.26,1.44.57,2.94.92l3.88.91c1.7.4,2.98.94,3.82,1.61,1.32,1.04,1.98,2.55,1.98,4.52s-.78,3.7-2.35,5.03c-1.56,1.33-3.77,2-6.62,2s-5.2-.66-6.87-1.97c-1.67-1.32-2.5-3.12-2.5-5.42h4.41Z"/>
        <path class="st1" d="M1692.91,1284.16h5.66l-2.79-8.7-2.87,8.7ZM1694.67,1264.72c.26.06.48.13.66.2l1.41.53c.42.14.7.24.83.27.13.04.27.06.43.06.48,0,.81-.13,1.01-.38.19-.26.34-.56.43-.91h2c-.18,1.05-.54,1.93-1.08,2.64-.53.71-1.32,1.07-2.35,1.07-.31,0-.75-.08-1.32-.23-.33-.08-.64-.17-.94-.27l-1.22-.41c-.17-.06-.34-.11-.49-.13-.16-.03-.32-.04-.48-.04-.38,0-.69.11-.93.34-.24.23-.41.55-.51.96h-1.95c.22-1.04.51-1.82.86-2.35.64-.95,1.59-1.43,2.85-1.43.27,0,.54.03.79.09M1693.22,1270.4h5.23l7.82,22.12h-5.01l-1.46-4.55h-8.14l-1.5,4.55h-4.83l7.89-22.12Z"/>
        <path class="st1" d="M1723.22,1287.19c1.08-1.35,1.62-3.27,1.62-5.76s-.54-4.4-1.62-5.75c-1.07-1.36-2.53-2.03-4.35-2.03s-3.29.68-4.38,2.03c-1.09,1.35-1.64,3.27-1.64,5.76s.55,4.41,1.64,5.76c1.09,1.35,2.55,2.03,4.38,2.03s3.28-.68,4.35-2.03M1726.12,1290.55c-1.67,1.72-4.09,2.58-7.25,2.58s-5.58-.86-7.25-2.58c-2.24-2.11-3.36-5.15-3.36-9.12s1.12-7.09,3.36-9.12c1.67-1.72,4.09-2.58,7.25-2.58s5.58.86,7.25,2.58c2.23,2.03,3.35,5.07,3.35,9.12s-1.11,7.01-3.35,9.12"/>
        <path class="st1" d="M1752.85,1274.97c-.59-.49-1.41-.73-2.46-.73h-4.16v6.51h4.16c1.05,0,1.87-.26,2.46-.79.58-.53.88-1.37.88-2.52s-.29-1.97-.88-2.46M1756.37,1282.94c-1.29,1.08-3.14,1.62-5.55,1.62h-4.6v7.95h-4.59v-22.12h9.49c2.19,0,3.94.57,5.24,1.71,1.31,1.14,1.96,2.91,1.96,5.3,0,2.61-.65,4.46-1.95,5.54"/>
      </g>
      <path class="st1" d="M1765.77,1284.16h5.67l-2.79-8.7-2.87,8.7ZM1766.08,1270.4h5.23l7.82,22.12h-5.01l-1.46-4.55h-8.14l-1.5,4.55h-4.83l7.89-22.12Z"/>
      <path class="st1" d="M1781.95,1270.4h4.7v13.58c0,1.52.18,2.63.54,3.33.56,1.24,1.77,1.86,3.65,1.86s3.08-.62,3.63-1.86c.36-.7.54-1.81.54-3.33v-13.58h4.7v13.59c0,2.35-.36,4.18-1.1,5.49-1.36,2.4-3.95,3.6-7.77,3.6s-6.42-1.2-7.79-3.6c-.73-1.31-1.09-3.14-1.09-5.49v-13.59Z"/>
      <polygon class="st1" points="1804.14 1270.4 1808.76 1270.4 1808.76 1288.54 1819.8 1288.54 1819.8 1292.52 1804.14 1292.52 1804.14 1270.4"/>
      <path class="st1" d="M1837.05,1287.19c1.08-1.35,1.62-3.27,1.62-5.76s-.54-4.4-1.62-5.75c-1.07-1.36-2.53-2.03-4.35-2.03s-3.29.68-4.38,2.03c-1.09,1.35-1.63,3.27-1.63,5.76s.55,4.41,1.63,5.76c1.09,1.35,2.55,2.03,4.38,2.03s3.28-.68,4.35-2.03M1839.94,1290.55c-1.67,1.72-4.09,2.58-7.25,2.58s-5.58-.86-7.25-2.58c-2.24-2.11-3.36-5.15-3.36-9.12s1.12-7.09,3.36-9.12c1.67-1.72,4.09-2.58,7.25-2.58s5.58.86,7.25,2.58c2.23,2.03,3.35,5.07,3.35,9.12s-1.12,7.01-3.35,9.12"/>
    </g>
    <line class="st2" x1="1616.07" y1="1144.81" x2="1802.18" y2="1251.32"/>
  </g>
  <g>
    <polygon class="st1" points="1675.66 1106.52 1675.66 1096 1688.07 1096 1688.07 1082.41 1724.69 1082.41 1724.69 1069.86 1749.53 1069.86 1749.53 1058.26 1774.05 1058.26 1798.57 1058.26 1798.57 1083.56 1774.69 1083.56 1774.69 1095.36 1761.95 1095.36 1761.95 1106.52 1725.33 1106.52 1725.33 1119.59 1713.23 1119.59 1713.23 1106.52 1675.66 1106.52"/>
    <g>
      <path class="st1" d="M2075.92,1191.63h88.29c2,0,3.62-1.62,3.62-3.62v-39.29c0-2-1.62-3.62-3.62-3.62h-88.29v46.54Z"/>
      <path class="st3" d="M2167.08,1187.44c0,1.58-1.28,2.86-2.86,2.86h-87.55v-43.87h87.55c1.58,0,2.86,1.28,2.86,2.86v38.16ZM2164.22,1143.86h-356.98c-2.99,0-5.42,2.43-5.42,5.42v38.16c0,2.99,2.43,5.42,5.42,5.42h356.98c2.99,0,5.42-2.43,5.42-5.42v-38.16c0-2.99-2.43-5.42-5.42-5.42"/>
      <path class="st3" d="M2086.95,1164.24v-2.07c1.95-.19,3.31-.51,4.08-.95.77-.44,1.34-1.5,1.72-3.16h2.13v21.4h-2.88v-15.22h-5.06Z"/>
      <path class="st3" d="M2112.72,1175.72c.83-1.24,1.24-3.55,1.24-6.93,0-2.44-.3-4.45-.9-6.02-.6-1.57-1.77-2.36-3.5-2.36-1.59,0-2.75.75-3.49,2.24-.74,1.49-1.1,3.7-1.1,6.61,0,2.19.24,3.95.71,5.28.72,2.03,1.95,3.05,3.69,3.05,1.4,0,2.52-.62,3.35-1.86M2115.44,1161.4c.96,1.77,1.44,4.19,1.44,7.28,0,2.92-.43,5.34-1.31,7.25-1.26,2.74-3.32,4.11-6.18,4.11-2.58,0-4.5-1.12-5.76-3.36-1.05-1.87-1.57-4.38-1.57-7.53,0-2.44.31-4.54.94-6.29,1.18-3.26,3.31-4.89,6.41-4.89,2.78,0,4.79,1.14,6.03,3.44"/>
      <path class="st3" d="M2120.74,1182.59c.69-.12,1.17-.61,1.46-1.46.15-.45.23-.88.23-1.31,0-.07,0-.13,0-.19,0-.05-.02-.11-.04-.19h-1.63v-3.27h3.21v3.03c0,1.19-.24,2.23-.72,3.13-.48.9-1.31,1.46-2.49,1.66v-1.42Z"/>
      <path class="st3" d="M2128.83,1174.62c.66-1.37,1.96-2.61,3.89-3.74l2.88-1.67c1.29-.75,2.2-1.39,2.72-1.92.82-.83,1.23-1.78,1.23-2.85,0-1.25-.37-2.24-1.12-2.98-.75-.73-1.75-1.1-3-1.1-1.85,0-3.13.7-3.84,2.1-.38.75-.59,1.79-.63,3.12h-2.75c.03-1.87.38-3.4,1.03-4.58,1.17-2.08,3.24-3.12,6.2-3.12,2.46,0,4.26.66,5.4,2,1.14,1.33,1.7,2.81,1.7,4.44,0,1.72-.6,3.19-1.81,4.41-.7.71-1.96,1.57-3.77,2.58l-2.06,1.14c-.98.54-1.75,1.06-2.31,1.55-1,.87-1.63,1.84-1.89,2.9h11.73v2.55h-14.75c.1-1.85.48-3.46,1.15-4.83"/>
      <path class="st3" d="M2157.3,1167.45c.35-.35.53-.78.53-1.27s-.18-.92-.53-1.27c-.35-.35-.78-.53-1.27-.53s-.93.18-1.28.53c-.35.35-.53.78-.53,1.27s.18.92.53,1.27c.35.35.78.53,1.28.53s.92-.18,1.27-.53M2158.18,1164.02c.6.6.89,1.31.89,2.15s-.3,1.55-.89,2.15c-.59.6-1.31.89-2.15.89s-1.56-.3-2.16-.89c-.59-.59-.89-1.31-.89-2.15s.3-1.56.89-2.15c.6-.59,1.32-.89,2.16-.89s1.56.3,2.15.89M2154.76,1156.75h.97l-7.01,12.8h-.97l7.01-12.8ZM2148.72,1161.39c.35-.35.53-.78.53-1.27s-.17-.92-.53-1.27c-.35-.35-.78-.53-1.28-.53s-.92.18-1.27.53c-.35.35-.53.78-.53,1.28s.18.92.53,1.27c.35.35.78.53,1.27.53s.93-.18,1.28-.53M2149.59,1157.96c.6.6.89,1.32.89,2.15s-.3,1.56-.89,2.15c-.59.59-1.32.89-2.16.89s-1.55-.3-2.15-.89c-.6-.6-.89-1.32-.89-2.15s.3-1.56.89-2.15c.59-.6,1.31-.9,2.15-.9s1.57.3,2.16.9"/>
      <path class="st1" d="M1820.17,1161.18v5.94h4.97c.99,0,1.73-.12,2.23-.36.87-.42,1.31-1.25,1.31-2.49,0-1.34-.43-2.24-1.27-2.7-.48-.26-1.19-.39-2.14-.39h-5.1ZM1829.73,1157.9c.81.35,1.5.87,2.07,1.55.47.56.84,1.18,1.11,1.86.27.68.41,1.46.41,2.32,0,1.05-.26,2.08-.79,3.1-.53,1.02-1.4,1.73-2.63,2.15,1.02.41,1.74.99,2.17,1.75.42.75.64,1.91.64,3.46v1.49c0,1.01.04,1.7.12,2.05.12.57.41.99.86,1.26v.56h-5.1c-.14-.49-.24-.88-.3-1.18-.12-.62-.19-1.25-.19-1.91l-.03-2.06c-.02-1.41-.26-2.35-.73-2.82-.47-.47-1.35-.71-2.63-.71h-4.51v8.67h-4.52v-22.11h10.58c1.51.03,2.68.22,3.49.57"/>
      <rect class="st1" x="1837.37" y="1157.33" width="4.59" height="22.12"/>
      <g>
        <path class="st1" d="M1860.42,1174.12c1.08-1.35,1.62-3.27,1.62-5.76s-.54-4.4-1.62-5.75c-1.07-1.36-2.53-2.03-4.35-2.03s-3.29.68-4.38,2.03c-1.09,1.35-1.63,3.27-1.63,5.76s.55,4.41,1.63,5.76c1.09,1.35,2.55,2.03,4.38,2.03s3.28-.68,4.35-2.03M1863.31,1177.48c-1.67,1.72-4.09,2.58-7.25,2.58s-5.58-.86-7.25-2.58c-2.24-2.11-3.36-5.15-3.36-9.12s1.12-7.09,3.36-9.12c1.67-1.72,4.09-2.58,7.25-2.58s5.58.86,7.25,2.58c2.23,2.03,3.35,5.07,3.35,9.12s-1.11,7.01-3.35,9.12"/>
        <path class="st1" d="M1883.2,1161.18v14.43h4.27c2.19,0,3.71-1.08,4.57-3.22.47-1.18.71-2.59.71-4.22,0-2.25-.35-3.98-1.06-5.18-.71-1.21-2.11-1.81-4.22-1.81h-4.27ZM1891.68,1157.81c1.55.51,2.81,1.45,3.77,2.81.77,1.1,1.3,2.29,1.58,3.57.28,1.28.42,2.5.42,3.66,0,2.94-.59,5.43-1.77,7.47-1.6,2.75-4.07,4.12-7.42,4.12h-9.53v-22.11h9.53c1.38.02,2.52.18,3.43.48"/>
      </g>
      <polygon class="st1" points="1917.26 1161.25 1905.56 1161.25 1905.56 1165.95 1916.3 1165.95 1916.3 1169.79 1905.56 1169.79 1905.56 1175.48 1917.8 1175.48 1917.8 1179.45 1901.04 1179.45 1901.04 1157.33 1917.26 1157.33 1917.26 1161.25"/>
      <path class="st1" d="M1932.64,1171.06v.51c.04,1.71.21,2.91.53,3.61.31.7.99,1.04,2.02,1.04s1.7-.38,2.03-1.14c.19-.45.3-1.21.3-2.28v-15.47h4.62v15.39c0,1.88-.32,3.37-.95,4.47-1.08,1.86-3.02,2.79-5.82,2.79s-4.69-.75-5.65-2.26c-.95-1.5-1.44-3.56-1.44-6.16v-.51h4.37Z"/>
      <path class="st1" d="M1953.05,1171.09h5.67l-2.79-8.7-2.87,8.7ZM1953.35,1157.33h5.23l7.82,22.12h-5.01l-1.46-4.55h-8.14l-1.5,4.55h-4.83l7.89-22.12Z"/>
      <polygon class="st1" points="1969.15 1157.33 1973.99 1157.33 1982.77 1172.76 1982.77 1157.33 1987.08 1157.33 1987.08 1179.45 1982.46 1179.45 1973.46 1163.76 1973.46 1179.45 1969.15 1179.45 1969.15 1157.33"/>
      <polygon class="st1" points="2007.77 1161.25 1996.07 1161.25 1996.07 1165.95 2006.81 1165.95 2006.81 1169.79 1996.07 1169.79 1996.07 1175.48 2008.31 1175.48 2008.31 1179.45 1991.55 1179.45 1991.55 1157.33 2007.77 1157.33 2007.77 1161.25"/>
      <rect class="st1" x="2011.54" y="1157.33" width="4.59" height="22.12"/>
      <g>
        <path class="st1" d="M2025.07,1161.18v5.94h4.97c.99,0,1.73-.12,2.23-.36.87-.42,1.31-1.25,1.31-2.49,0-1.34-.42-2.24-1.27-2.7-.48-.26-1.19-.39-2.14-.39h-5.1ZM2034.62,1157.9c.81.35,1.5.87,2.07,1.55.47.56.84,1.18,1.11,1.86.27.68.41,1.46.41,2.32,0,1.05-.26,2.08-.79,3.1-.53,1.02-1.4,1.73-2.63,2.15,1.02.41,1.74.99,2.17,1.75.42.75.64,1.91.64,3.46v1.49c0,1.01.04,1.7.12,2.05.12.57.41.99.86,1.26v.56h-5.1c-.14-.49-.24-.88-.3-1.18-.12-.62-.19-1.25-.19-1.91l-.03-2.06c-.02-1.41-.26-2.35-.73-2.82-.47-.47-1.35-.71-2.64-.71h-4.51v8.67h-4.52v-22.11h10.58c1.51.03,2.68.22,3.49.57"/>
        <path class="st1" d="M2056.78,1174.12c1.08-1.35,1.62-3.27,1.62-5.76s-.54-4.4-1.62-5.75c-1.07-1.36-2.53-2.03-4.35-2.03s-3.29.68-4.38,2.03c-1.09,1.35-1.64,3.27-1.64,5.76s.55,4.41,1.64,5.76c1.09,1.35,2.55,2.03,4.38,2.03s3.28-.68,4.35-2.03M2059.67,1177.48c-1.67,1.72-4.09,2.58-7.25,2.58s-5.58-.86-7.25-2.58c-2.24-2.11-3.36-5.15-3.36-9.12s1.12-7.09,3.36-9.12c1.67-1.72,4.09-2.58,7.25-2.58s5.58.86,7.25,2.58c2.23,2.03,3.35,5.07,3.35,9.12s-1.11,7.01-3.35,9.12"/>
      </g>
    </g>
    <line class="st2" x1="1761.95" y1="1106.52" x2="1969.15" y2="1139.81"/>
  </g>
  <g>
    <polygon class="st1" points="1613.24 824.07 1613.24 811.15 1639.35 811.15 1639.35 824.07 1663.4 823.59 1663.4 811.15 1676.29 811.15 1676.29 799.2 1712.91 799.2 1712.91 811.15 1737.31 811.15 1737.31 799.2 1749.97 799.2 1749.97 811.15 1761.63 811.15 1761.63 824.07 1774.37 824.07 1774.37 837.1 1799.05 837.1 1799.05 848.61 1823.09 848.61 1823.09 861.01 1848.56 860.73 1848.56 873.8 1836.78 873.8 1836.78 898.19 1824.6 898.19 1824.6 934.77 1798.81 934.77 1798.81 959.63 1787.34 959.63 1787.34 996.22 1774.92 996.22 1774.92 1009.84 1762.27 1009.84 1762.27 1046.18 1750.09 1046.18 1750.09 1058.26 1738.15 1058.26 1738.15 1069.86 1713.55 1069.86 1713.55 1082.41 1700.17 1082.41 1700.17 1069.86 1639.04 1069.86 1639.04 1082.41 1614.68 1082.41 1614.68 1058.26 1625.66 1058.26 1625.66 1044.99 1614.68 1044.99 1614.68 1021.2 1601.46 1021.2 1601.46 983.78 1589.36 983.78 1589.36 972.62 1565.8 972.62 1565.8 983.78 1502.75 983.78 1502.75 972.62 1478.43 972.62 1478.43 958.92 1490.01 958.92 1490.01 946.72 1515.49 946.72 1515.49 934.69 1527.87 934.69 1527.87 922.57 1540.76 922.57 1540.76 934.69 1565.16 934.69 1565.16 922.57 1577.9 922.57 1577.9 934.69 1588.09 934.69 1588.09 907.91 1601.46 907.91 1601.46 886.23 1614.2 886.23 1614.2 873.8 1589.36 873.8 1589.36 848.61 1600.82 848.61 1600.82 824.07 1613.24 824.07"/>
    <g>
      <g>
        <path class="st1" d="M2126.01,1050.7h83.17c2,0,3.62-1.62,3.62-3.62v-39.29c0-2-1.62-3.62-3.62-3.62h-83.17v46.54Z"/>
        <path class="st3" d="M2211.3,1046.51c0,1.58-1.28,2.86-2.86,2.86h-82.43v-43.87h82.43c1.58,0,2.86,1.28,2.86,2.86v38.16ZM2208.44,1002.94h-326.79c-2.99,0-5.42,2.43-5.42,5.42v38.16c0,2.99,2.43,5.42,5.42,5.42h326.79c2.99,0,5.42-2.43,5.42-5.42v-38.16c0-2.99-2.43-5.42-5.42-5.42"/>
        <path class="st3" d="M2151.74,1027.69c.88-.71,1.33-1.94,1.33-3.7,0-1.58-.4-2.76-1.19-3.53-.79-.77-1.81-1.16-3.04-1.16-1.32,0-2.37.44-3.14,1.33-.78.89-1.16,2.07-1.16,3.55,0,1.4.34,2.51,1.02,3.34.68.83,1.77,1.24,3.26,1.24,1.07,0,2.05-.35,2.93-1.06M2144.71,1033.16c.08,1.49.65,2.52,1.73,3.09.55.3,1.17.45,1.86.45,1.29,0,2.39-.54,3.3-1.61.91-1.08,1.56-3.26,1.93-6.55-.6.95-1.34,1.62-2.23,2-.88.38-1.84.58-2.86.58-2.07,0-3.71-.64-4.91-1.93-1.21-1.29-1.81-2.95-1.81-4.98s.59-3.66,1.78-5.15c1.19-1.48,2.95-2.22,5.27-2.22,3.13,0,5.29,1.41,6.48,4.23.66,1.55.99,3.49.99,5.82,0,2.63-.4,4.96-1.18,6.99-1.31,3.38-3.53,5.07-6.66,5.07-2.1,0-3.7-.55-4.79-1.65-1.09-1.1-1.63-2.48-1.63-4.14h2.73Z"/>
        <path class="st3" d="M2160.27,1041.49c.69-.12,1.17-.61,1.46-1.46.15-.45.22-.88.22-1.31,0-.07,0-.13,0-.19,0-.05-.02-.11-.04-.19h-1.63v-3.27h3.21v3.03c0,1.19-.24,2.23-.72,3.13-.48.9-1.31,1.46-2.49,1.66v-1.42Z"/>
        <path class="st3" d="M2182.32,1017.23v2.36c-.69.67-1.61,1.84-2.76,3.5-1.14,1.66-2.16,3.45-3.04,5.37-.87,1.87-1.53,3.58-1.98,5.11-.29.99-.66,2.59-1.12,4.79h-2.98c.68-4.1,2.18-8.18,4.5-12.24,1.37-2.38,2.81-4.43,4.32-6.16h-11.88v-2.72h14.94Z"/>
        <path class="st3" d="M2196.83,1026.35c.35-.35.53-.78.53-1.27s-.18-.92-.53-1.27c-.35-.35-.78-.53-1.27-.53s-.93.18-1.28.53c-.35.35-.53.78-.53,1.27s.18.92.53,1.27c.35.35.78.53,1.28.53s.92-.18,1.27-.53M2197.71,1022.92c.6.6.89,1.31.89,2.15s-.3,1.55-.89,2.15c-.59.6-1.31.89-2.15.89s-1.57-.3-2.16-.89c-.59-.59-.89-1.31-.89-2.15s.3-1.56.89-2.15c.59-.59,1.32-.89,2.16-.89s1.56.3,2.15.89M2194.29,1015.65h.97l-7.01,12.8h-.97l7.01-12.8ZM2188.25,1020.3c.35-.35.53-.78.53-1.27s-.18-.92-.53-1.27c-.35-.35-.78-.53-1.28-.53s-.92.18-1.27.53c-.35.35-.53.78-.53,1.28s.18.92.53,1.27c.35.35.78.53,1.27.53s.93-.18,1.28-.53M2189.13,1016.87c.59.6.89,1.32.89,2.15s-.3,1.56-.89,2.15c-.6.59-1.32.89-2.16.89s-1.55-.3-2.15-.89c-.59-.6-.89-1.32-.89-2.15s.3-1.56.89-2.15c.6-.6,1.31-.9,2.15-.9s1.56.3,2.16.9"/>
        <path class="st1" d="M1904.63,1016.41h6.65v22.12h-4.31v-14.96c0-.43,0-1.03.02-1.81,0-.78.01-1.38.01-1.79l-4.19,18.56h-4.49l-4.16-18.56c0,.42,0,1.02.02,1.79,0,.77.01,1.38.01,1.81v14.96h-4.3v-22.12h6.72l4.03,17.39,4-17.39Z"/>
      </g>
      <rect class="st1" x="1915.18" y="1016.41" width="4.59" height="22.12"/>
      <polygon class="st1" points="1924.02 1016.41 1928.86 1016.41 1937.64 1031.84 1937.64 1016.41 1941.95 1016.41 1941.95 1038.53 1937.33 1038.53 1928.32 1022.84 1928.32 1038.53 1924.02 1038.53 1924.02 1016.41"/>
      <path class="st1" d="M1952.3,1030.17h5.66l-2.79-8.7-2.87,8.7ZM1952.6,1016.41h5.23l7.82,22.12h-5.01l-1.46-4.55h-8.14l-1.5,4.55h-4.83l7.89-22.12Z"/>
      <g>
        <path class="st1" d="M1971.81,1031.7c.14,1.01.42,1.77.84,2.27.77.91,2.08,1.36,3.94,1.36,1.11,0,2.02-.12,2.72-.36,1.32-.46,1.98-1.32,1.98-2.57,0-.73-.33-1.3-.97-1.7-.65-.39-1.67-.74-3.07-1.04l-2.39-.52c-2.36-.52-3.97-1.09-4.85-1.7-1.49-1.02-2.23-2.61-2.23-4.79,0-1.98.72-3.63,2.19-4.94,1.46-1.31,3.6-1.96,6.43-1.96,2.36,0,4.37.62,6.04,1.85,1.66,1.24,2.54,3.03,2.62,5.38h-4.44c-.09-1.33-.68-2.28-1.79-2.83-.74-.37-1.65-.56-2.76-.56-1.22,0-2.19.24-2.92.72-.72.48-1.09,1.15-1.09,2.01,0,.79.36,1.38,1.07,1.77.46.26,1.44.57,2.94.92l3.88.91c1.7.4,2.98.94,3.82,1.61,1.32,1.04,1.98,2.55,1.98,4.52s-.78,3.7-2.35,5.03c-1.56,1.33-3.77,2-6.62,2s-5.2-.66-6.87-1.97c-1.67-1.32-2.5-3.12-2.5-5.42h4.41Z"/>
        <path class="st1" d="M2012.38,1023.32c-.35-1.51-1.2-2.57-2.57-3.17-.76-.33-1.6-.49-2.53-.49-1.78,0-3.25.67-4.39,2.02-1.15,1.34-1.72,3.36-1.72,6.06s.62,4.64,1.86,5.76c1.24,1.13,2.65,1.7,4.23,1.7s2.82-.45,3.81-1.34c.99-.89,1.6-2.06,1.83-3.5h-5.12v-3.69h9.21v11.87h-3.06l-.47-2.76c-.89,1.04-1.69,1.78-2.4,2.21-1.22.75-2.72,1.12-4.5,1.12-2.93,0-5.33-1.02-7.2-3.04-1.95-2.04-2.92-4.83-2.92-8.37s.98-6.45,2.96-8.61c1.97-2.16,4.57-3.24,7.82-3.24,2.81,0,5.07.72,6.77,2.14,1.7,1.43,2.68,3.21,2.93,5.33h-4.55Z"/>
      </g>
      <polygon class="st1" points="2037.76 1020.33 2026.06 1020.33 2026.06 1025.03 2036.8 1025.03 2036.8 1028.87 2026.06 1028.87 2026.06 1034.56 2038.3 1034.56 2038.3 1038.53 2021.54 1038.53 2021.54 1016.41 2037.76 1016.41 2037.76 1020.33"/>
      <path class="st1" d="M2046.53,1020.26v5.94h4.97c.99,0,1.73-.12,2.23-.36.87-.42,1.31-1.25,1.31-2.49,0-1.34-.43-2.24-1.27-2.7-.48-.26-1.19-.39-2.14-.39h-5.1ZM2056.08,1016.98c.81.35,1.5.87,2.07,1.55.47.56.84,1.18,1.11,1.86.27.68.41,1.46.41,2.32,0,1.05-.26,2.08-.79,3.1-.53,1.02-1.4,1.73-2.63,2.15,1.02.41,1.74.99,2.16,1.75.43.75.64,1.91.64,3.46v1.49c0,1.01.04,1.7.12,2.05.12.57.41.99.86,1.26v.56h-5.1c-.14-.49-.24-.88-.3-1.18-.12-.62-.19-1.25-.19-1.91l-.03-2.06c-.02-1.41-.26-2.35-.73-2.82-.47-.47-1.35-.7-2.63-.7h-4.51v8.67h-4.52v-22.12h10.58c1.51.03,2.68.22,3.49.57"/>
      <path class="st1" d="M2070.11,1030.17h5.66l-2.79-8.7-2.87,8.7ZM2070.42,1016.41h5.23l7.82,22.12h-5.01l-1.46-4.55h-8.14l-1.5,4.55h-4.83l7.89-22.12Z"/>
      <rect class="st1" x="2085.91" y="1016.41" width="4.59" height="22.12"/>
      <path class="st1" d="M2098.16,1031.7c.14,1.01.42,1.77.84,2.27.77.91,2.08,1.36,3.94,1.36,1.11,0,2.02-.12,2.72-.36,1.32-.46,1.98-1.32,1.98-2.57,0-.73-.33-1.3-.97-1.7-.65-.39-1.67-.74-3.07-1.04l-2.39-.52c-2.36-.52-3.97-1.09-4.85-1.7-1.49-1.02-2.23-2.61-2.23-4.79,0-1.98.72-3.63,2.19-4.94,1.46-1.31,3.6-1.96,6.43-1.96,2.36,0,4.37.62,6.04,1.85,1.66,1.24,2.54,3.03,2.62,5.38h-4.44c-.08-1.33-.68-2.28-1.78-2.83-.74-.37-1.65-.56-2.76-.56-1.22,0-2.19.24-2.92.72-.72.48-1.09,1.15-1.09,2.01,0,.79.36,1.38,1.08,1.77.46.26,1.44.57,2.94.92l3.88.91c1.7.4,2.98.94,3.82,1.61,1.32,1.04,1.98,2.55,1.98,4.52s-.78,3.7-2.34,5.03c-1.56,1.33-3.77,2-6.62,2s-5.2-.66-6.87-1.97c-1.67-1.32-2.5-3.12-2.5-5.42h4.41Z"/>
    </g>
    <line class="st2" x1="1824.6" y1="934.77" x2="2038.94" y2="999.39"/>
  </g>
  <g>
    <polygon class="st1" points="1933.9 735.76 1933.9 713.45 1922.44 713.45 1922.44 614.62 1910.34 614.62 1910.34 603.14 1872.84 603.14 1872.84 596.93 1835.99 596.93 1835.99 614.62 1823.41 614.62 1823.41 602.43 1810.99 602.43 1810.99 614.62 1773.97 614.62 1773.97 626.81 1737.19 626.81 1737.19 651.68 1712.59 651.68 1712.59 663.63 1700.81 663.63 1700.81 651.68 1687.76 651.68 1687.76 663.63 1664.19 663.63 1664.19 651.68 1650.82 651.68 1650.82 675.51 1639.36 675.51 1639.36 701.01 1650.82 701.01 1650.82 712.81 1639.36 712.81 1639.36 762.54 1651.14 762.54 1651.14 774.97 1639.36 774.97 1639.36 811.95 1663.87 811.95 1663.87 799.2 1676.29 799.2 1676.29 787.09 1712.91 787.09 1712.91 799.2 1761.63 799.2 1761.63 811.95 1774.37 811.95 1774.37 824.07 1786.63 824.07 1786.63 837.14 1823.09 837.14 1823.09 848.93 1848.56 848.93 1848.56 860.73 1860.66 860.73 1860.66 873.8 1896.65 873.8 1896.65 860.73 1885.18 860.73 1885.18 762.22 1896.65 762.22 1896.65 749.79 1921.48 749.79 1921.48 735.76 1933.9 735.76"/>
    <g>
      <path class="st1" d="M2105.27,822.47h83.17c2,0,3.62-1.62,3.62-3.62v-39.29c0-2-1.62-3.62-3.62-3.62h-83.17v46.54Z"/>
      <path class="st3" d="M2190.87,818.28c0,1.58-1.28,2.86-2.86,2.86h-82.43v-43.88h82.43c1.58,0,2.86,1.28,2.86,2.86v38.16ZM2188.01,774.7h-198.95c-2.99,0-5.42,2.43-5.42,5.42v38.16c0,2.99,2.43,5.42,5.42,5.42h198.95c2.99,0,5.42-2.43,5.42-5.42v-38.16c0-2.99-2.43-5.42-5.42-5.42"/>
      <path class="st3" d="M2123.22,804.64c.18,1.54.9,2.61,2.15,3.2.64.3,1.38.45,2.22.45,1.6,0,2.78-.51,3.56-1.53.77-1.02,1.16-2.15,1.16-3.39,0-1.5-.46-2.66-1.37-3.48-.91-.82-2.01-1.23-3.29-1.23-.93,0-1.73.18-2.39.54-.66.36-1.24.86-1.7,1.5l-2.34-.13,1.63-11.57h11.16v2.61h-9.14l-.91,5.97c.5-.38.97-.66,1.42-.86.8-.33,1.73-.49,2.78-.49,1.97,0,3.64.64,5.01,1.91,1.37,1.27,2.06,2.88,2.06,4.83s-.62,3.82-1.88,5.37c-1.25,1.55-3.26,2.33-6.01,2.33-1.75,0-3.29-.49-4.64-1.48-1.34-.99-2.1-2.5-2.26-4.54h2.81Z"/>
      <path class="st3" d="M2139.07,813.25c.69-.12,1.17-.61,1.46-1.46.15-.45.22-.88.22-1.31,0-.07,0-.13,0-.19,0-.05-.02-.11-.04-.19h-1.63v-3.27h3.21v3.03c0,1.19-.24,2.23-.72,3.13-.48.9-1.31,1.46-2.49,1.66v-1.42Z"/>
      <path class="st3" d="M2156.68,806.38c.83-1.24,1.25-3.55,1.25-6.93,0-2.44-.3-4.45-.9-6.02-.6-1.57-1.77-2.36-3.5-2.36-1.59,0-2.75.75-3.48,2.24-.74,1.49-1.11,3.7-1.11,6.61,0,2.19.24,3.95.71,5.28.72,2.03,1.95,3.05,3.69,3.05,1.4,0,2.52-.62,3.35-1.86M2159.4,792.07c.96,1.77,1.44,4.19,1.44,7.28,0,2.92-.43,5.34-1.31,7.25-1.26,2.74-3.32,4.11-6.18,4.11-2.58,0-4.5-1.12-5.76-3.36-1.05-1.87-1.57-4.38-1.57-7.53,0-2.44.31-4.54.94-6.29,1.18-3.26,3.32-4.89,6.41-4.89,2.78,0,4.79,1.14,6.03,3.44"/>
      <path class="st3" d="M2175.63,798.11c.35-.35.53-.78.53-1.27s-.18-.92-.53-1.27c-.35-.35-.78-.53-1.27-.53s-.93.18-1.28.53c-.36.35-.53.78-.53,1.27s.17.92.53,1.27c.35.35.78.53,1.28.53s.92-.18,1.27-.53M2176.51,794.69c.6.6.9,1.31.9,2.15s-.3,1.55-.9,2.15c-.59.6-1.31.89-2.15.89s-1.57-.3-2.16-.89c-.59-.59-.89-1.31-.89-2.15s.3-1.56.89-2.15c.59-.59,1.32-.89,2.16-.89s1.55.3,2.15.89M2173.09,787.41h.97l-7.01,12.8h-.97l7.01-12.8ZM2167.05,792.06c.35-.35.52-.78.52-1.27s-.18-.92-.52-1.27c-.35-.35-.78-.53-1.29-.53s-.92.18-1.27.53c-.35.35-.53.78-.53,1.28s.18.92.53,1.27c.35.35.78.53,1.27.53s.93-.18,1.29-.53M2167.92,788.63c.6.6.9,1.32.9,2.15s-.3,1.56-.9,2.15c-.59.59-1.32.89-2.16.89s-1.55-.3-2.15-.89c-.6-.6-.89-1.32-.89-2.15s.29-1.56.89-2.15c.59-.6,1.31-.9,2.15-.9s1.57.3,2.16.9"/>
      <path class="st1" d="M2001.86,800.52v5.9h5.37c.96,0,1.7-.13,2.24-.39.97-.48,1.45-1.4,1.45-2.76,0-1.15-.47-1.94-1.41-2.37-.52-.24-1.26-.36-2.21-.38h-5.44ZM2001.86,791.98v4.88h5.38c.96,0,1.73-.18,2.33-.55.6-.36.9-1.01.9-1.94,0-1.03-.39-1.71-1.19-2.04-.68-.23-1.55-.34-2.61-.34h-4.81ZM2013.87,790.5c.68.94,1.02,2.07,1.02,3.37s-.34,2.44-1.02,3.26c-.38.46-.94.88-1.69,1.26,1.13.41,1.98,1.06,2.55,1.95.57.89.87,1.97.87,3.24s-.33,2.49-.99,3.53c-.42.69-.94,1.27-1.56,1.74-.71.54-1.54.91-2.5,1.11-.96.2-2,.3-3.13.3h-9.96v-22.12h10.69c2.69.04,4.61.83,5.73,2.36"/>
      <path class="st1" d="M2025.58,801.9h5.66l-2.79-8.7-2.87,8.7ZM2025.88,788.14h5.23l7.82,22.12h-5.01l-1.46-4.55h-8.14l-1.5,4.55h-4.83l7.89-22.12Z"/>
      <polygon class="st1" points="2041.72 810.26 2041.72 788.14 2046.31 788.14 2046.31 796.57 2054.91 796.57 2054.91 788.14 2059.5 788.14 2059.5 810.26 2054.91 810.26 2054.91 800.38 2046.31 800.38 2046.31 810.26 2041.72 810.26"/>
      <rect class="st1" x="2063.57" y="788.14" width="4.59" height="22.12"/>
      <path class="st1" d="M2078.5,801.9h5.66l-2.79-8.7-2.87,8.7ZM2078.8,788.14h5.23l7.82,22.12h-5.01l-1.46-4.55h-8.14l-1.5,4.55h-4.83l7.89-22.12Z"/>
    </g>
    <line class="st2" x1="1936.97" y1="736.45" x2="2093.06" y2="771.59"/>
  </g>
  <g>
    <polygon class="st1" points="1946.16 552.3 1946.16 565.05 1897.76 565.05 1897.76 552.3 1885.02 552.3 1885.02 565.05 1872.92 565.05 1872.92 552.3 1847.77 552.3 1847.77 577.16 1835.99 577.16 1835.99 596.93 1872.92 596.93 1872.92 590.71 1909.38 590.71 1909.38 603.14 1921.8 603.14 1921.8 614.62 1996.31 614.62 1996.31 602.19 2045.03 602.19 2045.03 577.16 2033.25 577.16 2033.25 564.89 1995.84 564.89 1995.84 577.16 1971 577.16 1971 565.05 1959.38 565.05 1959.38 552.3 1946.16 552.3"/>
    <g>
      <g>
        <path class="st1" d="M2344.05,698.62h83.17c2,0,3.62-1.62,3.62-3.62v-39.29c0-2-1.62-3.62-3.62-3.62h-83.17v46.54Z"/>
        <path class="st3" d="M2429.65,694.43c0,1.58-1.28,2.86-2.86,2.86h-82.43v-43.88h82.43c1.58,0,2.86,1.28,2.86,2.86v38.16ZM2426.79,650.85h-324.55c-2.99,0-5.42,2.43-5.42,5.42v38.16c0,2.99,2.43,5.42,5.42,5.42h324.55c2.99,0,5.42-2.43,5.42-5.42v-38.16c0-2.99-2.43-5.42-5.42-5.42"/>
        <path class="st1" d="M2121.87,668.9c-.59-.49-1.41-.73-2.46-.73h-4.16v6.51h4.16c1.05,0,1.87-.26,2.46-.79.58-.53.88-1.37.88-2.52s-.29-1.97-.88-2.46M2125.4,676.86c-1.29,1.08-3.14,1.62-5.55,1.62h-4.6v7.95h-4.59v-22.12h9.49c2.19,0,3.94.57,5.24,1.71,1.31,1.14,1.95,2.91,1.95,5.3,0,2.61-.65,4.46-1.94,5.54"/>
      </g>
      <polygon class="st1" points="2147.41 668.24 2135.7 668.24 2135.7 672.93 2146.44 672.93 2146.44 676.77 2135.7 676.77 2135.7 682.46 2147.95 682.46 2147.95 686.44 2131.18 686.44 2131.18 664.32 2147.41 664.32 2147.41 668.24"/>
      <path class="st1" d="M2156.17,668.16v5.94h4.97c.99,0,1.73-.12,2.23-.36.87-.42,1.31-1.25,1.31-2.49,0-1.34-.42-2.24-1.27-2.7-.48-.26-1.18-.39-2.14-.39h-5.1ZM2165.72,664.89c.81.35,1.5.87,2.07,1.55.47.56.84,1.18,1.12,1.86.27.68.41,1.46.41,2.32,0,1.05-.26,2.08-.79,3.1s-1.4,1.73-2.63,2.15c1.02.41,1.74.99,2.17,1.75.42.75.64,1.91.64,3.46v1.48c0,1.01.04,1.7.12,2.06.12.57.41.99.86,1.26v.56h-5.1c-.14-.49-.24-.88-.3-1.18-.12-.62-.19-1.26-.19-1.91l-.03-2.06c-.02-1.41-.26-2.35-.73-2.82-.47-.47-1.35-.71-2.64-.71h-4.51v8.67h-4.52v-22.12h10.58c1.51.03,2.68.22,3.49.57"/>
      <polygon class="st1" points="2173.66 664.32 2178.5 664.32 2187.29 679.74 2187.29 664.32 2191.59 664.32 2191.59 686.44 2186.97 686.44 2177.97 670.74 2177.97 686.44 2173.66 686.44 2173.66 664.32"/>
      <path class="st1" d="M2201.95,678.08h5.66l-2.79-8.7-2.87,8.7ZM2202.25,664.32h5.23l7.82,22.12h-5.01l-1.46-4.55h-8.14l-1.5,4.55h-4.83l7.89-22.12Z"/>
      <path class="st1" d="M2232.79,664.32h6.65v22.12h-4.31v-14.96c0-.43,0-1.03.02-1.81,0-.78.01-1.38.01-1.79l-4.19,18.56h-4.49l-4.16-18.56c0,.42,0,1.02.02,1.79,0,.77.01,1.38.01,1.81v14.96h-4.3v-22.12h6.72l4.03,17.39,4-17.39Z"/>
      <path class="st1" d="M2248.21,676.7v5.9h5.36c.96,0,1.71-.13,2.24-.39.97-.48,1.46-1.4,1.46-2.76,0-1.15-.47-1.94-1.41-2.37-.52-.24-1.26-.36-2.21-.37h-5.44ZM2248.21,668.16v4.88h5.38c.96,0,1.73-.18,2.33-.55.6-.36.9-1.01.9-1.94,0-1.03-.39-1.71-1.19-2.04-.68-.23-1.55-.34-2.61-.34h-4.81ZM2260.21,666.68c.67.94,1.02,2.07,1.02,3.37s-.34,2.44-1.02,3.26c-.38.46-.94.88-1.69,1.26,1.13.41,1.98,1.06,2.55,1.95.57.89.87,1.97.87,3.24s-.33,2.49-.99,3.53c-.42.69-.94,1.27-1.56,1.74-.71.54-1.54.91-2.5,1.11-.96.2-2,.3-3.13.3h-9.96v-22.12h10.69c2.69.04,4.6.83,5.73,2.36"/>
      <path class="st1" d="M2265.91,664.32h4.7v13.58c0,1.52.18,2.63.54,3.33.56,1.24,1.77,1.86,3.65,1.86s3.08-.62,3.63-1.86c.36-.7.54-1.81.54-3.33v-13.58h4.7v13.59c0,2.35-.36,4.18-1.1,5.49-1.36,2.4-3.95,3.6-7.77,3.6s-6.42-1.2-7.79-3.6c-.72-1.31-1.09-3.14-1.09-5.49v-13.59Z"/>
      <path class="st1" d="M2290.21,666.63c1.78-1.82,4.04-2.73,6.8-2.73,3.69,0,6.38,1.22,8.08,3.66.94,1.37,1.45,2.75,1.52,4.13h-4.62c-.29-1.06-.67-1.86-1.13-2.4-.82-.96-2.04-1.44-3.66-1.44s-2.95.68-3.9,2.03c-.95,1.35-1.42,3.27-1.42,5.75s.5,4.34,1.5,5.57c1,1.24,2.28,1.85,3.82,1.85s2.8-.53,3.63-1.59c.46-.57.84-1.42,1.15-2.56h4.59c-.4,2.41-1.41,4.37-3.04,5.88-1.63,1.51-3.72,2.27-6.26,2.27-3.14,0-5.62-1.02-7.42-3.06-1.8-2.05-2.7-4.86-2.7-8.43,0-3.86,1.02-6.83,3.07-8.93"/>
      <path class="st1" d="M2324.43,681.11c1.08-1.35,1.62-3.27,1.62-5.76s-.54-4.4-1.62-5.75c-1.07-1.35-2.53-2.03-4.35-2.03s-3.29.68-4.38,2.03c-1.09,1.35-1.64,3.27-1.64,5.76s.55,4.41,1.64,5.76c1.09,1.35,2.55,2.03,4.38,2.03s3.28-.68,4.35-2.03M2327.32,684.47c-1.67,1.72-4.09,2.58-7.25,2.58s-5.58-.86-7.25-2.58c-2.24-2.11-3.36-5.15-3.36-9.12s1.12-7.09,3.36-9.12c1.67-1.72,4.09-2.58,7.25-2.58s5.58.86,7.25,2.58c2.23,2.03,3.35,5.07,3.35,9.12s-1.11,7.01-3.35,9.12"/>
      <path class="st3" d="M2377.29,665.31v2.36c-.69.67-1.61,1.84-2.75,3.5-1.15,1.66-2.16,3.45-3.04,5.37-.87,1.87-1.53,3.58-1.98,5.11-.29.99-.66,2.59-1.12,4.79h-2.98c.68-4.1,2.18-8.18,4.5-12.24,1.37-2.38,2.81-4.43,4.32-6.16h-11.88v-2.72h14.94Z"/>
      <path class="st3" d="M2380.87,689.57c.69-.12,1.17-.61,1.46-1.46.15-.45.22-.88.22-1.31,0-.07,0-.13,0-.19,0-.06-.02-.12-.04-.19h-1.63v-3.27h3.21v3.03c0,1.19-.24,2.23-.72,3.13-.48.9-1.31,1.46-2.49,1.67v-1.43Z"/>
      <path class="st3" d="M2388.96,681.61c.66-1.37,1.96-2.61,3.89-3.74l2.88-1.67c1.29-.75,2.2-1.39,2.72-1.92.82-.83,1.23-1.78,1.23-2.85,0-1.25-.38-2.24-1.12-2.98-.75-.74-1.75-1.1-3-1.1-1.85,0-3.13.7-3.84,2.1-.38.75-.59,1.79-.63,3.12h-2.75c.03-1.87.37-3.4,1.03-4.58,1.17-2.08,3.24-3.12,6.2-3.12,2.46,0,4.26.66,5.4,2,1.13,1.33,1.7,2.81,1.7,4.44,0,1.72-.6,3.19-1.81,4.41-.7.71-1.96,1.57-3.77,2.58l-2.06,1.14c-.98.54-1.75,1.06-2.31,1.55-1,.87-1.63,1.84-1.89,2.9h11.73v2.55h-14.75c.1-1.85.49-3.46,1.15-4.83"/>
      <path class="st0" d="M2417.43,674.43c.35-.35.53-.78.53-1.27s-.18-.92-.53-1.27c-.35-.35-.78-.53-1.27-.53s-.93.18-1.28.53c-.35.35-.53.78-.53,1.27s.18.92.53,1.27c.35.35.78.53,1.28.53s.92-.18,1.27-.53M2418.3,671.01c.6.6.89,1.31.89,2.15s-.3,1.55-.89,2.15c-.59.6-1.31.89-2.15.89s-1.57-.3-2.16-.89c-.59-.59-.89-1.31-.89-2.15s.3-1.56.89-2.15c.59-.59,1.32-.89,2.16-.89s1.56.3,2.15.89M2414.89,663.73h.97l-7.01,12.8h-.97l7.01-12.8ZM2408.85,668.38c.35-.35.53-.78.53-1.27s-.18-.92-.53-1.27c-.35-.35-.78-.53-1.28-.53s-.92.18-1.27.53c-.35.35-.53.78-.53,1.28s.18.92.53,1.27c.35.35.78.53,1.27.53s.93-.18,1.28-.53M2409.72,664.95c.6.6.89,1.32.89,2.15s-.3,1.56-.89,2.15c-.6.59-1.32.89-2.16.89s-1.55-.3-2.15-.89c-.59-.6-.89-1.32-.89-2.15s.3-1.56.89-2.15c.6-.6,1.31-.9,2.15-.9s1.56.3,2.16.9"/>
    </g>
    <line class="st2" x1="2047.77" y1="602.6" x2="2261.93" y2="647.32"/>
  </g>
  <g>
    <path class="st3" d="M1950.78,592.41c-1.19.99-2.89,1.49-5.1,1.49h-4.23v7.31h-4.22v-20.33h8.73c2.01,0,3.62.52,4.81,1.57,1.2,1.05,1.79,2.67,1.79,4.87,0,2.4-.59,4.1-1.79,5.09ZM1947.53,585.09c-.54-.45-1.29-.68-2.26-.68h-3.83v5.99h3.83c.97,0,1.72-.24,2.26-.73.54-.49.81-1.26.81-2.32s-.27-1.81-.81-2.26Z"/>
    <path class="st3" d="M1971,584.48h-10.76v4.32h9.88v3.53h-9.88v5.23h11.25v3.65h-15.41v-20.33h14.91v3.6Z"/>
  </g>
  <g>
    <path class="st3" d="M1795.49,711.59c.62.86.93,1.9.93,3.1s-.31,2.24-.94,2.99c-.35.42-.87.81-1.55,1.16,1.04.38,1.82.97,2.35,1.79.53.82.79,1.81.79,2.98s-.3,2.28-.91,3.24c-.38.63-.86,1.17-1.44,1.6-.65.5-1.42.84-2.3,1.02-.88.18-1.84.28-2.87.28h-9.16v-20.33h9.82c2.48.04,4.24.76,5.27,2.17ZM1784.45,712.95v4.48h4.94c.88,0,1.6-.17,2.15-.5.55-.34.83-.93.83-1.79,0-.95-.36-1.57-1.09-1.88-.63-.21-1.43-.32-2.4-.32h-4.42ZM1784.45,720.8v5.42h4.94c.88,0,1.57-.12,2.06-.36.89-.44,1.34-1.29,1.34-2.54,0-1.06-.43-1.78-1.29-2.18-.48-.22-1.16-.34-2.03-.34h-5Z"/>
    <path class="st3" d="M1806.53,709.42h4.81l7.19,20.33h-4.61l-1.34-4.18h-7.49l-1.38,4.18h-4.44l7.26-20.33ZM1806.25,722.07h5.21l-2.57-8-2.64,8Z"/>
  </g>
  <g>
    <path class="st3" d="M1702.01,920.48h6.11v20.33h-3.96v-13.75c0-.4,0-.95.01-1.66,0-.71.01-1.26.01-1.65l-3.85,17.06h-4.13l-3.83-17.06c0,.39,0,.94.01,1.65,0,.71.01,1.27.01,1.66v13.75h-3.96v-20.33h6.18l3.7,15.98,3.67-15.98Z"/>
    <path class="st3" d="M1725.72,926.82c-.32-1.39-1.11-2.36-2.36-2.91-.7-.3-1.48-.46-2.33-.46-1.64,0-2.98.62-4.03,1.85s-1.58,3.09-1.58,5.57.57,4.26,1.71,5.3c1.14,1.04,2.44,1.56,3.89,1.56s2.59-.41,3.5-1.23,1.47-1.89,1.68-3.21h-4.7v-3.39h8.47v10.91h-2.81l-.43-2.54c-.82.96-1.55,1.64-2.21,2.03-1.12.69-2.5,1.03-4.14,1.03-2.69,0-4.9-.93-6.62-2.8-1.79-1.87-2.69-4.44-2.69-7.69s.91-5.93,2.72-7.91c1.81-1.98,4.21-2.98,7.19-2.98,2.58,0,4.66.66,6.23,1.97s2.47,2.94,2.7,4.9h-4.18Z"/>
  </g>
  <g>
    <path class="st3" d="M1740.24,1083.71c.75.32,1.38.79,1.9,1.42.43.52.77,1.08,1.02,1.71.25.63.38,1.34.38,2.14,0,.97-.24,1.92-.73,2.85-.49.93-1.29,1.59-2.41,1.98.94.38,1.6.91,1.99,1.61s.59,1.75.59,3.18v1.37c0,.93.04,1.56.11,1.89.11.52.37.91.78,1.16v.51h-4.69c-.13-.45-.22-.81-.28-1.09-.11-.57-.17-1.15-.18-1.75l-.03-1.89c-.02-1.3-.24-2.16-.67-2.59-.43-.43-1.24-.65-2.42-.65h-4.15v7.97h-4.15v-20.33h9.72c1.39.03,2.46.2,3.21.52ZM1731.46,1086.72v5.46h4.57c.91,0,1.59-.11,2.04-.33.8-.39,1.2-1.15,1.2-2.29,0-1.23-.39-2.06-1.17-2.48-.44-.24-1.09-.36-1.96-.36h-4.69Z"/>
    <path class="st3" d="M1750.09,1095.81v.47c.04,1.57.2,2.68.49,3.32.29.64.91.96,1.86.96s1.56-.35,1.87-1.05c.18-.41.27-1.11.27-2.1v-14.22h4.25v14.15c0,1.73-.29,3.1-.88,4.11-.99,1.71-2.77,2.57-5.35,2.57s-4.31-.69-5.19-2.08-1.32-3.27-1.32-5.66v-.47h4.01Z"/>
  </g>
  <g>
    <path class="st3" d="M1396.45,1333.55c.75.32,1.38.79,1.9,1.42.43.52.77,1.08,1.02,1.71.25.63.38,1.34.38,2.14,0,.97-.24,1.92-.73,2.85-.49.93-1.29,1.59-2.41,1.98.94.38,1.6.91,1.99,1.61.39.7.59,1.75.59,3.18v1.37c0,.93.04,1.56.11,1.89.11.53.37.91.78,1.16v.51h-4.69c-.13-.45-.22-.81-.28-1.09-.11-.57-.17-1.15-.18-1.75l-.03-1.89c-.02-1.3-.24-2.16-.67-2.59-.43-.43-1.24-.65-2.42-.65h-4.15v7.97h-4.15v-20.33h9.72c1.39.03,2.46.2,3.21.53ZM1387.67,1336.56v5.46h4.57c.91,0,1.59-.11,2.04-.33.8-.39,1.2-1.15,1.2-2.29,0-1.23-.39-2.06-1.17-2.48-.44-.24-1.09-.36-1.96-.36h-4.69Z"/>
    <path class="st3" d="M1406.89,1347.08c.13.93.39,1.62.77,2.08.7.84,1.91,1.26,3.62,1.26,1.02,0,1.85-.11,2.49-.33,1.21-.42,1.82-1.21,1.82-2.36,0-.67-.3-1.19-.89-1.56-.59-.36-1.53-.68-2.82-.95l-2.2-.48c-2.16-.48-3.65-1-4.46-1.56-1.37-.94-2.06-2.4-2.06-4.4,0-1.82.67-3.33,2.01-4.54,1.34-1.21,3.31-1.81,5.91-1.81,2.17,0,4.02.57,5.55,1.7,1.53,1.13,2.33,2.78,2.41,4.94h-4.08c-.08-1.22-.62-2.09-1.64-2.61-.68-.34-1.52-.51-2.53-.51-1.12,0-2.02.22-2.69.66s-1,1.06-1,1.85c0,.73.33,1.27.99,1.63.42.24,1.32.52,2.7.84l3.57.84c1.56.37,2.74.86,3.52,1.48,1.21.96,1.82,2.34,1.82,4.15s-.72,3.4-2.15,4.63c-1.44,1.23-3.46,1.84-6.08,1.84s-4.78-.6-6.32-1.81c-1.53-1.21-2.3-2.87-2.3-4.99h4.05Z"/>
  </g>
  <g>
    <path class="st3" d="M1522.04,1070.41c.13.93.39,1.62.77,2.08.7.84,1.91,1.26,3.62,1.26,1.02,0,1.85-.11,2.49-.33,1.21-.42,1.82-1.21,1.82-2.36,0-.67-.3-1.19-.89-1.56-.59-.36-1.53-.68-2.82-.95l-2.2-.48c-2.16-.48-3.65-1-4.46-1.56-1.37-.94-2.06-2.4-2.06-4.4,0-1.82.67-3.33,2.01-4.54,1.34-1.21,3.31-1.81,5.91-1.81,2.17,0,4.02.57,5.55,1.7s2.33,2.78,2.41,4.94h-4.08c-.08-1.22-.62-2.09-1.64-2.61-.68-.34-1.52-.51-2.53-.51-1.12,0-2.02.22-2.69.66s-1,1.06-1,1.85c0,.73.33,1.27.99,1.63.42.24,1.32.52,2.7.84l3.57.84c1.56.37,2.74.86,3.52,1.48,1.21.96,1.82,2.34,1.82,4.15s-.72,3.4-2.15,4.63c-1.44,1.23-3.46,1.84-6.08,1.84s-4.78-.6-6.32-1.81c-1.53-1.21-2.3-2.87-2.3-4.99h4.05Z"/>
    <path class="st3" d="M1551.47,1067.89c-1.19.99-2.89,1.49-5.1,1.49h-4.23v7.31h-4.22v-20.33h8.73c2.01,0,3.62.52,4.81,1.57s1.79,2.67,1.79,4.87c0,2.4-.59,4.1-1.79,5.09ZM1548.23,1060.57c-.54-.45-1.29-.68-2.26-.68h-3.83v5.99h3.83c.97,0,1.72-.24,2.26-.73.54-.49.81-1.26.81-2.32s-.27-1.81-.81-2.26Z"/>
  </g>
</svg>