<svg width="1853" height="763" viewBox="0 0 1853 763" fill="none" xmlns="http://www.w3.org/2000/svg">
<rect width="1853" height="763" fill="#B39567"/>
<path d="M1056.59 254.773C1073.36 254.773 1084.84 243.978 1084.84 228.589C1084.84 213.2 1073.36 202.175 1056.59 202.175C1039.82 202.175 1028.34 212.741 1028.34 228.589C1028.34 244.437 1040.05 254.773 1056.59 254.773Z" fill="#1E0301"/>
<path d="M1214.15 443.574C1207.49 443.574 1201.98 448.627 1201.06 455.288C1198.76 474.122 1192.1 474.122 1190.03 474.122C1187.74 474.122 1183.37 474.122 1183.37 455.058V346.187C1183.37 305.762 1159.94 282.564 1118.83 282.564C1096.32 282.564 1076.11 290.143 1063.02 303.006C1060.95 293.359 1053.37 285.32 1039.59 285.32C1010.65 285.32 986.301 312.653 974.128 328.96C972.749 330.798 970.453 331.717 968.156 331.487C965.859 331.257 964.251 329.879 963.332 327.582C952.078 298.412 930.717 282.793 901.776 282.793C869.391 282.793 842.976 306.681 831.262 346.876C830.573 348.943 829.195 350.321 827.128 351.01C824.831 351.699 822.765 351.01 821.157 349.402C811.969 340.445 799.337 334.473 784.407 331.487C833.1 321.84 866.864 289.914 866.864 250.637C866.864 211.361 835.397 190 782.569 190H684.263C678.521 190 673.468 193.675 671.861 199.187L669.793 205.619H674.387C685.412 205.619 698.504 206.078 701.49 210.212C703.557 212.969 702.179 218.941 698.963 228.587L627.301 450.465C621.33 469.299 613.52 474.811 591.011 475.5C585.498 475.5 580.675 479.405 579.067 484.688L577 491.349H695.518C750.643 491.349 797.729 472.285 821.157 440.358C822.994 437.832 825.75 437.832 826.669 438.061C828.507 438.291 830.804 439.669 831.722 442.426C843.207 477.108 867.783 497.091 899.479 497.091C927.961 497.091 964.021 481.932 974.128 409.351L974.587 405.446H968.845C962.873 405.446 957.82 409.351 956.212 415.093C948.403 445.871 933.473 462.868 914.18 462.868C886.617 462.868 869.85 433.468 869.161 383.396H958.509C962.184 383.396 965.4 382.018 967.926 379.262C970.453 376.735 971.831 373.06 971.601 369.385C971.372 363.873 970.682 358.59 969.993 353.307H975.046L975.965 351.699C992.503 326.204 1008.12 310.585 1016.62 310.585C1017.77 310.585 1018.69 310.585 1018.69 313.342C1018.69 317.017 1014.55 328.501 1011.34 337.688L973.209 442.655C948.173 512.71 934.852 542.109 916.477 542.109C910.964 542.109 906.83 539.353 902.236 535.908C896.953 532.233 890.752 528.099 882.024 528.099C867.324 528.099 854.461 539.813 854.461 552.905C854.461 562.092 860.893 571.739 878.579 571.739C939.905 571.739 987.68 528.788 1016.39 447.708L1051.76 349.862C1055.9 356.982 1063.25 361.116 1072.89 361.116C1086.44 361.116 1095.4 353.077 1095.4 340.674C1095.4 335.851 1093.79 331.946 1092.42 328.501C1091.04 325.285 1089.89 322.529 1089.89 318.854C1089.89 308.978 1098.85 302.776 1112.4 302.776C1125.95 302.776 1138.81 307.37 1138.81 342.053V356.982C1138.81 359.509 1137.43 361.806 1135.14 362.724L1132.84 363.643C1088.51 382.248 1038.21 403.379 1038.21 449.316C1038.21 476.878 1057.27 496.172 1084.84 496.172C1108.95 496.172 1128.25 481.932 1139.5 456.436C1142.26 482.85 1155.12 496.172 1177.63 496.172C1202.44 496.172 1215.76 479.175 1217.14 445.411V441.736H1213.69L1214.15 443.574ZM1100.23 463.097C1084.38 463.097 1082.77 447.708 1082.77 441.047C1082.77 416.012 1106.66 399.934 1130.08 387.53C1131 387.071 1131.92 386.841 1133.07 386.841C1134.22 386.841 1135.37 387.071 1136.29 387.76C1138.12 388.909 1139.27 390.976 1139.27 393.043V419.227C1139.27 419.227 1139.27 420.605 1139.04 421.294C1130.54 447.479 1116.07 463.097 1100.46 463.097H1100.23ZM870.998 355.604C874.673 322.299 885.239 305.532 902.006 305.532C918.773 305.532 926.583 322.07 927.961 356.063C927.961 357.671 927.501 359.279 926.123 360.657C924.745 362.035 923.367 362.495 921.759 362.495H877.2C875.362 362.495 873.755 361.806 872.606 360.427C871.458 359.049 870.769 357.442 870.998 355.604ZM714.352 343.201C720.324 342.742 726.985 342.512 735.484 342.512C769.477 342.512 786.933 357.212 786.933 385.923C786.933 427.266 752.25 470.218 694.369 470.218C678.062 470.218 673.698 467.461 672.55 465.854C672.32 465.394 671.631 464.475 672.55 461.949L709.07 347.795C709.759 345.498 712.055 343.66 714.352 343.431V343.201ZM731.808 320.921C729.741 320.921 727.904 320.921 726.066 320.921C724.229 320.921 722.392 320.003 721.243 318.395C720.095 316.787 719.865 314.72 720.324 312.882L751.332 217.792C752.251 214.806 759.6 212.05 774.071 212.05C804.619 212.05 820.008 224.683 820.008 249.948C820.008 289.684 781.191 320.921 731.579 320.921H731.808Z" fill="#1E0301"/>
<path d="M1249.53 251.096C1249.53 251.096 1249.53 249.259 1249.53 247.192V244.435C1249.53 241.45 1249.07 239.382 1248.38 238.004C1247.69 236.626 1246.31 235.478 1244.24 234.789C1246.54 234.1 1248.15 232.721 1249.07 230.884C1249.98 229.046 1250.44 226.979 1250.44 225.142C1250.44 223.534 1250.21 222.156 1249.76 220.778C1249.3 219.4 1248.61 218.251 1247.69 217.332C1246.54 215.954 1245.39 215.036 1243.78 214.347C1242.18 213.658 1240.11 213.428 1237.12 213.198H1216.91V254.082H1225.18V238.004H1233.91C1236.43 238.004 1238.27 238.464 1239.19 239.382C1240.11 240.301 1240.57 241.909 1240.57 244.665V248.57C1240.57 249.718 1240.57 250.867 1241.03 252.015C1241.03 252.475 1241.26 253.393 1241.49 254.312H1250.9V253.393C1250.9 253.393 1249.53 252.015 1249.3 251.096H1249.53ZM1239.42 230.884C1239.42 230.884 1236.89 231.573 1235.06 231.573H1225.41V220.548H1235.29C1237.12 220.548 1238.5 220.548 1239.42 221.237C1241.03 222.156 1241.95 223.764 1241.95 226.29C1241.95 228.587 1241.03 230.195 1239.42 230.884Z" fill="#1E0301"/>
<path d="M1232.52 191.15C1208.17 191.15 1188.42 210.903 1188.42 235.249C1188.42 259.596 1208.17 279.349 1232.52 279.349C1256.86 279.349 1276.62 259.596 1276.62 235.249C1276.62 210.903 1256.63 191.15 1232.52 191.15ZM1232.52 270.391C1213.22 270.391 1197.38 254.773 1197.38 235.249C1197.38 215.726 1212.99 200.107 1232.52 200.107C1252.04 200.107 1267.66 215.726 1267.66 235.249C1267.66 254.773 1252.04 270.391 1232.52 270.391Z" fill="#1E0301"/>
</svg>
