<svg id="logo-serenas-branco" xmlns="http://www.w3.org/2000/svg" width="683.188" height="212.113" viewBox="0 0 683.188 212.113">
  <path id="Path_16386" data-name="Path 16386" d="M530.993,309.089q1.231,1.852,5.232,3.326a24.175,24.175,0,0,0,8.437,1.478q7.023,0,10.342-2.705a9.179,9.179,0,0,0,3.326-7.516,8.694,8.694,0,0,0-2.091-5.789,18.63,18.63,0,0,0-5.853-4.368q-3.754-1.906-10.771-4.618-9.486-3.569-13.854-8.565t-4.368-13.112a14.7,14.7,0,0,1,3.262-9.486,21.328,21.328,0,0,1,8.986-6.338,34.182,34.182,0,0,1,12.748-2.277,50.674,50.674,0,0,1,9.914.857,62.242,62.242,0,0,1,6.831,1.727c1.727.578,2.855.942,3.448,1.106v15.268h-7.509l-2.455-9.1q-.714-1.477-3.94-2.527a23.119,23.119,0,0,0-7.138-1.042,14.833,14.833,0,0,0-8.929,2.463,7.794,7.794,0,0,0-3.383,6.645,9.928,9.928,0,0,0,1.784,6.1,13.69,13.69,0,0,0,4.5,3.883q2.7,1.478,7.388,3.448l2.462.985a88.086,88.086,0,0,1,11.206,5.168,22.662,22.662,0,0,1,7.2,6.467,16.274,16.274,0,0,1,2.855,9.786,17.35,17.35,0,0,1-7.081,14.532q-7.081,5.41-19.393,5.417a51.322,51.322,0,0,1-12.619-1.663,80.764,80.764,0,0,1-10.778-3.383v-15.76h8.03Z" transform="translate(-305.281 -219.409)" fill="#fff"/>
  <path id="Path_16387" data-name="Path 16387" d="M617.042,310.421q-7.852-9.722-7.851-25.981a41.622,41.622,0,0,1,4.061-18.836,29.9,29.9,0,0,1,11.42-12.562,31.577,31.577,0,0,1,16.681-4.432q11.456,0,17.794,6.338t6.709,18.165a57.533,57.533,0,0,1-.856,11.42H622.616q.25,12.191,5.667,19.643t15.389,7.452a32.477,32.477,0,0,0,10.285-1.784,25.554,25.554,0,0,0,8.308-4.283l2.341,5.425q-3.569,3.7-10.592,6.424a39.335,39.335,0,0,1-14.276,2.705Q624.857,320.149,617.042,310.421Zm35.282-32.384a37.907,37.907,0,0,0,.371-5.3q-.128-8-3.39-12.619T639.033,255.5a14.073,14.073,0,0,0-11.42,5.175q-4.283,5.175-4.868,17.359Z" transform="translate(-330.596 -219.263)" fill="#fff"/>
  <path id="Path_16388" data-name="Path 16388" d="M705.48,312.776l9.229-.714V259.957l-8.858-2.22v-6.652l16.988-2.184h.25l2.7,2.22v2.22l-.371,9.6h.371a32.454,32.454,0,0,1,4.433-5.417,34.258,34.258,0,0,1,8.251-6.1,22.4,22.4,0,0,1,10.963-2.769,11.557,11.557,0,0,1,4.061.614v13.79a9.779,9.779,0,0,0-2.769-1.171,15.473,15.473,0,0,0-4.283-.55,31.813,31.813,0,0,0-18.958,6.281v44.325l15.639.985v5.91H705.48Z" transform="translate(-358.157 -219.277)" fill="#fff"/>
  <path id="Path_16389" data-name="Path 16389" d="M791.6,310.421q-7.815-9.722-7.851-25.981a41.626,41.626,0,0,1,4.061-18.836,29.979,29.979,0,0,1,11.42-12.562,31.584,31.584,0,0,1,16.688-4.433q11.42,0,17.787,6.338t6.717,18.165a57.428,57.428,0,0,1-.821,11.463H797.2q.25,12.191,5.667,19.643t15.389,7.452a32.443,32.443,0,0,0,10.286-1.784,25.555,25.555,0,0,0,8.308-4.283l2.341,5.425q-3.569,3.7-10.592,6.424a39.334,39.334,0,0,1-14.275,2.705Q799.424,320.149,791.6,310.421Zm35.282-32.384a37.907,37.907,0,0,0,.371-5.3q-.129-8-3.39-12.619T813.586,255.5a14.073,14.073,0,0,0-11.42,5.175q-4.282,5.175-4.861,17.359Z" transform="translate(-380.56 -219.263)" fill="#fff"/>
  <path id="Path_16390" data-name="Path 16390" d="M884.785,260.049l-8.865-2.213v-6.652L893.529,249h.371l2.584,2.22v5.168l-.121,2.962a44.563,44.563,0,0,1,11.7-7.138A34.468,34.468,0,0,1,921.972,249q7.766,0,12.006,2.962a15.853,15.853,0,0,1,5.974,9.051q1.727,6.1,1.727,16.417V311.9l8.615.864v6.153H921.116V312.89l7.63-.985V277.287a51.376,51.376,0,0,0-.985-11.385,10.4,10.4,0,0,0-3.69-6.16q-2.705-2.034-7.851-2.034a23.682,23.682,0,0,0-9.486,2.22,45.051,45.051,0,0,0-8.986,5.168v46.673l8.373,1.106v6.031H877.026v-6.031l7.759-1.106Z" transform="translate(-406.942 -219.376)" fill="#fff"/>
  <path id="Path_16391" data-name="Path 16391" d="M1000.72,283.4q11.563-5.475,29.3-5.846v-3.447a27.15,27.15,0,0,0-1.228-9.115,8.623,8.623,0,0,0-4.283-4.861q-3.019-1.542-8.565-1.542a33.433,33.433,0,0,0-11.27,1.784,77.3,77.3,0,0,0-9.871,4.347l-3.076-6.424a34.3,34.3,0,0,1,5.91-3.569,60.075,60.075,0,0,1,9.993-3.94,38.688,38.688,0,0,1,11.328-1.72q8.737,0,13.854,2.4a14.318,14.318,0,0,1,7.323,7.694q2.22,5.3,2.22,14.161v39.529h7.259v5.418c-1.642.414-3.712.821-6.217,1.235a41.756,41.756,0,0,1-6.588.614q-3.448,0-4.675-1.049t-1.235-4.618V310.4a42.957,42.957,0,0,1-9.051,6.774,23.934,23.934,0,0,1-12.134,3.076q-8.865,0-14.718-5.111t-5.846-14.711Q989.143,288.891,1000.72,283.4Zm21.67,26.538a39.543,39.543,0,0,0,7.63-4.675V284.08q-13.412,0-20.25,4.126t-6.838,10.778q0,6.645,3.262,9.786A12.165,12.165,0,0,0,1015,311.91,17.764,17.764,0,0,0,1022.39,309.94Z" transform="translate(-439.352 -219.396)" fill="#fff"/>
  <path id="Path_16392" data-name="Path 16392" d="M1096.147,309.089q1.235,1.856,5.232,3.326a24.177,24.177,0,0,0,8.437,1.477q7.024,0,10.343-2.705a9.178,9.178,0,0,0,3.326-7.516,8.692,8.692,0,0,0-2.091-5.789,18.627,18.627,0,0,0-5.853-4.368q-3.762-1.906-10.771-4.618-9.486-3.569-13.854-8.565t-4.368-13.112a14.7,14.7,0,0,1,3.262-9.486,21.328,21.328,0,0,1,8.986-6.338,34.183,34.183,0,0,1,12.748-2.277,50.553,50.553,0,0,1,9.907.857,62.006,62.006,0,0,1,6.838,1.727c1.72.578,2.855.942,3.448,1.106v15.268h-7.509l-2.463-9.108c-.492-.985-1.813-1.827-3.947-2.527a23.042,23.042,0,0,0-7.138-1.042,14.834,14.834,0,0,0-8.929,2.462,7.794,7.794,0,0,0-3.383,6.645,9.927,9.927,0,0,0,1.784,6.1,13.692,13.692,0,0,0,4.5,3.883q2.7,1.477,7.387,3.447l2.462.985a88.083,88.083,0,0,1,11.206,5.168,22.739,22.739,0,0,1,7.2,6.467,16.275,16.275,0,0,1,2.855,9.786,17.349,17.349,0,0,1-7.081,14.532q-7.08,5.41-19.393,5.417a51.281,51.281,0,0,1-12.62-1.663,80.8,80.8,0,0,1-10.778-3.383V299.489h8.008Z" transform="translate(-467.042 -219.409)" fill="#fff"/>
  <path id="Path_16393" data-name="Path 16393" d="M1156.627,318.881a3.646,3.646,0,1,0-7.266.621,26.038,26.038,0,0,1-2.141,13.383,18.869,18.869,0,0,1-1.7,2.941l-.385.55c-.2.293-.4.585-.621.849l-1.149,1.321a27.6,27.6,0,0,1-5.481,4.411,34.667,34.667,0,0,1-6.617,2.934,38.243,38.243,0,0,1-7.252,1.428c-4.718.471-9.9-.642-15.111-1.941-.314-.071-.478.807-.571,1.113a.614.614,0,0,0,.379.714,45.882,45.882,0,0,0,15.382,2.805h.371a41.82,41.82,0,0,0,7.666-.778,38.5,38.5,0,0,0,7.744-2.562,32.277,32.277,0,0,0,6.981-4.568l1.52-1.428c.336-.328.643-.714.957-1.049.15-.178.3-.357.457-.528a25.2,25.2,0,0,0,2.512-3.5,32.574,32.574,0,0,0,4.347-16.367h0A2.991,2.991,0,0,0,1156.627,318.881Z" transform="translate(-473.461 -238.422)" fill="#6a9c81"/>
  <path id="Path_16394" data-name="Path 16394" d="M393.406,298.2c-.493-.121-.992-.236-1.492-.343a53.99,53.99,0,0,0-20.8-.257,48.84,48.84,0,0,0-9.422,2.213,29.534,29.534,0,0,0-8.408,5.118,18.123,18.123,0,0,0-5.617,8.437,12.974,12.974,0,0,0-.05,4.518,14.4,14.4,0,0,0,2.855,7.916c2.07,2.684,4.168,5.318,7.744,7.138,1.927,1.006,4.868,1.62,7.138,2.256a55.11,55.11,0,0,0,15.318,2.02c4.061-.079,16.716-3.019,18.936-3.876a41.838,41.838,0,0,0,5.232-2.47,27.458,27.458,0,0,0,8.608-7.009" transform="translate(-255.674 -233.034)" fill="#6c9f7d"/>
  <path id="Path_16395" data-name="Path 16395" d="M418.836,239.176c-1.014-6.859-5.71-16.916-9.7-22.063a36.709,36.709,0,0,0-8.629-7.973,14.867,14.867,0,0,0-4.44-1.642c-.214-.036-.286.328-.307.55-.064.614.507,1.32,2.313,3.362a27.529,27.529,0,0,1,3.069,3.9l1.428,2.57.143.243.457.814c.478.871.935,1.77,1.356,2.677a50.108,50.108,0,0,1,2.2,5.546,58.6,58.6,0,0,1,2.548,11.7c.942,8.173,1.428,15.6.443,20.7-.771,4.026-5.4,15.425-5.91,15.289-.064.186-3.3,4.682-3.419,4.839l-2.891,4.176a60.761,60.761,0,0,1-10.849,10.649,1.778,1.778,0,0,1-2.812-1.092,29.976,29.976,0,0,0-.992-3.94,34.435,34.435,0,0,0-4.14-8.265A33.476,33.476,0,0,0,368.087,270.8a32.833,32.833,0,0,0-13.2-4.418c-5.96-.678-10.649-.478-14.732.664-10.671,2.934-15.5,7.487-18.558,11.128-6.281,7.573-8.986,13.861-8.265,19.229.492,3.733,2.641,6.959,6.367,9.586a39.1,39.1,0,0,0,10.114,4.532,15.919,15.919,0,0,1,1.7.714,15.033,15.033,0,0,0,2.748,1.028c.592.136,1.278.35,2.006.571a24.979,24.979,0,0,0,3.369.871,81.753,81.753,0,0,0,11.941.928,52.122,52.122,0,0,0,7.587-.714c.907-.128,1.813-.257,2.719-.364a52.993,52.993,0,0,0,9.557-2.291q-.714,1.513-1.385,2.962a89.365,89.365,0,0,1-4.283,8.408c-3.112,5.211-6.631,10.6-11.3,14.711-4.454,3.919-9.629,6.338-14.554,8.487l-1.306.564L336,348.561c-3.462,1.549-7.045,3.162-10.585,3.783a59.091,59.091,0,0,1-8.679.864h-1.784c-.521,0-1.035-.05-1.549-.093-1.428-.107-2.919-.271-4.354-.485-.628-.093-11.128-2.605-15.346-4.49-6.617-2.955-12.969-7.852-19.415-14.953a29.125,29.125,0,0,0-2.141-2.07,17.5,17.5,0,0,1-2.562-2.634c-.835-1.149-1.72-2.3-2.669-3.569a40.647,40.647,0,0,1-5.782-11.42,40.153,40.153,0,0,1-2.8-14.4v-4.475c0-.821-.05-1.684-.086-2.584a40.781,40.781,0,0,1,.064-6.36c.114-.878.221-1.777.328-2.7.821-6.931,1.756-14.789,6.138-21.9a20.54,20.54,0,0,1,3.455-3.933c.849-.821,1.727-1.663,2.584-2.648a58.528,58.528,0,0,1,13.94-12.234c.2-.121,1.242-.714,6.06-3.091l.221-.107A21.654,21.654,0,0,1,297,237.4a38.04,38.04,0,0,0,3.99-.878,41.578,41.578,0,0,1,7.723-1.228c1.006-.1,2.141-.214,3.219-.35s2.141-.307,3.269-.478a48.214,48.214,0,0,1,7.595-.764h.778c.507,0,1.006.043,1.513.064.906.05,1.82.114,2.734.193,1.82.157,3.662.371,5.482.642a89.706,89.706,0,0,1,37.223,14.582A86.439,86.439,0,0,1,394.147,272.7l2.491,3.819,1.106,1.32,4.461-6.231,1.656-3.747-5.76-7.088a101.355,101.355,0,0,0-20.107-17.908,97.33,97.33,0,0,0-44.7-16.51c-19.557-2.07-36.267.485-49.664,7.58-.992.528-2.091,1.021-3.29,1.563a34.4,34.4,0,0,0-6.424,3.455c-8.815,6.574-15.924,16.274-21.142,28.829-3.183,7.666-4.482,16.752-4.1,28.6v.221c.207,6.424.407,12.491,2.57,18.808.257.714.507,1.506.785,2.341a49.417,49.417,0,0,0,4.283,10.364,41.588,41.588,0,0,0,6.138,7.43c.935.964,1.906,1.956,2.819,2.984a63.419,63.419,0,0,0,9.5,9.165c.971.714,1.92,1.5,2.855,2.263a42.9,42.9,0,0,0,6.353,4.554c4.682,2.577,9.993,4.04,15.089,5.246a63.309,63.309,0,0,0,11.991,1.228l1.285.057c.864.036,1.727.143,2.655.264a26.1,26.1,0,0,0,3.926.307,69.851,69.851,0,0,0,12.769-1.884h.178c.564-.121,1.135-.25,1.7-.385.835-.2,1.67-.371,2.5-.535,1.106-.228,2.234-.464,3.369-.764a24.7,24.7,0,0,0,2.441-.771,44.134,44.134,0,0,0,6-3.034c.714-.4,1.428-.8,2.091-1.178l1.677-.892a49.246,49.246,0,0,0,7.223-4.418,69.593,69.593,0,0,0,17.93-21.106,67.222,67.222,0,0,0,6.952-18.016c.086-.385.171-.764.25-1.142a.5.5,0,0,1,.05-.271c.328-.2.714-.385,1.121-.585s.714-.35,1.071-.535c1.7-.949,3.376-1.991,5-3.083a68.762,68.762,0,0,0,8.972-7.23c.971-.935,1.97-1.963,2.984-3.069l5.639-7.016a3.251,3.251,0,0,0,.407-.578l1.984-2.662.107-.25c.443-.714.871-1.506,1.285-2.27a58.8,58.8,0,0,0,2.555-5.4,67.718,67.718,0,0,0,3.569-11.32C420.492,255.215,420.043,247.3,418.836,239.176Zm-45.2,62.234a5.217,5.217,0,0,1-2.141,1.52,28.85,28.85,0,0,1-8.629,2.448l-1.649.307c-1.056.2-2.5.478-3.026.543-1.342.164-2.7.278-4.033.35-.592.036-1.185.057-1.777.071h-1.228a64.07,64.07,0,0,1-7.959-.814,52.513,52.513,0,0,1-14.354-4.333c-3.676-1.792-5.489-3.3-6.074-5.068-.635-1.934.078-4.64,2.384-9.043,2.405-4.611,5.4-8.965,15.425-11.613.343-.093.714-.186,1.063-.271.678-.164,1.342-.35,2.013-.528a25.912,25.912,0,0,1,4.2-.921c.564-.064,1.135-.107,1.692-.129h.271a23.832,23.832,0,0,1,3.226.443,25.7,25.7,0,0,1,10.985,5.246,26.309,26.309,0,0,1,9.614,21.791Z" transform="translate(-227.386 -207.497)" fill="#fff"/>
  <path id="Path_16396" data-name="Path 16396" d="M408.72,331.846c-.307-1.392-.785-3.183-1.285-4.961l-1.428-5.253-1.763-4.732-1.877,2.805-2.6,3.226-3.041,3.319.892,2.512c3.7,13.811,3.7,29.671.05,45.074s-10.707,29.579-19.771,39.671c-5,5.539-11.071,9.507-17.509,13.7l-.764.5c-3.733,2.441-8.522,4.2-13.155,5.9H346.4c-1.47.542-2.991,1.1-4.461,1.677-1.128.443-2.234.892-3.333,1.335l-.236.093c-5.3,2.141-10.307,4.168-15.974,4.961a54.767,54.767,0,0,1-7.851.343h-5.082c-.935-.036-1.906-.093-2.855-.164-1.842-.129-3.712-.328-5.553-.578a84.638,84.638,0,0,1-28.4-8.665,97.845,97.845,0,0,1-13.212-8.158c-2.177-1.627-4.283-3.412-6.531-5.439a30.533,30.533,0,0,1-1.934-2.405,27.645,27.645,0,0,0-2-2.463c-10.492-9.993-19.072-24.8-23.554-40.556-1.013-3.569-1.756-9.764-2.3-14.275l-.05-.4c-.078-.635-.15-1.235-.214-1.749V357.1c-1.021-4.211-1.428-4.675-2.227-4.932h-.078a.892.892,0,0,0-.835.107c-.664.457-.714,1.677-.714,4.561,0,1.042-.906,13.7,2.041,26a69.371,69.371,0,0,0,7.452,19.493c6.238,10.528,14.275,22.419,26.409,30.821a100.236,100.236,0,0,0,10.956,6.31l1.392.714c.757.4,1.52.807,2.284,1.228a58.362,58.362,0,0,0,7.951,3.812c5.4,1.934,11.035,2.855,16.481,3.8a99.949,99.949,0,0,0,10.778,1.228,20.711,20.711,0,0,1,2.3.314,20.708,20.708,0,0,0,3.112.371h4.754a95.77,95.77,0,0,0,19.821-2.734c1.428-.314,2.855-.664,4.283-1.035a92.112,92.112,0,0,0,30.692-14.275c11.963-8.672,20.7-17.452,26.645-26.831,5.881-9.236,10.121-21.028,12.976-36.067a94.747,94.747,0,0,0-.614-38.137Z" transform="translate(-218.876 -238.811)" fill="#fff"/>
  <path id="Path_17616" data-name="Path 17616" d="M19.68-20.5V-.656q0,4.92-2.419,7.462T10.168,9.348a16.257,16.257,0,0,1-4-.492A13.612,13.612,0,0,1,2.665,7.462L3.813,4.92A14.27,14.27,0,0,0,10.045,6.4q6.4,0,6.4-7.585V-3.075a5.874,5.874,0,0,1-2.5,2.46,7.936,7.936,0,0,1-3.813.9,7.758,7.758,0,0,1-6.4-2.911Q1.394-5.535,1.394-10.578q0-4.838,2.3-7.585A7.787,7.787,0,0,1,10-20.91a7.873,7.873,0,0,1,3.751.861,6.352,6.352,0,0,1,2.563,2.5H16.4l.41-2.952Zm-3.485,8.9a7.376,7.376,0,0,0-1.476-4.879,5.056,5.056,0,0,0-4.1-1.763,4.953,4.953,0,0,0-4.2,2.07A9.338,9.338,0,0,0,4.879-10.5,9.94,9.94,0,0,0,6.4-4.613,4.907,4.907,0,0,0,10.619-2.5a5.339,5.339,0,0,0,4.1-1.579,6.2,6.2,0,0,0,1.476-4.408ZM30.709.41a7.063,7.063,0,0,1-4.961-1.763A5.887,5.887,0,0,1,23.821-5.9a5.53,5.53,0,0,1,2.317-4.756,11.069,11.069,0,0,1,6.58-1.681h4.223v-1.066a4.747,4.747,0,0,0-1.21-3.505,4.747,4.747,0,0,0-3.506-1.21,7.54,7.54,0,0,0-3.382.759,6.82,6.82,0,0,0-2.562,2.194L24.518-17.3a9.158,9.158,0,0,1,3.4-2.686,10.584,10.584,0,0,1,4.469-.923,8.574,8.574,0,0,1,5.945,1.886,6.913,6.913,0,0,1,2.091,5.412v9.635A20.278,20.278,0,0,0,40.918,0H37.884a10.942,10.942,0,0,1-.533-2.87h-.082A7.678,7.678,0,0,1,34.44-.431,8.225,8.225,0,0,1,30.709.41Zm.533-2.747a6.872,6.872,0,0,0,2.87-.595,5.16,5.16,0,0,0,2.07-1.62,3.706,3.706,0,0,0,.759-2.255V-9.84H32.6a6.628,6.628,0,0,0-3.977,1.025A3.4,3.4,0,0,0,27.224-5.9a3.3,3.3,0,0,0,1.087,2.6A4.258,4.258,0,0,0,31.242-2.337ZM46-15.5q0-3.485-.123-5h3.239q.164,1.64.164,3.608v.41h.123a6.482,6.482,0,0,1,2.5-3.28,7.146,7.146,0,0,1,4.059-1.148,5.3,5.3,0,0,1,1.189.123v2.87a6.649,6.649,0,0,0-1.435-.123,5.242,5.242,0,0,0-3.157,1.045,7.042,7.042,0,0,0-2.255,2.849,9.4,9.4,0,0,0-.82,3.936V0H46ZM66.133.41a7.063,7.063,0,0,1-4.961-1.763A5.887,5.887,0,0,1,59.245-5.9a5.53,5.53,0,0,1,2.317-4.756,11.069,11.069,0,0,1,6.581-1.681h4.223v-1.066a4.747,4.747,0,0,0-1.21-3.505,4.747,4.747,0,0,0-3.506-1.21,7.54,7.54,0,0,0-3.382.759,6.821,6.821,0,0,0-2.562,2.194L59.942-17.3a9.158,9.158,0,0,1,3.4-2.686,10.584,10.584,0,0,1,4.469-.923,8.574,8.574,0,0,1,5.945,1.886,6.913,6.913,0,0,1,2.091,5.412v9.635A20.279,20.279,0,0,0,76.342,0H73.308a10.942,10.942,0,0,1-.533-2.87h-.082a7.678,7.678,0,0,1-2.829,2.44A8.225,8.225,0,0,1,66.133.41Zm.533-2.747a6.872,6.872,0,0,0,2.87-.595,5.16,5.16,0,0,0,2.071-1.62,3.706,3.706,0,0,0,.758-2.255V-9.84H68.019a6.628,6.628,0,0,0-3.977,1.025A3.4,3.4,0,0,0,62.648-5.9a3.3,3.3,0,0,0,1.087,2.6A4.258,4.258,0,0,0,66.666-2.337Zm14.473-13a50.608,50.608,0,0,0-.164-5.166h3.239a31.855,31.855,0,0,1,.164,3.649H84.5a6.754,6.754,0,0,1,2.768-2.973A8.116,8.116,0,0,1,91.43-20.91a6.411,6.411,0,0,1,5.412,2.337q1.8,2.337,1.8,6.97V0H95.161V-11.644a8.643,8.643,0,0,0-1.107-4.879,3.813,3.813,0,0,0-3.362-1.6,5.709,5.709,0,0,0-3.116.882,5.954,5.954,0,0,0-2.173,2.46,7.906,7.906,0,0,0-.779,3.546V0H81.139ZM111.11.41a5.429,5.429,0,0,1-4.264-1.743,6.971,6.971,0,0,1-1.558-4.817V-17.794H101.6V-20.5h3.69v-5.453l3.321-1.025h.164V-20.5H114.6v2.706h-5.822V-6.478a5.033,5.033,0,0,0,.779,3.1,2.869,2.869,0,0,0,2.419,1,7.7,7.7,0,0,0,2.87-.451l.246,2.583A9.43,9.43,0,0,1,111.11.41Zm10.537-24.477a2.533,2.533,0,0,1-1.8-.615,2.193,2.193,0,0,1-.656-1.681,2.26,2.26,0,0,1,.656-1.7,2.483,2.483,0,0,1,1.8-.636,2.557,2.557,0,0,1,1.825.636,2.223,2.223,0,0,1,.676,1.7,2.158,2.158,0,0,1-.676,1.681A2.609,2.609,0,0,1,121.647-24.067ZM119.925-20.5h3.485V0h-3.485ZM135.218.41a7.063,7.063,0,0,1-4.961-1.763A5.887,5.887,0,0,1,128.33-5.9a5.53,5.53,0,0,1,2.316-4.756,11.069,11.069,0,0,1,6.581-1.681h4.223v-1.066a4.747,4.747,0,0,0-1.209-3.505,4.747,4.747,0,0,0-3.506-1.21,7.54,7.54,0,0,0-3.382.759,6.82,6.82,0,0,0-2.562,2.194L129.027-17.3a9.158,9.158,0,0,1,3.4-2.686,10.584,10.584,0,0,1,4.469-.923,8.574,8.574,0,0,1,5.945,1.886,6.913,6.913,0,0,1,2.091,5.412v9.635A20.279,20.279,0,0,0,145.427,0h-3.034a10.942,10.942,0,0,1-.533-2.87h-.082a7.678,7.678,0,0,1-2.829,2.44A8.225,8.225,0,0,1,135.218.41Zm.533-2.747a6.872,6.872,0,0,0,2.87-.595,5.16,5.16,0,0,0,2.07-1.62,3.706,3.706,0,0,0,.758-2.255V-9.84H137.1a6.628,6.628,0,0,0-3.977,1.025A3.4,3.4,0,0,0,131.733-5.9a3.3,3.3,0,0,0,1.087,2.6A4.258,4.258,0,0,0,135.751-2.337ZM167.731.41a7.573,7.573,0,0,1-6.294-2.952q-2.316-2.952-2.316-8.077a12.886,12.886,0,0,1,1.066-5.432,8.259,8.259,0,0,1,3.034-3.588,8.276,8.276,0,0,1,4.592-1.271,7.153,7.153,0,0,1,6.068,3.157h.082V-30.422h3.444V-5.166q0,3.813.123,5.166h-3.2q-.082-.984-.082-3.239h-.082a7.091,7.091,0,0,1-2.706,2.645A7.423,7.423,0,0,1,167.731.41Zm.492-2.788a5.542,5.542,0,0,0,4.161-1.579A5.821,5.821,0,0,0,173.922-8.2v-3.731a6.584,6.584,0,0,0-1.558-4.592,5.313,5.313,0,0,0-4.141-1.722,4.838,4.838,0,0,0-4.12,2.03,9.414,9.414,0,0,0-1.5,5.679,10.426,10.426,0,0,0,1.5,5.986A4.738,4.738,0,0,0,168.223-2.378ZM199.711-8.9h-14.76A7.632,7.632,0,0,0,186.8-4.161,5.693,5.693,0,0,0,191.1-2.542a6.938,6.938,0,0,0,5.863-2.911l1.968,1.886a8,8,0,0,1-3.3,2.932A10.341,10.341,0,0,1,190.978.41a8.984,8.984,0,0,1-7.052-2.788q-2.5-2.788-2.5-7.831,0-5,2.521-7.852a8.8,8.8,0,0,1,6.95-2.85,7.968,7.968,0,0,1,6.478,2.809q2.337,2.808,2.337,7.851Zm-3.2-2.87a6.607,6.607,0,0,0-1.537-4.633,5.463,5.463,0,0,0-4.243-1.681,5.078,5.078,0,0,0-4.038,1.722,8.229,8.229,0,0,0-1.743,4.879h11.562ZM221.154.41a7.573,7.573,0,0,1-6.294-2.952q-2.316-2.952-2.316-8.077a12.886,12.886,0,0,1,1.066-5.432,8.259,8.259,0,0,1,3.034-3.588,8.276,8.276,0,0,1,4.592-1.271,7.153,7.153,0,0,1,6.068,3.157h.082V-30.422h3.444V-5.166q0,3.813.123,5.166h-3.2q-.082-.984-.082-3.239h-.082a7.091,7.091,0,0,1-2.706,2.645A7.423,7.423,0,0,1,221.154.41Zm.492-2.788a5.542,5.542,0,0,0,4.161-1.579A5.821,5.821,0,0,0,227.345-8.2v-3.731a6.584,6.584,0,0,0-1.558-4.592,5.313,5.313,0,0,0-4.141-1.722,4.838,4.838,0,0,0-4.12,2.03,9.414,9.414,0,0,0-1.5,5.679,10.426,10.426,0,0,0,1.5,5.986A4.738,4.738,0,0,0,221.646-2.378Zm16.728-21.689a2.533,2.533,0,0,1-1.8-.615,2.193,2.193,0,0,1-.656-1.681,2.26,2.26,0,0,1,.656-1.7,2.483,2.483,0,0,1,1.8-.636,2.557,2.557,0,0,1,1.825.636,2.223,2.223,0,0,1,.676,1.7,2.158,2.158,0,0,1-.676,1.681A2.609,2.609,0,0,1,238.374-24.067ZM236.652-20.5h3.485V0h-3.485Zm9.512,5q0-3.485-.123-5h3.239q.164,1.64.164,3.608v.41h.123a6.482,6.482,0,0,1,2.5-3.28,7.146,7.146,0,0,1,4.059-1.148,5.3,5.3,0,0,1,1.189.123v2.87a6.648,6.648,0,0,0-1.435-.123,5.242,5.242,0,0,0-3.157,1.045,7.041,7.041,0,0,0-2.255,2.849,9.4,9.4,0,0,0-.82,3.936V0h-3.485Zm31.365,6.6h-14.76a7.632,7.632,0,0,0,1.845,4.736,5.693,5.693,0,0,0,4.3,1.619,6.938,6.938,0,0,0,5.863-2.911l1.968,1.886a8,8,0,0,1-3.3,2.932A10.341,10.341,0,0,1,268.8.41a8.984,8.984,0,0,1-7.052-2.788q-2.5-2.788-2.5-7.831,0-5,2.521-7.852a8.8,8.8,0,0,1,6.949-2.85,7.968,7.968,0,0,1,6.478,2.809q2.337,2.808,2.337,7.851Zm-3.2-2.87a6.607,6.607,0,0,0-1.538-4.633,5.463,5.463,0,0,0-4.243-1.681,5.078,5.078,0,0,0-4.038,1.722,8.229,8.229,0,0,0-1.742,4.879h11.562Zm9.676-12.3a2.533,2.533,0,0,1-1.8-.615,2.192,2.192,0,0,1-.656-1.681,2.26,2.26,0,0,1,.656-1.7,2.483,2.483,0,0,1,1.8-.636,2.557,2.557,0,0,1,1.824.636,2.223,2.223,0,0,1,.676,1.7,2.158,2.158,0,0,1-.676,1.681A2.609,2.609,0,0,1,284.007-24.067ZM282.285-20.5h3.485V0h-3.485ZM298.972.41a5.429,5.429,0,0,1-4.264-1.743A6.971,6.971,0,0,1,293.15-6.15V-17.794h-3.69V-20.5h3.69v-5.453l3.321-1.025h.164V-20.5h5.822v2.706h-5.822V-6.478a5.032,5.032,0,0,0,.779,3.1,2.869,2.869,0,0,0,2.419,1,7.7,7.7,0,0,0,2.87-.451l.246,2.583A9.429,9.429,0,0,1,298.972.41Zm14.473,0a10.346,10.346,0,0,1-5.269-1.292,8.629,8.629,0,0,1-3.444-3.711,12.5,12.5,0,0,1-1.209-5.658,12.5,12.5,0,0,1,1.209-5.658,8.629,8.629,0,0,1,3.444-3.71,10.346,10.346,0,0,1,5.269-1.292,9.485,9.485,0,0,1,7.277,2.87,10.946,10.946,0,0,1,2.685,7.79,10.946,10.946,0,0,1-2.685,7.79A9.485,9.485,0,0,1,313.445.41Zm0-2.665A5.778,5.778,0,0,0,318.2-4.387a9.08,9.08,0,0,0,1.722-5.863,9.08,9.08,0,0,0-1.722-5.863,5.778,5.778,0,0,0-4.756-2.132,5.733,5.733,0,0,0-4.715,2.132,9.08,9.08,0,0,0-1.722,5.863,9.08,9.08,0,0,0,1.722,5.863A5.733,5.733,0,0,0,313.445-2.255ZM333.084.41a9.092,9.092,0,0,1-4.161-.943,5.686,5.686,0,0,1-2.645-2.5l2.255-1.558A4.715,4.715,0,0,0,330.46-2.87a5.876,5.876,0,0,0,2.665.615,4.124,4.124,0,0,0,2.85-1A3.235,3.235,0,0,0,337.1-5.781a2.655,2.655,0,0,0-.9-2.05A10.42,10.42,0,0,0,333-9.512a13.965,13.965,0,0,1-4.9-2.665,4.644,4.644,0,0,1-1.415-3.444,4.609,4.609,0,0,1,1.886-3.834,7.97,7.97,0,0,1,5-1.455,7.851,7.851,0,0,1,3.67.861,6.254,6.254,0,0,1,2.563,2.378l-2.132,1.558a4.649,4.649,0,0,0-4.1-2.132,4.13,4.13,0,0,0-2.48.7,2.135,2.135,0,0,0-.964,1.8,2.28,2.28,0,0,0,.984,1.865,15.942,15.942,0,0,0,3.649,1.784,11.806,11.806,0,0,1,4.469,2.6A5.069,5.069,0,0,1,340.546-5.9a5.694,5.694,0,0,1-2.05,4.592A8.135,8.135,0,0,1,333.084.41Zm21.4-15.744q0-2.624-.164-5.166h3.2q.123,1.517.123,3.239h.082a6.453,6.453,0,0,1,2.665-2.645,7.877,7.877,0,0,1,3.895-1,7.529,7.529,0,0,1,6.232,2.829q2.255,2.829,2.255,7.831a13.785,13.785,0,0,1-1.066,5.637A8.508,8.508,0,0,1,368.693-.9,7.915,7.915,0,0,1,364.162.41a8.07,8.07,0,0,1-3.731-.82,5.14,5.14,0,0,1-2.337-2.3h-.123V9.922h-3.485Zm9.143,13.079a4.777,4.777,0,0,0,4.141-2.194,10.255,10.255,0,0,0,1.517-5.925,9.575,9.575,0,0,0-1.476-5.74,4.842,4.842,0,0,0-4.141-2.009,5.477,5.477,0,0,0-4.1,1.64,5.742,5.742,0,0,0-1.6,4.182v3.731A6.6,6.6,0,0,0,359.529-4,5.236,5.236,0,0,0,363.629-2.255ZM382.776.41a7.063,7.063,0,0,1-4.961-1.763A5.887,5.887,0,0,1,375.888-5.9,5.53,5.53,0,0,1,378.2-10.66a11.069,11.069,0,0,1,6.58-1.681h4.223v-1.066a4.747,4.747,0,0,0-1.21-3.505,4.747,4.747,0,0,0-3.505-1.21,7.54,7.54,0,0,0-3.383.759,6.82,6.82,0,0,0-2.562,2.194L376.585-17.3a9.158,9.158,0,0,1,3.4-2.686,10.584,10.584,0,0,1,4.469-.923,8.574,8.574,0,0,1,5.945,1.886,6.913,6.913,0,0,1,2.091,5.412v9.635A20.279,20.279,0,0,0,392.985,0h-3.034a10.943,10.943,0,0,1-.533-2.87h-.082a7.678,7.678,0,0,1-2.829,2.44A8.225,8.225,0,0,1,382.776.41Zm.533-2.747a6.872,6.872,0,0,0,2.87-.595,5.16,5.16,0,0,0,2.07-1.62,3.706,3.706,0,0,0,.759-2.255V-9.84h-4.346a6.628,6.628,0,0,0-3.977,1.025A3.4,3.4,0,0,0,379.291-5.9a3.3,3.3,0,0,0,1.086,2.6A4.258,4.258,0,0,0,383.309-2.337ZM398.069-15.5q0-3.485-.123-5h3.239q.164,1.64.164,3.608v.41h.123a6.482,6.482,0,0,1,2.5-3.28,7.146,7.146,0,0,1,4.059-1.148,5.3,5.3,0,0,1,1.189.123v2.87a6.648,6.648,0,0,0-1.435-.123,5.242,5.242,0,0,0-3.157,1.045,7.042,7.042,0,0,0-2.255,2.849,9.4,9.4,0,0,0-.82,3.936V0h-3.485ZM418.2.41a7.063,7.063,0,0,1-4.961-1.763A5.887,5.887,0,0,1,411.312-5.9a5.53,5.53,0,0,1,2.316-4.756,11.069,11.069,0,0,1,6.58-1.681h4.223v-1.066a4.747,4.747,0,0,0-1.21-3.505,4.747,4.747,0,0,0-3.505-1.21,7.54,7.54,0,0,0-3.383.759,6.82,6.82,0,0,0-2.562,2.194L412.009-17.3a9.158,9.158,0,0,1,3.4-2.686,10.584,10.584,0,0,1,4.469-.923,8.574,8.574,0,0,1,5.945,1.886,6.913,6.913,0,0,1,2.091,5.412v9.635A20.279,20.279,0,0,0,428.409,0h-3.034a10.943,10.943,0,0,1-.533-2.87h-.082a7.678,7.678,0,0,1-2.829,2.44A8.225,8.225,0,0,1,418.2.41Zm.533-2.747a6.872,6.872,0,0,0,2.87-.595,5.16,5.16,0,0,0,2.07-1.62,3.706,3.706,0,0,0,.759-2.255V-9.84h-4.346a6.628,6.628,0,0,0-3.977,1.025A3.4,3.4,0,0,0,414.715-5.9,3.3,3.3,0,0,0,415.8-3.3,4.258,4.258,0,0,0,418.733-2.337ZM2.5,28.666Q2.5,25.55,2.3,23.5H5.412q.164,1.64.164,3.649H5.7a6.427,6.427,0,0,1,2.583-2.973,7.352,7.352,0,0,1,3.936-1.087A6.273,6.273,0,0,1,15.949,24.2a5.356,5.356,0,0,1,2.091,3.075,6.878,6.878,0,0,1,2.624-3.055,7.224,7.224,0,0,1,3.977-1.128,6.643,6.643,0,0,1,5.269,2.173,8.9,8.9,0,0,1,1.906,6.068V44H28.372V31.618A6.743,6.743,0,0,0,27.2,27.354a4.058,4.058,0,0,0-3.382-1.476,4.5,4.5,0,0,0-3.567,1.62,6.152,6.152,0,0,0-1.394,4.161V44H15.416V31.782a7.542,7.542,0,0,0-1.066-4.448,3.751,3.751,0,0,0-3.239-1.456,4.4,4.4,0,0,0-2.542.82,6.006,6.006,0,0,0-1.906,2.173,6.12,6.12,0,0,0-.717,2.911V44H2.5ZM54.161,35.1H39.4a7.632,7.632,0,0,0,1.845,4.736,5.693,5.693,0,0,0,4.305,1.619,6.938,6.938,0,0,0,5.863-2.911l1.968,1.886a8,8,0,0,1-3.3,2.931,10.341,10.341,0,0,1-4.654,1.046,8.984,8.984,0,0,1-7.052-2.788q-2.5-2.788-2.5-7.831,0-5,2.521-7.852a8.8,8.8,0,0,1,6.949-2.85A7.968,7.968,0,0,1,51.824,25.9q2.337,2.808,2.337,7.851Zm-3.2-2.87A6.607,6.607,0,0,0,49.426,27.6a5.463,5.463,0,0,0-4.243-1.681,5.078,5.078,0,0,0-4.039,1.722A8.229,8.229,0,0,0,39.4,32.52H50.963ZM58.1,28.666a50.61,50.61,0,0,0-.164-5.166h3.239a31.853,31.853,0,0,1,.164,3.649h.123a6.754,6.754,0,0,1,2.768-2.973,8.116,8.116,0,0,1,4.161-1.087A6.411,6.411,0,0,1,73.8,25.427q1.8,2.337,1.8,6.97V44H72.119V32.356a8.643,8.643,0,0,0-1.107-4.879,3.813,3.813,0,0,0-3.362-1.6,5.709,5.709,0,0,0-3.116.882,5.954,5.954,0,0,0-2.173,2.46,7.906,7.906,0,0,0-.779,3.546V44H58.1Zm25.051-8.733a2.533,2.533,0,0,1-1.8-.615,2.193,2.193,0,0,1-.656-1.681,2.26,2.26,0,0,1,.656-1.7,2.483,2.483,0,0,1,1.8-.636,2.557,2.557,0,0,1,1.825.636,2.223,2.223,0,0,1,.676,1.7,2.158,2.158,0,0,1-.676,1.681A2.609,2.609,0,0,1,83.148,19.933ZM81.426,23.5h3.485V44H81.426Zm9.225,5.166a50.608,50.608,0,0,0-.164-5.166h3.239a31.855,31.855,0,0,1,.164,3.649h.123a6.754,6.754,0,0,1,2.768-2.973,8.116,8.116,0,0,1,4.161-1.087,6.411,6.411,0,0,1,5.412,2.337q1.8,2.337,1.8,6.97V44h-3.485V32.356a8.643,8.643,0,0,0-1.107-4.879,3.813,3.813,0,0,0-3.362-1.6,5.709,5.709,0,0,0-3.116.882,5.954,5.954,0,0,0-2.173,2.46,7.906,7.906,0,0,0-.779,3.546V44H90.651ZM119.228,44.41a7.063,7.063,0,0,1-4.961-1.763A5.887,5.887,0,0,1,112.34,38.1a5.53,5.53,0,0,1,2.316-4.756,11.069,11.069,0,0,1,6.581-1.681h4.223V30.593a4.747,4.747,0,0,0-1.21-3.505,4.747,4.747,0,0,0-3.506-1.21,7.54,7.54,0,0,0-3.382.759A6.82,6.82,0,0,0,114.8,28.83L113.037,26.7a9.158,9.158,0,0,1,3.4-2.686,10.584,10.584,0,0,1,4.469-.923,8.574,8.574,0,0,1,5.945,1.886,6.913,6.913,0,0,1,2.091,5.412v9.635A20.279,20.279,0,0,0,129.437,44H126.4a10.942,10.942,0,0,1-.533-2.87h-.082a7.678,7.678,0,0,1-2.829,2.439A8.225,8.225,0,0,1,119.228,44.41Zm.533-2.747a6.872,6.872,0,0,0,2.87-.594,5.16,5.16,0,0,0,2.071-1.62,3.706,3.706,0,0,0,.758-2.255V34.16h-4.346a6.628,6.628,0,0,0-3.977,1.025,3.4,3.4,0,0,0-1.394,2.911,3.3,3.3,0,0,0,1.087,2.6A4.258,4.258,0,0,0,119.761,41.663Zm20.213,2.747a9.092,9.092,0,0,1-4.161-.943,5.687,5.687,0,0,1-2.645-2.5l2.255-1.558a4.714,4.714,0,0,0,1.927,1.722,5.876,5.876,0,0,0,2.665.615,4.124,4.124,0,0,0,2.85-1,3.235,3.235,0,0,0,1.128-2.521,2.655,2.655,0,0,0-.9-2.05,10.42,10.42,0,0,0-3.2-1.681,13.965,13.965,0,0,1-4.9-2.665,4.867,4.867,0,0,1,.471-7.278,7.97,7.97,0,0,1,5-1.455,7.851,7.851,0,0,1,3.669.861,6.253,6.253,0,0,1,2.563,2.378l-2.132,1.558a4.649,4.649,0,0,0-4.1-2.132,4.13,4.13,0,0,0-2.48.7,2.135,2.135,0,0,0-.964,1.8,2.28,2.28,0,0,0,.984,1.865,15.942,15.942,0,0,0,3.649,1.784,11.807,11.807,0,0,1,4.469,2.6,5.069,5.069,0,0,1,1.312,3.588,5.694,5.694,0,0,1-2.05,4.592A8.135,8.135,0,0,1,139.974,44.41ZM178.555,35.1h-14.76a7.632,7.632,0,0,0,1.845,4.736,5.693,5.693,0,0,0,4.305,1.619,6.938,6.938,0,0,0,5.863-2.911l1.968,1.886a8,8,0,0,1-3.3,2.931,10.341,10.341,0,0,1-4.653,1.046,8.984,8.984,0,0,1-7.052-2.788q-2.5-2.788-2.5-7.831,0-5,2.521-7.852a8.8,8.8,0,0,1,6.95-2.85,7.968,7.968,0,0,1,6.478,2.809q2.337,2.808,2.337,7.851Zm-3.2-2.87A6.607,6.607,0,0,0,173.82,27.6a5.463,5.463,0,0,0-4.243-1.681,5.078,5.078,0,0,0-4.038,1.722,8.229,8.229,0,0,0-1.743,4.879h11.562ZM192.5,28.666q0-3.116-.205-5.166h3.116q.164,1.64.164,3.649h.123a6.427,6.427,0,0,1,2.583-2.973,7.352,7.352,0,0,1,3.936-1.087,6.273,6.273,0,0,1,3.731,1.107,5.356,5.356,0,0,1,2.091,3.075,6.878,6.878,0,0,1,2.624-3.055,7.224,7.224,0,0,1,3.977-1.128,6.643,6.643,0,0,1,5.268,2.173,8.9,8.9,0,0,1,1.906,6.068V44h-3.444V31.618a6.743,6.743,0,0,0-1.168-4.264,4.058,4.058,0,0,0-3.383-1.476,4.5,4.5,0,0,0-3.567,1.62,6.152,6.152,0,0,0-1.394,4.161V44H205.41V31.782a7.542,7.542,0,0,0-1.066-4.448,3.751,3.751,0,0,0-3.239-1.456,4.4,4.4,0,0,0-2.542.82,6.006,6.006,0,0,0-1.906,2.173,6.12,6.12,0,0,0-.717,2.911V44H192.5ZM234.069,44.41a6.425,6.425,0,0,1-5.35-2.3q-1.824-2.3-1.824-6.765V23.5h3.485V35.39q0,6.232,4.428,6.232a5.709,5.709,0,0,0,3.116-.882,5.954,5.954,0,0,0,2.173-2.46,7.906,7.906,0,0,0,.779-3.546V23.5h3.485V39.654A27.438,27.438,0,0,0,244.729,44h-3.2a20.437,20.437,0,0,1-.41-3.649H241a6.754,6.754,0,0,1-2.768,2.973A8.116,8.116,0,0,1,234.069,44.41Zm20.254,0q-4.428,0-4.428-5.207V13.578h3.485V39.162a3.33,3.33,0,0,0,.471,2.029,1.953,1.953,0,0,0,1.62.595,5.3,5.3,0,0,0,2.05-.492l.533,2.091A6.635,6.635,0,0,1,254.323,44.41Zm7.134-30.832h3.485V26.7a6.635,6.635,0,0,1,2.768-2.645,8.6,8.6,0,0,1,4.079-.964,6.805,6.805,0,0,1,5.576,2.4,10.428,10.428,0,0,1,1.968,6.785V44h-3.485V32.233a8.112,8.112,0,0,0-1.21-4.818,4.027,4.027,0,0,0-3.465-1.661,5.886,5.886,0,0,0-3.2.9,6.082,6.082,0,0,0-2.234,2.521,8.086,8.086,0,0,0-.8,3.628V44h-3.485ZM301.6,35.1h-14.76a7.632,7.632,0,0,0,1.845,4.736,5.693,5.693,0,0,0,4.3,1.619,6.938,6.938,0,0,0,5.863-2.911l1.968,1.886a8,8,0,0,1-3.3,2.931,10.341,10.341,0,0,1-4.654,1.046,8.984,8.984,0,0,1-7.052-2.788q-2.5-2.788-2.5-7.831,0-5,2.521-7.852a8.8,8.8,0,0,1,6.949-2.85,7.968,7.968,0,0,1,6.478,2.809q2.337,2.808,2.337,7.851Zm-3.2-2.87a6.607,6.607,0,0,0-1.538-4.633,5.463,5.463,0,0,0-4.243-1.681,5.078,5.078,0,0,0-4.038,1.722,8.229,8.229,0,0,0-1.742,4.879H298.4Zm7.421-3.731q0-3.485-.123-5h3.239q.164,1.64.164,3.608v.41h.123a6.482,6.482,0,0,1,2.5-3.28,7.146,7.146,0,0,1,4.059-1.148,5.3,5.3,0,0,1,1.189.123v2.87a6.648,6.648,0,0,0-1.435-.123,5.242,5.242,0,0,0-3.157,1.045,7.042,7.042,0,0,0-2.255,2.85,9.4,9.4,0,0,0-.82,3.936V44h-3.485Zm31.365,6.6h-14.76a7.632,7.632,0,0,0,1.845,4.736,5.693,5.693,0,0,0,4.3,1.619,6.938,6.938,0,0,0,5.863-2.911l1.968,1.886a8,8,0,0,1-3.3,2.931,10.341,10.341,0,0,1-4.654,1.046,8.984,8.984,0,0,1-7.052-2.788q-2.5-2.788-2.5-7.831,0-5,2.521-7.852a8.8,8.8,0,0,1,6.949-2.85,7.968,7.968,0,0,1,6.478,2.809q2.337,2.808,2.337,7.851Zm-3.2-2.87a6.607,6.607,0,0,0-1.538-4.633,5.463,5.463,0,0,0-4.243-1.681,5.078,5.078,0,0,0-4.038,1.722,8.229,8.229,0,0,0-1.742,4.879h11.562ZM348.5,44.41a9.092,9.092,0,0,1-4.161-.943,5.686,5.686,0,0,1-2.645-2.5l2.255-1.558a4.715,4.715,0,0,0,1.927,1.722,5.876,5.876,0,0,0,2.665.615,4.124,4.124,0,0,0,2.849-1,3.235,3.235,0,0,0,1.128-2.521,2.655,2.655,0,0,0-.9-2.05,10.42,10.42,0,0,0-3.2-1.681,13.965,13.965,0,0,1-4.9-2.665,4.867,4.867,0,0,1,.471-7.278,7.97,7.97,0,0,1,5-1.455,7.851,7.851,0,0,1,3.67.861,6.254,6.254,0,0,1,2.563,2.378l-2.132,1.558a4.649,4.649,0,0,0-4.1-2.132,4.13,4.13,0,0,0-2.48.7,2.135,2.135,0,0,0-.964,1.8,2.28,2.28,0,0,0,.984,1.865,15.942,15.942,0,0,0,3.649,1.784,11.807,11.807,0,0,1,4.469,2.6,5.069,5.069,0,0,1,1.312,3.588,5.694,5.694,0,0,1-2.05,4.592A8.135,8.135,0,0,1,348.5,44.41Z" transform="translate(212.664 159.712)" fill="#fff"/>
</svg>
