<svg width="281" height="287" viewBox="0 0 281 287" fill="none" xmlns="http://www.w3.org/2000/svg">
<path d="M280.495 76.2384C279.995 66.7384 272.995 59.1384 263.395 58.9384C257.895 58.9384 252.395 58.7384 246.895 58.6384C251.695 54.0384 256.695 49.5384 261.795 45.4384C263.995 43.8384 266.295 42.2384 268.495 40.6384C272.195 38.1384 275.195 34.7384 276.295 30.2384C277.395 26.1384 276.895 20.5384 274.595 16.9384C269.895 9.43837 259.095 5.33837 251.195 10.7384C240.295 18.2384 230.295 26.7384 220.895 35.9384C220.695 32.6384 220.395 29.3384 220.195 26.0384C220.395 25.4384 220.495 24.9384 220.695 24.3384C221.595 19.9384 221.595 14.8384 218.995 11.0384C218.395 10.2384 217.895 9.43837 217.295 8.53837C215.095 5.43837 212.695 3.03837 209.195 1.53837C205.795 0.0383682 201.695 -0.561633 198.095 0.638367C195.195 1.53837 192.695 3.03837 190.495 5.13837C187.495 7.93837 185.195 13.3384 185.495 17.3384C186.395 30.9384 187.495 44.4384 188.395 58.0384C181.095 58.0384 173.695 58.0384 166.395 58.2384C134.195 58.8384 101.895 60.6384 69.995 64.9384C50.695 67.4384 31.595 70.7384 12.595 75.0384C3.89503 77.1384 -2.10497 87.7384 0.695033 96.3384C3.69503 105.538 12.395 110.638 21.695 108.438C37.995 104.638 54.395 101.738 70.795 99.3384C103.995 94.9384 137.195 93.2384 170.595 92.6384C166.595 97.2384 162.595 101.938 158.395 106.538C128.295 140.438 96.895 173.338 64.395 205.038C45.995 222.838 27.295 240.338 8.29503 257.338C1.59503 263.338 1.79503 275.738 8.29503 281.738C15.395 288.438 25.295 288.138 32.395 281.738C64.995 252.638 96.495 222.238 126.995 190.838C149.395 167.738 171.095 144.038 192.295 119.738C193.995 150.038 195.295 180.238 195.495 210.638C195.495 228.938 195.295 247.238 194.495 265.438C193.995 274.538 202.595 283.138 211.595 282.738C221.195 282.238 228.195 275.138 228.695 265.438C230.195 233.138 229.995 200.638 228.795 168.238C227.895 143.038 226.495 117.838 224.795 92.7384C237.695 92.9384 250.495 93.2384 263.395 93.4384C272.395 93.6384 280.795 85.3384 280.495 76.1384L280.795 76.3384L280.495 76.2384Z" fill="#1E0301"/>
</svg>
