<?xml version="1.0" encoding="UTF-8"?>
<svg id="Layer_1" data-name="Layer 1" xmlns="http://www.w3.org/2000/svg" version="1.1" viewBox="0 0 312 224">
  <defs>
    <style>
      .cls-1 {
        fill: #808283;
      }

      .cls-1, .cls-2, .cls-3, .cls-4, .cls-5, .cls-6, .cls-7, .cls-8, .cls-9 {
        stroke-width: 0px;
      }

      .cls-2 {
        fill: #dbdd7f;
      }

      .cls-3 {
        fill: #87cca3;
      }

      .cls-4 {
        fill: #62a5ba;
      }

      .cls-5 {
        fill: #76c8df;
      }

      .cls-6 {
        fill: #78b995;
      }

      .cls-7 {
        fill: #f7964c;
      }

      .cls-8 {
        fill: #c4c46f;
      }

      .cls-9 {
        fill: #e1873e;
      }
    </style>
  </defs>
  <polyline class="cls-4" points="108.85 108.3 130.91 130.36 108.85 152.42"/>
  <polyline class="cls-5" points="108.85 152.42 86.79 130.36 108.85 108.3"/>
  <polyline class="cls-4" points="85.66 85.12 107.72 107.18 85.66 129.23"/>
  <polyline class="cls-5" points="85.66 129.23 63.6 107.18 85.66 85.12"/>
  <polyline class="cls-4" points="109.96 107.18 132.02 129.23 154.08 107.18"/>
  <polyline class="cls-5" points="154.08 107.18 132.02 85.12 109.96 107.18"/>
  <polyline class="cls-4" points="86.79 83.99 108.85 106.05 130.91 83.99"/>
  <polyline class="cls-5" points="130.91 83.99 108.85 61.93 86.79 83.99"/>
  <polyline class="cls-6" points="133.14 130.36 155.2 152.42 177.26 130.36"/>
  <polyline class="cls-3" points="177.26 130.36 155.2 108.3 133.14 130.36"/>
  <polyline class="cls-4" points="63.6 60.81 85.66 82.87 107.72 60.81"/>
  <polyline class="cls-5" points="107.72 60.81 85.66 38.75 63.6 60.81"/>
  <polyline class="cls-6" points="155.2 61.93 177.26 83.99 155.2 106.05"/>
  <polyline class="cls-3" points="155.2 106.05 133.14 83.99 155.2 61.93"/>
  <polyline class="cls-6" points="132.02 38.75 154.08 60.81 132.02 82.87"/>
  <polyline class="cls-3" points="132.02 82.87 109.96 60.81 132.02 38.75"/>
  <polyline class="cls-8" points="178.39 85.12 200.45 107.18 178.39 129.23"/>
  <polyline class="cls-2" points="178.39 129.23 156.33 107.18 178.39 85.12"/>
  <polyline class="cls-6" points="201.56 108.3 223.62 130.36 201.56 152.42"/>
  <polyline class="cls-3" points="201.56 152.42 179.5 130.36 201.56 108.3"/>
  <polygon class="cls-4" points="108.85 15.57 108.85 59.69 130.91 37.63 108.85 15.57"/>
  <polygon class="cls-5" points="108.85 15.57 86.79 37.63 108.85 59.69 108.85 15.57"/>
  <polyline class="cls-8" points="156.33 60.81 178.39 82.87 200.45 60.81"/>
  <polyline class="cls-2" points="200.45 60.81 178.39 38.75 156.33 60.81"/>
  <polyline class="cls-4" points="133.14 37.63 155.2 59.69 177.26 37.63"/>
  <polygon class="cls-5" points="155.2 15.57 133.14 37.63 177.26 37.63 155.2 15.57"/>
  <polyline class="cls-9" points="179.5 83.99 201.56 106.05 223.62 83.99"/>
  <polyline class="cls-7" points="223.62 83.99 201.56 61.93 179.5 83.99"/>
  <polyline class="cls-8" points="202.69 107.18 224.74 129.23 246.8 107.18"/>
  <polyline class="cls-2" points="246.8 107.18 224.74 85.12 202.69 107.18"/>
  <polygon class="cls-6" points="201.56 15.57 201.56 59.69 223.62 37.63 201.56 15.57"/>
  <polygon class="cls-3" points="201.56 15.57 179.5 37.63 201.56 59.69 201.56 15.57"/>
  <polyline class="cls-8" points="224.74 38.75 246.8 60.81 224.74 82.87"/>
  <polyline class="cls-2" points="224.74 82.87 202.69 60.81 224.74 38.75"/>
  <polygon class="cls-1" points="44.67 176.44 32.67 192.17 20.66 176.44 17.95 176.44 17.95 209.63 19.82 209.63 19.82 178.46 32.67 195.28 45.52 178.46 45.52 209.63 47.4 209.63 47.4 176.44 44.67 176.44"/>
  <path class="cls-1" d="M67.5,179.26l5.05,13.92h-10.12l5.07-13.92ZM66.54,176.44l-12.18,33.19h1.99l5.4-14.6h11.48l5.31,14.6h1.97l-12.05-33.19h-1.92Z"/>
  <g>
    <path class="cls-1" d="M89.9,178.33v17.89h5.63c2.45,0,4.55-.87,6.3-2.62,1.76-1.74,2.64-3.85,2.64-6.34s-.87-4.58-2.64-6.31c-1.75-1.74-3.85-2.61-6.3-2.61h-5.63ZM89.9,198.12v11.5h-1.88v-33.19h8.7c2.54.34,4.69,1.4,6.46,3.17,2.12,2.12,3.17,4.67,3.17,7.64s-1.05,5.57-3.17,7.69c-2.12,2.12-4.67,3.17-7.65,3.17h-5.63Z"/>
    <path class="cls-3" d="M125.72,205.94c1.96,0,3.67-.73,5.12-2.19,1.47-1.47,2.2-3.29,2.2-5.46s-.73-4-2.2-5.47c-1.45-1.47-3.17-2.2-5.12-2.2h-6.15v15.32h6.15ZM119.57,179.52v7.41h6.81c.92-.09,1.64-.4,2.14-.92.69-.67,1.03-1.57,1.03-2.7s-.36-2-1.07-2.72c-.73-.73-1.55-1.08-2.44-1.08h-6.47ZM134.05,190.35c2.2,2.2,3.29,4.85,3.29,7.94s-1.13,5.73-3.4,8.01c-1.83,1.84-4.16,2.95-6.95,3.33h-11.66v-33.78h10.73c2.2,0,4.03.74,5.53,2.23,1.48,1.49,2.23,3.23,2.23,5.24s-.72,3.74-2.18,5.19c.52.12,1.32.74,2.41,1.85"/>
  </g>
  <rect class="cls-3" x="146.24" y="175.85" width="4.24" height="33.78"/>
  <path class="cls-3" d="M177.16,179.09c-3.6,0-6.71,1.32-9.34,3.95-2.62,2.64-3.94,5.85-3.94,9.64s1.32,7.05,3.94,9.67c2.64,2.63,5.74,3.95,9.34,3.95s6.74-1.32,9.37-3.95c2.63-2.62,3.94-5.85,3.94-9.67s-1.31-7-3.94-9.64c-2.63-2.63-5.75-3.95-9.37-3.95M189.64,180.49c3.4,3.42,5.1,7.48,5.1,12.18s-1.7,8.81-5.1,12.22c-3.4,3.4-7.56,5.1-12.48,5.1s-9.04-1.7-12.45-5.1c-3.4-3.41-5.11-7.48-5.11-12.22s1.7-8.76,5.11-12.18c3.41-3.4,7.55-5.11,12.45-5.11s9.07,1.71,12.48,5.11"/>
  <polygon class="cls-3" points="229.41 175.85 218.59 190.05 207.74 175.85 203.21 175.85 203.21 209.63 207.46 209.63 207.46 182.16 218.59 196.74 229.68 182.16 229.68 209.63 233.93 209.63 233.93 175.85 229.41 175.85"/>
  <path class="cls-3" d="M255.13,182.96l3.22,8.96h-6.5l3.27-8.96ZM253.28,175.85l-12.38,33.78h4.44l5.17-14.03h9.18l5.09,14.03h4.42l-12.22-33.78h-3.7Z"/>
  <path class="cls-3" d="M287.41,191.86c-2.42-.8-4.37-1.94-5.84-3.4-1.47-1.48-2.2-3.25-2.2-5.33s.75-3.82,2.28-5.37c1.53-1.54,3.42-2.31,5.7-2.31s4.15.79,5.74,2.38c.83.81,1.48,1.96,1.96,3.42l-3.81,1.47c-.47-1.26-.89-2.08-1.27-2.46-.77-.78-1.65-1.18-2.62-1.18s-1.84.38-2.6,1.14c-.76.75-1.13,1.73-1.13,2.9s.38,2.14,1.16,2.96c.81.78,1.92,1.5,3.34,2.16,2.68.87,4.94,2.22,6.76,4.04,2.08,2.06,3.12,4.5,3.12,7.31s-1.03,5.25-3.09,7.31c-2.05,2.05-4.58,3.08-7.56,3.08s-5.56-1.06-7.64-3.17c-1.63-1.61-2.63-3.7-3.01-6.27l4.1-1.47c.24,2.46.93,4.25,2.09,5.38,1.25,1.24,2.73,1.87,4.46,1.87s3.24-.65,4.54-1.94c1.29-1.29,1.93-2.89,1.93-4.8s-.63-3.5-1.9-4.76c-1.27-1.27-2.78-2.27-4.5-2.98"/>
</svg>