<svg width="1853" height="763" viewBox="0 0 1853 763" fill="none" xmlns="http://www.w3.org/2000/svg">
<rect width="1853" height="763" fill="#B39567"/>
<path d="M1277.94 300.312C1277.4 288.864 1268.89 279.812 1257.3 279.546C1250.65 279.546 1243.99 279.28 1237.34 279.147C1243.06 273.556 1249.05 268.231 1255.31 263.306C1257.97 261.309 1260.63 259.313 1263.43 257.449C1267.95 254.387 1271.41 250.394 1272.88 245.069C1274.21 240.144 1273.68 233.488 1270.75 229.096C1265.02 220.177 1252.11 215.119 1242.53 221.641C1229.35 230.56 1217.37 240.943 1206.05 251.991C1205.79 247.998 1205.52 244.138 1205.26 240.144C1205.52 239.479 1205.66 238.813 1205.92 238.147C1207.12 232.956 1206.99 226.7 1203.79 222.174C1203.13 221.109 1202.46 220.177 1201.66 219.112C1199 215.252 1196.07 212.456 1191.81 210.593C1187.68 208.862 1182.76 208.063 1178.37 209.528C1174.91 210.593 1171.98 212.456 1169.32 214.852C1165.72 218.18 1162.93 224.703 1163.33 229.495C1164.52 245.868 1165.59 262.108 1166.79 278.481C1157.87 278.481 1149.08 278.481 1140.16 278.747C1101.29 279.413 1062.42 281.676 1023.95 286.734C1000.66 289.796 977.63 293.656 954.734 298.981C944.218 301.377 937.03 314.156 940.358 324.539C943.952 335.587 954.468 341.711 965.65 339.048C985.218 334.522 1005.05 330.928 1024.89 328.133C1064.82 322.941 1105.02 320.812 1145.22 320.146C1140.43 325.737 1135.5 331.328 1130.58 336.918C1094.24 377.785 1056.43 417.187 1017.3 455.257C995.201 476.689 972.705 497.721 949.676 518.221C941.556 525.409 941.822 540.318 949.676 547.639C958.328 555.626 970.176 555.36 978.828 547.639C1018.1 512.63 1056.17 476.156 1092.91 438.352C1119.93 410.531 1146.02 382.044 1171.58 352.892C1173.71 389.233 1175.17 425.706 1175.44 462.179C1175.44 484.143 1175.17 506.107 1174.24 528.071C1173.71 538.987 1184.09 549.369 1194.87 548.837C1206.45 548.305 1214.97 539.652 1215.51 528.071C1217.24 489.202 1216.97 450.199 1215.64 411.196C1214.57 380.979 1212.84 350.629 1210.85 320.412C1226.29 320.678 1241.86 320.945 1257.3 321.211C1268.09 321.477 1278.34 311.494 1277.94 300.445V300.312Z" fill="#1E0301"/>
<path d="M165.521 284.474H189.482V460.053H165.521V284.474Z" fill="#1E0301"/>
<path d="M215.439 331.997H235.939V350.1C241.929 342.646 248.452 337.188 255.241 333.993C262.029 330.666 269.484 329.068 277.87 329.068C295.973 329.068 308.353 335.458 314.743 348.104C318.204 355.026 320.067 365.009 320.067 377.921V460.053H298.236V379.385C298.236 371.532 297.039 365.275 294.776 360.483C290.915 352.496 283.993 348.503 274.009 348.503C268.951 348.503 264.692 349.035 261.497 350.1C255.64 351.831 250.448 355.425 245.922 360.616C242.328 364.876 240.065 369.269 238.867 373.662C237.802 378.187 237.27 384.577 237.27 392.963V460.053H215.705V331.997H215.439Z" fill="#1E0301"/>
<path d="M354.547 419.852C355.213 427.041 357.076 432.498 360.005 436.359C365.462 443.281 375.18 446.742 388.758 446.742C396.878 446.742 404.066 445.011 410.189 441.55C416.312 438.089 419.507 432.765 419.507 425.443C419.507 419.986 416.978 415.726 412.053 412.931C408.858 411.2 402.601 409.203 393.416 406.807L375.978 402.548C364.93 399.885 356.677 396.824 351.485 393.496C342.034 387.639 337.375 379.652 337.375 369.402C337.375 357.289 341.768 347.438 350.687 339.984C359.472 332.529 371.452 328.802 386.361 328.802C405.929 328.802 420.04 334.526 428.692 345.708C434.15 352.896 436.679 360.616 436.546 368.87H416.179C415.78 364.077 414.049 359.685 410.855 355.691C405.796 350.1 397.011 347.305 384.498 347.305C376.245 347.305 369.855 348.902 365.595 351.964C361.336 355.026 359.206 359.152 359.206 364.211C359.206 369.801 362.002 374.194 367.592 377.522C370.787 379.519 375.579 381.249 381.969 382.713L396.478 386.174C412.186 389.902 422.835 393.496 428.159 397.09C436.546 402.548 440.672 411.2 440.672 423.047C440.672 434.894 436.28 444.346 427.494 452.599C418.708 460.852 405.397 464.978 387.56 464.978C368.258 464.978 354.68 460.586 346.56 452.066C338.573 443.414 334.18 432.765 333.648 419.986H354.281L354.547 419.852Z" fill="#1E0301"/>
<path d="M458.772 296.32H480.47V331.995H500.97V349.566H480.47V433.162C480.47 437.688 481.934 440.616 484.996 442.081C486.727 443.013 489.522 443.412 493.382 443.412C494.447 443.412 495.512 443.412 496.71 443.412C497.908 443.412 499.239 443.279 500.837 443.013V460.051C498.308 460.717 495.779 461.249 493.116 461.649C490.454 461.915 487.526 462.181 484.464 462.181C474.48 462.181 467.558 459.652 463.964 454.46C460.37 449.269 458.64 442.613 458.64 434.493V349.699H441.334V332.128H458.64V296.453L458.772 296.32Z" fill="#1E0301"/>
<path d="M512.683 284.474H534.514V308.834H512.683V284.474ZM512.683 332.662H534.514V460.053H512.683V332.662Z" fill="#1E0301"/>
<path d="M561.54 296.32H583.237V331.995H603.737V349.566H583.237V433.162C583.237 437.688 584.702 440.616 587.763 442.081C589.494 443.013 592.289 443.412 596.149 443.412C597.214 443.412 598.279 443.412 599.477 443.412C600.675 443.412 602.006 443.279 603.604 443.013V460.051C601.075 460.717 598.546 461.249 595.883 461.649C593.221 461.915 590.293 462.181 587.231 462.181C577.247 462.181 570.325 459.652 566.731 454.46C563.137 449.269 561.407 442.613 561.407 434.493V349.699H544.102V332.128H561.407V296.453L561.54 296.32Z" fill="#1E0301"/>
<path d="M636.879 331.996V416.923C636.879 423.446 637.944 428.771 639.941 432.897C643.668 440.485 650.59 444.345 660.84 444.345C675.482 444.345 685.333 437.689 690.657 424.245C693.586 417.057 694.917 407.206 694.917 394.693V331.863H716.482V459.919H696.115L696.381 441.017C693.586 445.942 690.258 449.936 686.131 453.264C678.011 459.919 668.294 463.247 656.846 463.247C638.876 463.247 626.762 457.124 620.24 445.011C616.779 438.488 614.915 429.702 614.915 418.787V331.73H636.879V331.996Z" fill="#1E0301"/>
<path d="M746.036 296.32H767.733V331.995H788.233V349.566H767.733V433.162C767.733 437.688 769.198 440.616 772.259 442.081C773.99 443.013 776.785 443.412 780.646 443.412C781.71 443.412 782.775 443.412 783.973 443.412C785.171 443.412 786.503 443.279 788.1 443.013V460.051C785.571 460.717 783.041 461.249 780.379 461.649C777.717 461.915 774.788 462.181 771.727 462.181C761.743 462.181 754.821 459.652 751.227 454.46C747.633 449.269 745.902 442.613 745.902 434.493V349.699H728.598V332.128H745.902V296.453L746.036 296.32Z" fill="#1E0301"/>
<path d="M892.728 344.776C904.042 355.824 909.633 371.931 909.633 393.23C909.633 414.528 904.708 430.901 894.724 444.346C884.741 457.79 869.3 464.579 848.267 464.579C830.829 464.579 816.852 458.589 806.602 446.742C796.353 434.895 791.161 418.921 791.161 398.82C791.161 377.389 796.619 360.217 807.401 347.438C818.183 334.659 832.826 328.27 851.063 328.27C867.436 328.27 881.28 333.727 892.594 344.776H892.728ZM879.416 429.836C884.608 419.054 887.27 407.074 887.27 393.895C887.27 381.915 885.406 372.198 881.546 364.743C875.556 353.029 865.173 347.039 850.531 347.039C837.485 347.039 828.034 352.097 822.177 362.081C816.32 372.064 813.258 384.178 813.258 398.421C813.258 412.664 816.187 423.314 822.177 432.498C828.167 441.683 837.485 446.076 850.264 446.076C864.374 446.076 874.091 440.618 879.283 429.836H879.416Z" fill="#1E0301"/>
<path d="M1559.48 322.68C1569.19 322.68 1575.85 316.424 1575.85 307.505C1575.85 298.586 1569.19 292.197 1559.48 292.197C1549.76 292.197 1543.1 298.32 1543.1 307.505C1543.1 316.69 1549.89 322.68 1559.48 322.68Z" fill="#1E0301"/>
<path d="M1650.79 432.099C1646.93 432.099 1643.74 435.028 1643.2 438.888C1641.87 449.804 1638.01 449.804 1636.81 449.804C1635.48 449.804 1632.95 449.804 1632.95 438.755V375.659C1632.95 352.231 1619.38 338.786 1595.55 338.786C1582.5 338.786 1570.79 343.179 1563.2 350.633C1562 345.042 1557.61 340.383 1549.62 340.383C1532.85 340.383 1518.74 356.224 1511.69 365.675C1510.89 366.74 1509.56 367.272 1508.23 367.139C1506.89 367.006 1505.96 366.208 1505.43 364.876C1498.91 347.971 1486.53 338.919 1469.75 338.919C1450.99 338.919 1435.68 352.763 1428.89 376.058C1428.49 377.256 1427.69 378.055 1426.49 378.454C1425.16 378.853 1423.96 378.454 1423.03 377.522C1417.71 372.331 1410.39 368.87 1401.73 367.139C1429.95 361.549 1449.52 343.046 1449.52 320.283C1449.52 297.52 1431.28 285.141 1400.67 285.141H1343.7C1340.37 285.141 1337.44 287.271 1336.51 290.465L1335.31 294.193H1337.97C1344.36 294.193 1351.95 294.459 1353.68 296.855C1354.88 298.452 1354.08 301.913 1352.21 307.504L1310.68 436.093C1307.22 447.008 1302.7 450.203 1289.65 450.602C1286.46 450.602 1283.66 452.865 1282.73 455.927L1281.53 459.787H1350.22C1382.17 459.787 1409.45 448.739 1423.03 430.236C1424.1 428.771 1425.69 428.771 1426.23 428.905C1427.29 429.038 1428.62 429.836 1429.15 431.434C1435.81 451.534 1450.05 463.115 1468.42 463.115C1484.93 463.115 1505.83 454.329 1511.69 412.265L1511.95 410.002H1508.62C1505.16 410.002 1502.23 412.265 1501.3 415.593C1496.78 433.43 1488.12 443.281 1476.94 443.281C1460.97 443.281 1451.25 426.242 1450.85 397.223H1502.63C1504.76 397.223 1506.63 396.425 1508.09 394.827C1509.56 393.363 1510.35 391.233 1510.22 389.103C1510.09 385.909 1509.69 382.847 1509.29 379.785H1512.22L1512.75 378.853C1522.34 364.078 1531.39 355.026 1536.31 355.026C1536.98 355.026 1537.51 355.026 1537.51 356.623C1537.51 358.753 1535.11 365.409 1533.25 370.733L1511.15 431.567C1496.64 472.167 1488.92 489.205 1478.27 489.205C1475.08 489.205 1472.68 487.608 1470.02 485.611C1466.96 483.482 1463.37 481.085 1458.31 481.085C1449.79 481.085 1442.33 487.874 1442.33 495.462C1442.33 500.786 1446.06 506.377 1456.31 506.377C1491.85 506.377 1519.54 481.485 1536.18 434.495L1556.68 377.789C1559.07 381.915 1563.33 384.311 1568.93 384.311C1576.78 384.311 1581.97 379.652 1581.97 372.464C1581.97 369.669 1581.04 367.406 1580.24 365.409C1579.44 363.545 1578.78 361.948 1578.78 359.818C1578.78 354.094 1583.97 350.5 1591.82 350.5C1599.67 350.5 1607.13 353.162 1607.13 373.263V381.915C1607.13 383.379 1606.33 384.71 1605 385.243L1603.67 385.775C1577.98 396.558 1548.82 408.804 1548.82 435.427C1548.82 451.401 1559.87 462.583 1575.85 462.583C1589.82 462.583 1601.01 454.329 1607.53 439.554C1609.13 454.862 1616.58 462.583 1629.63 462.583C1644 462.583 1651.72 452.732 1652.52 433.164V431.034H1650.52L1650.79 432.099ZM1584.77 443.414C1575.58 443.414 1574.65 434.495 1574.65 430.635C1574.65 416.126 1588.49 406.808 1602.07 399.619C1602.6 399.353 1603.14 399.22 1603.8 399.22C1604.47 399.22 1605.13 399.353 1605.67 399.752C1606.73 400.418 1607.4 401.616 1607.4 402.814V417.989C1607.4 417.989 1607.4 418.788 1607.26 419.187C1602.34 434.362 1593.95 443.414 1584.9 443.414H1584.77ZM1451.92 381.116C1454.05 361.815 1460.17 352.097 1469.89 352.097C1479.61 352.097 1484.13 361.682 1484.93 381.383C1484.93 382.314 1484.66 383.246 1483.86 384.045C1483.07 384.844 1482.27 385.11 1481.34 385.11H1455.51C1454.45 385.11 1453.51 384.71 1452.85 383.912C1452.18 383.113 1451.78 382.181 1451.92 381.116ZM1361.13 373.928C1364.59 373.662 1368.45 373.529 1373.38 373.529C1393.08 373.529 1403.2 382.048 1403.2 398.688C1403.2 422.648 1383.1 447.541 1349.55 447.541C1340.1 447.541 1337.57 445.943 1336.91 445.011C1336.77 444.745 1336.37 444.213 1336.91 442.749L1358.07 376.59C1358.47 375.259 1359.8 374.194 1361.13 374.061V373.928ZM1371.25 361.016C1370.05 361.016 1368.99 361.016 1367.92 361.016C1366.86 361.016 1365.79 360.484 1365.13 359.552C1364.46 358.62 1364.33 357.422 1364.59 356.357L1382.56 301.248C1383.1 299.517 1387.36 297.92 1395.74 297.92C1413.45 297.92 1422.37 305.241 1422.37 319.884C1422.37 342.912 1399.87 361.016 1371.12 361.016H1371.25Z" fill="#1E0301"/>
<path d="M1671.29 320.549C1671.29 320.549 1671.29 319.484 1671.29 318.286V316.689C1671.29 314.958 1671.03 313.76 1670.63 312.962C1670.23 312.163 1669.43 311.497 1668.23 311.098C1669.56 310.699 1670.49 309.9 1671.03 308.835C1671.56 307.77 1671.82 306.572 1671.82 305.507C1671.82 304.575 1671.69 303.777 1671.43 302.978C1671.16 302.179 1670.76 301.514 1670.23 300.981C1669.56 300.183 1668.9 299.65 1667.96 299.251C1667.03 298.851 1665.83 298.718 1664.1 298.585H1652.39V322.28H1657.18V312.962H1662.24C1663.71 312.962 1664.77 313.228 1665.3 313.76C1665.83 314.293 1666.1 315.225 1666.1 316.822V319.085C1666.1 319.75 1666.1 320.416 1666.37 321.082C1666.37 321.348 1666.5 321.88 1666.63 322.413H1672.09V321.88C1672.09 321.88 1671.29 321.082 1671.16 320.549H1671.29ZM1665.44 308.835C1665.44 308.835 1663.97 309.234 1662.91 309.234H1657.32V302.845H1663.04C1664.1 302.845 1664.9 302.845 1665.44 303.244C1666.37 303.777 1666.9 304.709 1666.9 306.173C1666.9 307.504 1666.37 308.436 1665.44 308.835Z" fill="#1E0301"/>
<path d="M1661.44 285.807C1647.33 285.807 1635.88 297.255 1635.88 311.365C1635.88 325.475 1647.33 336.923 1661.44 336.923C1675.55 336.923 1687 325.475 1687 311.365C1687 297.255 1675.42 285.807 1661.44 285.807ZM1661.44 331.732C1650.26 331.732 1641.08 322.68 1641.08 311.365C1641.08 300.05 1650.13 290.999 1661.44 290.999C1672.76 290.999 1681.81 300.05 1681.81 311.365C1681.81 322.68 1672.76 331.732 1661.44 331.732Z" fill="#1E0301"/>
</svg>
