<svg width="1853" height="763" viewBox="0 0 1853 763" fill="none" xmlns="http://www.w3.org/2000/svg">
<rect width="1853" height="763" fill="#1E0301"/>
<path d="M569.033 249.408C568.574 239.861 561.574 232.27 551.935 232.155C546.427 232.155 540.919 231.925 535.41 231.81C540.23 227.209 545.164 222.723 550.328 218.582C552.509 216.972 554.804 215.362 556.984 213.752C560.656 211.221 563.64 207.885 564.787 203.4C565.935 199.259 565.361 193.738 563.066 190.057C558.361 182.581 547.574 178.44 539.656 183.846C528.755 191.322 518.771 199.834 509.362 209.036C509.132 205.7 508.903 202.479 508.673 199.144C508.903 198.569 509.017 197.994 509.132 197.418C510.05 193.048 510.05 187.872 507.411 184.076C506.837 183.271 506.263 182.466 505.69 181.546C503.509 178.44 501.099 176.025 497.542 174.529C494.1 173.034 490.083 172.459 486.411 173.609C483.542 174.529 481.018 176.025 478.837 178.095C475.854 180.855 473.559 186.261 473.788 190.287C474.706 203.86 475.739 217.432 476.657 231.005C469.313 231.005 461.969 231.005 454.625 231.235C422.379 231.81 390.134 233.65 358.233 237.906C338.954 240.436 319.79 243.657 300.856 248.028C292.135 250.098 286.168 260.68 288.922 269.307C291.906 278.508 300.627 283.569 309.922 281.384C326.217 277.588 342.626 274.713 359.036 272.297C392.199 267.927 425.478 266.201 458.871 265.626C454.854 270.227 450.838 274.943 446.707 279.544C416.642 313.475 385.199 346.371 352.724 378.002C334.364 395.83 315.659 413.313 296.61 430.337C289.955 436.318 290.07 448.74 296.61 454.721C303.725 461.392 313.594 461.162 320.708 454.721C353.298 425.621 384.855 395.255 415.265 363.854C437.641 340.735 459.33 317.041 480.559 292.771C482.28 323.022 483.542 353.272 483.772 383.638C483.772 401.926 483.542 420.215 482.739 438.388C482.28 447.475 490.887 456.101 499.837 455.641C509.476 455.181 516.476 448.05 516.935 438.388C518.427 406.067 518.198 373.631 517.05 341.195C516.132 316.005 514.755 290.816 513.034 265.741C525.886 265.971 538.738 266.201 551.591 266.431C560.541 266.661 569.033 258.38 568.689 249.178L569.033 249.408Z" fill="#F7F7F7"/>
<path d="M569.033 392.366H589.678V543.644H569.033V392.366Z" fill="#F7F7F7"/>
<path d="M612.044 433.313H629.707V448.911C634.868 442.488 640.488 437.786 646.337 435.033C652.186 432.166 658.609 430.79 665.834 430.79C681.432 430.79 692.099 436.295 697.604 447.191C700.586 453.154 702.191 461.756 702.191 472.881V543.646H683.382V474.143C683.382 467.376 682.35 461.986 680.4 457.857C677.074 450.975 671.11 447.535 662.508 447.535C658.15 447.535 654.48 447.993 651.727 448.911C646.681 450.402 642.208 453.499 638.308 457.971C635.212 461.642 633.262 465.426 632.23 469.211C631.312 473.111 630.854 478.616 630.854 485.841V543.646H612.274V433.313H612.044Z" fill="#F7F7F7"/>
<path d="M731.896 509.007C732.469 515.2 734.075 519.903 736.598 523.229C741.3 529.193 749.673 532.175 761.371 532.175C768.368 532.175 774.561 530.684 779.837 527.702C785.112 524.72 787.865 520.132 787.865 513.824C787.865 509.122 785.686 505.452 781.442 503.043C778.69 501.552 773.299 499.832 765.386 497.767L750.361 494.097C740.842 491.803 733.731 489.165 729.258 486.298C721.115 481.252 717.101 474.37 717.101 465.539C717.101 455.102 720.885 446.615 728.57 440.192C736.139 433.77 746.462 430.558 759.307 430.558C776.167 430.558 788.324 435.49 795.779 445.124C800.481 451.317 802.66 457.969 802.546 465.08H784.998C784.654 460.951 783.163 457.167 780.41 453.726C776.052 448.909 768.482 446.5 757.701 446.5C750.59 446.5 745.085 447.877 741.415 450.514C737.745 453.152 735.91 456.708 735.91 461.066C735.91 465.883 738.319 469.668 743.136 472.535C745.888 474.256 750.017 475.747 755.522 477.008L768.024 479.99C781.557 483.201 790.732 486.298 795.32 489.395C802.546 494.097 806.101 501.552 806.101 511.76C806.101 521.967 802.316 530.11 794.747 537.221C787.177 544.332 775.708 547.887 760.339 547.887C743.709 547.887 732.01 544.102 725.014 536.762C718.133 529.307 714.348 520.132 713.889 509.122H731.666L731.896 509.007Z" fill="#F7F7F7"/>
<path d="M821.699 402.575H840.394V433.312H858.056V448.451H840.394V520.477C840.394 524.377 841.656 526.9 844.293 528.161C845.784 528.964 848.193 529.308 851.519 529.308C852.436 529.308 853.354 529.308 854.386 529.308C855.418 529.308 856.565 529.194 857.942 528.964V543.645C855.763 544.218 853.583 544.677 851.29 545.021C848.996 545.25 846.473 545.48 843.835 545.48C835.233 545.48 829.269 543.301 826.172 538.828C823.076 534.355 821.585 528.62 821.585 521.624V448.566H806.675V433.427H821.585V402.689L821.699 402.575Z" fill="#F7F7F7"/>
<path d="M868.148 392.366H886.958V413.355H868.148V392.366ZM868.148 433.885H886.958V543.644H868.148V433.885Z" fill="#F7F7F7"/>
<path d="M910.24 402.575H928.934V433.312H946.597V448.451H928.934V520.477C928.934 524.377 930.196 526.9 932.834 528.161C934.325 528.964 936.733 529.308 940.059 529.308C940.977 529.308 941.894 529.308 942.927 529.308C943.959 529.308 945.106 529.194 946.482 528.964V543.645C944.303 544.218 942.124 544.677 939.83 545.021C937.536 545.25 935.013 545.48 932.375 545.48C923.773 545.48 917.809 543.301 914.713 538.828C911.616 534.355 910.125 528.62 910.125 521.624V448.566H895.215V433.427H910.125V402.689L910.24 402.575Z" fill="#F7F7F7"/>
<path d="M975.156 433.311V506.484C975.156 512.104 976.074 516.692 977.794 520.247C981.006 526.785 986.969 530.111 995.801 530.111C1008.42 530.111 1016.9 524.376 1021.49 512.792C1024.01 506.599 1025.16 498.112 1025.16 487.331V433.197H1043.74V543.529H1026.19L1026.42 527.243C1024.01 531.487 1021.15 534.928 1017.59 537.795C1010.6 543.529 1002.22 546.397 992.36 546.397C976.877 546.397 966.44 541.121 960.82 530.684C957.838 525.064 956.232 517.495 956.232 508.09V433.082H975.156V433.311Z" fill="#F7F7F7"/>
<path d="M1069.2 402.575H1087.9V433.312H1105.56V448.451H1087.9V520.477C1087.9 524.377 1089.16 526.9 1091.79 528.161C1093.29 528.964 1095.69 529.308 1099.02 529.308C1099.94 529.308 1100.86 529.308 1101.89 529.308C1102.92 529.308 1104.07 529.194 1105.44 528.964V543.645C1103.26 544.218 1101.08 544.677 1098.79 545.021C1096.5 545.25 1093.97 545.48 1091.34 545.48C1082.73 545.48 1076.77 543.301 1073.67 538.828C1070.58 534.355 1069.09 528.62 1069.09 521.624V448.566H1054.18V433.427H1069.09V402.689L1069.2 402.575Z" fill="#F7F7F7"/>
<path d="M1195.59 444.322C1205.34 453.841 1210.16 467.719 1210.16 486.069C1210.16 504.42 1205.91 518.527 1197.31 530.111C1188.71 541.694 1175.4 547.544 1157.28 547.544C1142.26 547.544 1130.22 542.383 1121.38 532.175C1112.55 521.968 1108.08 508.205 1108.08 490.886C1108.08 472.421 1112.78 457.626 1122.07 446.615C1131.36 435.605 1143.98 430.1 1159.69 430.1C1173.8 430.1 1185.73 434.802 1195.48 444.322H1195.59ZM1184.12 517.609C1188.59 508.319 1190.89 497.997 1190.89 486.643C1190.89 476.32 1189.28 467.948 1185.96 461.525C1180.79 451.432 1171.85 446.271 1159.23 446.271C1147.99 446.271 1139.85 450.63 1134.8 459.231C1129.76 467.833 1127.12 478.27 1127.12 490.542C1127.12 502.814 1129.64 511.989 1134.8 519.903C1139.96 527.817 1147.99 531.602 1159 531.602C1171.16 531.602 1179.53 526.899 1184.01 517.609H1184.12Z" fill="#F7F7F7"/>
<path d="M1454.45 432.165C1462.82 432.165 1468.55 426.775 1468.55 419.091C1468.55 411.406 1462.82 405.901 1454.45 405.901C1446.07 405.901 1440.34 411.177 1440.34 419.091C1440.34 427.004 1446.19 432.165 1454.45 432.165Z" fill="#F7F7F7"/>
<path d="M1533.01 526.443C1529.69 526.443 1526.94 528.966 1526.48 532.292C1525.33 541.697 1522 541.697 1520.97 541.697C1519.83 541.697 1517.65 541.697 1517.65 532.178V477.814C1517.65 457.629 1505.95 446.045 1485.42 446.045C1474.18 446.045 1464.09 449.83 1457.55 456.252C1456.52 451.435 1452.73 447.421 1445.85 447.421C1431.4 447.421 1419.24 461.069 1413.16 469.212C1412.47 470.13 1411.33 470.589 1410.18 470.474C1409.03 470.359 1408.23 469.671 1407.77 468.524C1402.15 453.958 1391.49 446.159 1377.03 446.159C1360.86 446.159 1347.67 458.087 1341.82 478.158C1341.48 479.19 1340.79 479.879 1339.76 480.223C1338.61 480.567 1337.58 480.223 1336.78 479.42C1332.19 474.947 1325.88 471.965 1318.43 470.474C1342.74 465.657 1359.6 449.715 1359.6 430.103C1359.6 410.49 1343.89 399.824 1317.51 399.824H1268.42C1265.55 399.824 1263.03 401.659 1262.23 404.412L1261.2 407.623H1263.49C1269 407.623 1275.53 407.853 1277.02 409.917C1278.06 411.293 1277.37 414.275 1275.76 419.092L1239.98 529.884C1237 539.289 1233.1 542.041 1221.86 542.385C1219.1 542.385 1216.7 544.335 1215.89 546.973L1214.86 550.299H1274.04C1301.57 550.299 1325.08 540.78 1336.78 524.838C1337.7 523.576 1339.07 523.576 1339.53 523.691C1340.45 523.805 1341.6 524.493 1342.05 525.87C1347.79 543.188 1360.06 553.166 1375.89 553.166C1390.11 553.166 1408.12 545.597 1413.16 509.354L1413.39 507.405H1410.52C1407.54 507.405 1405.02 509.354 1404.22 512.222C1400.32 527.59 1392.86 536.077 1383.23 536.077C1369.46 536.077 1361.09 521.397 1360.75 496.394H1405.36C1407.2 496.394 1408.8 495.706 1410.07 494.33C1411.33 493.068 1412.02 491.233 1411.9 489.398C1411.79 486.645 1411.44 484.008 1411.1 481.37H1413.62L1414.08 480.567C1422.34 467.836 1430.14 460.037 1434.38 460.037C1434.95 460.037 1435.41 460.037 1435.41 461.413C1435.41 463.248 1433.35 468.983 1431.74 473.571L1412.7 525.984C1400.2 560.965 1393.55 575.646 1384.37 575.646C1381.62 575.646 1379.56 574.269 1377.26 572.549C1374.63 570.714 1371.53 568.65 1367.17 568.65C1359.83 568.65 1353.41 574.499 1353.41 581.036C1353.41 585.624 1356.62 590.441 1365.45 590.441C1396.07 590.441 1419.93 568.994 1434.27 528.508L1451.93 479.649C1453.99 483.205 1457.66 485.269 1462.48 485.269C1469.25 485.269 1473.72 481.255 1473.72 475.062C1473.72 472.653 1472.92 470.703 1472.23 468.983C1471.54 467.377 1470.97 466.001 1470.97 464.166C1470.97 459.234 1475.44 456.138 1482.21 456.138C1488.97 456.138 1495.4 458.431 1495.4 475.75V483.205C1495.4 484.466 1494.71 485.613 1493.56 486.072L1492.41 486.531C1470.28 495.821 1445.16 506.372 1445.16 529.311C1445.16 543.073 1454.68 552.708 1468.44 552.708C1480.49 552.708 1490.12 545.597 1495.74 532.866C1497.12 546.055 1503.54 552.708 1514.78 552.708C1527.17 552.708 1533.82 544.22 1534.51 527.361V525.526H1532.79L1533.01 526.443ZM1476.13 536.192C1468.21 536.192 1467.41 528.508 1467.41 525.182C1467.41 512.68 1479.34 504.652 1491.04 498.459C1491.5 498.229 1491.96 498.115 1492.53 498.115C1493.1 498.115 1493.68 498.229 1494.13 498.573C1495.05 499.147 1495.63 500.179 1495.63 501.211V514.286C1495.63 514.286 1495.63 514.974 1495.51 515.318C1491.27 528.393 1484.04 536.192 1476.24 536.192H1476.13ZM1361.67 482.517C1363.5 465.886 1368.78 457.514 1377.15 457.514C1385.52 457.514 1389.42 465.772 1390.11 482.746C1390.11 483.549 1389.88 484.352 1389.19 485.04C1388.5 485.728 1387.82 485.957 1387.01 485.957H1364.76C1363.85 485.957 1363.04 485.613 1362.47 484.925C1361.9 484.237 1361.55 483.434 1361.67 482.517ZM1283.45 476.323C1286.43 476.094 1289.75 475.979 1294 475.979C1310.97 475.979 1319.69 483.319 1319.69 497.656C1319.69 518.3 1302.37 539.747 1273.47 539.747C1265.33 539.747 1263.15 538.371 1262.57 537.568C1262.46 537.339 1262.11 536.88 1262.57 535.619L1280.81 478.617C1281.15 477.47 1282.3 476.553 1283.45 476.438V476.323ZM1292.16 465.198C1291.13 465.198 1290.21 465.198 1289.3 465.198C1288.38 465.198 1287.46 464.739 1286.89 463.937C1286.31 463.134 1286.2 462.101 1286.43 461.184L1301.91 413.702C1302.37 412.211 1306.04 410.835 1313.27 410.835C1328.52 410.835 1336.2 417.143 1336.2 429.759C1336.2 449.6 1316.82 465.198 1292.05 465.198H1292.16Z" fill="#F7F7F7"/>
<path d="M1550.79 430.331C1550.79 430.331 1550.79 429.413 1550.79 428.381V427.005C1550.79 425.514 1550.56 424.481 1550.21 423.793C1549.87 423.105 1549.18 422.532 1548.15 422.188C1549.3 421.843 1550.1 421.155 1550.56 420.238C1551.02 419.32 1551.25 418.288 1551.25 417.37C1551.25 416.568 1551.13 415.88 1550.9 415.191C1550.67 414.503 1550.33 413.93 1549.87 413.471C1549.3 412.783 1548.72 412.324 1547.92 411.98C1547.12 411.636 1546.09 411.521 1544.59 411.407H1534.5V431.822H1538.63V423.793H1542.99C1544.25 423.793 1545.17 424.023 1545.63 424.481C1546.09 424.94 1546.32 425.743 1546.32 427.119V429.069C1546.32 429.642 1546.32 430.216 1546.54 430.789C1546.54 431.019 1546.66 431.478 1546.77 431.936H1551.48V431.478C1551.48 431.478 1550.79 430.789 1550.67 430.331H1550.79ZM1545.74 420.238C1545.74 420.238 1544.48 420.582 1543.56 420.582H1538.75V415.077H1543.68C1544.59 415.077 1545.28 415.077 1545.74 415.421C1546.54 415.88 1547 416.682 1547 417.944C1547 419.091 1546.54 419.894 1545.74 420.238Z" fill="#F7F7F7"/>
<path d="M1542.3 400.513C1530.15 400.513 1520.28 410.376 1520.28 422.533C1520.28 434.691 1530.15 444.554 1542.3 444.554C1554.46 444.554 1564.32 434.691 1564.32 422.533C1564.32 410.376 1554.35 400.513 1542.3 400.513ZM1542.3 440.081C1532.67 440.081 1524.76 432.282 1524.76 422.533C1524.76 412.785 1532.56 404.986 1542.3 404.986C1552.05 404.986 1559.85 412.785 1559.85 422.533C1559.85 432.282 1552.05 440.081 1542.3 440.081Z" fill="#F7F7F7"/>
</svg>
