<svg width="1853" height="763" viewBox="0 0 1853 763" fill="none" xmlns="http://www.w3.org/2000/svg">
<rect width="1853" height="763" fill="#E8BCD3"/>
<path d="M1056.59 255.773C1073.36 255.773 1084.84 244.978 1084.84 229.589C1084.84 214.2 1073.36 203.175 1056.59 203.175C1039.82 203.175 1028.34 213.741 1028.34 229.589C1028.34 245.437 1040.05 255.773 1056.59 255.773Z" fill="#F7F7F7"/>
<path d="M1214.15 444.574C1207.49 444.574 1201.98 449.627 1201.06 456.288C1198.76 475.122 1192.1 475.122 1190.03 475.122C1187.74 475.122 1183.37 475.122 1183.37 456.058V347.187C1183.37 306.762 1159.94 283.564 1118.83 283.564C1096.32 283.564 1076.11 291.143 1063.02 304.006C1060.95 294.359 1053.37 286.32 1039.59 286.32C1010.65 286.32 986.301 313.653 974.128 329.96C972.749 331.798 970.453 332.717 968.156 332.487C965.859 332.257 964.251 330.879 963.332 328.582C952.078 299.412 930.717 283.793 901.776 283.793C869.391 283.793 842.976 307.681 831.262 347.876C830.573 349.943 829.195 351.321 827.128 352.01C824.831 352.699 822.765 352.01 821.157 350.402C811.969 341.445 799.337 335.473 784.407 332.487C833.1 322.84 866.864 290.914 866.864 251.637C866.864 212.361 835.397 191 782.569 191H684.263C678.521 191 673.468 194.675 671.861 200.187L669.793 206.619H674.387C685.412 206.619 698.504 207.078 701.49 211.212C703.557 213.969 702.179 219.941 698.963 229.587L627.301 451.465C621.33 470.299 613.52 475.811 591.011 476.5C585.498 476.5 580.675 480.405 579.067 485.688L577 492.349H695.518C750.643 492.349 797.729 473.285 821.157 441.358C822.994 438.832 825.75 438.832 826.669 439.061C828.507 439.291 830.804 440.669 831.722 443.426C843.207 478.108 867.783 498.091 899.479 498.091C927.961 498.091 964.021 482.932 974.128 410.351L974.587 406.446H968.845C962.873 406.446 957.82 410.351 956.212 416.093C948.403 446.871 933.473 463.868 914.18 463.868C886.617 463.868 869.85 434.468 869.161 384.396H958.509C962.184 384.396 965.4 383.018 967.926 380.262C970.453 377.735 971.831 374.06 971.601 370.385C971.372 364.873 970.682 359.59 969.993 354.307H975.046L975.965 352.699C992.503 327.204 1008.12 311.585 1016.62 311.585C1017.77 311.585 1018.69 311.585 1018.69 314.342C1018.69 318.017 1014.55 329.501 1011.34 338.688L973.209 443.655C948.173 513.71 934.852 543.109 916.477 543.109C910.964 543.109 906.83 540.353 902.236 536.908C896.953 533.233 890.752 529.099 882.024 529.099C867.324 529.099 854.461 540.813 854.461 553.905C854.461 563.092 860.893 572.739 878.579 572.739C939.905 572.739 987.68 529.788 1016.39 448.708L1051.76 350.862C1055.9 357.982 1063.25 362.116 1072.89 362.116C1086.44 362.116 1095.4 354.077 1095.4 341.674C1095.4 336.851 1093.79 332.946 1092.42 329.501C1091.04 326.285 1089.89 323.529 1089.89 319.854C1089.89 309.978 1098.85 303.776 1112.4 303.776C1125.95 303.776 1138.81 308.37 1138.81 343.053V357.982C1138.81 360.509 1137.43 362.806 1135.14 363.724L1132.84 364.643C1088.51 383.248 1038.21 404.379 1038.21 450.316C1038.21 477.878 1057.27 497.172 1084.84 497.172C1108.95 497.172 1128.25 482.932 1139.5 457.436C1142.26 483.85 1155.12 497.172 1177.63 497.172C1202.44 497.172 1215.76 480.175 1217.14 446.411V442.736H1213.69L1214.15 444.574ZM1100.23 464.097C1084.38 464.097 1082.77 448.708 1082.77 442.047C1082.77 417.012 1106.66 400.934 1130.08 388.53C1131 388.071 1131.92 387.841 1133.07 387.841C1134.22 387.841 1135.37 388.071 1136.29 388.76C1138.12 389.909 1139.27 391.976 1139.27 394.043V420.227C1139.27 420.227 1139.27 421.605 1139.04 422.294C1130.54 448.479 1116.07 464.097 1100.46 464.097H1100.23ZM870.998 356.604C874.673 323.299 885.239 306.532 902.006 306.532C918.773 306.532 926.583 323.07 927.961 357.063C927.961 358.671 927.501 360.279 926.123 361.657C924.745 363.035 923.367 363.495 921.759 363.495H877.2C875.362 363.495 873.755 362.806 872.606 361.427C871.458 360.049 870.769 358.442 870.998 356.604ZM714.352 344.201C720.324 343.742 726.985 343.512 735.484 343.512C769.477 343.512 786.933 358.212 786.933 386.923C786.933 428.266 752.25 471.218 694.369 471.218C678.062 471.218 673.698 468.461 672.55 466.854C672.32 466.394 671.631 465.475 672.55 462.949L709.07 348.795C709.759 346.498 712.055 344.66 714.352 344.431V344.201ZM731.808 321.921C729.741 321.921 727.904 321.921 726.066 321.921C724.229 321.921 722.392 321.003 721.243 319.395C720.095 317.787 719.865 315.72 720.324 313.882L751.332 218.792C752.251 215.806 759.6 213.05 774.071 213.05C804.619 213.05 820.008 225.683 820.008 250.948C820.008 290.684 781.191 321.921 731.579 321.921H731.808Z" fill="#F7F7F7"/>
<path d="M1249.53 252.096C1249.53 252.096 1249.53 250.259 1249.53 248.192V245.435C1249.53 242.45 1249.07 240.382 1248.38 239.004C1247.69 237.626 1246.31 236.478 1244.24 235.789C1246.54 235.1 1248.15 233.721 1249.07 231.884C1249.98 230.046 1250.44 227.979 1250.44 226.142C1250.44 224.534 1250.21 223.156 1249.76 221.778C1249.3 220.4 1248.61 219.251 1247.69 218.332C1246.54 216.954 1245.39 216.036 1243.78 215.347C1242.18 214.658 1240.11 214.428 1237.12 214.198H1216.91V255.082H1225.18V239.004H1233.91C1236.43 239.004 1238.27 239.464 1239.19 240.382C1240.11 241.301 1240.57 242.909 1240.57 245.665V249.57C1240.57 250.718 1240.57 251.867 1241.03 253.015C1241.03 253.475 1241.26 254.393 1241.49 255.312H1250.9V254.393C1250.9 254.393 1249.53 253.015 1249.3 252.096H1249.53ZM1239.42 231.884C1239.42 231.884 1236.89 232.573 1235.06 232.573H1225.41V221.548H1235.29C1237.12 221.548 1238.5 221.548 1239.42 222.237C1241.03 223.156 1241.95 224.764 1241.95 227.29C1241.95 229.587 1241.03 231.195 1239.42 231.884Z" fill="#F7F7F7"/>
<path d="M1232.52 192.15C1208.17 192.15 1188.42 211.903 1188.42 236.249C1188.42 260.596 1208.17 280.349 1232.52 280.349C1256.86 280.349 1276.62 260.596 1276.62 236.249C1276.62 211.903 1256.63 192.15 1232.52 192.15ZM1232.52 271.391C1213.22 271.391 1197.38 255.773 1197.38 236.249C1197.38 216.726 1212.99 201.107 1232.52 201.107C1252.04 201.107 1267.66 216.726 1267.66 236.249C1267.66 255.773 1252.04 271.391 1232.52 271.391Z" fill="#F7F7F7"/>
</svg>
