<svg width="1853" height="763" viewBox="0 0 1853 763" fill="none" xmlns="http://www.w3.org/2000/svg">
<rect width="1853" height="763" fill="#1E0301"/>
<path d="M1278.42 300.548C1277.88 289.1 1269.36 280.048 1257.78 279.782C1251.13 279.782 1244.47 279.516 1237.82 279.383C1243.54 273.792 1249.53 268.467 1255.79 263.542C1258.45 261.545 1261.11 259.549 1263.91 257.685C1268.43 254.623 1271.89 250.63 1273.36 245.305C1274.69 240.38 1274.16 233.724 1271.23 229.332C1265.5 220.413 1252.59 215.355 1243.01 221.877C1229.83 230.796 1217.85 241.179 1206.53 252.227C1206.27 248.234 1206 244.374 1205.73 240.38C1206 239.714 1206.13 239.049 1206.4 238.383C1207.6 233.192 1207.47 226.935 1204.27 222.41C1203.61 221.345 1202.94 220.413 1202.14 219.348C1199.48 215.488 1196.55 212.692 1192.29 210.829C1188.16 209.098 1183.24 208.299 1178.85 209.764C1175.38 210.829 1172.46 212.692 1169.79 215.088C1166.2 218.416 1163.4 224.939 1163.8 229.731C1165 246.104 1166.07 262.344 1167.26 278.717C1158.35 278.717 1149.56 278.717 1140.64 278.983C1101.77 279.649 1062.9 281.912 1024.43 286.97C1001.14 290.032 978.108 293.892 955.213 299.217C944.697 301.613 937.509 314.392 940.837 324.775C944.431 335.823 954.947 341.947 966.128 339.284C985.696 334.758 1005.53 331.164 1025.36 328.369C1065.3 323.177 1105.5 321.048 1145.7 320.382C1140.91 325.973 1135.98 331.564 1131.06 337.154C1094.72 378.021 1056.91 417.423 1017.78 455.493C995.68 476.925 973.183 497.957 950.154 518.457C942.034 525.645 942.301 540.554 950.154 547.875C958.807 555.862 970.654 555.596 979.306 547.875C1018.58 512.866 1056.65 476.392 1093.39 438.588C1120.41 410.767 1146.5 382.28 1172.06 353.128C1174.19 389.468 1175.65 425.942 1175.92 462.415C1175.92 484.379 1175.65 506.343 1174.72 528.307C1174.19 539.223 1184.57 549.605 1195.35 549.073C1206.93 548.54 1215.45 539.888 1215.98 528.307C1217.71 489.438 1217.45 450.435 1216.12 411.432C1215.05 381.215 1213.32 350.865 1211.33 320.648C1226.77 320.914 1242.34 321.181 1257.78 321.447C1268.56 321.713 1278.81 311.73 1278.42 300.681V300.548Z" fill="#F7F7F7"/>
<path d="M166 284.711H189.961V460.289H166V284.711Z" fill="#F7F7F7"/>
<path d="M215.917 332.233H236.417V350.336C242.407 342.882 248.93 337.424 255.719 334.229C262.508 330.902 269.962 329.304 278.348 329.304C296.452 329.304 308.832 335.694 315.221 348.34C318.682 355.262 320.546 365.245 320.546 378.157V460.289H298.715V379.622C298.715 371.768 297.517 365.511 295.254 360.719C291.394 352.732 284.471 348.739 274.488 348.739C269.429 348.739 265.17 349.271 261.975 350.336C256.118 352.067 250.927 355.661 246.401 360.852C242.807 365.112 240.544 369.505 239.346 373.898C238.281 378.423 237.748 384.813 237.748 393.199V460.289H216.184V332.233H215.917Z" fill="#F7F7F7"/>
<path d="M355.026 420.088C355.691 427.277 357.555 432.734 360.483 436.595C365.941 443.517 375.658 446.978 389.236 446.978C397.356 446.978 404.544 445.247 410.667 441.786C416.791 438.325 419.986 433.001 419.986 425.679C419.986 420.222 417.456 415.962 412.531 413.166C409.336 411.436 403.08 409.439 393.895 407.043L376.457 402.784C365.408 400.121 357.155 397.06 351.964 393.732C342.513 387.875 337.854 379.888 337.854 369.638C337.854 357.525 342.246 347.674 351.165 340.22C359.951 332.765 371.931 329.038 386.84 329.038C406.408 329.038 420.518 334.762 429.171 345.944C434.628 353.132 437.157 360.852 437.024 369.106H416.658C416.258 364.313 414.528 359.921 411.333 355.927C406.275 350.336 397.489 347.541 384.976 347.541C376.723 347.541 370.334 349.138 366.074 352.2C361.814 355.262 359.685 359.388 359.685 364.447C359.685 370.037 362.48 374.43 368.071 377.758C371.266 379.755 376.058 381.485 382.447 382.949L396.957 386.41C412.664 390.138 423.313 393.732 428.638 397.326C437.024 402.784 441.151 411.436 441.151 423.283C441.151 435.13 436.758 444.582 427.973 452.835C419.187 461.088 405.876 465.214 388.038 465.214C368.737 465.214 355.159 460.822 347.039 452.302C339.052 443.65 334.659 433.001 334.126 420.222H354.759L355.026 420.088Z" fill="#F7F7F7"/>
<path d="M459.251 296.556H480.949V332.231H501.449V349.802H480.949V433.398C480.949 437.924 482.413 440.852 485.475 442.317C487.205 443.248 490.001 443.648 493.861 443.648C494.926 443.648 495.991 443.648 497.189 443.648C498.387 443.648 499.718 443.515 501.315 443.248V460.287C498.786 460.953 496.257 461.485 493.595 461.885C490.932 462.151 488.004 462.417 484.942 462.417C474.959 462.417 468.037 459.888 464.443 454.696C460.849 449.505 459.118 442.849 459.118 434.729V349.935H441.813V332.364H459.118V296.689L459.251 296.556Z" fill="#F7F7F7"/>
<path d="M513.162 284.71H534.992V309.07H513.162V284.71ZM513.162 332.898H534.992V460.289H513.162V332.898Z" fill="#F7F7F7"/>
<path d="M562.018 296.556H583.716V332.231H604.216V349.802H583.716V433.398C583.716 437.924 585.18 440.852 588.242 442.317C589.972 443.248 592.768 443.648 596.628 443.648C597.693 443.648 598.758 443.648 599.956 443.648C601.154 443.648 602.485 443.515 604.082 443.248V460.287C601.553 460.953 599.024 461.485 596.362 461.885C593.7 462.151 590.771 462.417 587.71 462.417C577.726 462.417 570.804 459.888 567.21 454.696C563.616 449.505 561.885 442.849 561.885 434.729V349.935H544.58V332.364H561.885V296.689L562.018 296.556Z" fill="#F7F7F7"/>
<path d="M637.357 332.232V417.159C637.357 423.682 638.422 429.007 640.419 433.133C644.146 440.721 651.068 444.581 661.318 444.581C675.961 444.581 685.811 437.925 691.136 424.481C694.064 417.293 695.396 407.442 695.396 394.929V332.099H716.96V460.155H696.594L696.86 441.253C694.064 446.178 690.737 450.172 686.61 453.5C678.49 460.155 668.772 463.483 657.325 463.483C639.354 463.483 627.241 457.36 620.718 445.247C617.257 438.724 615.394 429.938 615.394 419.023V331.966H637.357V332.232Z" fill="#F7F7F7"/>
<path d="M746.514 296.556H768.212V332.231H788.711V349.802H768.212V433.398C768.212 437.924 769.676 440.852 772.738 442.317C774.468 443.248 777.264 443.648 781.124 443.648C782.189 443.648 783.254 443.648 784.452 443.648C785.65 443.648 786.981 443.515 788.578 443.248V460.287C786.049 460.953 783.52 461.485 780.858 461.885C778.195 462.151 775.267 462.417 772.205 462.417C762.222 462.417 755.3 459.888 751.705 454.696C748.111 449.505 746.381 442.849 746.381 434.729V349.935H729.076V332.364H746.381V296.689L746.514 296.556Z" fill="#F7F7F7"/>
<path d="M893.206 345.012C904.521 356.06 910.112 372.167 910.112 393.466C910.112 414.764 905.186 431.137 895.203 444.582C885.219 458.026 869.778 464.815 848.746 464.815C831.308 464.815 817.331 458.825 807.081 446.978C796.831 435.131 791.64 419.157 791.64 399.056C791.64 377.625 797.097 360.453 807.88 347.674C818.662 334.895 833.305 328.506 851.541 328.506C867.914 328.506 881.758 333.963 893.073 345.012H893.206ZM879.895 430.072C885.086 419.29 887.748 407.31 887.748 394.131C887.748 382.151 885.885 372.434 882.025 364.979C876.034 353.265 865.652 347.275 851.009 347.275C837.964 347.275 828.513 352.333 822.656 362.317C816.799 372.3 813.737 384.414 813.737 398.657C813.737 412.9 816.665 423.55 822.656 432.734C828.646 441.919 837.964 446.312 850.743 446.312C864.853 446.312 874.57 440.854 879.761 430.072H879.895Z" fill="#F7F7F7"/>
<path d="M1559.96 322.916C1569.67 322.916 1576.33 316.66 1576.33 307.741C1576.33 298.822 1569.67 292.433 1559.96 292.433C1550.24 292.433 1543.58 298.556 1543.58 307.741C1543.58 316.926 1550.37 322.916 1559.96 322.916Z" fill="#F7F7F7"/>
<path d="M1651.27 432.335C1647.41 432.335 1644.21 435.264 1643.68 439.124C1642.35 450.039 1638.49 450.039 1637.29 450.039C1635.96 450.039 1633.43 450.039 1633.43 438.991V375.895C1633.43 352.466 1619.85 339.022 1596.03 339.022C1582.98 339.022 1571.27 343.415 1563.68 350.869C1562.48 345.278 1558.09 340.619 1550.1 340.619C1533.33 340.619 1519.22 356.46 1512.16 365.911C1511.37 366.976 1510.03 367.508 1508.7 367.375C1507.37 367.242 1506.44 366.443 1505.91 365.112C1499.39 348.207 1487.01 339.155 1470.23 339.155C1451.46 339.155 1436.16 352.999 1429.37 376.294C1428.97 377.492 1428.17 378.291 1426.97 378.69C1425.64 379.089 1424.44 378.69 1423.51 377.758C1418.19 372.567 1410.86 369.106 1402.21 367.375C1430.43 361.784 1450 343.281 1450 320.519C1450 297.756 1431.76 285.377 1401.15 285.377H1344.17C1340.85 285.377 1337.92 287.506 1336.99 290.701L1335.79 294.428H1338.45C1344.84 294.428 1352.43 294.695 1354.16 297.091C1355.36 298.688 1354.56 302.149 1352.69 307.74L1311.16 436.329C1307.7 447.244 1303.17 450.439 1290.13 450.838C1286.93 450.838 1284.14 453.101 1283.21 456.163L1282.01 460.023H1350.7C1382.64 460.023 1409.93 448.975 1423.51 430.472C1424.58 429.007 1426.17 429.007 1426.7 429.14C1427.77 429.274 1429.1 430.072 1429.63 431.67C1436.29 451.77 1450.53 463.351 1468.9 463.351C1485.41 463.351 1506.31 454.565 1512.16 412.501L1512.43 410.238H1509.1C1505.64 410.238 1502.71 412.501 1501.78 415.829C1497.26 433.666 1488.6 443.517 1477.42 443.517C1461.45 443.517 1451.73 426.478 1451.33 397.459H1503.11C1505.24 397.459 1507.11 396.66 1508.57 395.063C1510.03 393.599 1510.83 391.469 1510.7 389.339C1510.57 386.144 1510.17 383.083 1509.77 380.021H1512.7L1513.23 379.089C1522.81 364.314 1531.87 355.262 1536.79 355.262C1537.46 355.262 1537.99 355.262 1537.99 356.859C1537.99 358.989 1535.59 365.645 1533.73 370.969L1511.63 431.803C1497.12 472.403 1489.4 489.441 1478.75 489.441C1475.56 489.441 1473.16 487.844 1470.5 485.847C1467.44 483.717 1463.84 481.321 1458.79 481.321C1450.27 481.321 1442.81 488.11 1442.81 495.698C1442.81 501.022 1446.54 506.613 1456.79 506.613C1492.33 506.613 1520.02 481.721 1536.66 434.731L1557.16 378.024C1559.55 382.151 1563.81 384.547 1569.4 384.547C1577.26 384.547 1582.45 379.888 1582.45 372.7C1582.45 369.904 1581.52 367.641 1580.72 365.645C1579.92 363.781 1579.25 362.184 1579.25 360.054C1579.25 354.33 1584.45 350.736 1592.3 350.736C1600.15 350.736 1607.61 353.398 1607.61 373.499V382.151C1607.61 383.615 1606.81 384.946 1605.48 385.479L1604.15 386.011C1578.46 396.794 1549.3 409.04 1549.3 435.663C1549.3 451.637 1560.35 462.818 1576.33 462.818C1590.3 462.818 1601.48 454.565 1608.01 439.79C1609.6 455.098 1617.06 462.818 1630.1 462.818C1644.48 462.818 1652.2 452.968 1653 433.4V431.27H1651L1651.27 432.335ZM1585.24 443.65C1576.06 443.65 1575.13 434.731 1575.13 430.871C1575.13 416.361 1588.97 407.043 1602.55 399.855C1603.08 399.589 1603.61 399.456 1604.28 399.456C1604.95 399.456 1605.61 399.589 1606.14 399.988C1607.21 400.654 1607.87 401.852 1607.87 403.05V418.225C1607.87 418.225 1607.87 419.024 1607.74 419.423C1602.82 434.598 1594.43 443.65 1585.38 443.65H1585.24ZM1452.4 381.352C1454.53 362.051 1460.65 352.333 1470.37 352.333C1480.08 352.333 1484.61 361.918 1485.41 381.619C1485.41 382.55 1485.14 383.482 1484.34 384.281C1483.54 385.079 1482.75 385.346 1481.81 385.346H1455.99C1454.92 385.346 1453.99 384.946 1453.33 384.148C1452.66 383.349 1452.26 382.417 1452.4 381.352ZM1361.61 374.164C1365.07 373.898 1368.93 373.765 1373.86 373.765C1393.56 373.765 1403.68 382.284 1403.68 398.923C1403.68 422.884 1383.58 447.776 1350.03 447.776C1340.58 447.776 1338.05 446.179 1337.39 445.247C1337.25 444.981 1336.85 444.449 1337.39 442.984L1358.55 376.826C1358.95 375.495 1360.28 374.43 1361.61 374.297V374.164ZM1371.73 361.252C1370.53 361.252 1369.47 361.252 1368.4 361.252C1367.34 361.252 1366.27 360.719 1365.61 359.788C1364.94 358.856 1364.81 357.658 1365.07 356.593L1383.04 301.483C1383.58 299.753 1387.84 298.156 1396.22 298.156C1413.93 298.156 1422.84 305.477 1422.84 320.12C1422.84 343.148 1400.35 361.252 1371.6 361.252H1371.73Z" fill="#F7F7F7"/>
<path d="M1671.77 320.785C1671.77 320.785 1671.77 319.72 1671.77 318.522V316.925C1671.77 315.194 1671.5 313.996 1671.11 313.198C1670.71 312.399 1669.91 311.733 1668.71 311.334C1670.04 310.935 1670.97 310.136 1671.5 309.071C1672.04 308.006 1672.3 306.808 1672.3 305.743C1672.3 304.811 1672.17 304.013 1671.9 303.214C1671.64 302.415 1671.24 301.75 1670.71 301.217C1670.04 300.419 1669.38 299.886 1668.44 299.487C1667.51 299.087 1666.31 298.954 1664.58 298.821H1652.87V322.516H1657.66V313.198H1662.72C1664.18 313.198 1665.25 313.464 1665.78 313.996C1666.31 314.529 1666.58 315.461 1666.58 317.058V319.321C1666.58 319.986 1666.58 320.652 1666.85 321.318C1666.85 321.584 1666.98 322.116 1667.11 322.649H1672.57V322.116C1672.57 322.116 1671.77 321.318 1671.64 320.785H1671.77ZM1665.91 309.071C1665.91 309.071 1664.45 309.47 1663.38 309.47H1657.79V303.081H1663.52C1664.58 303.081 1665.38 303.081 1665.91 303.48C1666.85 304.013 1667.38 304.944 1667.38 306.409C1667.38 307.74 1666.85 308.672 1665.91 309.071Z" fill="#F7F7F7"/>
<path d="M1661.92 286.043C1647.81 286.043 1636.36 297.491 1636.36 311.601C1636.36 325.711 1647.81 337.159 1661.92 337.159C1676.03 337.159 1687.48 325.711 1687.48 311.601C1687.48 297.491 1675.9 286.043 1661.92 286.043ZM1661.92 331.967C1650.74 331.967 1641.55 322.916 1641.55 311.601C1641.55 300.286 1650.61 291.234 1661.92 291.234C1673.23 291.234 1682.29 300.286 1682.29 311.601C1682.29 322.916 1673.23 331.967 1661.92 331.967Z" fill="#F7F7F7"/>
</svg>
