<svg width="1853" height="763" viewBox="0 0 1853 763" fill="none" xmlns="http://www.w3.org/2000/svg">
<rect width="1853" height="763" fill="#1E0301"/>
<path d="M254 248H281.897V452.424H254V248Z" fill="#F7F7F7"/>
<path d="M312.121 303.332H335.989V324.409C342.963 315.73 350.557 309.376 358.461 305.656C366.366 301.782 375.045 299.922 384.809 299.922C405.886 299.922 420.3 307.361 427.739 322.085C431.769 330.144 433.939 341.768 433.939 356.801V452.426H408.521V358.506C408.521 349.362 407.126 342.078 404.492 336.498C399.997 327.199 391.938 322.55 380.314 322.55C374.425 322.55 369.465 323.169 365.746 324.409C358.926 326.424 352.882 330.609 347.612 336.653C343.428 341.613 340.793 346.727 339.398 351.842C338.158 357.111 337.539 364.55 337.539 374.314V452.426H312.431V303.332H312.121Z" fill="#F7F7F7"/>
<path d="M474.079 405.619C474.854 413.989 477.023 420.343 480.433 424.838C486.787 432.897 498.101 436.926 513.91 436.926C523.364 436.926 531.733 434.911 538.862 430.882C545.991 426.852 549.711 420.653 549.711 412.129C549.711 405.774 546.766 400.815 541.032 397.56C537.312 395.546 530.028 393.221 519.334 390.431L499.031 385.472C486.167 382.372 476.558 378.807 470.514 374.933C459.51 368.113 454.086 358.814 454.086 346.881C454.086 332.777 459.2 321.308 469.584 312.629C479.813 303.95 493.762 299.61 511.12 299.61C533.903 299.61 550.331 306.275 560.405 319.293C566.759 327.662 569.704 336.652 569.549 346.261H545.836C545.371 340.681 543.357 335.567 539.637 330.917C533.748 324.408 523.519 321.153 508.95 321.153C499.341 321.153 491.902 323.013 486.942 326.578C481.983 330.142 479.503 334.947 479.503 340.836C479.503 347.345 482.758 352.46 489.267 356.335C492.987 358.659 498.566 360.674 506.005 362.379L522.899 366.409C541.187 370.748 553.585 374.933 559.785 379.117C569.549 385.472 574.353 395.546 574.353 409.339C574.353 423.133 569.239 434.137 559.01 443.746C548.781 453.355 533.283 458.159 512.515 458.159C490.042 458.159 474.234 453.045 464.78 443.126C455.481 433.052 450.366 420.653 449.746 405.774H473.769L474.079 405.619Z" fill="#F7F7F7"/>
<path d="M595.428 261.795H620.69V303.331H644.558V323.789H620.69V421.119C620.69 426.388 622.395 429.798 625.96 431.503C627.975 432.587 631.229 433.052 635.724 433.052C636.964 433.052 638.204 433.052 639.598 433.052C640.993 433.052 642.543 432.897 644.403 432.587V452.425C641.458 453.2 638.513 453.82 635.414 454.285C632.314 454.595 628.905 454.905 625.34 454.905C613.716 454.905 605.657 451.96 601.472 445.916C597.288 439.872 595.273 432.122 595.273 422.668V323.944H575.125V303.486H595.273V261.95L595.428 261.795Z" fill="#F7F7F7"/>
<path d="M658.199 248H683.617V276.362H658.199V248ZM658.199 304.104H683.617V452.424H658.199V304.104Z" fill="#F7F7F7"/>
<path d="M715.076 261.795H740.339V303.331H764.206V323.789H740.339V421.119C740.339 426.388 742.044 429.798 745.608 431.503C747.623 432.587 750.878 433.052 755.372 433.052C756.612 433.052 757.852 433.052 759.247 433.052C760.642 433.052 762.192 432.897 764.051 432.587V452.425C761.107 453.2 758.162 453.82 755.062 454.285C751.963 454.595 748.553 454.905 744.988 454.905C733.365 454.905 725.305 451.96 721.121 445.916C716.936 439.872 714.921 432.122 714.921 422.668V323.944H694.773V303.486H714.921V261.95L715.076 261.795Z" fill="#F7F7F7"/>
<path d="M802.799 303.33V402.21C802.799 409.805 804.039 416.004 806.364 420.808C810.703 429.643 818.762 434.137 830.696 434.137C847.744 434.137 859.213 426.388 865.413 410.734C868.822 402.365 870.372 390.896 870.372 376.328V303.175H895.479V452.27H871.767L872.077 430.262C868.822 435.997 864.948 440.646 860.143 444.521C850.689 452.27 839.375 456.145 826.047 456.145C805.124 456.145 791.02 449.016 783.426 434.912C779.396 427.318 777.227 417.089 777.227 404.38V303.021H802.799V303.33Z" fill="#F7F7F7"/>
<path d="M929.885 261.795H955.147V303.331H979.015V323.789H955.147V421.119C955.147 426.388 956.852 429.798 960.417 431.503C962.432 432.587 965.686 433.052 970.181 433.052C971.421 433.052 972.661 433.052 974.055 433.052C975.45 433.052 977 432.897 978.86 432.587V452.425C975.915 453.2 972.971 453.82 969.871 454.285C966.771 454.595 963.361 454.905 959.797 454.905C948.173 454.905 940.114 451.96 935.929 445.916C931.745 439.872 929.73 432.122 929.73 422.668V323.944H909.582V303.486H929.73V261.95L929.885 261.795Z" fill="#F7F7F7"/>
<path d="M1100.68 318.208C1113.85 331.072 1120.36 349.825 1120.36 374.622C1120.36 399.42 1114.63 418.483 1103 434.136C1091.38 449.79 1073.4 457.694 1048.91 457.694C1028.61 457.694 1012.34 450.72 1000.4 436.926C988.47 423.133 982.426 404.534 982.426 381.132C982.426 356.179 988.78 336.186 1001.33 321.308C1013.89 306.429 1030.94 298.99 1052.17 298.99C1071.23 298.99 1087.35 305.345 1100.52 318.208H1100.68ZM1085.18 417.243C1091.22 404.689 1094.32 390.741 1094.32 375.397C1094.32 361.449 1092.15 350.135 1087.66 341.456C1080.69 327.817 1068.6 320.843 1051.55 320.843C1036.36 320.843 1025.36 326.732 1018.54 338.356C1011.72 349.98 1008.15 364.084 1008.15 380.667C1008.15 397.25 1011.56 409.649 1018.54 420.343C1025.51 431.037 1036.36 436.151 1051.24 436.151C1067.67 436.151 1078.98 429.797 1085.03 417.243H1085.18Z" fill="#F7F7F7"/>
<path d="M1450.48 301.781C1461.79 301.781 1469.54 294.497 1469.54 284.113C1469.54 273.729 1461.79 266.29 1450.48 266.29C1439.17 266.29 1431.42 273.419 1431.42 284.113C1431.42 294.807 1439.32 301.781 1450.48 301.781Z" fill="#F7F7F7"/>
<path d="M1556.64 429.181C1552.15 429.181 1548.43 432.59 1547.81 437.085C1546.26 449.793 1541.77 449.793 1540.37 449.793C1538.82 449.793 1535.88 449.793 1535.88 436.93V363.467C1535.88 336.19 1520.07 320.537 1492.33 320.537C1477.14 320.537 1463.5 325.651 1454.67 334.33C1453.27 327.821 1448.16 322.397 1438.86 322.397C1419.33 322.397 1402.9 340.84 1394.69 351.843C1393.76 353.083 1392.21 353.703 1390.66 353.548C1389.11 353.393 1388.02 352.463 1387.4 350.914C1379.81 331.231 1365.39 320.692 1345.87 320.692C1324.01 320.692 1306.19 336.81 1298.29 363.932C1297.82 365.327 1296.89 366.257 1295.5 366.722C1293.95 367.187 1292.55 366.722 1291.47 365.637C1285.27 359.593 1276.74 355.563 1266.67 353.548C1299.53 347.039 1322.31 325.496 1322.31 298.994C1322.31 272.492 1301.08 258.078 1265.43 258.078H1199.1C1195.22 258.078 1191.81 260.558 1190.73 264.277L1189.33 268.617H1192.43C1199.87 268.617 1208.71 268.927 1210.72 271.717C1212.11 273.577 1211.19 277.606 1209.02 284.115L1160.66 433.83C1156.63 446.539 1151.36 450.258 1136.17 450.723C1132.45 450.723 1129.2 453.358 1128.11 456.923L1126.72 461.417H1206.69C1243.89 461.417 1275.66 448.554 1291.47 427.011C1292.71 425.306 1294.57 425.306 1295.19 425.461C1296.43 425.616 1297.98 426.546 1298.6 428.406C1306.35 451.808 1322.93 465.292 1344.32 465.292C1363.53 465.292 1387.87 455.063 1394.69 406.088L1395 403.453H1391.12C1387.09 403.453 1383.68 406.088 1382.6 409.963C1377.33 430.73 1367.25 442.199 1354.24 442.199C1335.64 442.199 1324.32 422.361 1323.86 388.575H1384.15C1386.63 388.575 1388.8 387.645 1390.5 385.785C1392.21 384.08 1393.14 381.6 1392.98 379.121C1392.83 375.401 1392.36 371.836 1391.9 368.272H1395.31L1395.93 367.187C1407.08 349.984 1417.62 339.445 1423.36 339.445C1424.13 339.445 1424.75 339.445 1424.75 341.305C1424.75 343.784 1421.96 351.534 1419.79 357.733L1394.07 428.561C1377.17 475.831 1368.18 495.669 1355.79 495.669C1352.07 495.669 1349.28 493.809 1346.18 491.484C1342.61 489.004 1338.43 486.215 1332.54 486.215C1322.62 486.215 1313.94 494.119 1313.94 502.953C1313.94 509.152 1318.28 515.662 1330.21 515.662C1371.59 515.662 1403.83 486.68 1423.2 431.97L1447.07 365.947C1449.86 370.752 1454.82 373.541 1461.33 373.541C1470.47 373.541 1476.52 368.117 1476.52 359.748C1476.52 356.493 1475.43 353.858 1474.5 351.534C1473.57 349.364 1472.8 347.504 1472.8 345.024C1472.8 338.36 1478.84 334.175 1487.99 334.175C1497.13 334.175 1505.81 337.275 1505.81 360.678V370.752C1505.81 372.456 1504.88 374.006 1503.33 374.626L1501.78 375.246C1471.87 387.8 1437.93 402.058 1437.93 433.055C1437.93 451.653 1450.79 464.672 1469.39 464.672C1485.66 464.672 1498.68 455.063 1506.27 437.86C1508.13 455.683 1516.81 464.672 1532 464.672C1548.74 464.672 1557.73 453.203 1558.66 430.42V427.941H1556.33L1556.64 429.181ZM1479.77 442.354C1469.08 442.354 1467.99 431.97 1467.99 427.476C1467.99 410.582 1484.11 399.734 1499.92 391.364C1500.54 391.054 1501.16 390.899 1501.94 390.899C1502.71 390.899 1503.49 391.054 1504.11 391.519C1505.34 392.294 1506.12 393.689 1506.12 395.084V412.752C1506.12 412.752 1506.12 413.682 1505.96 414.147C1500.23 431.815 1490.47 442.354 1479.93 442.354H1479.77ZM1325.1 369.822C1327.58 347.349 1334.71 336.035 1346.02 336.035C1357.34 336.035 1362.6 347.194 1363.53 370.132C1363.53 371.217 1363.22 372.301 1362.29 373.231C1361.36 374.161 1360.43 374.471 1359.35 374.471H1329.28C1328.04 374.471 1326.96 374.006 1326.18 373.076C1325.41 372.146 1324.94 371.062 1325.1 369.822ZM1219.4 361.452C1223.43 361.143 1227.92 360.988 1233.66 360.988C1256.6 360.988 1268.37 370.907 1268.37 390.28C1268.37 418.177 1244.97 447.159 1205.92 447.159C1194.91 447.159 1191.97 445.299 1191.19 444.214C1191.04 443.904 1190.57 443.284 1191.19 441.579L1215.83 364.552C1216.3 363.002 1217.85 361.762 1219.4 361.607V361.452ZM1231.18 346.419C1229.78 346.419 1228.54 346.419 1227.3 346.419C1226.06 346.419 1224.82 345.799 1224.05 344.714C1223.27 343.629 1223.12 342.234 1223.43 340.995L1244.35 276.831C1244.97 274.816 1249.93 272.957 1259.7 272.957C1280.31 272.957 1290.69 281.481 1290.69 298.529C1290.69 325.341 1264.5 346.419 1231.02 346.419H1231.18Z" fill="#F7F7F7"/>
<path d="M1580.66 299.302C1580.66 299.302 1580.66 298.062 1580.66 296.667V294.807C1580.66 292.793 1580.35 291.398 1579.89 290.468C1579.42 289.538 1578.49 288.763 1577.1 288.298C1578.65 287.833 1579.73 286.903 1580.35 285.663C1580.97 284.423 1581.28 283.029 1581.28 281.789C1581.28 280.704 1581.13 279.774 1580.82 278.844C1580.51 277.914 1580.04 277.139 1579.42 276.519C1578.65 275.589 1577.87 274.969 1576.79 274.504C1575.7 274.039 1574.31 273.884 1572.29 273.729H1558.65V301.317H1564.23V290.468H1570.12C1571.83 290.468 1573.07 290.778 1573.69 291.398C1574.31 292.018 1574.62 293.103 1574.62 294.962V297.597C1574.62 298.372 1574.62 299.147 1574.93 299.922C1574.93 300.232 1575.08 300.852 1575.24 301.472H1581.59V300.852C1581.59 300.852 1580.66 299.922 1580.51 299.302H1580.66ZM1573.84 285.663C1573.84 285.663 1572.14 286.128 1570.9 286.128H1564.39V278.689H1571.05C1572.29 278.689 1573.22 278.689 1573.84 279.154C1574.93 279.774 1575.55 280.859 1575.55 282.564C1575.55 284.113 1574.93 285.198 1573.84 285.663Z" fill="#F7F7F7"/>
<path d="M1569.19 259.009C1552.77 259.009 1539.44 272.337 1539.44 288.766C1539.44 305.194 1552.77 318.523 1569.19 318.523C1585.62 318.523 1598.95 305.194 1598.95 288.766C1598.95 272.337 1585.47 259.009 1569.19 259.009ZM1569.19 312.478C1556.18 312.478 1545.48 301.939 1545.48 288.766C1545.48 275.592 1556.02 265.053 1569.19 265.053C1582.37 265.053 1592.91 275.592 1592.91 288.766C1592.91 301.939 1582.37 312.478 1569.19 312.478Z" fill="#F7F7F7"/>
</svg>
