<svg width="1853" height="763" viewBox="0 0 1853 763" fill="none" xmlns="http://www.w3.org/2000/svg">
<rect width="1853" height="763" fill="#F7F7F7"/>
<path d="M531 509.121H547.399V629.293H531V509.121Z" fill="#B39567"/>
<path d="M565.256 541.645H579.286V554.035C583.386 548.933 587.85 545.198 592.497 543.011C597.143 540.734 602.245 539.64 607.985 539.64C620.376 539.64 628.849 544.013 633.222 552.669C635.591 557.406 636.866 564.239 636.866 573.077V629.29H621.925V574.079C621.925 568.704 621.105 564.422 619.556 561.142C616.914 555.675 612.176 552.942 605.343 552.942C601.881 552.942 598.966 553.306 596.779 554.035C592.77 555.22 589.217 557.68 586.119 561.233C583.659 564.148 582.111 567.155 581.291 570.161C580.562 573.259 580.197 577.632 580.197 583.372V629.29H565.438V541.645H565.256Z" fill="#B39567"/>
<path d="M660.463 601.777C660.919 606.697 662.194 610.432 664.199 613.074C667.934 617.812 674.585 620.181 683.878 620.181C689.436 620.181 694.356 618.996 698.546 616.627C702.737 614.258 704.924 610.614 704.924 605.603C704.924 601.868 703.193 598.952 699.822 597.039C697.635 595.855 693.353 594.488 687.067 592.848L675.132 589.933C667.57 588.111 661.921 586.015 658.368 583.737C651.899 579.729 648.71 574.262 648.71 567.247C648.71 558.956 651.717 552.214 657.821 547.112C663.834 542.01 672.034 539.459 682.238 539.459C695.631 539.459 705.288 543.377 711.21 551.03C714.946 555.949 716.677 561.234 716.586 566.882H702.646C702.373 563.602 701.189 560.596 699.002 557.863C695.54 554.036 689.527 552.123 680.963 552.123C675.314 552.123 670.941 553.216 668.025 555.312C665.11 557.407 663.652 560.231 663.652 563.694C663.652 567.52 665.565 570.527 669.392 572.804C671.578 574.171 674.858 575.355 679.232 576.358L689.162 578.726C699.913 581.277 707.202 583.737 710.846 586.197C716.586 589.933 719.41 595.855 719.41 603.963C719.41 612.072 716.404 618.541 710.39 624.189C704.377 629.838 695.266 632.662 683.058 632.662C669.847 632.662 660.554 629.656 654.997 623.825C649.53 617.903 646.524 610.614 646.159 601.868H660.281L660.463 601.777Z" fill="#B39567"/>
<path d="M731.709 517.229H746.559V541.646H760.59V553.672H746.559V610.888C746.559 613.986 747.562 615.99 749.657 616.992C750.842 617.63 752.755 617.903 755.397 617.903C756.126 617.903 756.855 617.903 757.675 617.903C758.495 617.903 759.406 617.812 760.499 617.63V629.292C758.768 629.747 757.037 630.112 755.215 630.385C753.393 630.567 751.388 630.75 749.293 630.75C742.46 630.75 737.722 629.019 735.262 625.465C732.802 621.912 731.618 617.357 731.618 611.799V553.763H719.774V541.737H731.618V517.32L731.709 517.229Z" fill="#B39567"/>
<path d="M768.608 509.121H783.55V525.794H768.608V509.121ZM768.608 542.102H783.55V629.293H768.608V542.102Z" fill="#B39567"/>
<path d="M802.044 517.229H816.894V541.646H830.925V553.672H816.894V610.888C816.894 613.986 817.897 615.99 819.992 616.992C821.177 617.63 823.09 617.903 825.732 617.903C826.461 617.903 827.19 617.903 828.01 617.903C828.83 617.903 829.741 617.812 830.834 617.63V629.292C829.103 629.747 827.372 630.112 825.55 630.385C823.727 630.567 821.723 630.75 819.628 630.75C812.795 630.75 808.057 629.019 805.597 625.465C803.137 621.912 801.953 617.357 801.953 611.799V553.763H790.109V541.737H801.953V517.32L802.044 517.229Z" fill="#B39567"/>
<path d="M853.703 541.645V599.772C853.703 604.236 854.431 607.88 855.798 610.705C858.349 615.898 863.087 618.54 870.102 618.54C880.124 618.54 886.866 613.984 890.51 604.783C892.515 599.863 893.426 593.121 893.426 584.557V541.554H908.185V629.199H894.246L894.428 616.262C892.515 619.633 890.237 622.366 887.413 624.644C881.855 629.199 875.204 631.477 867.369 631.477C855.069 631.477 846.778 627.286 842.314 618.995C839.945 614.531 838.67 608.518 838.67 601.047V541.463H853.703V541.645Z" fill="#B39567"/>
<path d="M928.413 517.229H943.264V541.646H957.294V553.672H943.264V610.888C943.264 613.986 944.266 615.99 946.361 616.992C947.546 617.63 949.459 617.903 952.101 617.903C952.83 617.903 953.559 617.903 954.379 617.903C955.199 617.903 956.11 617.812 957.203 617.63V629.292C955.472 629.747 953.741 630.112 951.919 630.385C950.097 630.567 948.092 630.75 945.997 630.75C939.164 630.75 934.426 629.019 931.966 625.465C929.506 621.912 928.322 617.357 928.322 611.799V553.763H916.478V541.737H928.322V517.32L928.413 517.229Z" fill="#B39567"/>
<path d="M1028.82 550.391C1036.56 557.953 1040.39 568.977 1040.39 583.554C1040.39 598.132 1037.01 609.338 1030.18 618.54C1023.35 627.742 1012.78 632.388 998.385 632.388C986.45 632.388 976.884 628.288 969.868 620.18C962.853 612.071 959.3 601.138 959.3 587.381C959.3 572.712 963.035 560.96 970.415 552.213C977.795 543.467 987.817 539.094 1000.3 539.094C1011.5 539.094 1020.98 542.829 1028.72 550.391H1028.82ZM1019.7 608.609C1023.26 601.229 1025.08 593.03 1025.08 584.01C1025.08 575.81 1023.8 569.159 1021.16 564.057C1017.06 556.04 1009.96 551.94 999.934 551.94C991.006 551.94 984.537 555.402 980.528 562.235C976.519 569.068 974.424 577.359 974.424 587.107C974.424 596.856 976.428 604.145 980.528 610.431C984.628 616.718 991.006 619.724 999.752 619.724C1009.41 619.724 1016.06 615.989 1019.61 608.609H1019.7Z" fill="#B39567"/>
<path d="M1234.35 540.735C1241.01 540.735 1245.56 536.453 1245.56 530.349C1245.56 524.245 1241.01 519.871 1234.35 519.871C1227.7 519.871 1223.15 524.062 1223.15 530.349C1223.15 536.635 1227.8 540.735 1234.35 540.735Z" fill="#B39567"/>
<path d="M1296.85 615.625C1294.21 615.625 1292.02 617.629 1291.66 620.271C1290.75 627.742 1288.11 627.742 1287.29 627.742C1286.37 627.742 1284.64 627.742 1284.64 620.18V576.995C1284.64 560.96 1275.35 551.758 1259.04 551.758C1250.11 551.758 1242.1 554.765 1236.9 559.867C1236.08 556.04 1233.08 552.851 1227.61 552.851C1216.13 552.851 1206.47 563.693 1201.64 570.162C1201.1 570.891 1200.19 571.255 1199.28 571.164C1198.36 571.073 1197.73 570.526 1197.36 569.615C1192.9 558.045 1184.43 551.849 1172.95 551.849C1160.1 551.849 1149.62 561.324 1144.98 577.268C1144.7 578.088 1144.16 578.635 1143.34 578.908C1142.42 579.182 1141.6 578.908 1140.97 578.271C1137.32 574.717 1132.31 572.349 1126.39 571.164C1145.7 567.338 1159.1 554.674 1159.1 539.094C1159.1 523.515 1146.62 515.042 1125.66 515.042H1086.67C1084.39 515.042 1082.38 516.499 1081.75 518.686L1080.93 521.237H1082.75C1087.12 521.237 1092.32 521.419 1093.5 523.059C1094.32 524.152 1093.77 526.521 1092.5 530.348L1064.07 618.358C1061.7 625.829 1058.61 628.015 1049.68 628.289C1047.49 628.289 1045.58 629.838 1044.94 631.933L1044.12 634.575H1091.13C1113 634.575 1131.67 627.013 1140.97 614.349C1141.7 613.347 1142.79 613.347 1143.15 613.438C1143.88 613.529 1144.79 614.076 1145.16 615.169C1149.71 628.927 1159.46 636.853 1172.03 636.853C1183.33 636.853 1197.64 630.84 1201.64 602.05L1201.83 600.501H1199.55C1197.18 600.501 1195.18 602.05 1194.54 604.327C1191.44 616.536 1185.52 623.278 1177.87 623.278C1166.93 623.278 1160.28 611.616 1160.01 591.755H1195.45C1196.91 591.755 1198.18 591.208 1199.18 590.115C1200.19 589.112 1200.73 587.655 1200.64 586.197C1200.55 584.01 1200.28 581.915 1200 579.819H1202.01L1202.37 579.182C1208.93 569.069 1215.13 562.873 1218.5 562.873C1218.96 562.873 1219.32 562.873 1219.32 563.967C1219.32 565.424 1217.68 569.98 1216.4 573.624L1201.28 615.26C1191.35 643.048 1186.07 654.71 1178.78 654.71C1176.59 654.71 1174.95 653.617 1173.13 652.25C1171.03 650.792 1168.57 649.153 1165.11 649.153C1159.28 649.153 1154.18 653.799 1154.18 658.992C1154.18 662.637 1156.73 666.463 1163.74 666.463C1188.07 666.463 1207.02 649.426 1218.41 617.265L1232.44 578.453C1234.08 581.277 1236.99 582.917 1240.82 582.917C1246.2 582.917 1249.75 579.728 1249.75 574.808C1249.75 572.895 1249.11 571.346 1248.57 569.98C1248.02 568.704 1247.56 567.611 1247.56 566.153C1247.56 562.236 1251.12 559.776 1256.49 559.776C1261.87 559.776 1266.97 561.598 1266.97 575.355V581.277C1266.97 582.279 1266.42 583.19 1265.51 583.555L1264.6 583.919C1247.02 591.299 1227.06 599.681 1227.06 617.903C1227.06 628.835 1234.63 636.489 1245.56 636.489C1255.13 636.489 1262.78 630.84 1267.24 620.727C1268.34 631.204 1273.44 636.489 1282.37 636.489C1292.21 636.489 1297.49 629.747 1298.04 616.354V614.896H1296.67L1296.85 615.625ZM1251.66 623.369C1245.38 623.369 1244.74 617.265 1244.74 614.623C1244.74 604.692 1254.21 598.314 1263.51 593.394C1263.87 593.212 1264.24 593.121 1264.69 593.121C1265.15 593.121 1265.6 593.212 1265.97 593.486C1266.7 593.941 1267.15 594.761 1267.15 595.581V605.967C1267.15 605.967 1267.15 606.514 1267.06 606.787C1263.69 617.174 1257.95 623.369 1251.75 623.369H1251.66ZM1160.74 580.73C1162.19 567.52 1166.39 560.869 1173.04 560.869C1179.69 560.869 1182.79 567.429 1183.33 580.913C1183.33 581.55 1183.15 582.188 1182.6 582.735C1182.06 583.281 1181.51 583.464 1180.87 583.464H1163.2C1162.47 583.464 1161.83 583.19 1161.38 582.644C1160.92 582.097 1160.65 581.459 1160.74 580.73ZM1098.6 575.811C1100.97 575.628 1103.61 575.537 1106.98 575.537C1120.47 575.537 1127.39 581.368 1127.39 592.757C1127.39 609.156 1113.63 626.193 1090.68 626.193C1084.21 626.193 1082.48 625.1 1082.02 624.462C1081.93 624.28 1081.66 623.916 1082.02 622.913L1096.51 577.633C1096.78 576.722 1097.69 575.993 1098.6 575.902V575.811ZM1105.53 566.973C1104.71 566.973 1103.98 566.973 1103.25 566.973C1102.52 566.973 1101.79 566.609 1101.33 565.971C1100.88 565.333 1100.79 564.513 1100.97 563.784L1113.27 526.066C1113.63 524.881 1116.55 523.788 1122.29 523.788C1134.41 523.788 1140.51 528.799 1140.51 538.821C1140.51 554.582 1125.11 566.973 1105.43 566.973H1105.53Z" fill="#B39567"/>
<path d="M1310.88 539.277C1310.88 539.277 1310.88 538.548 1310.88 537.728V536.635C1310.88 535.45 1310.7 534.63 1310.43 534.084C1310.15 533.537 1309.61 533.081 1308.79 532.808C1309.7 532.535 1310.34 531.988 1310.7 531.259C1311.07 530.53 1311.25 529.71 1311.25 528.982C1311.25 528.344 1311.16 527.797 1310.97 527.251C1310.79 526.704 1310.52 526.248 1310.15 525.884C1309.7 525.337 1309.24 524.973 1308.61 524.7C1307.97 524.426 1307.15 524.335 1305.96 524.244H1297.95V540.461H1301.23V534.084H1304.69C1305.69 534.084 1306.42 534.266 1306.78 534.63C1307.15 534.995 1307.33 535.633 1307.33 536.726V538.275C1307.33 538.73 1307.33 539.186 1307.51 539.641C1307.51 539.823 1307.6 540.188 1307.69 540.552H1311.43V540.188C1311.43 540.188 1310.88 539.641 1310.79 539.277H1310.88ZM1306.87 531.259C1306.87 531.259 1305.87 531.533 1305.14 531.533H1301.32V527.159H1305.23C1305.96 527.159 1306.51 527.159 1306.87 527.433C1307.51 527.797 1307.88 528.435 1307.88 529.437C1307.88 530.348 1307.51 530.986 1306.87 531.259Z" fill="#B39567"/>
<path d="M1304.14 515.497C1294.49 515.497 1286.65 523.333 1286.65 532.99C1286.65 542.648 1294.49 550.483 1304.14 550.483C1313.8 550.483 1321.64 542.648 1321.64 532.99C1321.64 523.333 1313.71 515.497 1304.14 515.497ZM1304.14 546.93C1296.49 546.93 1290.2 540.734 1290.2 532.99C1290.2 525.246 1296.4 519.051 1304.14 519.051C1311.89 519.051 1318.08 525.246 1318.08 532.99C1318.08 540.734 1311.89 546.93 1304.14 546.93Z" fill="#B39567"/>
<path d="M1086.56 182.808C1086.05 171.953 1077.98 163.369 1067.01 163.117C1060.71 163.117 1054.4 162.865 1048.1 162.738C1053.52 157.437 1059.2 152.388 1065.12 147.718C1067.64 145.825 1070.17 143.931 1072.81 142.164C1077.1 139.261 1080.38 135.474 1081.77 130.425C1083.03 125.755 1082.52 119.444 1079.75 115.279C1074.33 106.822 1062.1 102.025 1053.02 108.21C1040.53 116.667 1029.19 126.513 1018.47 136.989C1018.22 133.202 1017.96 129.542 1017.71 125.755C1017.96 125.124 1018.09 124.493 1018.34 123.862C1019.48 118.939 1019.35 113.007 1016.33 108.715C1015.7 107.705 1015.06 106.822 1014.31 105.812C1011.79 102.152 1009.01 99.501 1004.98 97.7339C1001.07 96.093 996.403 95.3357 992.242 96.7242C988.964 97.7339 986.19 99.5011 983.668 101.773C980.263 104.929 977.616 111.113 977.994 115.657C979.129 131.183 980.138 146.582 981.272 162.107C972.824 162.107 964.502 162.107 956.054 162.36C919.236 162.991 882.417 165.137 845.977 169.933C823.911 172.836 802.097 176.497 780.41 181.545C770.448 183.817 763.64 195.935 766.792 205.78C770.196 216.257 780.158 222.063 790.749 219.538C809.285 215.247 828.072 211.839 846.86 209.188C884.687 204.266 922.766 202.246 960.845 201.615C956.306 206.916 951.641 212.217 946.976 217.519C912.553 256.269 876.743 293.631 839.672 329.73C818.741 350.052 797.432 369.995 775.618 389.434C767.927 396.25 768.179 410.386 775.618 417.329C783.814 424.902 795.036 424.65 803.232 417.329C840.429 384.132 876.491 349.547 911.292 313.7C936.888 287.32 961.602 260.308 985.811 232.665C987.829 267.124 989.216 301.709 989.468 336.294C989.468 357.121 989.216 377.947 988.333 398.774C987.829 409.124 997.664 418.97 1007.88 418.465C1018.85 417.96 1026.92 409.755 1027.42 398.774C1029.06 361.917 1028.81 324.934 1027.55 287.951C1026.54 259.298 1024.9 230.52 1023.01 201.867C1037.63 202.12 1052.39 202.372 1067.01 202.625C1077.23 202.877 1086.94 193.41 1086.56 182.934V182.808Z" fill="#B39567"/>
</svg>
