<svg width="1299" height="450" viewBox="0 0 1299 450" fill="none" xmlns="http://www.w3.org/2000/svg">
<path d="M291.8 92.9024C291.3 83.4024 284.3 75.8024 274.7 75.6024C269.2 75.6024 263.7 75.4024 258.2 75.3024C263 70.7024 268 66.2024 273.1 62.1024C275.3 60.5024 277.6 58.9024 279.8 57.3024C283.5 54.8024 286.5 51.4024 287.6 46.9024C288.7 42.8024 288.2 37.2024 285.9 33.6024C281.2 26.1024 270.4 22.0024 262.5 27.4024C251.6 34.9024 241.6 43.4024 232.2 52.6024C232 49.3024 231.7 46.0024 231.5 42.7024C231.7 42.1024 231.8 41.6024 232 41.0024C232.9 36.6024 232.9 31.5024 230.3 27.7024C229.7 26.9024 229.2 26.1024 228.6 25.2024C226.4 22.1024 224 19.7024 220.5 18.2024C217.1 16.7024 213 16.1024 209.4 17.3024C206.5 18.2024 204 19.7024 201.8 21.8024C198.8 24.6024 196.5 30.0024 196.8 34.0024C197.7 47.6024 198.8 61.1024 199.7 74.7024C192.4 74.7024 185 74.7024 177.7 74.9024C145.5 75.5024 113.2 77.3024 81.2997 81.6024C61.9997 84.1024 42.8997 87.4024 23.8997 91.7024C15.1997 93.8024 9.19972 104.402 11.9997 113.002C14.9997 122.202 23.6997 127.302 32.9997 125.102C49.2997 121.302 65.6997 118.402 82.0997 116.002C115.3 111.602 148.5 109.902 181.9 109.302C177.9 113.902 173.9 118.602 169.7 123.202C139.6 157.102 108.2 190.002 75.6997 221.702C57.2997 239.502 38.5997 257.002 19.5997 274.002C12.8997 280.002 13.0997 292.402 19.5997 298.402C26.6997 305.102 36.5997 304.802 43.6997 298.402C76.2997 269.302 107.8 238.902 138.3 207.502C160.7 184.402 182.4 160.702 203.6 136.402C205.3 166.702 206.6 196.902 206.8 227.302C206.8 245.602 206.6 263.902 205.8 282.102C205.3 291.202 213.9 299.802 222.9 299.402C232.5 298.902 239.5 291.802 240 282.102C241.5 249.802 241.3 217.302 240.1 184.902C239.2 159.702 237.8 134.502 236.1 109.402C249 109.602 261.8 109.902 274.7 110.102C283.7 110.302 292.1 102.002 291.8 92.8024L292.1 93.0024L291.8 92.9024Z" fill="#1E0301"/>
<path d="M291.8 235.898H312.4V387.198H291.8V235.898Z" fill="#1E0301"/>
<path d="M334.8 276.797H352.5V292.397C357.7 285.997 363.3 281.297 369.1 278.497C374.9 275.597 381.4 274.297 388.6 274.297C404.2 274.297 414.9 279.797 420.4 290.697C423.4 296.697 425 305.297 425 316.397V387.197H406.2V317.697C406.2 310.897 405.2 305.497 403.2 301.397C399.9 294.497 393.9 291.097 385.3 291.097C376.7 291.097 377.3 291.597 374.5 292.497C369.5 293.997 365 297.097 361.1 301.597C358 305.297 356.1 309.097 355 312.797C354.1 316.697 353.6 322.197 353.6 329.397V387.197H335V276.897H334.8V276.797Z" fill="#1E0301"/>
<path d="M454.7 352.498C455.3 358.698 456.9 363.398 459.4 366.698C464.1 372.698 472.5 375.598 484.2 375.598C495.9 375.598 497.4 374.098 502.7 371.098C508 368.098 510.7 363.498 510.7 357.198C510.7 350.898 508.5 348.798 504.3 346.398C501.5 344.898 496.2 343.198 488.2 341.098L473.2 337.398C463.7 335.098 456.6 332.498 452.1 329.598C444 324.598 439.9 317.698 439.9 308.798C439.9 299.898 443.7 289.898 451.4 283.498C459 277.098 469.3 273.898 482.1 273.898C494.9 273.898 511.1 278.798 518.6 288.498C523.3 294.698 525.5 301.298 525.4 308.498H507.9C507.6 304.398 506.1 300.598 503.3 297.098C498.9 292.298 491.4 289.898 480.6 289.898C469.8 289.898 468 291.298 464.3 293.898C460.6 296.498 458.8 300.098 458.8 304.498C458.8 308.898 461.2 313.098 466 315.998C468.8 317.698 472.9 319.198 478.4 320.498L490.9 323.498C504.4 326.698 513.6 329.798 518.2 332.898C525.4 337.598 529 345.098 529 355.298C529 365.498 525.2 373.598 517.6 380.798C510 387.898 498.6 391.498 483.2 391.498C467.8 391.498 454.9 387.698 447.9 380.398C441 372.898 437.2 363.798 436.8 352.798H454.8L454.7 352.498Z" fill="#1E0301"/>
<path d="M544.5 246.102H563.2V276.802H580.9V291.902H563.2V363.902C563.2 367.802 564.5 370.302 567.1 371.602C568.6 372.402 571 372.702 574.3 372.702H577.2C578.2 372.702 579.4 372.602 580.8 372.402V387.102C578.6 387.702 576.4 388.102 574.1 388.502C571.8 388.702 569.3 389.002 566.6 389.002C558 389.002 552 386.802 548.9 382.302C545.8 377.802 544.3 372.102 544.3 365.102V292.002H529.4V276.902H544.3V246.202H544.4L544.5 246.102Z" fill="#1E0301"/>
<path d="M590.9 235.898H609.7V256.898H590.9V235.898ZM590.9 277.398H609.7V387.198H590.9V277.398Z" fill="#1E0301"/>
<path d="M633 246.102H651.7V276.802H669.4V291.902H651.7V363.902C651.7 367.802 653 370.302 655.6 371.602C657.1 372.402 659.5 372.702 662.8 372.702H665.7C666.7 372.702 667.9 372.602 669.3 372.402V387.102C667.1 387.702 664.9 388.102 662.6 388.502C660.3 388.702 657.8 389.002 655.1 389.002C646.5 389.002 640.5 386.802 637.4 382.302C634.3 377.802 632.8 372.102 632.8 365.102V292.002H617.9V276.902H632.8V246.202H632.9L633 246.102Z" fill="#1E0301"/>
<path d="M697.9 276.803V350.003C697.9 355.603 698.8 360.203 700.5 363.803C703.7 370.303 709.7 373.703 718.5 373.703C731.1 373.703 739.6 368.003 744.2 356.403C746.7 350.203 747.9 341.703 747.9 330.903V276.803H766.5V387.103H748.9L749.1 370.803C746.7 375.003 743.8 378.503 740.3 381.403C733.3 387.103 724.9 390.003 715.1 390.003C699.6 390.003 689.2 384.703 683.6 374.303C680.6 368.703 679 361.103 679 351.703V276.703H697.9V276.903V276.803Z" fill="#1E0301"/>
<path d="M792 246.102H810.7V276.802H828.4V291.902H810.7V363.902C810.7 367.802 812 370.302 814.6 371.602C816.1 372.402 818.5 372.702 821.8 372.702H824.7C825.7 372.702 826.9 372.602 828.2 372.402V387.102C826 387.702 823.8 388.102 821.6 388.502C819.3 388.702 816.8 389.002 814.1 389.002C805.5 389.002 799.5 386.802 796.4 382.302C793.3 377.802 791.8 372.102 791.8 365.102V292.002H776.9V276.902H791.8V246.202H791.9L792 246.102Z" fill="#1E0301"/>
<path d="M918.4 287.798C928.2 297.298 933 311.198 933 329.498C933 347.798 928.8 361.998 920.2 373.498C911.6 385.098 898.3 390.898 880.2 390.898C862.1 390.898 853.1 385.698 844.3 375.498C835.5 365.298 831 351.498 831 334.198C831 316.898 835.7 300.898 845 289.898C854.3 278.898 866.9 273.398 882.6 273.398C898.3 273.398 908.6 278.098 918.4 287.598H918.5L918.4 287.798ZM906.9 361.098C911.4 351.798 913.7 341.498 913.7 330.098C913.7 318.698 912.1 311.398 908.8 304.998C903.6 294.898 894.7 289.698 882.1 289.698C869.5 289.698 862.7 294.098 857.7 302.698C852.7 311.298 850 321.698 850 333.998C850 346.298 852.5 355.398 857.7 363.398C862.9 371.298 870.9 375.098 881.9 375.098C892.9 375.098 902.4 370.398 906.9 361.098Z" fill="#1E0301"/>
<path d="M1177.2 275.698C1185.6 275.698 1191.3 270.298 1191.3 262.598C1191.3 254.898 1185.6 249.398 1177.2 249.398C1168.8 249.398 1163.1 254.698 1163.1 262.598C1163.1 270.498 1168.9 275.698 1177.2 275.698Z" fill="#1E0301"/>
<path d="M1255.8 369.997C1252.5 369.997 1249.7 372.497 1249.3 375.797C1248.1 385.197 1244.8 385.197 1243.8 385.197C1242.8 385.197 1240.5 385.197 1240.5 375.697V321.297C1240.5 301.097 1228.8 289.497 1208.3 289.497C1187.8 289.497 1187 293.297 1180.4 299.697C1179.4 294.897 1175.6 290.897 1168.7 290.897C1154.3 290.897 1142.1 304.497 1136 312.697C1135.3 313.597 1134.2 314.097 1133 313.997C1131.8 313.897 1131 313.197 1130.6 311.997C1125 297.397 1114.3 289.597 1099.9 289.597C1085.5 289.597 1070.5 301.497 1064.7 321.597C1064.4 322.597 1063.7 323.297 1062.6 323.697C1061.4 323.997 1060.4 323.697 1059.6 322.897C1055 318.397 1048.7 315.397 1041.3 313.997C1065.6 309.197 1082.5 293.197 1082.5 273.597C1082.5 253.997 1066.8 243.297 1040.4 243.297H991.3C988.4 243.297 985.9 245.097 985.1 247.897L984.1 251.097H986.4C991.9 251.097 998.4 251.297 999.9 253.397C1000.9 254.797 1000.2 257.797 998.6 262.597L962.8 373.397C959.8 382.797 955.9 385.597 944.7 385.897C941.9 385.897 939.5 387.897 938.7 390.497L937.7 393.797H996.9C1024.4 393.797 1047.9 384.297 1059.6 368.297C1060.5 366.997 1061.9 366.997 1062.4 367.197C1063.3 367.297 1064.5 367.997 1064.9 369.397C1070.6 386.697 1082.9 396.697 1098.7 396.697C1114.5 396.697 1130.9 389.097 1136 352.897L1136.2 350.997H1133.3C1130.3 350.997 1127.8 352.897 1127 355.797C1123.1 371.197 1115.6 379.697 1106 379.697C1092.2 379.697 1083.9 364.997 1083.5 339.997H1128.1C1129.9 339.997 1131.5 339.297 1132.8 337.897C1134.1 336.597 1134.8 334.797 1134.6 332.997C1134.5 330.197 1134.1 327.597 1133.8 324.997H1136.3L1136.8 324.197C1145.1 311.497 1152.9 303.697 1157.1 303.697C1161.3 303.697 1158.1 303.697 1158.1 305.097C1158.1 306.497 1156 312.697 1154.4 317.297L1135.4 369.697C1122.9 404.697 1116.3 419.397 1107.1 419.397C1097.9 419.397 1102.3 417.997 1100 416.297C1097.4 414.497 1094.3 412.397 1089.9 412.397C1082.6 412.397 1076.1 418.197 1076.1 424.797C1076.1 431.397 1079.3 434.197 1088.1 434.197C1118.7 434.197 1142.6 412.797 1156.9 372.297L1174.6 323.397C1176.7 326.997 1180.3 328.997 1185.1 328.997C1189.9 328.997 1196.3 324.997 1196.3 318.797C1196.3 312.597 1195.5 314.397 1194.8 312.697C1194.1 311.097 1193.5 309.697 1193.5 307.897C1193.5 302.997 1198 299.897 1204.7 299.897C1211.4 299.897 1217.9 302.197 1217.9 319.497V326.997C1217.9 328.297 1217.2 329.397 1216.1 329.897L1214.9 330.397C1192.8 339.697 1167.7 350.197 1167.7 373.197C1167.7 396.197 1177.2 396.597 1191 396.597C1204.8 396.597 1212.7 389.497 1218.3 376.797C1219.7 389.997 1226.1 396.597 1237.3 396.597C1248.5 396.597 1256.3 388.097 1257 371.297V369.497H1255.3L1255.5 370.397L1255.8 369.997ZM1198.9 379.697C1191 379.697 1190.2 371.997 1190.2 368.697C1190.2 356.197 1202.1 348.197 1213.8 341.997C1214.3 341.797 1214.7 341.697 1215.3 341.697C1215.9 341.697 1216.5 341.797 1216.9 342.197C1217.8 342.797 1218.4 343.797 1218.4 344.797V357.897C1218.4 357.897 1218.4 358.597 1218.3 358.897C1214.1 371.997 1206.8 379.797 1199 379.797H1198.9V379.697ZM1084.4 325.997C1086.2 309.397 1091.5 300.997 1099.9 300.997C1108.3 300.997 1112.2 309.297 1112.9 326.197C1112.9 326.997 1112.7 327.797 1112 328.497C1111.3 329.197 1110.6 329.397 1109.8 329.397H1087.6C1086.7 329.397 1085.9 329.097 1085.3 328.397C1084.7 327.697 1084.4 326.897 1084.5 325.997H1084.4ZM1006.2 319.797C1009.2 319.597 1012.5 319.497 1016.8 319.497C1033.8 319.497 1042.5 326.797 1042.5 341.197C1042.5 361.797 1025.2 383.297 996.3 383.297C967.4 383.297 986 381.897 985.4 381.097C985.3 380.897 984.9 380.397 985.4 379.197L1003.6 322.197C1003.9 321.097 1005.1 320.097 1006.2 319.997V319.797ZM1014.9 308.697H1012C1011.1 308.697 1010.2 308.197 1009.6 307.397C1009 306.597 1008.9 305.597 1009.1 304.597L1024.6 257.097C1025.1 255.597 1028.7 254.197 1036 254.197C1051.2 254.197 1058.9 260.497 1058.9 273.097C1058.9 292.897 1039.5 308.497 1014.8 308.497H1014.9V308.697Z" fill="#1E0301"/>
<path d="M1273.6 273.798V270.498C1273.6 268.998 1273.4 267.998 1273 267.298C1272.7 266.598 1272 265.998 1270.9 265.698C1272.1 265.398 1272.8 264.698 1273.3 263.798C1273.8 262.898 1274 261.798 1274 260.898C1274 259.998 1273.9 259.398 1273.7 258.698C1273.5 257.998 1273.1 257.398 1272.7 256.998C1272.1 256.298 1271.5 255.898 1270.8 255.498C1270 255.198 1269 254.998 1267.5 254.898H1257.4V275.298H1261.5V267.298H1265.9C1267.2 267.298 1268.1 267.498 1268.5 267.998C1269 268.498 1269.2 269.298 1269.2 270.598V272.598C1269.2 273.198 1269.2 273.698 1269.4 274.298C1269.4 274.498 1269.5 274.998 1269.6 275.398H1274.3V274.898C1274.3 274.898 1273.6 274.198 1273.5 273.798H1273.6ZM1268.5 263.698C1268.5 263.698 1267.2 263.998 1266.3 263.998H1261.5V258.498H1266.4C1267.3 258.498 1268 258.498 1268.5 258.798C1269.3 259.298 1269.8 260.098 1269.8 261.298C1269.8 262.498 1269.3 263.298 1268.5 263.598V263.698Z" fill="#1E0301"/>
<path d="M1265.1 244C1252.9 244 1243.1 253.9 1243.1 266C1243.1 278.1 1253 288 1265.1 288C1277.2 288 1287.1 278.1 1287.1 266C1287.1 253.9 1277.1 244 1265.1 244ZM1265.1 283.6C1255.5 283.6 1247.6 275.8 1247.6 266.1C1247.6 256.4 1255.4 248.6 1265.1 248.6C1274.8 248.6 1282.6 256.4 1282.6 266.1C1282.6 275.8 1274.8 283.6 1265.1 283.6Z" fill="#1E0301"/>
</svg>
