<?xml version="1.0" encoding="UTF-8"?>
<svg id="logo-serenas-branco" xmlns="http://www.w3.org/2000/svg" version="1.1" viewBox="0 0 683.2 212.1">
  <!-- Generator: Adobe Illustrator 29.3.1, SVG Export Plug-In . SVG Version: 2.1.0 Build 151)  -->
  <defs>
    <style>
      .st0 {
        fill: #6a9c81;
      }

      .st1 {
        fill: #6c9f7d;
      }

      .st2 {
        fill: #8c3d78;
      }
    </style>
  </defs>
  <path id="Path_16386" class="st2" d="M225.7,89.7c.8,1.2,2.6,2.3,5.2,3.3,2.7,1,5.6,1.5,8.4,1.5,4.7,0,8.1-.9,10.3-2.7,2.2-1.8,3.5-4.6,3.3-7.5,0-2.1-.7-4.2-2.1-5.8-1.6-1.8-3.6-3.3-5.9-4.4-2.5-1.3-6.1-2.8-10.8-4.6-6.3-2.4-10.9-5.2-13.9-8.6s-4.4-7.7-4.4-13.1c0-3.4,1.1-6.8,3.3-9.5,2.4-2.9,5.5-5,9-6.3,4.1-1.6,8.4-2.3,12.7-2.3,3.3,0,6.6.2,9.9.9,2.3.4,4.6,1,6.8,1.7,1.7.6,2.9.9,3.4,1.1v15.3h-7.5l-2.5-9.1c-.5-1-1.8-1.8-3.9-2.5-2.3-.7-4.7-1.1-7.1-1-3.2-.2-6.3.7-8.9,2.5-2.2,1.5-3.5,4-3.4,6.6,0,2.2.5,4.3,1.8,6.1,1.2,1.6,2.7,2.9,4.5,3.9,1.8,1,4.3,2.1,7.4,3.4l2.5,1c3.9,1.5,7.6,3.2,11.2,5.2,2.8,1.6,5.3,3.8,7.2,6.5,2,2.9,3,6.3,2.9,9.8.2,5.7-2.5,11.2-7.1,14.5-4.7,3.6-11.2,5.4-19.4,5.4-4.3,0-8.5-.6-12.6-1.7-3.7-.9-7.3-2-10.8-3.4v-15.8h8l2.2,9.6Z"/>
  <path id="Path_16387" class="st2" d="M286.4,91.2c-5.2-6.5-7.9-15.1-7.9-26-.1-6.5,1.3-13,4.1-18.8,2.5-5.2,6.5-9.6,11.4-12.6,5-3,10.8-4.5,16.7-4.4,7.6,0,13.6,2.1,17.8,6.3s6.5,10.3,6.7,18.2c0,3.8-.2,7.7-.9,11.4h-42.4c.2,8.1,2.1,14.7,5.7,19.6s8.7,7.5,15.4,7.5c3.5,0,7-.6,10.3-1.8,3-.9,5.8-2.4,8.3-4.3l2.3,5.4c-2.4,2.5-5.9,4.6-10.6,6.4-4.5,1.8-9.4,2.7-14.3,2.7-9.9,0-17.5-3.2-22.7-9.7ZM321.7,58.8c.2-1.8.4-3.5.4-5.3,0-5.3-1.2-9.5-3.4-12.6-2.2-3.1-5.6-4.6-10.3-4.6-4.4-.2-8.6,1.8-11.4,5.2-2.9,3.4-4.5,9.2-4.9,17.4h29.6Z"/>
  <path id="Path_16388" class="st2" d="M347.3,93.5l9.2-.7v-52.1l-8.9-2.2v-6.7l17-2.2h.2l2.7,2.2v2.2l-.4,9.6h.4c1.3-2,2.8-3.8,4.4-5.4,2.4-2.4,5.2-4.5,8.3-6.1,3.4-1.8,7.1-2.8,11-2.8,1.4,0,2.8.2,4.1.6v13.8c-.9-.5-1.8-.9-2.8-1.2-1.4-.4-2.8-.6-4.3-.5-6.8,0-13.5,2.2-19,6.3v44.3l15.6,1v5.9h-37.6v-6.1Z"/>
  <path id="Path_16389" class="st2" d="M411,91.2c-5.2-6.5-7.8-15.1-7.9-26-.1-6.5,1.3-13,4.1-18.8,2.5-5.2,6.5-9.6,11.4-12.6,5-3,10.8-4.5,16.7-4.4,7.6,0,13.5,2.1,17.8,6.3,4.2,4.2,6.5,10.3,6.7,18.2.1,3.8-.2,7.7-.8,11.5h-42.4c.2,8.1,2.1,14.7,5.7,19.6s8.7,7.5,15.4,7.5c3.5,0,7-.6,10.3-1.8,3-.9,5.8-2.4,8.3-4.3l2.3,5.4c-2.4,2.5-5.9,4.6-10.6,6.4-4.5,1.8-9.4,2.7-14.3,2.7-9.9,0-17.5-3.3-22.7-9.7ZM446.3,58.8c.2-1.8.4-3.5.4-5.3,0-5.3-1.2-9.5-3.4-12.6-2.2-3.1-5.6-4.6-10.3-4.6-4.4-.2-8.6,1.8-11.4,5.2-2.9,3.4-4.5,9.2-4.9,17.4h29.6Z"/>
  <path id="Path_16390" class="st2" d="M477.8,40.7l-8.9-2.2v-6.7l17.6-2.2h.4l2.6,2.2v8.1c3.4-3,7.3-5.4,11.6-7.1,4.4-2,9.1-3.1,13.9-3.2,5.2,0,9.2,1,12,3,3,2.2,5.1,5.4,6,9.1,1.2,4.1,1.7,9.5,1.7,16.4v34.5l8.6.9v6.2h-29.2v-6l7.6-1v-34.6c0-3.8-.2-7.6-1-11.4-.5-2.4-1.8-4.6-3.7-6.2-1.8-1.4-4.4-2-7.9-2-3.3,0-6.5.8-9.5,2.2-3.2,1.4-6.2,3.1-9,5.2v46.7l8.4,1.1v6h-29.1v-6l7.8-1.1v-51.7Z"/>
  <path id="Path_16391" class="st2" d="M561.4,64c7.7-3.6,17.5-5.6,29.3-5.8v-3.4c.1-3.1-.3-6.2-1.2-9.1-.7-2.1-2.3-3.9-4.3-4.9-2-1-4.9-1.5-8.6-1.5-3.8,0-7.6.5-11.3,1.8-3.4,1.2-6.7,2.7-9.9,4.3l-3.1-6.4c1.8-1.4,3.8-2.6,5.9-3.6,3.2-1.6,6.6-2.9,10-3.9,3.7-1.1,7.5-1.7,11.3-1.7,5.8,0,10.4.8,13.9,2.4,3.3,1.5,6,4.3,7.3,7.7,1.5,3.5,2.2,8.3,2.2,14.2v39.5h7.3v5.4c-1.6.4-3.7.8-6.2,1.2-2.2.4-4.4.6-6.6.6-2.3,0-3.9-.3-4.7-1-.8-.7-1.2-2.2-1.2-4.6v-4.1c-2.7,2.6-5.7,4.9-9.1,6.8-3.7,2.1-7.9,3.1-12.1,3.1-5.9,0-10.8-1.7-14.7-5.1-3.9-3.4-5.9-8.3-5.8-14.7,0-7.7,3.9-13.4,11.6-17ZM583,90.5c2.7-1.3,5.3-2.8,7.6-4.7v-21.2c-8.9,0-15.7,1.4-20.2,4.1-4.6,2.8-6.8,6.3-6.8,10.8s1.1,7.7,3.3,9.8c2.4,2.2,5.6,3.3,8.8,3.1,2.6-.1,5.1-.8,7.4-2h0Z"/>
  <path id="Path_16392" class="st2" d="M629.1,89.7c.8,1.2,2.6,2.3,5.2,3.3,2.7,1,5.6,1.5,8.4,1.5,4.7,0,8.1-.9,10.3-2.7,2.2-1.8,3.5-4.6,3.3-7.5,0-2.1-.7-4.2-2.1-5.8-1.6-1.8-3.6-3.3-5.9-4.4-2.5-1.3-6.1-2.8-10.8-4.6-6.3-2.4-10.9-5.2-13.9-8.6-2.9-3.3-4.4-7.7-4.4-13.1,0-3.4,1.1-6.8,3.3-9.5,2.4-2.9,5.5-5,9-6.3,4.1-1.6,8.4-2.3,12.7-2.3,3.3,0,6.6.2,9.9.9,2.3.4,4.6,1,6.8,1.7,1.7.6,2.9.9,3.4,1.1v15.3h-7.5l-2.5-9.1c-.5-1-1.8-1.8-3.9-2.5-2.3-.7-4.7-1.1-7.1-1-3.2-.2-6.3.7-8.9,2.5-2.2,1.5-3.5,4-3.4,6.6,0,2.2.5,4.3,1.8,6.1,1.2,1.6,2.7,2.9,4.5,3.9,1.8,1,4.3,2.1,7.4,3.4l2.5,1c3.9,1.5,7.6,3.2,11.2,5.2,2.8,1.6,5.3,3.8,7.2,6.5,2,2.9,3,6.3,2.9,9.8.2,5.7-2.5,11.2-7.1,14.5-4.7,3.6-11.2,5.4-19.4,5.4-4.3,0-8.5-.6-12.6-1.7-3.7-.9-7.3-2-10.8-3.4v-15.8h8l2.2,9.6Z"/>
  <path id="Path_16393" class="st0" d="M683.2,80.5c-.2-2-1.9-3.5-3.9-3.3-2,.2-3.5,1.9-3.3,3.9.5,4.6-.3,9.2-2.1,13.4-.5,1-1,2-1.7,2.9l-.4.5c-.2.3-.4.6-.6.8l-1.1,1.3c-1.6,1.7-3.5,3.2-5.5,4.4-2.1,1.2-4.3,2.2-6.6,2.9-2.4.7-4.8,1.2-7.3,1.4-4.7.5-9.9-.6-15.1-1.9-.3,0-.5.8-.6,1.1,0,.3,0,.6.4.7,4.9,1.8,10.1,2.8,15.4,2.8h.4c2.6,0,5.1-.3,7.7-.8,2.7-.6,5.3-1.4,7.7-2.6,2.5-1.2,4.9-2.7,7-4.6l1.5-1.4c.3-.3.6-.7,1-1,.2-.2.3-.4.5-.5.9-1.1,1.8-2.3,2.5-3.5,2.9-5,4.4-10.6,4.3-16.4h0c0-.1,0-.2,0-.3Z"/>
  <path id="Path_16394" class="st1" d="M137.7,65.2c-.5-.1-1-.2-1.5-.3-6.9-1.4-13.9-1.5-20.8-.3-3.2.4-6.4,1.2-9.4,2.2-3.1,1.2-5.9,3-8.4,5.1-2.6,2.2-4.6,5.1-5.6,8.4-.3,1.5-.3,3,0,4.5.1,2.9,1.1,5.6,2.9,7.9,2.1,2.7,4.2,5.3,7.7,7.1,1.9,1,4.9,1.6,7.1,2.3,5,1.4,10.1,2.1,15.3,2,4.1,0,16.7-3,18.9-3.9,1.8-.7,3.5-1.5,5.2-2.5,3.3-1.7,6.2-4.1,8.6-7"/>
  <path id="Path_16395" class="st2" d="M191.4,31.7c-1-6.9-5.7-16.9-9.7-22.1-2.4-3.1-5.3-5.8-8.6-8-1.4-.8-2.9-1.3-4.4-1.6-.2,0-.3.3-.3.6,0,.6.5,1.3,2.3,3.4,1.1,1.2,2.2,2.5,3.1,3.9l1.4,2.6v.2c.1,0,.6.8.6.8.5.9.9,1.8,1.4,2.7.8,1.8,1.6,3.7,2.2,5.5,1.2,3.8,2.1,7.7,2.5,11.7.9,8.2,1.4,15.6.4,20.7-.8,4-5.4,15.4-5.9,15.3,0,.2-3.3,4.7-3.4,4.8l-2.9,4.2c-3.2,4-6.8,7.6-10.8,10.6-.8.6-1.9.4-2.5-.4-.2-.2-.3-.5-.3-.7-.2-1.3-.6-2.7-1-3.9-1-2.9-2.4-5.7-4.1-8.3-2.7-4.2-6.3-7.8-10.6-10.4-4-2.4-8.5-3.9-13.2-4.4-6-.7-10.6-.5-14.7.7-10.7,2.9-15.5,7.5-18.6,11.1-6.3,7.6-9,13.9-8.3,19.2.5,3.7,2.6,7,6.4,9.6,3.1,2,6.5,3.5,10.1,4.5.6.2,1.1.4,1.7.7.9.4,1.8.8,2.7,1,.6.1,1.3.4,2,.6,1.1.4,2.2.7,3.4.9,4,.6,7.9.9,11.9.9,2.5,0,5.1-.3,7.6-.7.9-.1,1.8-.3,2.7-.4,3.2-.5,6.4-1.2,9.6-2.3-.5,1-.9,2-1.4,3-1.3,2.9-2.7,5.7-4.3,8.4-3.1,5.2-6.6,10.6-11.3,14.7-4.5,3.9-9.6,6.3-14.6,8.5l-1.3.6-2.6,1.2c-3.5,1.5-7,3.2-10.6,3.8-2.9.5-5.8.8-8.7.9h-1.8c-.5,0-1,0-1.5,0-1.4-.1-2.9-.3-4.4-.5-.6,0-11.1-2.6-15.3-4.5-6.6-3-13-7.9-19.4-15-.7-.7-1.4-1.4-2.1-2.1-.9-.8-1.8-1.7-2.6-2.6-.8-1.1-1.7-2.3-2.7-3.6-2.5-3.5-4.5-7.3-5.8-11.4-1.8-4.6-2.8-9.5-2.8-14.4v-4.5c0-.8,0-1.7,0-2.6-.1-2.1-.1-4.2,0-6.4.1-.9.2-1.8.3-2.7.8-6.9,1.8-14.8,6.1-21.9,1-1.5,2.1-2.8,3.5-3.9.8-.8,1.7-1.7,2.6-2.6,4-4.8,8.7-8.9,13.9-12.2.2-.1,1.2-.7,6.1-3.1h.2c1.9-.9,3.9-1.5,6-1.8,1.3-.2,2.7-.5,4-.9,2.5-.7,5.1-1.1,7.7-1.2,1-.1,2.1-.2,3.2-.4s2.1-.3,3.3-.5c2.5-.5,5-.7,7.6-.8h.8c.5,0,1,0,1.5,0,.9,0,1.8.1,2.7.2,1.8.2,3.7.4,5.5.6,13.3,2,26.1,7,37.2,14.6,9.3,6.2,17.3,14.2,23.6,23.5l2.5,3.8,1.1,1.3,4.5-6.2,1.7-3.7-5.8-7.1c-5.9-6.8-12.6-12.9-20.1-17.9-13.3-9.1-28.7-14.8-44.7-16.5-19.6-2.1-36.3.5-49.7,7.6-1,.5-2.1,1-3.3,1.6-2.3.9-4.4,2.1-6.4,3.5-8.8,6.6-15.9,16.3-21.1,28.8-3.2,7.7-4.5,16.8-4.1,28.6v.2c.2,6.4.4,12.5,2.6,18.8.3.7.5,1.5.8,2.3,1,3.6,2.5,7.1,4.3,10.4,1.8,2.7,3.8,5.2,6.1,7.4.9,1,1.9,2,2.8,3,2.8,3.4,6,6.4,9.5,9.2,1,.7,1.9,1.5,2.9,2.3,2,1.7,4.1,3.2,6.4,4.6,4.7,2.6,10,4,15.1,5.2,3.9.8,8,1.2,12,1.2h1.3c.9,0,1.7.2,2.7.3,1.3.2,2.6.3,3.9.3,4.3-.2,8.6-.9,12.8-1.9h.2c.6-.1,1.1-.2,1.7-.4.8-.2,1.7-.4,2.5-.5,1.1-.2,2.2-.5,3.4-.8.8-.2,1.6-.5,2.4-.8,2.1-.9,4.1-1.9,6-3,.7-.4,1.4-.8,2.1-1.2l1.7-.9c2.5-1.3,4.9-2.7,7.2-4.4,7.3-5.8,13.4-12.9,17.9-21.1,3.2-5.6,5.5-11.7,7-18,0-.4.2-.8.2-1.1,0,0,0-.2,0-.3.3-.2.7-.4,1.1-.6s.7-.4,1.1-.5c1.7-.9,3.4-2,5-3.1,3.2-2.2,6.2-4.6,9-7.2,1-.9,2-2,3-3.1l5.6-7c.2-.2.3-.4.4-.6l2-2.7v-.2c.5-.7,1-1.5,1.4-2.3.9-1.8,1.8-3.6,2.6-5.4,1.5-3.7,2.7-7.4,3.6-11.3,1.7-8,1.3-15.9,0-24ZM146.2,93.9c-.6.7-1.3,1.2-2.1,1.5-2.7,1.3-5.6,2.1-8.6,2.4l-1.6.3c-1.1.2-2.5.5-3,.5-1.3.2-2.7.3-4,.4-.6,0-1.2,0-1.8,0h-1.2c-2.7-.1-5.3-.4-8-.8-5-.8-9.8-2.2-14.4-4.3-3.7-1.8-5.5-3.3-6.1-5.1-.6-1.9,0-4.6,2.4-9,2.4-4.6,5.4-9,15.4-11.6.3,0,.7-.2,1.1-.3.7-.2,1.3-.4,2-.5,1.4-.4,2.8-.7,4.2-.9.6,0,1.1-.1,1.7-.1h.3c1.1,0,2.2.2,3.2.4,4,.8,7.8,2.6,11,5.2,6.5,5.3,10.1,13.4,9.6,21.8h0Z"/>
  <path id="Path_16396" class="st2" d="M189.8,93c-.3-1.4-.8-3.2-1.3-5l-1.4-5.3-1.8-4.7-1.9,2.8-2.6,3.2-3,3.3.9,2.5c3.7,13.8,3.7,29.7,0,45.1s-10.7,29.6-19.8,39.7c-5,5.5-11.1,9.5-17.5,13.7l-.8.5c-3.7,2.4-8.5,4.2-13.2,5.9h0c-1.5.5-3,1.1-4.5,1.7-1.1.4-2.2.9-3.3,1.3h-.2c-5.3,2.2-10.3,4.3-16,5.1-2.6.3-5.2.4-7.9.3h-5.1c-.9,0-1.9,0-2.9-.2-1.8-.1-3.7-.3-5.6-.6-9.9-1.2-19.5-4.1-28.4-8.7-4.6-2.4-9-5.1-13.2-8.2-2.2-1.6-4.3-3.4-6.5-5.4-.7-.8-1.3-1.6-1.9-2.4-.6-.9-1.3-1.7-2-2.5-10.5-10-19.1-24.8-23.6-40.6-1-3.6-1.8-9.8-2.3-14.3v-.4c-.1-.6-.2-1.2-.3-1.7h0c-1-4.3-1.4-4.7-2.2-5h0c-.3-.1-.6,0-.8.1-.7.5-.7,1.7-.7,4.6s-.9,13.7,2,26c1.5,6.8,4,13.4,7.5,19.5,6.2,10.5,14.3,22.4,26.4,30.8,3.5,2.3,7.2,4.4,11,6.3l1.4.7c.8.4,1.5.8,2.3,1.2,2.6,1.5,5.2,2.7,8,3.8,5.4,1.9,11,2.9,16.5,3.8,3.6.6,7.2,1,10.8,1.2.8,0,1.5.2,2.3.3,1,.2,2.1.3,3.1.4h4.8c6.7-.2,13.3-1.1,19.8-2.7,1.4-.3,2.9-.7,4.3-1,11-2.8,21.4-7.7,30.7-14.3,12-8.7,20.7-17.5,26.6-26.8,5.9-9.2,10.1-21,13-36.1,2.4-12.6,2.2-25.6-.6-38.1h0Z"/>
  <path id="Path_17616" class="st2" d="M232.3,139.2v19.8c0,3.3-.8,5.8-2.4,7.5-1.6,1.7-4,2.5-7.1,2.5-1.3,0-2.7-.2-4-.5-1.2-.3-2.4-.8-3.5-1.4l1.1-2.5c1.9,1,4.1,1.5,6.2,1.5,4.3,0,6.4-2.5,6.4-7.6v-1.9c-.6,1.1-1.4,1.9-2.5,2.5-1.2.6-2.5.9-3.8.9-2.5.1-4.9-1-6.4-2.9-1.6-1.9-2.3-4.6-2.3-8s.8-5.8,2.3-7.6c1.6-1.8,3.9-2.9,6.3-2.7,1.3,0,2.6.3,3.8.9,1.1.6,2,1.4,2.6,2.5h0l.4-3h2.9ZM228.9,148.1c.1-1.8-.4-3.5-1.5-4.9-1-1.2-2.5-1.8-4.1-1.8-1.7,0-3.2.7-4.2,2.1-1.1,1.7-1.7,3.7-1.5,5.7-.1,2.1.4,4.1,1.5,5.9,1,1.4,2.5,2.2,4.2,2.1,1.5,0,3-.5,4.1-1.6,1-1.2,1.6-2.8,1.5-4.4v-3.1ZM243.4,160.1c-1.8,0-3.6-.6-5-1.8-1.3-1.2-2-2.8-1.9-4.5,0-1.9.8-3.7,2.3-4.8,2-1.2,4.3-1.8,6.6-1.7h4.2v-1.1c0-1.3-.3-2.5-1.2-3.5-1-.9-2.2-1.3-3.5-1.2-1.2,0-2.3.2-3.4.8-1,.5-1.9,1.3-2.6,2.2l-1.8-2.1c.9-1.2,2.1-2.1,3.4-2.7,1.4-.6,2.9-.9,4.5-.9,2.1-.1,4.3.5,5.9,1.9,1.5,1.4,2.2,3.4,2.1,5.4v9.6c0,1.3.2,2.7.5,4h-3c-.3-.9-.5-1.9-.5-2.9h0c-.7,1-1.7,1.9-2.8,2.4-1.2.6-2.4.9-3.7.8ZM243.9,157.4c1,0,2-.2,2.9-.6.8-.4,1.5-.9,2.1-1.6.5-.6.8-1.4.8-2.3v-3h-4.3c-1.4,0-2.8.3-4,1-.9.7-1.5,1.8-1.4,2.9,0,1,.4,1.9,1.1,2.6.8.7,1.9,1,2.9,1ZM258.7,144.2c0-2.3,0-4-.1-5h3.2c.1,1.1.2,2.3.2,3.6v.4h.1c.5-1.3,1.3-2.5,2.5-3.3,1.2-.8,2.6-1.2,4.1-1.1.4,0,.8,0,1.2.1v2.9c-.5,0-1-.1-1.4-.1-1.1,0-2.2.4-3.2,1-1,.7-1.8,1.7-2.3,2.8-.6,1.2-.8,2.6-.8,3.9v10.2h-3.5v-15.5ZM278.8,160.1c-1.8,0-3.6-.6-5-1.8-1.3-1.2-2-2.8-1.9-4.5,0-1.9.8-3.7,2.3-4.8,2-1.2,4.3-1.8,6.6-1.7h4.2v-1.1c0-1.3-.3-2.5-1.2-3.5-1-.9-2.2-1.3-3.5-1.2-1.2,0-2.3.2-3.4.8-1,.5-1.9,1.3-2.6,2.2l-1.8-2.1c.9-1.2,2.1-2.1,3.4-2.7,1.4-.6,2.9-.9,4.5-.9,2.1-.1,4.3.5,5.9,1.9,1.5,1.4,2.2,3.4,2.1,5.4v9.6c0,1.3.2,2.7.5,4h-3c-.3-.9-.5-1.9-.5-2.9h0c-.7,1-1.7,1.9-2.8,2.4-1.2.6-2.4.9-3.7.8ZM279.3,157.4c1,0,2-.2,2.9-.6.8-.4,1.5-.9,2.1-1.6.5-.6.8-1.4.8-2.3v-3h-4.3c-1.4,0-2.8.3-4,1-.9.7-1.5,1.8-1.4,2.9,0,1,.4,1.9,1.1,2.6.8.7,1.9,1,2.9,1ZM293.8,144.4c0-1.7,0-3.4-.2-5.2h3.2c.1,1.2.2,2.4.2,3.6h.1c.6-1.3,1.6-2.3,2.8-3,1.3-.7,2.7-1.1,4.2-1.1,2.1-.1,4.1.7,5.4,2.3,1.2,1.6,1.8,3.9,1.8,7v11.6h-3.5v-11.6c.1-1.7-.3-3.4-1.1-4.9-.8-1.1-2-1.7-3.4-1.6-1.1,0-2.2.3-3.1.9-.9.6-1.7,1.5-2.2,2.5-.5,1.1-.8,2.3-.8,3.5v11.2h-3.5v-15.3ZM323.8,160.1c-1.6,0-3.2-.6-4.3-1.7-1.1-1.4-1.7-3.1-1.6-4.8v-11.6h-3.7v-2.7h3.7v-5.5l3.3-1h.2v6.5h5.8v2.7h-5.8v11.3c0,1.1.2,2.2.8,3.1.6.7,1.5,1.1,2.4,1,1,0,2-.1,2.9-.5l.2,2.6c-1.3.5-2.6.7-4,.7ZM334.3,135.6c-.7,0-1.3-.2-1.8-.6-.4-.4-.7-1.1-.7-1.7,0-.6.2-1.3.7-1.7.5-.4,1.1-.7,1.8-.6.7,0,1.3.2,1.8.6.5.4.7,1.1.7,1.7,0,.6-.2,1.2-.7,1.7-.5.4-1.2.7-1.8.6ZM332.6,139.2h3.5v20.5h-3.5v-20.5ZM347.9,160.1c-1.8,0-3.6-.6-5-1.8-1.3-1.2-2-2.8-1.9-4.5,0-1.9.8-3.7,2.3-4.8,2-1.2,4.3-1.8,6.6-1.7h4.2v-1.1c0-1.3-.3-2.5-1.2-3.5-1-.9-2.2-1.3-3.5-1.2-1.2,0-2.3.2-3.4.8-1,.5-1.9,1.3-2.6,2.2l-1.8-2.1c.9-1.2,2.1-2.1,3.4-2.7,1.4-.6,2.9-.9,4.5-.9,2.1-.1,4.3.5,5.9,1.9,1.5,1.4,2.2,3.4,2.1,5.4v9.6c0,1.3.2,2.7.5,4h-3c-.3-.9-.5-1.9-.5-2.9h0c-.7,1-1.7,1.9-2.8,2.4-1.2.6-2.4.9-3.7.8ZM348.4,157.4c1,0,2-.2,2.9-.6.8-.4,1.5-.9,2.1-1.6.5-.6.8-1.4.8-2.3v-3h-4.3c-1.4,0-2.8.3-4,1-.9.7-1.4,1.8-1.4,2.9,0,1,.4,1.9,1.1,2.6.8.7,1.9,1,2.9,1ZM380.4,160.1c-2.5,0-4.8-1-6.3-3-1.5-2-2.3-4.7-2.3-8.1,0-1.9.3-3.7,1.1-5.4.6-1.5,1.7-2.7,3-3.6,1.4-.9,3-1.3,4.6-1.3,2.4,0,4.7,1.1,6.1,3.2h0v-12.7h3.4v25.3c0,2.5,0,4.3.1,5.2h-3.2c0-.7,0-1.7,0-3.2h0c-.6,1.1-1.6,2-2.7,2.6-1.1.7-2.4,1-3.7,1ZM380.9,157.3c1.5,0,3.1-.5,4.2-1.6,1.1-1.1,1.6-2.7,1.5-4.2v-3.7c0-1.7-.5-3.3-1.6-4.6-1.1-1.2-2.6-1.8-4.1-1.7-1.6,0-3.2.7-4.1,2-1.1,1.7-1.6,3.7-1.5,5.7-.1,2.1.4,4.2,1.5,6,.9,1.4,2.5,2.2,4.1,2.2ZM412.4,150.8h-14.8c0,1.7.7,3.4,1.8,4.7,1.1,1.1,2.7,1.7,4.3,1.6,2.3,0,4.5-1,5.9-2.9l2,1.9c-.8,1.3-1.9,2.3-3.3,2.9-1.4.7-3,1.1-4.7,1-2.6.2-5.2-.9-7.1-2.8-1.7-1.9-2.5-4.5-2.5-7.8,0-3.3.8-6,2.5-7.9,1.8-1.9,4.3-3,6.9-2.9,2.5-.1,4.9.9,6.5,2.8,1.6,1.9,2.3,4.5,2.3,7.9v1.4ZM409.2,147.9c0-1.7-.5-3.3-1.5-4.6-1.1-1.2-2.7-1.8-4.2-1.7-1.5,0-3,.6-4,1.7-1.1,1.4-1.7,3.1-1.7,4.9h11.6v-.3ZM433.8,160.1c-2.5,0-4.8-1-6.3-3-1.5-2-2.3-4.7-2.3-8.1,0-1.9.3-3.7,1.1-5.4.6-1.5,1.7-2.7,3-3.6,1.4-.9,3-1.3,4.6-1.3,2.4,0,4.7,1.1,6.1,3.2h0v-12.7h3.4v25.3c0,2.5,0,4.3.1,5.2h-3.2c0-.7,0-1.7,0-3.2h0c-.6,1.1-1.6,2-2.7,2.6-1.1.7-2.4,1-3.7,1ZM434.3,157.3c1.5,0,3.1-.5,4.2-1.6,1.1-1.1,1.6-2.7,1.5-4.2v-3.7c0-1.7-.5-3.3-1.6-4.6-1.1-1.2-2.6-1.8-4.1-1.7-1.6,0-3.2.7-4.1,2-1.1,1.7-1.6,3.7-1.5,5.7-.1,2.1.4,4.2,1.5,6,.9,1.4,2.5,2.2,4.1,2.2h0ZM451,135.6c-.7,0-1.3-.2-1.8-.6-.4-.4-.7-1.1-.7-1.7,0-.6.2-1.3.7-1.7.5-.4,1.1-.7,1.8-.6.7,0,1.3.2,1.8.6.5.4.7,1.1.7,1.7,0,.6-.2,1.2-.7,1.7-.5.4-1.2.7-1.8.6h0ZM449.3,139.2h3.5v20.5h-3.5v-20.5ZM458.8,144.2c0-2.3,0-4-.1-5h3.2c.1,1.1.2,2.3.2,3.6v.4h.1c.5-1.3,1.3-2.5,2.5-3.3,1.2-.8,2.6-1.2,4.1-1.1.4,0,.8,0,1.2.1v2.9c-.5,0-1-.1-1.4-.1-1.1,0-2.2.4-3.2,1-1,.7-1.8,1.7-2.3,2.8-.6,1.2-.8,2.6-.8,3.9v10.2h-3.5v-15.5ZM490.2,150.8h-14.8c0,1.7.7,3.4,1.8,4.7,1.1,1.1,2.7,1.7,4.3,1.6,2.3,0,4.5-1,5.9-2.9l2,1.9c-.8,1.3-1.9,2.3-3.3,2.9-1.4.7-3,1.1-4.6,1-2.6.2-5.2-.9-7.1-2.8-1.7-1.9-2.5-4.5-2.5-7.8s.8-6,2.5-7.9c1.8-1.9,4.3-3,6.9-2.9,2.5-.1,4.9.9,6.5,2.8,1.6,1.9,2.3,4.5,2.3,7.9v1.4ZM487,147.9c0-1.7-.5-3.3-1.5-4.6-1.1-1.2-2.7-1.8-4.2-1.7-1.5,0-3,.6-4,1.7-1.1,1.4-1.7,3.1-1.7,4.9h11.6v-.3ZM496.7,135.6c-.7,0-1.3-.2-1.8-.6-.4-.4-.7-1.1-.7-1.7,0-.6.2-1.3.7-1.7.5-.4,1.1-.7,1.8-.6.7,0,1.3.2,1.8.6.5.4.7,1.1.7,1.7,0,.6-.2,1.2-.7,1.7-.5.4-1.2.7-1.8.6h0ZM494.9,139.2h3.5v20.5h-3.5v-20.5ZM511.6,160.1c-1.6,0-3.2-.6-4.3-1.7-1.1-1.4-1.7-3.1-1.6-4.8v-11.6h-3.7v-2.7h3.7v-5.5l3.3-1h.2v6.5h5.8v2.7h-5.8v11.3c0,1.1.2,2.2.8,3.1.6.7,1.5,1.1,2.4,1,1,0,2-.1,2.9-.5l.2,2.6c-1.3.5-2.6.7-4,.7ZM526.1,160.1c-1.8,0-3.7-.4-5.3-1.3-1.5-.9-2.7-2.2-3.4-3.7-.8-1.8-1.3-3.7-1.2-5.7,0-2,.4-3.9,1.2-5.7.8-1.6,2-2.8,3.4-3.7,1.6-.9,3.4-1.3,5.3-1.3,2.7-.1,5.4.9,7.3,2.9,1.9,2.1,2.8,4.9,2.7,7.8.2,2.8-.8,5.6-2.7,7.8-1.9,2-4.6,3-7.3,2.9h0ZM526.1,157.5c1.8,0,3.6-.7,4.8-2.1,1.2-1.7,1.8-3.8,1.7-5.9.1-2.1-.5-4.2-1.7-5.9-1.2-1.4-2.9-2.2-4.8-2.1-1.8,0-3.6.7-4.7,2.1-1.2,1.7-1.8,3.8-1.7,5.9-.1,2.1.5,4.2,1.7,5.9,1.1,1.4,2.9,2.2,4.7,2.1h0ZM545.7,160.1c-1.4,0-2.9-.3-4.2-.9-1.1-.5-2.1-1.4-2.6-2.5l2.3-1.6c.5.7,1.1,1.3,1.9,1.7.8.4,1.7.6,2.7.6,1,0,2.1-.3,2.9-1,.7-.6,1.1-1.6,1.1-2.5,0-.8-.3-1.5-.9-2.1-1-.7-2-1.3-3.2-1.7-1.8-.5-3.5-1.5-4.9-2.7-.9-.9-1.4-2.1-1.4-3.4,0-1.5.7-2.9,1.9-3.8,1.5-1,3.2-1.5,5-1.5,1.3,0,2.5.3,3.7.9,1.1.5,2,1.4,2.6,2.4l-2.1,1.6c-.9-1.4-2.5-2.2-4.1-2.1-.9,0-1.7.2-2.5.7-.6.4-1,1.1-1,1.8,0,.7.4,1.4,1,1.9,1.1.7,2.4,1.3,3.6,1.8,1.7.5,3.2,1.4,4.5,2.6.9,1,1.4,2.3,1.3,3.6,0,1.8-.7,3.5-2,4.6-1.5,1.2-3.5,1.8-5.4,1.7ZM567.1,144.4c0-1.7,0-3.5-.2-5.2h3.2c0,1,.1,2.1.1,3.2h0c.6-1.1,1.5-2,2.7-2.6,1.2-.7,2.5-1,3.9-1,2.4-.1,4.7.9,6.2,2.8,1.5,1.9,2.3,4.5,2.3,7.8,0,1.9-.3,3.9-1.1,5.6-.6,1.5-1.7,2.8-3,3.7-1.3.9-2.9,1.3-4.5,1.3-1.3,0-2.6-.3-3.7-.8-1-.5-1.8-1.3-2.3-2.3h-.1v12.6h-3.5v-25.3ZM576.3,157.5c1.7,0,3.2-.8,4.1-2.2,1.1-1.8,1.6-3.8,1.5-5.9.1-2-.4-4-1.5-5.7-1-1.3-2.5-2.1-4.1-2-1.5,0-3,.5-4.1,1.6-1.1,1.1-1.7,2.6-1.6,4.2v3.7c0,1.7.5,3.3,1.6,4.6,1,1.2,2.5,1.8,4.1,1.7h0ZM595.4,160.1c-1.8,0-3.6-.6-5-1.8-1.3-1.2-2-2.8-1.9-4.5,0-1.9.8-3.7,2.3-4.8,2-1.2,4.3-1.8,6.6-1.7h4.2v-1.1c0-1.3-.3-2.5-1.2-3.5-1-.9-2.2-1.3-3.5-1.2-1.2,0-2.3.2-3.4.8-1,.5-1.9,1.3-2.6,2.2l-1.8-2.1c.9-1.2,2.1-2.1,3.4-2.7,1.4-.6,2.9-.9,4.5-.9,2.1-.1,4.3.5,5.9,1.9,1.5,1.4,2.2,3.4,2.1,5.4v9.6c0,1.3.2,2.7.5,4h-3c-.3-.9-.5-1.9-.5-2.9h0c-.7,1-1.7,1.9-2.8,2.4-1.2.6-2.4.9-3.7.8ZM596,157.4c1,0,2-.2,2.9-.6.8-.4,1.5-.9,2.1-1.6.5-.6.8-1.4.8-2.3v-3h-4.3c-1.4,0-2.8.3-4,1-.9.7-1.5,1.8-1.4,2.9,0,1,.4,1.9,1.1,2.6.8.7,1.9,1,2.9,1ZM610.7,144.2c0-2.3,0-4-.1-5h3.2c.1,1.1.2,2.3.2,3.6v.4h.1c.5-1.3,1.3-2.5,2.5-3.3,1.2-.8,2.6-1.2,4.1-1.1.4,0,.8,0,1.2.1v2.9c-.5,0-1-.1-1.4-.1-1.1,0-2.2.4-3.2,1-1,.7-1.8,1.7-2.3,2.8-.6,1.2-.8,2.6-.8,3.9v10.2h-3.5v-15.5ZM630.9,160.1c-1.8,0-3.6-.6-5-1.8-1.3-1.2-2-2.8-1.9-4.5,0-1.9.8-3.7,2.3-4.8,2-1.2,4.3-1.8,6.6-1.7h4.2v-1.1c0-1.3-.3-2.5-1.2-3.5-1-.9-2.2-1.3-3.5-1.2-1.2,0-2.3.2-3.4.8-1,.5-1.9,1.3-2.6,2.2l-1.8-2.1c.9-1.2,2.1-2.1,3.4-2.7,1.4-.6,2.9-.9,4.5-.9,2.1-.1,4.3.5,5.9,1.9,1.5,1.4,2.2,3.4,2.1,5.4v9.6c0,1.3.2,2.7.5,4h-3c-.3-.9-.5-1.9-.5-2.9h0c-.7,1-1.7,1.9-2.8,2.4-1.2.6-2.4.9-3.7.8ZM631.4,157.4c1,0,2-.2,2.9-.6.8-.4,1.5-.9,2.1-1.6.5-.6.8-1.4.8-2.3v-3h-4.3c-1.4,0-2.8.3-4,1-.9.7-1.5,1.8-1.4,2.9,0,1,.4,1.9,1.1,2.6.8.7,1.9,1,2.9,1ZM215.2,188.4c0-2.1,0-3.8-.2-5.2h3.1c.1,1.1.2,2.3.2,3.6h.1c.5-1.2,1.4-2.3,2.6-3,1.2-.7,2.5-1.1,3.9-1.1,1.3,0,2.6.4,3.7,1.1,1,.7,1.8,1.8,2.1,3.1.6-1.3,1.5-2.3,2.6-3.1,1.2-.8,2.6-1.1,4-1.1,2-.1,3.9.7,5.3,2.2,1.4,1.7,2,3.9,1.9,6.1v12.7h-3.4v-12.4c0-1.5-.3-3-1.2-4.3-.8-1-2.1-1.6-3.4-1.5-1.4,0-2.7.6-3.6,1.6-1,1.2-1.5,2.6-1.4,4.2v12.3h-3.4v-12.2c.1-1.6-.3-3.1-1.1-4.4-.8-1-2-1.5-3.2-1.5-.9,0-1.8.3-2.5.8-.8.6-1.5,1.3-1.9,2.2-.5.9-.7,1.9-.7,2.9v12.2h-3.4v-15.3ZM266.8,194.8h-14.8c0,1.7.7,3.4,1.8,4.7,1.1,1.1,2.7,1.7,4.3,1.6,2.3,0,4.5-1,5.9-2.9l2,1.9c-.8,1.3-1.9,2.3-3.3,2.9-1.4.7-3,1.1-4.7,1-2.6.2-5.2-.9-7.1-2.8-1.7-1.9-2.5-4.5-2.5-7.8s.8-6,2.5-7.9c1.8-1.9,4.3-3,6.9-2.9,2.5-.1,4.9.9,6.5,2.8,1.6,1.9,2.3,4.5,2.3,7.9v1.3ZM263.6,191.9c0-1.7-.5-3.3-1.5-4.6-1.1-1.2-2.7-1.8-4.2-1.7-1.5,0-3,.6-4,1.7-1.1,1.4-1.7,3.1-1.7,4.9h11.6v-.3ZM270.8,188.4c0-1.7,0-3.4-.2-5.2h3.2c.1,1.2.2,2.4.2,3.6h.1c.6-1.3,1.6-2.3,2.8-3,1.3-.7,2.7-1.1,4.2-1.1,2.1-.1,4.1.7,5.4,2.3,1.2,1.6,1.8,3.9,1.8,7v11.6h-3.5v-11.6c.1-1.7-.3-3.4-1.1-4.9-.8-1.1-2-1.7-3.4-1.6-1.1,0-2.2.3-3.1.9-.9.6-1.7,1.5-2.2,2.5-.5,1.1-.8,2.3-.8,3.5v11.2h-3.5v-15.3ZM295.8,179.6c-.7,0-1.3-.2-1.8-.6-.4-.4-.7-1.1-.7-1.7,0-.6.2-1.3.7-1.7.5-.4,1.1-.7,1.8-.6.7,0,1.3.2,1.8.6.5.4.7,1.1.7,1.7,0,.6-.2,1.2-.7,1.7-.5.4-1.2.7-1.8.6h0ZM294.1,183.2h3.5v20.5h-3.5v-20.5ZM303.3,188.4c0-1.7,0-3.4-.2-5.2h3.2c.1,1.2.2,2.4.2,3.6h.1c.6-1.3,1.6-2.3,2.8-3,1.3-.7,2.7-1.1,4.2-1.1,2.1-.1,4.1.7,5.4,2.3,1.2,1.6,1.8,3.9,1.8,7v11.6h-3.5v-11.6c.1-1.7-.3-3.4-1.1-4.9-.8-1.1-2-1.7-3.4-1.6-1.1,0-2.2.3-3.1.9-.9.6-1.7,1.5-2.2,2.5-.5,1.1-.8,2.3-.8,3.5v11.2h-3.5v-15.3ZM331.9,204.1c-1.8,0-3.6-.6-5-1.8-1.3-1.2-2-2.8-1.9-4.5,0-1.9.8-3.7,2.3-4.8,2-1.2,4.3-1.8,6.6-1.7h4.2v-1.1c0-1.3-.3-2.5-1.2-3.5-1-.9-2.2-1.3-3.5-1.2-1.2,0-2.3.2-3.4.8-1,.5-1.9,1.3-2.6,2.2l-1.8-2.1c.9-1.2,2.1-2.1,3.4-2.7,1.4-.6,2.9-.9,4.5-.9,2.1-.1,4.3.5,5.9,1.9,1.5,1.4,2.2,3.4,2.1,5.4v9.6c0,1.3.2,2.7.5,4h-3c-.3-.9-.5-1.9-.5-2.9h0c-.7,1-1.7,1.9-2.8,2.4-1.2.6-2.4.9-3.7.8ZM332.4,201.4c1,0,2-.2,2.9-.6.8-.4,1.5-.9,2.1-1.6.5-.6.8-1.4.8-2.3v-3h-4.3c-1.4,0-2.8.3-4,1-.9.7-1.4,1.8-1.4,2.9,0,1,.4,1.9,1.1,2.6.8.7,1.9,1,2.9,1ZM352.6,204.1c-1.4,0-2.9-.3-4.2-.9-1.1-.5-2.1-1.4-2.6-2.5l2.3-1.6c.5.7,1.1,1.3,1.9,1.7.8.4,1.7.6,2.7.6,1,0,2.1-.3,2.9-1,.7-.6,1.1-1.6,1.1-2.5,0-.8-.3-1.5-.9-2-1-.7-2-1.3-3.2-1.7-1.8-.5-3.5-1.5-4.9-2.7-1.9-1.9-1.9-5,0-6.9.1-.1.3-.3.4-.4,1.5-1,3.2-1.5,5-1.5,1.3,0,2.5.3,3.7.9,1.1.5,2,1.4,2.6,2.4l-2.1,1.6c-.9-1.4-2.5-2.2-4.1-2.1-.9,0-1.7.2-2.5.7-.6.4-1,1.1-1,1.8,0,.7.4,1.4,1,1.9,1.1.7,2.4,1.3,3.6,1.8,1.7.5,3.2,1.4,4.5,2.6.9,1,1.4,2.3,1.3,3.6,0,1.8-.7,3.5-2.1,4.6-1.5,1.2-3.5,1.8-5.4,1.7ZM391.2,194.8h-14.8c0,1.7.7,3.4,1.8,4.7,1.1,1.1,2.7,1.7,4.3,1.6,2.3,0,4.5-1,5.9-2.9l2,1.9c-.8,1.3-1.9,2.3-3.3,2.9-1.4.7-3,1.1-4.7,1-2.6.2-5.2-.9-7.1-2.8-1.7-1.9-2.5-4.5-2.5-7.8s.8-6,2.5-7.9c1.8-1.9,4.3-3,6.9-2.9,2.5-.1,4.9.9,6.5,2.8,1.6,1.9,2.3,4.5,2.3,7.9v1.4ZM388,191.9c0-1.7-.5-3.3-1.5-4.6-1.1-1.2-2.7-1.8-4.2-1.7-1.5,0-3,.6-4,1.7-1.1,1.4-1.7,3.1-1.7,4.9h11.6v-.3ZM405.2,188.4c0-2.1,0-3.8-.2-5.2h3.1c.1,1.1.2,2.3.2,3.6h.1c.5-1.2,1.4-2.3,2.6-3,1.2-.7,2.5-1.1,3.9-1.1,1.3,0,2.6.4,3.7,1.1,1,.7,1.8,1.8,2.1,3.1.6-1.3,1.5-2.3,2.6-3.1,1.2-.8,2.6-1.1,4-1.1,2-.1,3.9.7,5.3,2.2,1.4,1.7,2,3.9,1.9,6.1v12.7h-3.4v-12.4c.1-1.5-.3-3-1.2-4.3-.8-1-2.1-1.6-3.4-1.5-1.4,0-2.7.6-3.6,1.6-1,1.2-1.5,2.6-1.4,4.2v12.3h-3.4v-12.2c.1-1.6-.3-3.1-1.1-4.4-.8-1-2-1.5-3.2-1.5-.9,0-1.8.3-2.5.8-.8.6-1.5,1.3-1.9,2.2-.5.9-.7,1.9-.7,2.9v12.2h-3.4v-15.3ZM446.7,204.1c-2,.1-4-.7-5.4-2.3-1.2-1.5-1.8-3.8-1.8-6.8v-11.8h3.5v11.9c0,4.2,1.5,6.2,4.4,6.2,1.1,0,2.2-.3,3.1-.9.9-.6,1.7-1.5,2.2-2.5.5-1.1.8-2.3.8-3.5v-11.2h3.5v16.2c0,1.5.1,2.9.4,4.3h-3.2c-.2-1.2-.4-2.4-.4-3.6h-.1c-.6,1.3-1.6,2.3-2.8,3-1.3.7-2.7,1.1-4.2,1.1ZM467,204.1c-3,0-4.4-1.7-4.4-5.2v-25.6h3.5v25.6c0,.7.1,1.4.5,2,.4.4,1,.7,1.6.6.7,0,1.4-.2,2.1-.5l.5,2.1c-1.1.7-2.4,1.1-3.7,1ZM474.1,173.3h3.5v13.1c.6-1.1,1.6-2.1,2.8-2.6,1.3-.7,2.7-1,4.1-1,2.1-.1,4.2.8,5.6,2.4,1.4,2,2.1,4.4,2,6.8v11.7h-3.5v-11.8c.1-1.7-.3-3.4-1.2-4.8-.8-1.1-2.1-1.7-3.5-1.7-1.1,0-2.2.3-3.2.9-1,.6-1.7,1.5-2.2,2.5-.5,1.1-.8,2.4-.8,3.6v11.2h-3.5v-30.4ZM514.3,194.8h-14.8c0,1.7.7,3.4,1.8,4.7,1.1,1.1,2.7,1.7,4.3,1.6,2.3,0,4.5-1,5.9-2.9l2,1.9c-.8,1.3-1.9,2.3-3.3,2.9-1.4.7-3,1.1-4.7,1-2.6.2-5.2-.9-7.1-2.8-1.7-1.9-2.5-4.5-2.5-7.8s.8-6,2.5-7.9c1.8-1.9,4.3-3,6.9-2.9,2.5-.1,4.9.9,6.5,2.8,1.6,1.9,2.3,4.5,2.3,7.9v1.4ZM511.1,191.9c0-1.7-.5-3.3-1.5-4.6-1.1-1.2-2.7-1.8-4.2-1.7-1.5,0-3,.6-4,1.7-1.1,1.4-1.7,3.1-1.7,4.9h11.6v-.3ZM518.5,188.2c0-2.3,0-4-.1-5h3.2c.1,1.1.2,2.3.2,3.6v.4h.1c.5-1.3,1.3-2.5,2.5-3.3,1.2-.8,2.6-1.2,4.1-1.1.4,0,.8,0,1.2.1v2.9c-.5,0-1-.1-1.4-.1-1.1,0-2.2.4-3.2,1-1,.7-1.8,1.7-2.3,2.9-.6,1.2-.8,2.6-.8,3.9v10.2h-3.5v-15.5ZM549.8,194.8h-14.8c0,1.7.7,3.4,1.8,4.7,1.1,1.1,2.7,1.7,4.3,1.6,2.3,0,4.5-1,5.9-2.9l2,1.9c-.8,1.3-1.9,2.3-3.3,2.9-1.4.7-3,1.1-4.7,1-2.6.2-5.2-.9-7.1-2.8-1.7-1.9-2.5-4.5-2.5-7.8s.8-6,2.5-7.9c1.8-1.9,4.3-3,6.9-2.9,2.5-.1,4.9.9,6.5,2.8,1.6,1.9,2.3,4.5,2.3,7.9v1.4ZM546.6,191.9c0-1.7-.5-3.3-1.5-4.6-1.1-1.2-2.7-1.8-4.2-1.7-1.5,0-3,.6-4,1.7-1.1,1.4-1.7,3.1-1.7,4.9h11.6v-.3ZM561.2,204.1c-1.4,0-2.9-.3-4.2-.9-1.1-.5-2.1-1.4-2.6-2.5l2.3-1.6c.5.7,1.1,1.3,1.9,1.7.8.4,1.7.6,2.7.6,1,0,2.1-.3,2.8-1,.7-.6,1.1-1.6,1.1-2.5,0-.8-.3-1.5-.9-2-1-.7-2-1.3-3.2-1.7-1.8-.5-3.5-1.5-4.9-2.7-1.9-1.9-1.9-5,0-6.9.1-.1.3-.3.4-.4,1.5-1,3.2-1.5,5-1.5,1.3,0,2.5.3,3.7.9,1.1.5,2,1.4,2.6,2.4l-2.1,1.6c-.9-1.4-2.5-2.2-4.1-2.1-.9,0-1.7.2-2.5.7-.6.4-1,1.1-1,1.8,0,.7.4,1.4,1,1.9,1.1.7,2.4,1.3,3.6,1.8,1.7.5,3.2,1.4,4.5,2.6.9,1,1.4,2.3,1.3,3.6,0,1.8-.7,3.5-2,4.6-1.5,1.2-3.5,1.8-5.4,1.7Z"/>
</svg>