<svg width="307" height="95" viewBox="0 0 307 95" fill="none" xmlns="http://www.w3.org/2000/svg">
<g clip-path="url(#clip0_541_3568)">
<path d="M101.284 40.1768C101.643 40.7143 102.451 41.207 103.618 41.6549C104.829 42.1028 106.131 42.3268 107.387 42.3268C109.496 42.3268 111.022 41.9237 112.01 41.1174C112.997 40.3112 113.58 39.0571 113.49 37.7582C113.49 36.8176 113.176 35.877 112.548 35.1603C111.83 34.3541 110.932 33.6823 109.9 33.1896C108.778 32.6073 107.163 31.9355 105.054 31.1292C102.227 30.0543 100.162 28.8001 98.8161 27.2773C97.4698 25.7544 96.8415 23.8284 96.8415 21.4098C96.8415 19.8869 97.3352 18.364 98.3224 17.1547C99.3994 15.8558 100.791 14.9152 102.361 14.3329C104.201 13.6163 106.131 13.3027 108.06 13.3027C109.541 13.3027 111.022 13.3923 112.503 13.7058C113.535 13.885 114.567 14.1537 115.555 14.4673C116.318 14.736 116.856 14.8704 117.08 14.96V21.8129H113.715L112.593 17.737C112.369 17.2891 111.785 16.9307 110.843 16.6172C109.811 16.3037 108.734 16.1245 107.657 16.1693C106.221 16.0797 104.829 16.4828 103.663 17.2891C102.675 17.9609 102.092 19.0807 102.137 20.2452C102.137 21.2306 102.361 22.1712 102.945 22.9774C103.483 23.6941 104.156 24.2763 104.964 24.7242C105.772 25.1721 106.894 25.6648 108.285 26.2471L109.407 26.695C111.157 27.3669 112.817 28.1283 114.433 29.0241C115.689 29.7407 116.811 30.7261 117.664 31.9355C118.561 33.2344 119.01 34.7572 118.965 36.3249C119.055 38.8779 117.843 41.3414 115.779 42.8195C113.67 44.4319 110.753 45.2381 107.073 45.2381C105.144 45.2381 103.259 44.9694 101.419 44.4767C99.7584 44.0736 98.1429 43.5809 96.5723 42.9538V35.877H100.162L101.15 40.1768H101.284Z" fill="#8C3D78"/>
<path d="M128.524 40.8485C126.19 37.9371 124.979 34.0851 124.979 29.203C124.934 26.2916 125.562 23.3803 126.819 20.7825C127.941 18.4534 129.736 16.4826 131.935 15.1389C134.178 13.7952 136.781 13.1233 139.429 13.1681C142.839 13.1681 145.532 14.1087 147.417 15.9899C149.301 17.8711 150.334 20.6033 150.423 24.1417C150.423 25.8437 150.334 27.5906 150.019 29.2478H130.992C131.082 32.8758 131.935 35.832 133.55 38.0267C135.166 40.2214 137.454 41.3859 140.461 41.3859C142.032 41.3859 143.602 41.1172 145.083 40.5797C146.429 40.1766 147.686 39.5048 148.808 38.6537L149.84 41.0724C148.763 42.1922 147.192 43.1328 145.083 43.939C143.064 44.7452 140.865 45.1483 138.666 45.1483C134.223 45.1483 130.813 43.715 128.479 40.8037L128.524 40.8485ZM144.365 26.3364C144.455 25.5302 144.545 24.7688 144.545 23.9626C144.545 21.5887 144.006 19.7075 143.019 18.319C142.032 16.9305 140.506 16.2586 138.397 16.2586C136.422 16.1691 134.537 17.0649 133.281 18.5877C131.979 20.1106 131.261 22.7084 131.082 26.3812H144.365V26.3364Z" fill="#8C3D78"/>
<path d="M155.853 41.8783L159.982 41.5648V18.2291L155.988 17.2437V14.2428L163.617 13.2574H163.707L164.918 14.2428V15.2282L164.739 19.528H164.918C165.502 18.6322 166.175 17.826 166.893 17.1094C167.97 16.0344 169.226 15.0938 170.618 14.3772C172.143 13.5709 173.804 13.123 175.554 13.123C176.182 13.123 176.81 13.2126 177.394 13.3918V19.5728C176.99 19.3489 176.586 19.1697 176.137 19.0354C175.509 18.8562 174.881 18.7666 174.208 18.8114C171.156 18.8114 168.149 19.7968 165.681 21.6332V41.4752L172.682 41.9231V44.5658H155.809V41.8336L155.853 41.8783Z" fill="#8C3D78"/>
<path d="M184.439 40.8485C182.105 37.9371 180.939 34.0851 180.894 29.203C180.849 26.2916 181.477 23.3803 182.734 20.7824C183.856 18.4534 185.651 16.4826 187.85 15.1389C190.093 13.7952 192.696 13.1233 195.344 13.1681C198.754 13.1681 201.402 14.1087 203.332 15.9899C205.216 17.8711 206.249 20.6033 206.338 24.1417C206.383 25.8437 206.249 27.5906 205.979 29.2926H186.952C187.042 32.9206 187.894 35.8767 189.51 38.0715C191.126 40.2662 193.414 41.4307 196.421 41.4307C197.991 41.4307 199.562 41.162 201.043 40.6245C202.389 40.2214 203.646 39.5495 204.768 38.6985L205.8 41.1172C204.723 42.237 203.152 43.1775 201.043 43.9838C199.024 44.79 196.825 45.1931 194.626 45.1931C190.183 45.1931 186.773 43.715 184.439 40.8485ZM200.28 26.3364C200.37 25.5302 200.46 24.7688 200.46 23.9626C200.46 21.5887 199.921 19.7075 198.934 18.319C197.947 16.9305 196.421 16.2586 194.312 16.2586C192.337 16.1691 190.452 17.0649 189.196 18.5877C187.894 20.1106 187.176 22.7084 186.997 26.3812H200.28V26.3364Z" fill="#8C3D78"/>
<path d="M214.416 18.2295L210.422 17.2441V14.2432L218.32 13.2578H218.5L219.666 14.2432V17.8712C221.192 16.5275 222.942 15.4525 224.872 14.6911C226.846 13.7953 228.956 13.3026 231.11 13.2578C233.443 13.2578 235.238 13.7057 236.495 14.6015C237.841 15.5869 238.783 17.0202 239.187 18.6774C239.726 20.5138 239.95 22.9325 239.95 26.023V41.4756L243.809 41.8787V44.6557H230.706V41.9683L234.116 41.5204V26.023C234.116 24.321 234.027 22.619 233.668 20.9169C233.443 19.842 232.86 18.8566 232.007 18.1399C231.199 17.5129 230.033 17.2441 228.462 17.2441C226.981 17.2441 225.545 17.6025 224.199 18.2295C222.763 18.8566 221.416 19.618 220.16 20.5586V41.4756L223.929 41.9683V44.6557H210.871V41.9683L214.371 41.4756V18.3191L214.416 18.2295Z" fill="#8C3D78"/>
<path d="M251.932 28.6659C255.387 27.0535 259.785 26.1577 265.08 26.0681V24.5452C265.125 23.1567 264.946 21.7682 264.542 20.4693C264.228 19.5287 263.51 18.7225 262.612 18.2746C261.715 17.8267 260.413 17.6027 258.753 17.6027C257.048 17.6027 255.342 17.8267 253.682 18.4089C252.156 18.9464 250.675 19.6183 249.239 20.3349L247.848 17.4684C248.656 16.8413 249.553 16.3038 250.496 15.8559C251.932 15.1393 253.458 14.557 254.983 14.1091C256.644 13.6164 258.349 13.3477 260.054 13.3477C262.657 13.3477 264.721 13.706 266.292 14.4226C267.773 15.0945 268.985 16.3486 269.568 17.8715C270.241 19.4391 270.555 21.5891 270.555 24.2317V41.9238H273.831V44.3425C273.113 44.5216 272.171 44.7008 271.049 44.8799C270.062 45.0591 269.074 45.1487 268.087 45.1487C267.055 45.1487 266.337 45.0143 265.978 44.7008C265.619 44.3873 265.439 43.7154 265.439 42.6404V40.804C264.228 41.9686 262.881 42.9988 261.356 43.8498C259.695 44.7904 257.811 45.2383 255.926 45.2383C253.278 45.2383 251.079 44.4768 249.329 42.954C247.579 41.4311 246.681 39.2364 246.726 36.3698C246.726 32.921 248.476 30.3679 251.932 28.7555V28.6659ZM261.625 40.5353C262.837 39.953 264.003 39.2812 265.036 38.4302V28.9346C261.042 28.9346 257.99 29.5617 255.971 30.771C253.906 32.0252 252.919 33.5928 252.919 35.6084C252.919 37.6239 253.413 39.0572 254.4 39.9978C255.477 40.9832 256.913 41.4759 258.349 41.3863C259.516 41.3415 260.638 41.028 261.67 40.4905L261.625 40.5353Z" fill="#8C3D78"/>
<path d="M282.314 40.1768C282.673 40.7143 283.48 41.207 284.647 41.6549C285.859 42.1028 287.16 42.3268 288.417 42.3268C290.526 42.3268 292.052 41.9237 293.039 41.1174C294.026 40.3112 294.609 39.0571 294.52 37.7582C294.52 36.8176 294.206 35.877 293.577 35.1603C292.859 34.3541 291.962 33.6823 290.93 33.1896C289.808 32.6073 288.192 31.9355 286.083 31.1292C283.256 30.0543 281.192 28.8001 279.845 27.2773C278.544 25.7992 277.871 23.8284 277.871 21.4098C277.871 19.8869 278.364 18.364 279.352 17.1547C280.429 15.8558 281.82 14.9152 283.391 14.3329C285.23 13.6163 287.16 13.3027 289.09 13.3027C290.571 13.3027 292.052 13.3923 293.532 13.7058C294.565 13.885 295.597 14.1537 296.584 14.4673C297.347 14.736 297.885 14.8704 298.11 14.96V21.8129H294.744L293.622 17.737C293.398 17.2891 292.814 16.9307 291.872 16.6172C290.84 16.3037 289.763 16.1245 288.686 16.1693C287.25 16.0797 285.859 16.4828 284.692 17.2891C283.705 17.9609 283.121 19.0807 283.166 20.2452C283.166 21.2306 283.391 22.1712 283.974 22.9774C284.512 23.6941 285.186 24.2763 285.993 24.7242C286.801 25.1721 287.923 25.6648 289.314 26.2471L290.436 26.695C292.186 27.3669 293.847 28.1283 295.462 29.0241C296.719 29.7407 297.841 30.7261 298.693 31.9355C299.591 33.2344 300.039 34.7572 299.995 36.3249C300.084 38.8779 298.873 41.3414 296.808 42.8195C294.699 44.4319 291.782 45.2381 288.102 45.2381C286.173 45.2381 284.288 44.9694 282.448 44.4767C280.788 44.0736 279.172 43.5809 277.602 42.9538V35.877H281.192L282.179 40.1768H282.314Z" fill="#8C3D78"/>
<path d="M306.591 36.0564C306.501 35.1606 305.738 34.4887 304.841 34.5783C303.943 34.6679 303.27 35.4293 303.36 36.3251C303.584 38.3855 303.225 40.4458 302.418 42.327C302.193 42.7749 301.969 43.2228 301.655 43.6259L301.475 43.8499C301.385 43.9843 301.296 44.1186 301.206 44.2082L300.712 44.7905C299.994 45.5519 299.142 46.2238 298.244 46.7613C297.302 47.2987 296.314 47.7466 295.282 48.0602C294.205 48.3737 293.128 48.5977 292.006 48.6872C289.897 48.9112 287.564 48.4185 285.23 47.8362C285.096 47.8362 285.006 48.1945 284.961 48.3289C284.961 48.4633 284.961 48.5977 285.14 48.6424C287.339 49.4487 289.673 49.8966 292.051 49.8966H292.231C293.398 49.8966 294.519 49.7622 295.686 49.5383C296.898 49.2695 298.065 48.9112 299.142 48.3737C300.264 47.8362 301.341 47.1644 302.283 46.3134L302.956 45.6863C303.091 45.5519 303.225 45.3728 303.405 45.2384C303.495 45.1488 303.539 45.0592 303.629 45.0144C304.033 44.5218 304.437 43.9843 304.751 43.4468C306.053 41.2073 306.726 38.699 306.681 36.1012C306.681 36.0564 306.681 36.0116 306.681 35.9668L306.591 36.0564Z" fill="#6A9C81"/>
<path d="M61.7937 29.2033C61.5694 29.1586 61.345 29.1138 61.1206 29.069C58.0242 28.4419 54.8829 28.3971 51.7865 28.9346C50.3504 29.1138 48.9144 29.4721 47.5681 29.92C46.177 30.4575 44.9205 31.2637 43.7986 32.2043C42.6318 33.1897 41.7343 34.4886 41.2855 35.9667C41.1509 36.6385 41.1509 37.3104 41.2855 37.9822C41.3304 39.2811 41.7792 40.4905 42.5869 41.5206C43.5293 42.73 44.4717 43.8945 46.0424 44.7008C46.895 45.1487 48.2413 45.4174 49.2285 45.7309C51.4723 46.358 53.761 46.6715 56.0945 46.6267C57.9344 46.6267 63.5888 45.283 64.576 44.8799C65.3838 44.5664 66.1467 44.2081 66.9096 43.7602C68.3905 42.9987 69.6919 41.9238 70.7689 40.6248" fill="#6C9F7D"/>
<path d="M85.8925 14.1985C85.4437 11.108 83.3346 6.62895 81.5395 4.29986C80.4625 2.91136 79.1611 1.70203 77.6802 0.716643C77.052 0.358322 76.3788 0.134371 75.7057 0C75.6159 0 75.5711 0.134371 75.5711 0.268741C75.5711 0.537482 75.7954 0.851014 76.6032 1.79161C77.0968 2.32909 77.5905 2.91136 77.9944 3.53843L78.6226 4.70297V4.79255C78.6675 4.79255 78.8919 5.15087 78.8919 5.15087C79.1162 5.55398 79.2958 5.9571 79.5201 6.36021C79.8791 7.16643 80.2381 8.01744 80.5074 8.82367C81.0459 10.5257 81.4498 12.2725 81.6293 14.0641C82.0332 17.7369 82.2576 21.0514 81.8088 23.3357C81.4498 25.1273 79.3855 30.2334 79.1611 30.1886C79.1611 30.2782 77.6802 32.2937 77.6354 32.3385L76.334 34.2197C74.8979 36.0113 73.2824 37.6238 71.4874 38.9675C71.1284 39.2362 70.6347 39.1466 70.3655 38.7883C70.2757 38.6987 70.2309 38.5644 70.2309 38.4748C70.1411 37.8925 69.9616 37.2654 69.7821 36.728C69.3333 35.429 68.7051 34.1749 67.9422 33.0104C66.7305 31.1292 65.115 29.5167 63.1854 28.3522C61.3903 27.2772 59.3709 26.6054 57.2618 26.3814C54.5692 26.0679 52.5049 26.1575 50.665 26.695C45.8633 27.9939 43.7093 30.0542 42.3182 31.6667C39.491 35.0707 38.2793 37.8925 38.5935 40.2664C38.8178 41.9236 39.7602 43.4017 41.4655 44.5662C42.8567 45.462 44.3824 46.1339 45.998 46.5818C46.2672 46.6714 46.4916 46.761 46.7608 46.8953C47.1647 47.0745 47.5686 47.2537 47.9725 47.3432C48.2418 47.388 48.5559 47.5224 48.87 47.612C49.3636 47.7911 49.8573 47.9255 50.3958 48.0151C52.1908 48.2838 53.941 48.4182 55.736 48.4182C56.8579 48.4182 58.0247 48.2838 59.1466 48.1047C59.5504 48.0599 59.9543 47.9703 60.3582 47.9255C61.7942 47.7016 63.2302 47.388 64.6663 46.8953C64.4419 47.3432 64.2624 47.7911 64.038 48.239C63.4546 49.538 62.8264 50.7921 62.1083 52.0014C60.7172 54.3305 59.1466 56.7492 57.0374 58.5856C55.018 60.3324 52.7293 61.4074 50.4855 62.3927L49.9022 62.6615L48.7354 63.199C47.1647 63.8708 45.5941 64.6322 43.9786 64.901C42.6772 65.1249 41.3758 65.2593 40.0744 65.3041H39.2666C39.0422 65.3041 38.8178 65.3041 38.5935 65.3041C37.9652 65.2593 37.2921 65.1697 36.6189 65.0802C36.3497 65.0802 31.6377 63.9156 29.753 63.0646C26.7912 61.7209 23.9191 59.5262 21.0471 56.3461C20.7329 56.0325 20.4188 55.719 20.1047 55.4055C19.7008 55.0471 19.2969 54.644 18.9379 54.2409C18.5789 53.7482 18.175 53.2108 17.7263 52.6285C16.6044 51.0608 15.7069 49.3588 15.1235 47.5224C14.3157 45.462 13.8669 43.2673 13.8669 41.0726V39.057C13.8669 38.6987 13.8669 38.2956 13.8669 37.8925C13.8221 36.9519 13.8221 36.0113 13.8669 35.0259C13.9118 34.6228 13.9567 34.2197 14.0016 33.8166C14.3606 30.7261 14.8093 27.1876 16.739 24.0075C17.1877 23.3357 17.6814 22.7534 18.3096 22.2607C18.6686 21.9024 19.0725 21.4993 19.4764 21.0962C21.2714 18.9463 23.3806 17.1099 25.7141 15.6318C25.8039 15.587 26.2526 15.3182 28.4516 14.2433H28.5413C29.3939 13.8402 30.2915 13.5714 31.2339 13.4371C31.8172 13.3475 32.4455 13.2131 33.0289 13.0339C34.1508 12.7204 35.3175 12.5413 36.4843 12.4965C36.9331 12.4517 37.4267 12.4069 37.9203 12.3173C38.414 12.2277 38.8627 12.1829 39.4012 12.0934C40.5231 11.8694 41.645 11.7798 42.8118 11.735H43.1708C43.3952 11.735 43.6195 11.735 43.8439 11.735C44.2478 11.735 44.6517 11.7798 45.0556 11.8246C45.8633 11.9142 46.716 12.0038 47.5237 12.0934C53.4922 12.9892 59.2363 15.2287 64.2175 18.6327C68.391 21.4097 71.981 24.9929 74.8082 29.1584L75.9301 30.8604L76.4237 31.4427L78.4431 28.6657L79.206 27.0085L76.6032 23.8284C73.9555 20.7826 70.9489 18.0504 67.5832 15.8109C61.6147 11.735 54.7039 9.18199 47.5237 8.42056C38.7281 7.47996 31.2339 8.64451 25.2205 11.8246C24.7717 12.0486 24.2781 12.2725 23.7396 12.5413C22.7075 12.9444 21.7651 13.4818 20.8676 14.1089C16.9185 17.0651 13.7323 21.4097 11.3988 27.0085C9.96276 30.4573 9.37937 34.5332 9.55888 39.8185V39.9081C9.64863 42.7746 9.73838 45.5068 10.7256 48.3286C10.8603 48.6422 10.95 49.0005 11.0847 49.3588C11.5334 50.9712 12.2065 52.5389 13.0143 54.017C13.8221 55.2263 14.7196 56.3461 15.7517 57.3314C16.1556 57.7794 16.6044 58.2273 17.0082 58.6752C18.2648 60.198 19.7008 61.5417 21.2714 62.7958C21.7202 63.1094 22.1241 63.4677 22.5728 63.826C23.4704 64.5875 24.4127 65.2593 25.4449 65.8864C27.554 67.0509 29.9325 67.678 32.2211 68.2155C33.9713 68.5738 35.8112 68.7529 37.6062 68.7529H38.1896C38.5935 68.7529 38.9525 68.8425 39.4012 68.8873C39.9846 68.9769 40.568 69.0217 41.1514 69.0217C43.081 68.9321 45.0107 68.6186 46.8955 68.1707H46.9852C47.2545 68.1259 47.4789 68.0811 47.7481 67.9915C48.1071 67.9019 48.511 67.8124 48.87 67.7676C49.3636 67.678 49.8573 67.5436 50.3958 67.4092C50.7548 67.3197 51.1138 67.1853 51.4728 67.0509C52.4152 66.6478 53.3127 66.1999 54.1653 65.7072C54.4795 65.5281 54.7936 65.3489 55.1077 65.1697L55.8706 64.7666C56.9925 64.1843 58.0695 63.5573 59.1017 62.7958C62.3776 60.198 65.115 57.0179 67.1344 53.3451C68.5705 50.8369 69.6026 48.1047 70.2757 45.2829C70.2757 45.1037 70.3655 44.9246 70.3655 44.7902C70.3655 44.7902 70.3655 44.7006 70.3655 44.6558C70.5001 44.5662 70.6796 44.4767 70.8591 44.3871C71.0386 44.2975 71.1732 44.2079 71.3527 44.1631C72.1156 43.76 72.8785 43.2673 73.5965 42.7746C75.0326 41.7892 76.3788 40.7143 77.6354 39.5497C78.0841 39.1466 78.5329 38.6539 78.9816 38.1612L81.4947 35.0259C81.5844 34.9363 81.6293 34.8468 81.6742 34.7572L82.5717 33.5479V33.4583C82.7961 33.1447 83.0204 32.7864 83.1999 32.4281C83.6038 31.6219 84.0077 30.8157 84.3667 30.0094C85.0398 28.3522 85.5784 26.695 85.9822 24.9481C86.7451 21.3649 86.5656 17.8265 85.9822 14.1985H85.8925ZM65.6087 42.058C65.3394 42.3715 65.0253 42.5955 64.6663 42.7298C63.4546 43.3121 62.1532 43.6704 60.807 43.8048L60.0889 43.9392C59.5953 44.0288 58.967 44.1631 58.7427 44.1631C58.1593 44.2527 57.531 44.2975 56.9476 44.3423C56.6784 44.3423 56.4091 44.3423 56.1399 44.3423H55.6014C54.3897 44.2975 53.223 44.1631 52.0113 43.984C49.7675 43.6256 47.6135 42.9986 45.5492 42.058C43.8888 41.2518 43.081 40.5799 42.8118 39.7737C42.5425 38.9227 42.8118 37.7133 43.8888 35.7426C44.9658 33.6822 46.3121 31.7115 50.7997 30.5469C50.9343 30.5469 51.1138 30.4573 51.2933 30.4125C51.6074 30.323 51.8767 30.2334 52.1908 30.1886C52.8191 30.0094 53.4473 29.8751 54.0756 29.7855C54.3448 29.7855 54.5692 29.7407 54.8385 29.7407H54.9731C55.4667 29.7407 55.9604 29.8303 56.4091 29.9199C58.2042 30.2782 59.9094 31.0844 61.3455 32.2489C64.2624 34.6228 65.8779 38.2508 65.6535 42.0132L65.6087 42.058Z" fill="#8C3D78"/>
<path d="M85.1738 41.6541C85.0392 41.027 84.8148 40.2208 84.5904 39.4146L83.9621 37.0407L83.1544 34.9355L82.3017 36.1897L81.135 37.623L79.7887 39.101L80.1926 40.2208C81.853 46.4018 81.853 53.5235 80.1926 60.4212C78.5322 67.3189 75.3909 73.6791 71.3072 78.2029C69.0634 80.6663 66.326 82.4579 63.4539 84.3391L63.0949 84.5631C61.4345 85.638 59.2805 86.4443 57.1713 87.2057C56.4982 87.4297 55.8251 87.6984 55.1519 87.9671C54.6583 88.1463 54.1647 88.3702 53.671 88.5494H53.5813C51.2029 89.5348 48.9591 90.4754 46.4012 90.8337C45.2344 90.9681 44.0676 91.0129 42.856 90.9681H40.5673C40.1634 90.9681 39.7147 90.9681 39.2659 90.8785C38.4582 90.8337 37.6055 90.7441 36.7529 90.6098C32.3102 90.0723 28.0021 88.7734 24.0082 86.713C21.9439 85.6381 19.9694 84.4287 18.0846 83.0402C17.0973 82.3236 16.1549 81.5173 15.1677 80.6215C14.8535 80.2632 14.5843 79.9049 14.315 79.5466C14.0458 79.1435 13.7316 78.7851 13.4175 78.4268C8.70556 73.9478 4.84625 67.3189 2.82684 60.242C2.37808 58.6296 2.01908 55.8526 1.7947 53.837V53.6578C1.74982 53.3891 1.70495 53.1204 1.66007 52.8964C1.21131 50.9704 1.03181 50.7913 0.672804 50.6569C0.538177 50.6121 0.40355 50.6569 0.313798 50.7017C-0.000331916 50.9256 -0.000331916 51.4631 -0.000331916 52.762C-0.000331916 54.061 -0.404213 58.8983 0.897182 64.4075C1.57032 67.4532 2.69221 70.4094 4.26286 73.1416C7.04516 77.8446 10.6801 83.1746 16.1101 86.937C17.6807 87.9671 19.3411 88.9077 21.0464 89.7587L21.6746 90.0723C22.0336 90.2514 22.3478 90.4306 22.7068 90.6098C23.8736 91.2816 25.0403 91.8191 26.2968 92.3118C28.7201 93.1628 31.2332 93.6107 33.7013 94.0138C35.3169 94.2826 36.9324 94.4617 38.5479 94.5513C38.9069 94.5513 39.221 94.6409 39.5801 94.6857C40.0288 94.7752 40.5224 94.82 40.9712 94.8648H43.1252C46.1319 94.7752 49.0937 94.3721 52.0106 93.6555C52.6389 93.5211 53.312 93.342 53.9403 93.2076C58.8766 91.9535 63.5437 89.7587 67.7171 86.8026C73.1022 82.9058 77.0064 78.9643 79.6541 74.7988C82.3017 70.6781 84.1865 65.3929 85.4879 58.6296C86.5649 52.986 86.4752 47.1633 85.2187 41.5645L85.1738 41.6541Z" fill="#8C3D78"/>
<path d="M104.246 62.3482V71.2166C104.246 72.6947 103.887 73.8145 103.169 74.5759C102.451 75.3373 101.374 75.6956 99.9832 75.6956C99.3999 75.6956 98.7716 75.6061 98.1882 75.4717C97.6497 75.3373 97.1112 75.1134 96.6176 74.8446L97.1112 73.7249C97.9638 74.1728 98.9511 74.3967 99.8935 74.3967C101.823 74.3967 102.766 73.277 102.766 70.9927V70.1417C102.496 70.6344 102.137 70.9927 101.644 71.2614C101.105 71.5302 100.522 71.6645 99.9384 71.6645C98.8165 71.7093 97.7395 71.2166 97.0663 70.3656C96.3483 69.5146 96.0342 68.3053 96.0342 66.7824C96.0342 65.2595 96.3932 64.1846 97.0663 63.3783C97.7843 62.5721 98.8165 62.0794 99.8935 62.169C100.477 62.169 101.06 62.3034 101.599 62.5721C102.092 62.8409 102.496 63.1992 102.766 63.6919L102.945 62.3482H104.246ZM102.721 66.3345C102.766 65.5283 102.541 64.7668 102.048 64.1398C101.599 63.6023 100.926 63.3335 100.208 63.3335C99.4447 63.3335 98.7716 63.6471 98.3228 64.2741C97.8292 65.0356 97.56 65.9314 97.6497 66.8272C97.6048 67.7678 97.8292 68.6636 98.3228 69.4698C98.7716 70.0969 99.4447 70.4552 100.208 70.4104C100.881 70.4104 101.554 70.1864 102.048 69.6938C102.496 69.1563 102.766 68.4396 102.721 67.723V66.3345ZM109.228 71.7093C108.42 71.7093 107.612 71.4406 106.984 70.9031C106.4 70.3656 106.086 69.649 106.131 68.8875C106.131 68.0365 106.49 67.2303 107.163 66.7376C108.061 66.2001 109.093 65.9314 110.125 65.9762H112.01V65.4835C112.01 64.9012 111.875 64.3637 111.471 63.9158C111.023 63.5127 110.484 63.3335 109.901 63.3783C109.362 63.3783 108.869 63.4679 108.375 63.7367C107.926 63.9606 107.522 64.3189 107.208 64.722L106.4 63.7814C106.804 63.244 107.343 62.8409 107.926 62.5721C108.555 62.3034 109.228 62.169 109.946 62.169C110.888 62.1242 111.875 62.393 112.593 63.02C113.266 63.6471 113.581 64.5429 113.536 65.4387V69.7385C113.536 70.3208 113.625 70.9479 113.76 71.5302H112.414C112.279 71.127 112.189 70.6791 112.189 70.2312C111.875 70.6791 111.427 71.0822 110.933 71.3062C110.394 71.5749 109.856 71.7093 109.273 71.6645L109.228 71.7093ZM109.452 70.5C109.901 70.5 110.35 70.4104 110.753 70.2312C111.112 70.0521 111.427 69.8281 111.696 69.5146C111.92 69.2459 112.055 68.8875 112.055 68.4844V67.1407H110.125C109.497 67.1407 108.869 67.2751 108.33 67.5886C107.926 67.9021 107.657 68.3948 107.702 68.8875C107.702 69.3354 107.881 69.7385 108.196 70.0521C108.555 70.3656 109.048 70.5 109.497 70.5H109.452ZM116.094 64.5877C116.094 63.5575 116.094 62.7961 116.049 62.3482H117.485C117.53 62.8409 117.575 63.3783 117.575 63.9606V64.1398H117.619C117.844 63.5575 118.203 63.02 118.741 62.6617C119.28 62.3034 119.908 62.1242 120.581 62.169C120.761 62.169 120.94 62.169 121.12 62.2138V63.5127C120.895 63.5127 120.671 63.4679 120.491 63.4679C119.998 63.4679 119.504 63.6471 119.055 63.9158C118.607 64.2293 118.248 64.6773 118.023 65.1699C117.754 65.7074 117.664 66.3345 117.664 66.9168V71.4854H116.094V64.5429V64.5877ZM125.114 71.7093C124.306 71.7093 123.498 71.4406 122.87 70.9031C122.286 70.3656 121.972 69.649 122.017 68.8875C122.017 68.0365 122.376 67.2303 123.049 66.7376C123.947 66.2001 124.979 65.9314 126.011 65.9762H127.896V65.4835C127.896 64.9012 127.761 64.3637 127.357 63.9158C126.909 63.5127 126.37 63.3335 125.787 63.3783C125.248 63.3783 124.755 63.4679 124.261 63.7367C123.812 63.9606 123.408 64.3189 123.094 64.722L122.286 63.7814C122.69 63.244 123.229 62.8409 123.812 62.5721C124.441 62.3034 125.114 62.169 125.832 62.169C126.774 62.1242 127.761 62.393 128.479 63.02C129.152 63.6471 129.467 64.5429 129.422 65.4387V69.7385C129.422 70.3208 129.511 70.9479 129.646 71.5302H128.3C128.165 71.127 128.075 70.6791 128.075 70.2312C127.761 70.6791 127.313 71.0822 126.819 71.3062C126.28 71.5749 125.742 71.7093 125.159 71.6645L125.114 71.7093ZM125.338 70.5C125.787 70.5 126.236 70.4104 126.639 70.2312C126.998 70.0521 127.313 69.8281 127.582 69.5146C127.806 69.2459 127.941 68.8875 127.941 68.4844V67.1407H126.011C125.383 67.1407 124.755 67.2751 124.216 67.5886C123.812 67.9021 123.543 68.3948 123.588 68.8875C123.588 69.3354 123.767 69.7385 124.082 70.0521C124.441 70.3656 124.934 70.5 125.383 70.5H125.338ZM131.845 64.6772C131.845 63.9158 131.845 63.1544 131.755 62.3482H133.191C133.236 62.8856 133.281 63.4231 133.281 63.9606H133.326C133.595 63.3783 134.044 62.9304 134.582 62.6169C135.166 62.3034 135.794 62.1242 136.467 62.1242C137.41 62.0794 138.307 62.4377 138.89 63.1544C139.429 63.871 139.698 64.9012 139.698 66.2897V71.4854H138.128V66.2897C138.172 65.5283 137.993 64.7668 137.634 64.095C137.275 63.6023 136.736 63.3335 136.108 63.3783C135.615 63.3783 135.121 63.5127 134.717 63.7814C134.313 64.0502 133.954 64.4533 133.73 64.9012C133.505 65.3939 133.371 65.9314 133.371 66.4689V71.4854H131.8V64.6325L131.845 64.6772ZM145.308 71.7093C144.59 71.7093 143.872 71.4406 143.378 70.9479C142.884 70.3208 142.615 69.5594 142.66 68.798V63.6023H141V62.393H142.66V59.9295L144.141 59.4816H144.231V62.393H146.834V63.6023H144.231V68.6636C144.231 69.1563 144.32 69.649 144.59 70.0521C144.859 70.3656 145.263 70.5448 145.667 70.5C146.115 70.5 146.564 70.4552 146.968 70.276L147.058 71.4406C146.474 71.6645 145.891 71.7541 145.263 71.7541L145.308 71.7093ZM150.02 60.7357C149.706 60.7357 149.436 60.6461 149.212 60.467C149.032 60.2878 148.898 59.9743 148.898 59.7055C148.898 59.4368 148.988 59.1233 149.212 58.9441C149.436 58.7649 149.706 58.6306 150.02 58.6754C150.334 58.6754 150.603 58.7649 150.827 58.9441C151.052 59.1233 151.142 59.4368 151.142 59.7055C151.142 59.9743 151.052 60.243 150.827 60.467C150.603 60.6461 150.289 60.7805 150.02 60.7357ZM149.257 62.3482H150.827V71.5302H149.257V62.3482ZM156.123 71.7093C155.315 71.7093 154.507 71.4406 153.879 70.9031C153.296 70.3656 152.981 69.649 153.026 68.8875C153.026 68.0365 153.385 67.2303 154.058 66.7376C154.956 66.2001 155.988 65.9314 157.02 65.9762H158.905V65.4835C158.905 64.9012 158.77 64.3637 158.367 63.9158C157.918 63.5127 157.379 63.3335 156.796 63.3783C156.257 63.3783 155.764 63.4679 155.27 63.7367C154.821 63.9606 154.417 64.3189 154.103 64.722L153.296 63.7814C153.699 63.244 154.238 62.8409 154.821 62.5721C155.45 62.3034 156.123 62.169 156.841 62.169C157.783 62.1242 158.77 62.393 159.488 63.02C160.162 63.6471 160.476 64.5429 160.431 65.4387V69.7385C160.431 70.3208 160.521 70.9479 160.655 71.5302H159.309C159.174 71.127 159.085 70.6791 159.085 70.2312C158.77 70.6791 158.322 71.0822 157.828 71.3062C157.29 71.5749 156.751 71.7093 156.168 71.6645L156.123 71.7093ZM156.347 70.5C156.796 70.5 157.245 70.4104 157.649 70.2312C158.008 70.0521 158.322 69.8281 158.591 69.5146C158.815 69.2459 158.95 68.8875 158.95 68.4844V67.1407H157.02C156.392 67.1407 155.764 67.2751 155.225 67.5886C154.821 67.9021 154.597 68.3948 154.597 68.8875C154.597 69.3354 154.777 69.7385 155.091 70.0521C155.45 70.3656 155.943 70.5 156.392 70.5H156.347ZM170.707 71.7093C169.585 71.7093 168.553 71.2614 167.88 70.3656C167.207 69.4698 166.848 68.2605 166.848 66.7376C166.848 65.8866 166.983 65.0804 167.342 64.3189C167.611 63.6471 168.105 63.1096 168.688 62.7065C169.316 62.3034 170.034 62.1242 170.752 62.1242C171.829 62.1242 172.861 62.6169 173.49 63.5575V57.8691H175.015V69.2011C175.015 70.3208 175.015 71.127 175.06 71.5302H173.624C173.624 71.2166 173.624 70.7687 173.624 70.0969C173.355 70.5896 172.906 70.9927 172.413 71.2614C171.919 71.5749 171.336 71.7093 170.752 71.7093H170.707ZM170.932 70.4552C171.605 70.4552 172.323 70.2312 172.817 69.7385C173.31 69.2459 173.535 68.5292 173.49 67.8574V66.2001C173.49 65.4387 173.265 64.722 172.772 64.1398C172.278 63.6023 171.605 63.3335 170.932 63.3783C170.214 63.3783 169.496 63.6919 169.092 64.2741C168.598 65.0356 168.374 65.9314 168.419 66.8272C168.374 67.7678 168.598 68.7084 169.092 69.5146C169.496 70.1417 170.214 70.5 170.932 70.5V70.4552ZM185.068 67.5438H178.426C178.426 68.3053 178.74 69.0667 179.234 69.649C179.727 70.1417 180.445 70.4104 181.163 70.3656C182.196 70.3656 183.183 69.9177 183.811 69.0667L184.709 69.9177C184.35 70.5 183.856 70.9479 183.228 71.2166C182.599 71.5302 181.881 71.7093 181.119 71.6645C179.952 71.7541 178.785 71.2614 177.932 70.4104C177.169 69.5594 176.81 68.3948 176.81 66.9168C176.81 65.4387 177.169 64.2294 177.932 63.3783C178.74 62.5273 179.862 62.0346 181.029 62.0794C182.151 62.0346 183.228 62.4825 183.946 63.3335C184.664 64.1846 184.978 65.3491 184.978 66.872V67.499L185.068 67.5438ZM183.632 66.2449C183.632 65.4835 183.407 64.7668 182.958 64.1846C182.465 63.6471 181.747 63.3783 181.074 63.4231C180.401 63.4231 179.727 63.6919 179.279 64.1846C178.785 64.8116 178.516 65.5731 178.516 66.3793H183.721V66.2449H183.632ZM194.671 71.7093C193.549 71.7093 192.517 71.2614 191.844 70.3656C191.171 69.4698 190.812 68.2605 190.812 66.7376C190.812 65.8866 190.946 65.0804 191.305 64.3189C191.575 63.6471 192.068 63.1096 192.652 62.7065C193.28 62.3034 193.998 62.1242 194.716 62.1242C195.793 62.1242 196.825 62.6169 197.453 63.5575V57.8691H198.979V69.2011C198.979 70.3208 198.979 71.127 199.024 71.5302H197.588C197.588 71.2166 197.588 70.7687 197.588 70.0969C197.319 70.5896 196.87 70.9927 196.376 71.2614C195.883 71.5749 195.299 71.7093 194.716 71.7093H194.671ZM194.895 70.4552C195.569 70.4552 196.287 70.2312 196.78 69.7385C197.274 69.2459 197.498 68.5292 197.453 67.8574V66.2001C197.453 65.4387 197.229 64.722 196.735 64.1398C196.242 63.6023 195.569 63.3335 194.895 63.3783C194.177 63.3783 193.459 63.6919 193.055 64.2741C192.562 65.0356 192.337 65.9314 192.382 66.8272C192.337 67.7678 192.562 68.7084 193.055 69.5146C193.459 70.1417 194.177 70.5 194.895 70.5V70.4552ZM202.39 60.7357C202.076 60.7357 201.806 60.6461 201.582 60.467C201.402 60.2878 201.268 59.9743 201.268 59.7055C201.268 59.4368 201.358 59.1233 201.582 58.9441C201.806 58.7649 202.076 58.6306 202.39 58.6754C202.704 58.6754 202.973 58.7649 203.197 58.9441C203.422 59.1233 203.512 59.4368 203.512 59.7055C203.512 59.9743 203.422 60.243 203.197 60.467C202.973 60.6461 202.659 60.7805 202.39 60.7357ZM201.627 62.3482H203.197V71.5302H201.627V62.3482ZM205.89 64.5877C205.89 63.5575 205.89 62.7961 205.845 62.3482H207.281C207.326 62.8409 207.371 63.3783 207.371 63.9606V64.1398H207.416C207.64 63.5575 207.999 63.02 208.538 62.6617C209.076 62.3034 209.704 62.1242 210.378 62.169C210.557 62.169 210.737 62.169 210.916 62.2138V63.5127C210.692 63.5127 210.467 63.4679 210.288 63.4679C209.794 63.4679 209.3 63.6471 208.852 63.9158C208.403 64.2293 208.044 64.6773 207.82 65.1699C207.55 65.7074 207.461 66.3345 207.461 66.9168V71.4854H205.89V64.5429V64.5877ZM219.981 67.5438H213.339C213.339 68.3053 213.653 69.0667 214.147 69.649C214.641 70.1417 215.359 70.4104 216.077 70.3656C217.109 70.3656 218.096 69.9177 218.724 69.0667L219.622 69.9177C219.263 70.5 218.769 70.9479 218.141 71.2166C217.513 71.5302 216.795 71.7093 216.077 71.6645C214.91 71.7541 213.743 71.2614 212.891 70.4104C212.128 69.5594 211.769 68.3948 211.769 66.9168C211.769 65.4387 212.128 64.2294 212.891 63.3783C213.698 62.5273 214.82 62.0346 215.987 62.0794C217.109 62.0346 218.186 62.4825 218.904 63.3335C219.622 64.1846 219.936 65.3491 219.936 66.872V67.499L219.981 67.5438ZM218.545 66.2449C218.545 65.4835 218.321 64.7668 217.872 64.1846C217.378 63.6471 216.66 63.3783 215.987 63.4231C215.314 63.4231 214.641 63.6919 214.192 64.1846C213.698 64.8116 213.429 65.5731 213.429 66.3793H218.635V66.2449H218.545ZM222.898 60.7357C222.584 60.7357 222.314 60.6461 222.09 60.467C221.911 60.2878 221.776 59.9743 221.776 59.7055C221.776 59.4368 221.866 59.1233 222.09 58.9441C222.314 58.7649 222.584 58.6306 222.898 58.6754C223.212 58.6754 223.481 58.7649 223.706 58.9441C223.93 59.1233 224.02 59.4368 224.02 59.7055C224.02 59.9743 223.93 60.243 223.706 60.467C223.481 60.6461 223.167 60.7805 222.898 60.7357ZM222.09 62.3482H223.661V71.5302H222.09V62.3482ZM229.584 71.7093C228.866 71.7093 228.148 71.4406 227.655 70.9479C227.161 70.3208 226.892 69.5594 226.937 68.798V63.6023H225.276V62.393H226.937V59.9295L228.418 59.4816H228.507V62.393H231.11V63.6023H228.507V68.6636C228.507 69.1563 228.597 69.649 228.866 70.0521C229.136 70.3656 229.539 70.5448 229.943 70.5C230.392 70.5 230.841 70.4552 231.245 70.276L231.334 71.4406C230.751 71.6645 230.168 71.7541 229.539 71.7541L229.584 71.7093ZM236.091 71.7093C235.284 71.7093 234.431 71.5302 233.713 71.127C233.04 70.7239 232.501 70.1417 232.187 69.4698C231.828 68.6636 231.604 67.8126 231.649 66.9168C231.649 66.021 231.828 65.1699 232.187 64.3637C232.546 63.6471 233.085 63.1096 233.713 62.7065C234.431 62.3034 235.239 62.1242 236.091 62.1242C237.303 62.0794 238.515 62.5273 239.367 63.4231C240.22 64.3637 240.624 65.6178 240.579 66.9168C240.669 68.1709 240.22 69.425 239.367 70.4104C238.515 71.3062 237.303 71.7541 236.091 71.7093ZM236.091 70.5448C236.899 70.5448 237.707 70.2312 238.245 69.6042C238.784 68.8427 239.053 67.9021 239.008 66.9616C239.053 66.021 238.784 65.0804 238.245 64.3189C237.707 63.6919 236.944 63.3335 236.091 63.3783C235.284 63.3783 234.476 63.6919 233.982 64.3189C233.444 65.0804 233.174 66.021 233.219 66.9616C233.174 67.9021 233.444 68.8427 233.982 69.6042C234.476 70.2312 235.284 70.5896 236.091 70.5448ZM244.887 71.7093C244.259 71.7093 243.586 71.5749 243.002 71.3062C242.509 71.0822 242.06 70.6791 241.835 70.1864L242.868 69.4698C243.092 69.7833 243.361 70.0521 243.72 70.2312C244.079 70.4104 244.483 70.5 244.932 70.5C245.381 70.5 245.874 70.3656 246.233 70.0521C246.547 69.7833 246.727 69.3354 246.727 68.9323C246.727 68.574 246.592 68.2605 246.323 67.9917C245.874 67.6782 245.425 67.4095 244.887 67.2303C244.079 67.0063 243.316 66.5584 242.688 66.021C242.284 65.6178 242.06 65.0804 242.06 64.4981C242.06 63.8262 242.374 63.1992 242.912 62.7961C243.586 62.3482 244.348 62.1242 245.156 62.1242C245.74 62.1242 246.278 62.2586 246.817 62.5273C247.31 62.7513 247.714 63.1544 247.983 63.6023L247.041 64.3189C246.637 63.6919 245.919 63.3335 245.201 63.3783C244.797 63.3783 244.438 63.4679 244.079 63.6919C243.81 63.871 243.63 64.1846 243.63 64.4981C243.63 64.8116 243.81 65.1252 244.079 65.3491C244.573 65.6626 245.156 65.9314 245.695 66.1553C246.458 66.3793 247.131 66.7824 247.714 67.3199C248.118 67.7678 248.342 68.35 248.298 68.9323C248.298 69.7385 247.983 70.5 247.4 70.9927C246.727 71.5302 245.829 71.7989 244.977 71.7541L244.887 71.7093ZM254.49 64.6772C254.49 63.9158 254.49 63.1096 254.401 62.3482H255.837C255.837 62.7961 255.882 63.2888 255.882 63.7814C256.151 63.2888 256.555 62.8856 257.093 62.6169C257.632 62.3034 258.215 62.169 258.843 62.169C259.92 62.1242 260.952 62.5721 261.626 63.4231C262.299 64.2741 262.658 65.4387 262.658 66.9168C262.658 67.7678 262.523 68.6636 262.164 69.425C261.895 70.0969 261.401 70.6791 260.818 71.0822C260.234 71.4854 259.516 71.6645 258.798 71.6645C258.215 71.6645 257.632 71.5302 257.138 71.3062C256.689 71.0822 256.33 70.7239 256.106 70.276H256.061V75.9196H254.49V64.5877V64.6772ZM258.619 70.5448C259.382 70.5448 260.055 70.1864 260.459 69.5594C260.952 68.7532 261.177 67.8574 261.132 66.9168C261.177 66.021 260.952 65.1252 260.459 64.3637C260.01 63.7814 259.337 63.4231 258.619 63.4679C257.946 63.4679 257.273 63.6919 256.779 64.1846C256.285 64.6773 256.016 65.3491 256.061 66.0657V67.723C256.061 68.4844 256.285 69.2011 256.779 69.7833C257.228 70.3208 257.901 70.5896 258.619 70.5448ZM267.19 71.7093C266.382 71.7093 265.575 71.4406 264.946 70.9031C264.363 70.3656 264.049 69.649 264.094 68.8875C264.094 68.0365 264.453 67.2303 265.126 66.7376C266.023 66.2001 267.056 65.9314 268.088 65.9762H269.972V65.4835C269.972 64.9012 269.838 64.3637 269.434 63.9158C268.985 63.5127 268.447 63.3335 267.863 63.3783C267.325 63.3783 266.831 63.4679 266.338 63.7367C265.889 63.9606 265.485 64.3189 265.171 64.722L264.363 63.7814C264.767 63.244 265.305 62.8409 265.889 62.5721C266.517 62.3034 267.19 62.169 267.908 62.169C268.851 62.1242 269.838 62.393 270.556 63.02C271.229 63.6471 271.543 64.5429 271.498 65.4387V69.7385C271.498 70.3208 271.588 70.9479 271.723 71.5302H270.376C270.242 71.127 270.152 70.6791 270.152 70.2312C269.838 70.6791 269.389 71.0822 268.895 71.3062C268.357 71.5749 267.818 71.7093 267.235 71.6645L267.19 71.7093ZM267.459 70.5C267.908 70.5 268.357 70.4104 268.761 70.2312C269.12 70.0521 269.434 69.8281 269.703 69.5146C269.928 69.2459 270.062 68.8875 270.062 68.4844V67.1407H268.133C267.504 67.1407 266.876 67.2751 266.338 67.5886C265.934 67.9021 265.664 68.3948 265.709 68.8875C265.709 69.3354 265.889 69.7385 266.203 70.0521C266.562 70.3656 267.056 70.5 267.504 70.5H267.459ZM274.056 64.5877C274.056 63.5575 274.056 62.7961 274.011 62.3482H275.447C275.492 62.8409 275.537 63.3783 275.537 63.9606V64.1398H275.582C275.806 63.5575 276.165 63.02 276.704 62.6617C277.242 62.3034 277.871 62.1242 278.544 62.169C278.723 62.169 278.903 62.169 279.082 62.2138V63.5127C278.858 63.5127 278.633 63.4679 278.454 63.4679C277.96 63.4679 277.467 63.6471 277.018 63.9158C276.569 64.2293 276.21 64.6773 275.986 65.1699C275.717 65.7074 275.627 66.3345 275.627 66.9168V71.4854H274.056V64.5429V64.5877ZM283.121 71.7093C282.313 71.7093 281.506 71.4406 280.877 70.9031C280.294 70.3656 279.98 69.649 280.025 68.8875C280.025 68.0365 280.384 67.2303 281.057 66.7376C281.954 66.2001 282.986 65.9314 284.019 65.9762H285.903V65.4835C285.903 64.9012 285.769 64.3637 285.365 63.9158C284.916 63.5127 284.378 63.3335 283.794 63.3783C283.256 63.3783 282.762 63.4679 282.268 63.7367C281.82 63.9606 281.416 64.3189 281.102 64.722L280.294 63.7814C280.698 63.244 281.236 62.8409 281.82 62.5721C282.448 62.3034 283.121 62.169 283.839 62.169C284.781 62.1242 285.769 62.393 286.487 63.02C287.16 63.6471 287.474 64.5429 287.429 65.4387V69.7385C287.429 70.3208 287.519 70.9479 287.654 71.5302H286.307C286.173 71.127 286.083 70.6791 286.083 70.2312C285.769 70.6791 285.32 71.0822 284.826 71.3062C284.288 71.5749 283.749 71.7093 283.166 71.6645L283.121 71.7093ZM283.345 70.5C283.794 70.5 284.243 70.4104 284.647 70.2312C285.006 70.0521 285.32 69.8281 285.589 69.5146C285.814 69.2459 285.948 68.8875 285.948 68.4844V67.1407H284.019C283.39 67.1407 282.762 67.2751 282.224 67.5886C281.82 67.9021 281.55 68.3948 281.595 68.8875C281.595 69.3354 281.775 69.7385 282.089 70.0521C282.448 70.3656 282.942 70.5 283.39 70.5H283.345ZM96.5727 84.3849C96.5727 83.4443 96.5727 82.6829 96.4829 82.0558H97.8741C97.919 82.5485 97.9638 83.086 97.9638 83.6683H98.0087C98.2331 83.1308 98.637 82.6381 99.1755 82.3246C99.714 82.0111 100.297 81.8319 100.926 81.8319C101.509 81.8319 102.092 82.0111 102.586 82.3246C103.035 82.6381 103.394 83.1308 103.528 83.7131C103.798 83.1308 104.202 82.6829 104.695 82.3246C105.234 81.9663 105.862 81.8319 106.49 81.8319C107.388 81.7871 108.24 82.1454 108.869 82.8173C109.497 83.5787 109.766 84.5641 109.721 85.5495V91.2378H108.196V85.6839C108.196 85.012 108.061 84.3401 107.657 83.7579C107.298 83.31 106.715 83.0412 106.131 83.086C105.503 83.086 104.92 83.3548 104.516 83.8027C104.067 84.3402 103.843 84.9672 103.887 85.6839V91.1931H102.362V85.7286C102.407 85.012 102.227 84.3401 101.868 83.7579C101.509 83.31 100.971 83.086 100.432 83.086C100.028 83.086 99.6242 83.2204 99.3101 83.4443C98.9511 83.7131 98.637 84.0266 98.4575 84.4297C98.2331 84.8328 98.1433 85.2807 98.1433 85.7286V91.1931H96.6176V84.3401L96.5727 84.3849ZM119.729 87.2515H113.087C113.087 88.0129 113.401 88.7744 113.895 89.3566C114.388 89.8493 115.106 90.1181 115.824 90.0733C116.857 90.0733 117.844 89.6254 118.472 88.7744L119.37 89.6254C119.011 90.2077 118.517 90.6556 117.889 90.9243C117.26 91.2378 116.542 91.417 115.779 91.3722C114.613 91.4618 113.446 90.9691 112.593 90.1181C111.83 89.2671 111.471 88.1025 111.471 86.6244C111.471 85.1464 111.83 83.937 112.593 83.086C113.401 82.235 114.523 81.7423 115.69 81.7871C116.812 81.7423 117.889 82.1902 118.607 83.0412C119.325 83.8922 119.639 85.0568 119.639 86.5797V87.1619L119.729 87.2515ZM118.293 85.9526C118.293 85.1912 118.068 84.4745 117.619 83.8922C117.126 83.3548 116.408 83.086 115.735 83.1308C115.061 83.1308 114.388 83.3996 113.94 83.8922C113.446 84.5193 113.177 85.2807 113.177 86.087H118.382V85.9526H118.293ZM121.524 84.3849C121.524 83.6235 121.524 82.8621 121.434 82.0558H122.87C122.915 82.5933 122.96 83.1308 122.96 83.6683H123.004C123.274 83.086 123.722 82.6381 124.261 82.3246C124.844 82.0111 125.473 81.8319 126.146 81.8319C127.088 81.7871 127.986 82.1454 128.569 82.8621C129.108 83.5787 129.377 84.6089 129.377 85.9974V91.1931H127.806V85.9974C127.851 85.236 127.672 84.4745 127.313 83.8027C126.954 83.31 126.415 83.0412 125.787 83.086C125.293 83.086 124.8 83.2204 124.396 83.4891C123.992 83.7579 123.633 84.161 123.408 84.6089C123.184 85.1016 123.049 85.6391 123.049 86.1765V91.1931H121.479V84.3401L121.524 84.3849ZM132.743 80.4434C132.428 80.4434 132.159 80.3538 131.935 80.1747C131.755 79.9955 131.621 79.682 131.621 79.4132C131.621 79.1445 131.71 78.831 131.935 78.6518C132.159 78.4726 132.428 78.3383 132.743 78.3831C133.057 78.3831 133.326 78.4726 133.55 78.6518C133.775 78.831 133.864 79.1445 133.864 79.4132C133.864 79.682 133.775 79.9507 133.55 80.1747C133.326 80.3538 133.012 80.4882 132.743 80.4434ZM131.98 82.0558H133.55V91.2378H131.98V82.0558ZM136.108 84.3849C136.108 83.6235 136.108 82.8621 136.018 82.0558H137.454C137.499 82.5933 137.544 83.1308 137.544 83.6683H137.589C137.858 83.086 138.307 82.6381 138.846 82.3246C139.429 82.0111 140.057 81.8319 140.73 81.8319C141.673 81.7871 142.57 82.1454 143.154 82.8621C143.692 83.5787 143.961 84.6089 143.961 85.9974V91.1931H142.391V85.9974C142.436 85.236 142.256 84.4745 141.897 83.8027C141.538 83.31 141 83.0412 140.371 83.086C139.878 83.086 139.384 83.2204 138.98 83.4891C138.576 83.7579 138.217 84.161 137.993 84.6089C137.769 85.1016 137.634 85.6391 137.634 86.1765V91.1931H136.063V84.3401L136.108 84.3849ZM148.943 91.417C148.135 91.417 147.327 91.1483 146.699 90.6108C146.115 90.0733 145.801 89.3567 145.846 88.5952C145.846 87.7442 146.205 86.938 146.878 86.4453C147.776 85.9078 148.808 85.6391 149.84 85.6839H151.725V85.1912C151.725 84.6089 151.59 84.0714 151.186 83.6235C150.738 83.2204 150.199 83.0412 149.616 83.086C149.077 83.086 148.584 83.1756 148.09 83.4443C147.641 83.6683 147.237 84.0266 146.923 84.4297L146.115 83.4891C146.519 82.9516 147.058 82.5485 147.641 82.2798C148.27 82.0111 148.943 81.8767 149.661 81.8767C150.603 81.8319 151.59 82.1006 152.308 82.7277C152.981 83.3548 153.296 84.2506 153.251 85.1464V89.4462C153.251 90.0285 153.34 90.6556 153.475 91.2378H152.129C151.994 90.8347 151.904 90.3868 151.904 89.9389C151.59 90.3868 151.142 90.7899 150.648 91.0139C150.109 91.2826 149.571 91.417 148.988 91.3722L148.943 91.417ZM149.167 90.2077C149.616 90.2077 150.065 90.1181 150.468 89.9389C150.827 89.7598 151.142 89.5358 151.411 89.2223C151.635 88.9535 151.77 88.5952 151.77 88.1921V86.8484H149.84C149.212 86.8484 148.584 86.9828 148.045 87.2963C147.641 87.6098 147.417 88.1025 147.417 88.5952C147.417 89.0431 147.596 89.4462 147.911 89.7598C148.27 90.0733 148.763 90.2077 149.212 90.2077H149.167ZM158.232 91.417C157.604 91.417 156.931 91.2826 156.347 91.0139C155.854 90.7899 155.405 90.3868 155.18 89.8941L156.213 89.1775C156.437 89.491 156.706 89.7598 157.065 89.9389C157.424 90.1181 157.828 90.2077 158.277 90.2077C158.726 90.2077 159.219 90.0733 159.578 89.7598C159.892 89.491 160.072 89.0431 160.072 88.64C160.072 88.2817 159.937 87.9682 159.668 87.7442C159.219 87.4307 158.77 87.1619 158.232 86.9828C157.424 86.7588 156.661 86.3109 156.033 85.7734C155.18 84.9224 155.18 83.5339 156.033 82.6829C156.078 82.6381 156.168 82.5485 156.213 82.5037C156.886 82.0558 157.649 81.8319 158.456 81.8319C159.04 81.8319 159.578 81.9663 160.117 82.235C160.61 82.459 161.014 82.8621 161.283 83.31L160.341 84.0266C159.937 83.3996 159.219 83.0412 158.501 83.086C158.097 83.086 157.738 83.1756 157.379 83.3996C157.11 83.5787 156.931 83.8922 156.931 84.2058C156.931 84.5193 157.11 84.8328 157.379 85.0568C157.873 85.3703 158.456 85.6391 158.995 85.863C159.758 86.087 160.431 86.4901 161.014 87.0276C161.418 87.4755 161.642 88.0577 161.598 88.64C161.598 89.4462 161.283 90.2077 160.655 90.7004C159.982 91.2378 159.085 91.5066 158.232 91.4618V91.417ZM175.554 87.2515H168.912C168.912 88.0129 169.226 88.7744 169.72 89.3566C170.214 89.8493 170.932 90.1181 171.65 90.0733C172.682 90.0733 173.669 89.6254 174.297 88.7744L175.195 89.6254C174.836 90.2077 174.342 90.6556 173.714 90.9243C173.086 91.2378 172.368 91.417 171.605 91.3722C170.438 91.4618 169.271 90.9691 168.419 90.1181C167.656 89.2671 167.297 88.1025 167.297 86.6244C167.297 85.1464 167.656 83.937 168.419 83.086C169.226 82.235 170.348 81.7423 171.515 81.7871C172.637 81.7423 173.714 82.1902 174.432 83.0412C175.15 83.8922 175.464 85.0568 175.464 86.5797V87.2067L175.554 87.2515ZM174.118 85.9526C174.118 85.1912 173.894 84.4745 173.445 83.8922C172.951 83.3548 172.233 83.086 171.56 83.1308C170.887 83.1308 170.214 83.3996 169.765 83.8922C169.271 84.5193 169.002 85.2807 169.002 86.087H174.208V85.9526H174.118ZM181.837 84.3849C181.837 83.4443 181.837 82.6829 181.747 82.0558H183.138C183.183 82.5485 183.228 83.086 183.228 83.6683H183.273C183.497 83.1308 183.901 82.6381 184.439 82.3246C184.978 82.0111 185.561 81.8319 186.19 81.8319C186.773 81.8319 187.356 82.0111 187.85 82.3246C188.299 82.6381 188.658 83.1308 188.792 83.7131C189.062 83.1308 189.465 82.6829 189.959 82.3246C190.498 81.9663 191.126 81.8319 191.754 81.8319C192.652 81.7871 193.504 82.1454 194.133 82.8173C194.761 83.5787 195.03 84.5641 194.985 85.5495V91.2378H193.459V85.6839C193.504 85.012 193.325 84.3401 192.921 83.7579C192.562 83.31 191.978 83.0412 191.395 83.086C190.767 83.086 190.183 83.3548 189.78 83.8027C189.331 84.3402 189.106 84.9672 189.151 85.6839V91.1931H187.626V85.7286C187.67 85.012 187.491 84.3401 187.132 83.7579C186.773 83.31 186.234 83.086 185.696 83.086C185.292 83.086 184.888 83.2204 184.574 83.4443C184.215 83.7131 183.901 84.0266 183.721 84.4297C183.497 84.8328 183.407 85.2807 183.407 85.7286V91.1931H181.881V84.3401L181.837 84.3849ZM200.46 91.417C199.562 91.4618 198.665 91.1035 198.037 90.3868C197.498 89.715 197.229 88.6848 197.229 87.3411V82.0558H198.8V87.3859C198.8 89.2671 199.473 90.1629 200.774 90.1629C201.268 90.1629 201.761 90.0285 202.165 89.7598C202.569 89.491 202.928 89.0879 203.153 88.64C203.377 88.1473 203.512 87.6098 203.512 87.0723V82.0558H205.082V89.3119C205.082 89.9837 205.127 90.6108 205.262 91.2378H203.826C203.736 90.7004 203.646 90.1629 203.646 89.6254H203.601C203.332 90.2077 202.883 90.6556 202.345 90.9691C201.761 91.2826 201.133 91.4618 200.46 91.4618V91.417ZM209.57 91.417C208.223 91.417 207.595 90.6556 207.595 89.0879V77.6216H209.166V89.0879C209.166 89.4014 209.211 89.715 209.39 89.9837C209.57 90.1629 209.839 90.2972 210.108 90.2525C210.422 90.2525 210.737 90.1629 211.051 90.0285L211.275 90.9691C210.781 91.2826 210.198 91.4618 209.615 91.417H209.57ZM212.756 77.6216H214.327V83.4891C214.596 82.9964 215.045 82.5485 215.583 82.3246C216.166 82.0111 216.795 81.8767 217.423 81.8767C218.365 81.8319 219.308 82.235 219.936 82.9517C220.564 83.8475 220.878 84.9224 220.834 85.9974V91.2378H219.263V85.9526C219.308 85.1912 219.128 84.4297 218.724 83.8027C218.365 83.31 217.782 83.0412 217.154 83.0412C216.66 83.0412 216.166 83.1756 215.718 83.4443C215.269 83.7131 214.955 84.1162 214.73 84.5641C214.506 85.0568 214.371 85.6391 214.371 86.1765V91.1931H212.801V77.5768L212.756 77.6216ZM230.796 87.2515H224.154C224.154 88.0129 224.468 88.7744 224.962 89.3566C225.456 89.8493 226.174 90.1181 226.892 90.0733C227.924 90.0733 228.911 89.6254 229.539 88.7744L230.437 89.6254C230.078 90.2077 229.584 90.6556 228.956 90.9243C228.328 91.2378 227.61 91.417 226.847 91.3722C225.68 91.4618 224.513 90.9691 223.661 90.1181C222.898 89.2671 222.539 88.1025 222.539 86.6244C222.539 85.1464 222.898 83.937 223.661 83.086C224.468 82.235 225.59 81.7423 226.757 81.7871C227.879 81.7423 228.956 82.1902 229.674 83.0412C230.392 83.8922 230.706 85.0568 230.706 86.5797V87.2067L230.796 87.2515ZM229.36 85.9526C229.36 85.1912 229.136 84.4745 228.687 83.8922C228.193 83.3548 227.475 83.086 226.802 83.1308C226.129 83.1308 225.456 83.3996 225.007 83.8922C224.513 84.5193 224.244 85.2807 224.244 86.087H229.45V85.9526H229.36ZM232.681 84.2954C232.681 83.2652 232.681 82.5037 232.636 82.0558H234.072C234.117 82.5485 234.162 83.086 234.162 83.6683V83.8475H234.207C234.431 83.2652 234.79 82.7277 235.328 82.3694C235.867 82.0111 236.495 81.8319 237.168 81.8767C237.348 81.8767 237.527 81.8767 237.707 81.9215V83.2204C237.482 83.2204 237.258 83.1756 237.079 83.1756C236.585 83.1756 236.091 83.3548 235.643 83.6235C235.194 83.937 234.835 84.3849 234.61 84.9224C234.341 85.4599 234.251 86.087 234.251 86.6692V91.2378H232.681V84.2954ZM246.727 87.2515H240.085C240.085 88.0129 240.399 88.7744 240.893 89.3566C241.387 89.8493 242.105 90.1181 242.823 90.0733C243.855 90.0733 244.842 89.6254 245.47 88.7744L246.368 89.6254C246.009 90.2077 245.515 90.6556 244.887 90.9243C244.259 91.2378 243.541 91.417 242.778 91.3722C241.611 91.4618 240.444 90.9691 239.592 90.1181C238.829 89.2671 238.47 88.1025 238.47 86.6244C238.47 85.1464 238.829 83.937 239.592 83.086C240.399 82.235 241.521 81.7423 242.688 81.7871C243.81 81.7423 244.887 82.1902 245.605 83.0412C246.323 83.8922 246.637 85.0568 246.637 86.5797V87.2067L246.727 87.2515ZM245.291 85.9526C245.291 85.1912 245.066 84.4745 244.618 83.8922C244.124 83.3548 243.406 83.086 242.733 83.1308C242.06 83.1308 241.387 83.3996 240.938 83.8922C240.444 84.5193 240.175 85.2807 240.175 86.087H245.381V85.9526H245.291ZM251.843 91.417C251.214 91.417 250.541 91.2826 249.958 91.0139C249.464 90.7899 249.016 90.3868 248.791 89.8941L249.823 89.1775C250.048 89.491 250.317 89.7598 250.676 89.9389C251.035 90.1181 251.439 90.2077 251.888 90.2077C252.336 90.2077 252.83 90.0733 253.144 89.7598C253.458 89.491 253.638 89.0431 253.638 88.64C253.638 88.2817 253.503 87.9682 253.234 87.7442C252.785 87.4307 252.336 87.1619 251.798 86.9828C250.99 86.7588 250.227 86.3109 249.599 85.7734C248.746 84.9224 248.746 83.5339 249.599 82.6829C249.644 82.6381 249.734 82.5485 249.778 82.5037C250.452 82.0558 251.214 81.8319 252.022 81.8319C252.606 81.8319 253.144 81.9663 253.683 82.235C254.176 82.459 254.58 82.8621 254.849 83.31L253.907 84.0266C253.503 83.3996 252.785 83.0412 252.067 83.086C251.663 83.086 251.304 83.1756 250.945 83.3996C250.676 83.5787 250.496 83.8922 250.496 84.2058C250.496 84.5193 250.676 84.8328 250.945 85.0568C251.439 85.3703 252.022 85.6391 252.561 85.863C253.324 86.087 253.997 86.4901 254.58 87.0276C254.984 87.4755 255.208 88.0577 255.163 88.64C255.163 89.4462 254.849 90.2077 254.266 90.7004C253.593 91.2378 252.695 91.5066 251.843 91.4618V91.417Z" fill="#8C3D78"/>
</g>
<defs>
<clipPath id="clip0_541_3568">
<rect width="306.591" height="95" fill="white"/>
</clipPath>
</defs>
</svg>
