<svg xmlns="http://www.w3.org/2000/svg" id="Layer_1" data-name="Layer 1" viewBox="0 0 1411.02 1411.02"><defs><style>      .cls-1 {        fill: #f04e37;      }      .cls-2 {        fill: #00afad;      }    </style></defs><g><g><path class="cls-1" d="M653.29,705.15h0c-.15-6.5,4.99-11.89,11.49-12.04l23.32-.55c6.5-.15,11.89,4.99,12.04,11.49h0c.15,6.5-4.99,11.89-11.49,12.04l-23.32.55c-6.5.15-11.89-4.99-12.04-11.49Z"></path><rect class="cls-2" x="633.16" y="693.31" width="21.08" height="23.54" rx="9.16" ry="9.16" transform="translate(-16.37 15.3) rotate(-1.34)"></rect></g><g><path class="cls-1" d="M665.02,657.62h0c2.84-5.85,9.88-8.29,15.73-5.45l20.99,10.18c5.85,2.84,8.29,9.88,5.45,15.73h0c-2.84,5.85-9.88,8.29-15.73,5.45l-20.99-10.18c-5.85-2.84-8.29-9.88-5.45-15.73Z"></path><path class="cls-2" d="M653.92,642.63h5.22c5.06,0,9.16,4.11,9.16,9.16v2.76c0,5.06-4.11,9.16-9.16,9.16h-5.22c-5.06,0-9.16-4.11-9.16-9.16v-2.76c0-5.06,4.11-9.16,9.16-9.16Z" transform="translate(-217.71 958.74) rotate(-64.12)"></path></g><g><path class="cls-1" d="M695.79,621.37h0c5.14-3.98,12.53-3.04,16.51,2.1l14.29,18.44c3.98,5.14,3.04,12.53-2.1,16.51h0c-5.14,3.98-12.53,3.04-16.51-2.1l-14.29-18.44c-3.98-5.14-3.04-12.53,2.1-16.52Z"></path><rect class="cls-2" x="678.38" y="603.07" width="23.54" height="21.08" rx="9.16" ry="9.16" transform="translate(-231.21 551.07) rotate(-37.76)"></rect></g><g><path class="cls-1" d="M739.91,601.93h0c6.38-1.25,12.57,2.9,13.82,9.28l4.5,22.89c1.25,6.38-2.9,12.57-9.28,13.82h0c-6.38,1.25-12.57-2.9-13.82-9.28l-4.5-22.89c-1.25-6.38,2.9-12.57,9.28-13.82Z"></path><rect class="cls-2" x="726.57" y="581.92" width="23.54" height="21.08" rx="9.16" ry="9.16" transform="translate(-100.41 153.54) rotate(-11.12)"></rect></g><g><path class="cls-1" d="M789.29,605.08h0c6.25,1.8,9.85,8.33,8.05,14.58l-6.47,22.42c-1.8,6.25-8.33,9.85-14.58,8.05h0c-6.25-1.8-9.85-8.33-8.05-14.58l6.47-22.42c1.8-6.25,8.33-9.85,14.58-8.05Z"></path><rect class="cls-2" x="781.68" y="584.18" width="21.08" height="23.55" rx="9.16" ry="9.16" transform="translate(-.02 1191.87) rotate(-73.9)"></rect></g><g><path class="cls-1" d="M830.38,629.53h0c4.8,4.39,5.14,11.83.75,16.63l-15.74,17.23c-4.39,4.8-11.83,5.14-16.63.75h0c-4.8-4.39-5.14-11.83-.75-16.63l15.74-17.23c4.39-4.8,11.83-5.14,16.63-.75Z"></path><rect class="cls-2" x="826.52" y="610.88" width="21.08" height="23.55" rx="9.16" ry="9.16" transform="translate(-187.23 820.65) rotate(-47.58)"></rect></g><g><path class="cls-1" d="M856.85,669.28h0c2.37,6.06-.62,12.88-6.68,15.25l-21.73,8.5c-6.06,2.37-12.88-.62-15.25-6.68h0c-2.37-6.06.62-12.88,6.68-15.25l21.73-8.5c6.06-2.37,12.88.62,15.25,6.68Z"></path><rect class="cls-2" x="855.34" y="654.29" width="21.09" height="23.55" rx="9.16" ry="9.16" transform="translate(-183.09 361.02) rotate(-21.35)"></rect></g><g><path class="cls-1" d="M863.3,717.64h0c-.26,6.5-5.74,11.55-12.23,11.29l-23.31-.93c-6.5-.26-11.55-5.74-11.29-12.23h0c.26-6.5,5.74-11.55,12.23-11.29l23.31.93c6.5.26,11.55,5.74,11.29,12.23Z"></path><rect class="cls-2" x="861.09" y="707.77" width="23.55" height="21.09" rx="9.16" ry="9.16" transform="translate(120.26 1561.8) rotate(-87.71)"></rect></g><g><path class="cls-1" d="M854.69,763.35h0c-1.78,6.25-8.3,9.88-14.55,8.1l-22.44-6.39c-6.25-1.78-9.88-8.3-8.1-14.55h0c1.78-6.25,8.3-9.88,14.55-8.1l22.44,6.39c6.25,1.78,9.88,8.3,8.1,14.55Z"></path><path class="cls-2" d="M861.22,755.72h5.22c5.06,0,9.16,4.11,9.16,9.16v2.76c0,5.06-4.11,9.16-9.16,9.16h-5.22c-5.06,0-9.16-4.11-9.16-9.16v-2.76c0-5.06,4.11-9.16,9.16-9.16Z" transform="translate(-109.78 1387.1) rotate(-74.1)"></path></g><g><path class="cls-1" d="M836.2,804.78h0c-3.17,5.68-10.35,7.71-16.02,4.54l-20.37-11.38c-5.68-3.17-7.71-10.35-4.54-16.02h0c3.17-5.68,10.35-7.71,16.02-4.54l20.37,11.38c5.68,3.17,7.71,10.35,4.54,16.02Z"></path><rect class="cls-2" x="832.65" y="799.17" width="23.55" height="21.09" rx="9.16" ry="9.16" transform="translate(-274.32 1151.92) rotate(-60.81)"></rect></g><g><path class="cls-1" d="M809.17,840.59h0c-4.37,4.82-11.82,5.18-16.63.81l-17.28-15.68c-4.82-4.37-5.18-11.82-.81-16.63h0c4.37-4.82,11.82-5.18,16.63-.81l17.28,15.68c4.82,4.37,5.18,11.82.81,16.63Z"></path><rect class="cls-2" x="804.29" y="836.7" width="23.55" height="21.09" rx="9.17" ry="9.17" transform="translate(-359.76 882.17) rotate(-47.78)"></rect></g><g><path class="cls-1" d="M774.89,869.42h0c-5.34,3.71-12.68,2.39-16.39-2.96l-13.31-19.17c-3.71-5.34-2.39-12.68,2.96-16.39h0c5.34-3.71,12.68-2.39,16.39,2.96l13.31,19.17c3.71,5.34,2.39,12.68-2.96,16.39Z"></path><rect class="cls-2" x="768.35" y="866.92" width="23.55" height="21.09" rx="9.17" ry="9.17" transform="translate(-361.13 601.66) rotate(-34.77)"></rect></g><g><path class="cls-1" d="M734.64,890.11h0c-6.05,2.39-12.89-.58-15.28-6.63l-8.57-21.71c-2.39-6.05.58-12.89,6.63-15.28h0c6.05-2.39,12.89.58,15.28,6.63l8.57,21.71c2.39,6.05-.58,12.89-6.63,15.28Z"></path><rect class="cls-2" x="726.12" y="888.58" width="23.55" height="21.09" rx="9.17" ry="9.17" transform="translate(-278.7 333.93) rotate(-21.55)"></rect></g><g><path class="cls-1" d="M689.78,901.18h0c-6.44.91-12.39-3.58-13.3-10.02l-3.25-23.11c-.91-6.44,3.58-12.39,10.02-13.3h0c6.44-.91,12.39,3.58,13.3,10.02l3.25,23.11c.91,6.44-3.58,12.39-10.02,13.3Z"></path><rect class="cls-2" x="679.05" y="900.17" width="23.55" height="21.09" rx="9.17" ry="9.17" transform="translate(-120.03 105.01) rotate(-8)"></rect></g><g><path class="cls-1" d="M642.37,901.15h0c-6.47-.65-11.19-6.42-10.54-12.89l2.33-23.22c.65-6.47,6.42-11.19,12.89-10.54h0c6.47.65,11.19,6.42,10.54,12.89l-2.33,23.22c-.65,6.47-6.42,11.19-12.89,10.54Z"></path><rect class="cls-2" x="630.58" y="898.89" width="21.09" height="23.55" rx="9.17" ry="9.17" transform="translate(-328.9 1457.85) rotate(-84.28)"></rect></g><g><path class="cls-1" d="M597.6,889.94h0c-6.14-2.15-9.38-8.86-7.23-15l7.7-22.03c2.15-6.14,8.86-9.38,15-7.23h0c6.14,2.15,9.38,8.86,7.23,15l-7.7,22.03c-2.15,6.14-8.86,9.38-15,7.23Z"></path><path class="cls-2" d="M592.79,887.12h2.76c5.06,0,9.17,4.11,9.17,9.17v5.22c0,5.06-4.11,9.17-9.17,9.17h-2.76c-5.06,0-9.17-4.11-9.17-9.17v-5.22c0-5.06,4.11-9.17,9.17-9.17Z" transform="translate(-450.42 1163.28) rotate(-70.74)"></path></g><g><path class="cls-1" d="M557.46,869.19h0c-5.49-3.49-7.1-10.77-3.61-16.26l12.53-19.69c3.49-5.49,10.77-7.1,16.26-3.61h0c5.49,3.49,7.1,10.77,3.61,16.26l-12.53,19.69c-3.49,5.49-10.77,7.1-16.26,3.61Z"></path><rect class="cls-2" x="541.52" y="865.34" width="21.09" height="23.55" rx="9.17" ry="9.17" transform="translate(-484.32 871.93) rotate(-57.53)"></rect></g><g><path class="cls-1" d="M523.19,840.16h0c-4.56-4.64-4.5-12.09.14-16.65l16.64-16.37c4.64-4.56,12.09-4.5,16.65.14h0c4.56,4.64,4.5,12.09-.14,16.65l-16.64,16.37c-4.64,4.56-12.09,4.5-16.65-.14Z"></path><rect class="cls-2" x="505.61" y="834.9" width="21.09" height="23.55" rx="9.17" ry="9.17" transform="translate(-445.56 605.05) rotate(-44.53)"></rect></g><g><path class="cls-1" d="M496.43,804.33h0c-3.4-5.55-1.66-12.8,3.89-16.2l19.9-12.19c5.55-3.4,12.8-1.66,16.2,3.89h0c3.4,5.55,1.66,12.8-3.89,16.2l-19.9,12.19c-5.55,3.4-12.8,1.66-16.2-3.89Z"></path><rect class="cls-2" x="477.56" y="797.31" width="21.09" height="23.56" rx="9.17" ry="9.17" transform="translate(-350.77 374.16) rotate(-31.49)"></rect></g><g><path class="cls-1" d="M477.97,762.78h0c-2.03-6.18,1.33-12.84,7.51-14.87l22.18-7.29c6.18-2.03,12.84,1.33,14.87,7.51h0c2.03,6.18-1.33,12.84-7.51,14.87l-22.18,7.29c-6.18,2.03-12.84-1.33-14.87-7.51Z"></path><rect class="cls-2" x="458.22" y="753.72" width="21.09" height="23.56" rx="9.17" ry="9.17" transform="translate(-215.53 184.58) rotate(-18.19)"></rect></g><g><path class="cls-1" d="M469.51,716.98h0c-.52-6.48,4.32-12.16,10.8-12.68l23.27-1.86c6.48-.52,12.16,4.32,12.68,10.8h0c.52,6.48-4.32,12.16-10.8,12.68l-23.27,1.86c-6.48.52-12.16-4.32-12.68-10.8Z"></path><rect class="cls-2" x="449.38" y="705.67" width="21.09" height="23.56" rx="9.17" ry="9.17" transform="translate(-55.68 38.91) rotate(-4.57)"></rect></g><g><path class="cls-1" d="M471.32,670.23h0c.64-6.47,6.41-11.2,12.88-10.56l23.23,2.3c6.47.64,11.2,6.41,10.56,12.88h0c-.64,6.47-6.41,11.2-12.88,10.56l-23.23-2.3c-6.47-.64-11.2-6.41-10.56-12.88Z"></path><rect class="cls-2" x="450.03" y="658.45" width="23.56" height="21.1" rx="9.17" ry="9.17" transform="translate(-249.37 1062.75) rotate(-84.35)"></rect></g><g><path class="cls-1" d="M480.53,625.74h0c1.65-6.29,8.09-10.05,14.38-8.4l22.58,5.93c6.29,1.65,10.05,8.09,8.4,14.38h0c-1.65,6.29-8.09,10.05-14.38,8.4l-22.58-5.93c-6.29-1.65-10.05-8.09-8.4-14.38Z"></path><rect class="cls-2" x="459.55" y="612.47" width="23.56" height="21.1" rx="9.17" ry="9.17" transform="translate(-250.94 920.71) rotate(-75.29)"></rect></g><g><path class="cls-1" d="M496.28,583.98h0c2.61-5.96,9.55-8.68,15.51-6.07l21.39,9.36c5.96,2.61,8.68,9.55,6.07,15.51h0c-2.61,5.96-9.55,8.68-15.51,6.07l-21.39-9.36c-5.96-2.61-8.68-9.55-6.07-15.51Z"></path><rect class="cls-2" x="475.83" y="569.32" width="23.56" height="21.1" rx="9.17" ry="9.17" transform="translate(-239.08 794.18) rotate(-66.37)"></rect></g><g><path class="cls-1" d="M517.97,545.55h0c3.49-5.49,10.76-7.12,16.26-3.63l19.71,12.51c5.49,3.49,7.12,10.77,3.63,16.26h0c-3.49,5.49-10.77,7.12-16.26,3.63l-19.71-12.51c-5.49-3.49-7.12-10.77-3.63-16.26Z"></path><rect class="cls-2" x="498.25" y="529.61" width="23.56" height="21.1" rx="9.17" ry="9.17" transform="translate(-219.33 681.34) rotate(-57.6)"></rect></g><g><path class="cls-1" d="M545.05,511.01h0c4.27-4.9,11.72-5.42,16.62-1.14l17.6,15.34c4.9,4.27,5.41,11.72,1.14,16.62h0c-4.27,4.9-11.72,5.41-16.62,1.14l-17.6-15.34c-4.9-4.27-5.41-11.72-1.14-16.62Z"></path><rect class="cls-2" x="526.23" y="493.94" width="23.56" height="21.1" rx="9.17" ry="9.17" transform="translate(-195.8 578.59) rotate(-48.92)"></rect></g><g><path class="cls-1" d="M576.95,480.91h0c4.96-4.21,12.4-3.59,16.6,1.37l15.09,17.81c4.21,4.96,3.59,12.4-1.37,16.6h0c-4.96,4.21-12.4,3.59-16.6-1.37l-15.09-17.81c-4.21-4.96-3.59-12.4,1.37-16.6Z"></path><path class="cls-2" d="M568.36,462.85h5.22c5.06,0,9.17,4.11,9.17,9.17v2.76c0,5.06-4.11,9.17-9.17,9.17h-5.22c-5.06,0-9.17-4.11-9.17-9.17v-2.76c0-5.06,4.11-9.17,9.17-9.17Z" transform="translate(-170.69 481.32) rotate(-40.27)"></path></g><g><path class="cls-1" d="M613.05,455.99h0c5.54-3.41,12.8-1.67,16.2,3.87l12.22,19.89c3.41,5.54,1.67,12.8-3.87,16.2h0c-5.54,3.41-12.8,1.67-16.2-3.87l-12.22-19.89c-3.41-5.54-1.67-12.8,3.87-16.2Z"></path><rect class="cls-2" x="596.5" y="437.12" width="23.56" height="21.1" rx="9.17" ry="9.17" transform="translate(-144.34 384.67) rotate(-31.57)"></rect></g><g><path class="cls-1" d="M652.89,436.47h0c6-2.51,12.9.31,15.42,6.31l9.02,21.53c2.51,6-.31,12.9-6.31,15.42h0c-6,2.51-12.9-.31-15.42-6.31l-9.02-21.53c-2.51-6,.31-12.9,6.31-15.42Z"></path><rect class="cls-2" x="637.67" y="416.96" width="23.56" height="21.1" rx="9.17" ry="9.17" transform="translate(-114.76 284.24) rotate(-22.74)"></rect></g><g><path class="cls-1" d="M695.82,423.21h0c6.32-1.55,12.7,2.32,14.25,8.64l5.55,22.68c1.55,6.32-2.32,12.7-8.64,14.25h0c-6.32,1.55-12.7-2.32-14.25-8.64l-5.55-22.68c-1.55-6.32,2.32-12.7,8.64-14.25Z"></path><rect class="cls-2" x="682.04" y="403.27" width="23.56" height="21.1" rx="9.17" ry="9.17" transform="translate(-78.5 176.85) rotate(-13.76)"></rect></g><g><path class="cls-1" d="M741.25,416.71h0c6.49-.53,12.17,4.3,12.7,10.79l1.89,23.27c.53,6.49-4.3,12.17-10.79,12.7h0c-6.49.53-12.17-4.3-12.7-10.79l-1.89-23.27c-.53-6.49,4.3-12.17,10.79-12.7Z"></path><rect class="cls-2" x="728.99" y="396.57" width="23.56" height="21.1" rx="9.17" ry="9.17" transform="translate(-30.54 61.34) rotate(-4.65)"></rect></g><g><path class="cls-1" d="M787.9,417.7h0c6.49.51,11.33,6.18,10.82,12.67l-1.83,23.28c-.51,6.49-6.18,11.33-12.67,10.82h0c-6.49-.51-11.33-6.18-10.82-12.67l1.83-23.28c.51-6.49,6.18-11.33,12.67-10.82Z"></path><rect class="cls-2" x="778.39" y="396.37" width="21.1" height="23.56" rx="9.17" ry="9.17" transform="translate(320.08 1162.6) rotate(-85.49)"></rect></g><g><path class="cls-1" d="M832.69,426.06h0c6.33,1.53,10.21,7.9,8.69,14.22l-5.48,22.7c-1.53,6.33-7.9,10.21-14.22,8.69h0c-6.33-1.53-10.21-7.9-8.69-14.22l5.48-22.7c1.53-6.33,7.9-10.21,14.22-8.69Z"></path><rect class="cls-2" x="824.68" y="405.02" width="21.1" height="23.57" rx="9.17" ry="9.17" transform="translate(233.91 1130.78) rotate(-76.42)"></rect></g><g><path class="cls-1" d="M874.82,441.03h0c6.01,2.49,8.86,9.39,6.37,15.4l-8.94,21.57c-2.49,6.01-9.39,8.86-15.4,6.37h0c-6.01-2.49-8.86-9.39-6.37-15.4l8.94-21.57c2.49-6.01,9.39-8.86,15.4-6.37Z"></path><path class="cls-2" d="M877.39,420.5h2.76c5.06,0,9.17,4.11,9.17,9.17v5.22c0,5.06-4.11,9.17-9.17,9.17h-2.76c-5.06,0-9.17-4.11-9.17-9.17v-5.22c0-5.06,4.11-9.17,9.17-9.17Z" transform="translate(142.85 1078.44) rotate(-67.48)"></path></g><g><path class="cls-1" d="M913.69,462.02h0c5.56,3.38,7.33,10.63,3.94,16.19l-12.14,19.95c-3.38,5.56-10.63,7.33-16.19,3.94h0c-5.56-3.38-7.33-10.63-3.94-16.19l12.14-19.95c3.38-5.56,10.63-7.33,16.19-3.94Z"></path><rect class="cls-2" x="908.38" y="442.19" width="21.1" height="23.57" rx="9.17" ry="9.17" transform="translate(53.51 1003.14) rotate(-58.69)"></rect></g><g><path class="cls-1" d="M948.74,488.46h0c4.99,4.18,5.64,11.62,1.45,16.6l-15.01,17.89c-4.18,4.99-11.62,5.64-16.6,1.45h0c-4.99-4.18-5.64-11.62-1.45-16.6l15.01-17.89c4.18-4.99,11.62-5.64,16.6-1.45Z"></path><rect class="cls-2" x="944.58" y="469.52" width="21.1" height="23.57" rx="9.17" ry="9.17" transform="translate(-27.47 903.7) rotate(-50.01)"></rect></g><g><path class="cls-1" d="M979.44,519.81h0c4.3,4.89,3.83,12.33-1.06,16.63l-17.53,15.43c-4.89,4.3-12.33,3.83-16.63-1.06h0c-4.3-4.89-3.83-12.33,1.06-16.63l17.53-15.43c4.89-4.3,12.33-3.83,16.63,1.06Z"></path><rect class="cls-2" x="976.28" y="501.91" width="21.1" height="23.57" rx="9.17" ry="9.17" transform="translate(-93.31 780.16) rotate(-41.36)"></rect></g><g><path class="cls-1" d="M1005.01,555.41h0c3.51,5.48,1.92,12.77-3.56,16.28l-19.66,12.6c-5.48,3.51-12.77,1.92-16.28-3.56h0c-3.51-5.48-1.92-12.77,3.56-16.28l19.66-12.6c5.48-3.51,12.77-1.92,16.28,3.56Z"></path><rect class="cls-2" x="1002.7" y="538.69" width="21.11" height="23.57" rx="9.17" ry="9.17" transform="translate(-136.86 633.86) rotate(-32.66)"></rect></g><g><path class="cls-1" d="M1025.25,594.82h0c2.63,5.95-.06,12.91-6.01,15.54l-21.36,9.44c-5.95,2.63-12.91-.06-15.54-6.01h0c-2.63-5.95.06-12.91,6.01-15.54l21.36-9.44c5.95-2.63,12.91.06,15.54,6.01Z"></path><rect class="cls-2" x="1023.59" y="579.43" width="21.11" height="23.57" rx="9.17" ry="9.17" transform="translate(-150.74 468.62) rotate(-23.85)"></rect></g><g><path class="cls-1" d="M1039.3,637.4h0c1.67,6.29-2.07,12.75-8.36,14.42l-22.57,6c-6.29,1.67-12.75-2.07-14.42-8.36h0c-1.67-6.29,2.07-12.75,8.36-14.42l22.57-6c6.29-1.67,12.75,2.07,14.42,8.36Z"></path><rect class="cls-2" x="1038.1" y="623.43" width="21.11" height="23.57" rx="9.17" ry="9.17" transform="translate(-127.99 290.71) rotate(-14.89)"></rect></g><g><path class="cls-1" d="M1046.67,682.56h0c.66,6.48-4.06,12.26-10.54,12.91l-23.24,2.36c-6.48.66-12.26-4.06-12.91-10.54h0c-.66-6.48,4.06-12.26,10.54-12.91l23.24-2.36c6.48-.66,12.26,4.06,12.91,10.54Z"></path><path class="cls-2" d="M1054.86,670.1h2.76c5.06,0,9.17,4.11,9.17,9.17v5.22c0,5.06-4.11,9.17-9.17,9.17h-2.76c-5.06,0-9.17-4.11-9.17-9.17v-5.22c0-5.06,4.11-9.17,9.17-9.17Z" transform="translate(-63.39 110.01) rotate(-5.79)"></path></g><g><path class="cls-1" d="M1046.92,729.05h0c-.25,6.5-5.72,11.58-12.22,11.33l-23.34-.89c-6.5-.25-11.58-5.72-11.33-12.22h0c.25-6.5,5.72-11.58,12.22-11.33l23.34.89c6.5.25,11.58,5.72,11.33,12.22Z"></path><rect class="cls-2" x="1044.71" y="719.16" width="23.57" height="21.11" rx="9.17" ry="9.17" transform="translate(287.23 1757.76) rotate(-87.83)"></rect></g><g><path class="cls-1" d="M1041.29,774.23h0c-1.02,6.43-7.06,10.81-13.49,9.79l-23.07-3.66c-6.43-1.02-10.81-7.06-9.79-13.49h0c1.02-6.43,7.06-10.81,13.49-9.79l23.07,3.66c6.43,1.02,10.81,7.06,9.79,13.49Z"></path><rect class="cls-2" x="1038.93" y="765.47" width="23.57" height="21.11" rx="9.17" ry="9.17" transform="translate(119.67 1692.18) rotate(-80.99)"></rect></g><g><path class="cls-1" d="M1030.54,817.63h0c-1.77,6.26-8.28,9.91-14.55,8.14l-22.48-6.36c-6.26-1.77-9.91-8.28-8.14-14.55h0c1.77-6.26,8.28-9.91,14.55-8.14l22.48,6.36c6.26,1.77,9.91,8.28,8.14,14.55Z"></path><rect class="cls-2" x="1027.91" y="809.97" width="23.57" height="21.11" rx="9.17" ry="9.17" transform="translate(-32.75 1597.76) rotate(-74.21)"></rect></g><g><path class="cls-1" d="M1014.99,858.95h0c-2.49,6.02-9.38,8.87-15.4,6.39l-21.59-8.93c-6.02-2.49-8.87-9.38-6.39-15.4h0c2.49-6.02,9.38-8.87,15.4-6.39l21.59,8.93c6.02,2.49,8.87,9.38,6.39,15.4Z"></path><rect class="cls-2" x="1011.96" y="852.33" width="23.57" height="21.11" rx="9.17" ry="9.17" transform="translate(-164.97 1478.99) rotate(-67.52)"></rect></g><g><path class="cls-1" d="M994.98,897.84h0c-3.16,5.69-10.34,7.74-16.03,4.57l-20.42-11.35c-5.69-3.16-7.74-10.34-4.57-16.03h0c3.16-5.69,10.34-7.74,16.03-4.57l20.42,11.35c5.69,3.16,7.74,10.34,4.57,16.03Z"></path><rect class="cls-2" x="991.43" y="892.21" width="23.57" height="21.11" rx="9.17" ry="9.17" transform="translate(-273.34 1340.73) rotate(-60.92)"></rect></g><g><path class="cls-1" d="M970.8,934h0c-3.79,5.29-11.15,6.51-16.45,2.72l-18.99-13.6c-5.29-3.79-6.51-11.15-2.72-16.45h0c3.79-5.29,11.15-6.51,16.45-2.72l18.99,13.6c5.29,3.79,6.51,11.15,2.72,16.45Z"></path><rect class="cls-2" x="966.64" y="929.27" width="23.58" height="21.11" rx="9.18" ry="9.18" transform="translate(-355.38 1187.91) rotate(-54.38)"></rect></g><g><path class="cls-1" d="M942.79,967.1h0c-4.37,4.83-11.82,5.21-16.65.84l-17.33-15.67c-4.83-4.37-5.21-11.82-.84-16.65h0c4.37-4.83,11.82-5.21,16.65-.84l17.33,15.67c4.83,4.37,5.21,11.82.84,16.65Z"></path><rect class="cls-2" x="937.92" y="963.2" width="23.58" height="21.11" rx="9.18" ry="9.18" transform="translate(-409.51 1025.33) rotate(-47.89)"></rect></g><g><path class="cls-1" d="M911.23,996.88h0c-4.88,4.31-12.33,3.84-16.64-1.05l-15.45-17.52c-4.31-4.88-3.84-12.33,1.05-16.64h0c4.88-4.31,12.33-3.84,16.64,1.05l15.45,17.52c4.31,4.88,3.84,12.33-1.05,16.64Z"></path><rect class="cls-2" x="905.57" y="993.71" width="23.58" height="21.11" rx="9.18" ry="9.18" transform="translate(-434.91 857.69) rotate(-41.4)"></rect></g><g><path class="cls-1" d="M876.53,1022.84h0c-5.34,3.72-12.69,2.41-16.41-2.93l-13.36-19.16c-3.72-5.34-2.41-12.69,2.93-16.41h0c5.34-3.72,12.69-2.41,16.41,2.93l13.36,19.16c3.72,5.34,2.41,12.69-2.93,16.41Z"></path><rect class="cls-2" x="869.99" y="1020.32" width="23.58" height="21.11" rx="9.18" ry="9.18" transform="translate(-431.17 689.69) rotate(-34.89)"></rect></g><g><path class="cls-1" d="M838.88,1044.92h0c-5.73,3.09-12.88.95-15.97-4.79l-11.08-20.57c-3.09-5.73-.95-12.88,4.79-15.97h0c5.73-3.09,12.88-.95,15.97,4.79l11.08,20.57c3.09,5.73.95,12.88-4.79,15.97Z"></path><rect class="cls-2" x="831.38" y="1042.96" width="23.58" height="21.11" rx="9.18" ry="9.18" transform="translate(-398.87 526.1) rotate(-28.32)"></rect></g><g><path class="cls-1" d="M798.67,1062.65h0c-6.05,2.4-12.91-.55-15.31-6.6l-8.63-21.71c-2.4-6.05.55-12.91,6.6-15.31h0c6.05-2.4,12.91.55,15.31,6.6l8.63,21.71c2.4,6.05-.55,12.91-6.6,15.31Z"></path><rect class="cls-2" x="790.15" y="1061.12" width="23.58" height="21.11" rx="9.18" ry="9.18" transform="translate(-339.06 371.88) rotate(-21.67)"></rect></g><g><path class="cls-1" d="M756.2,1075.73h0c-6.29,1.68-12.75-2.06-14.43-8.35l-6.02-22.58c-1.68-6.29,2.06-12.75,8.35-14.43h0c6.29-1.68,12.75,2.06,14.43,8.35l6.02,22.58c1.68,6.29-2.06,12.75-8.35,14.43Z"></path><rect class="cls-2" x="746.6" y="1074.52" width="23.58" height="21.12" rx="9.18" ry="9.18" transform="translate(-254.03 232.11) rotate(-14.93)"></rect></g><g><path class="cls-1" d="M711.8,1083.85h0c-6.45.92-12.42-3.56-13.34-10.01l-3.3-23.13c-.92-6.45,3.56-12.42,10.01-13.34h0c6.45-.92,12.42,3.56,13.34,10.01l3.3,23.13c.92,6.45-3.56,12.42-10.01,13.34Z"></path><rect class="cls-2" x="701.08" y="1082.83" width="23.58" height="21.12" rx="9.18" ry="9.18" transform="translate(-147.32 111.68) rotate(-8.12)"></rect></g><g><path class="cls-1" d="M665.81,1086.68h0c-6.51.14-11.9-5.02-12.05-11.53l-.51-23.36c-.14-6.51,5.02-11.9,11.53-12.05h0c6.51-.14,11.9,5.02,12.05,11.53l.51,23.36c.14,6.51-5.02,11.9-11.53,12.05Z"></path><rect class="cls-2" x="653.94" y="1085.73" width="23.58" height="21.12" rx="9.18" ry="9.18" transform="translate(-23.99 14.93) rotate(-1.26)"></rect></g><g><path class="cls-1" d="M619.89,1083.77h0c-6.48-.64-11.22-6.4-10.58-12.88l2.28-23.26c.64-6.48,6.4-11.22,12.88-10.58h0c6.48.64,11.22,6.4,10.58,12.88l-2.28,23.26c-.64,6.48-6.4,11.22-12.88,10.58Z"></path><rect class="cls-2" x="608.1" y="1081.5" width="21.12" height="23.58" rx="9.18" ry="9.18" transform="translate(-529.76 1602.38) rotate(-84.4)"></rect></g><g><path class="cls-1" d="M575.56,1075.53h0c-6.36-1.4-10.38-7.69-8.98-14.05l5.02-22.82c1.4-6.36,7.69-10.38,14.05-8.98h0c6.36,1.4,10.38,7.69,8.98,14.05l-5.02,22.82c-1.4,6.36-7.69,10.38-14.05,8.98Z"></path><rect class="cls-2" x="562.65" y="1073.05" width="21.12" height="23.58" rx="9.18" ry="9.18" transform="translate(-609.45 1411.59) rotate(-77.59)"></rect></g><g><path class="cls-1" d="M533.16,1062.33h0c-6.15-2.14-9.41-8.85-7.27-15.01l7.66-22.08c2.14-6.15,8.85-9.41,15.01-7.27h0c6.15,2.14,9.41,8.85,7.27,15.01l-7.66,22.08c-2.14,6.15-8.85,9.41-15.01,7.27Z"></path><rect class="cls-2" x="519.17" y="1059.52" width="21.12" height="23.58" rx="9.18" ry="9.18" transform="translate(-656.04 1220.53) rotate(-70.86)"></rect></g><g><path class="cls-1" d="M493.02,1044.5h0c-5.86-2.83-8.32-9.88-5.49-15.75l10.17-21.04c2.83-5.86,9.88-8.32,15.75-5.49h0c5.86,2.83,8.32,9.88,5.49,15.75l-10.17,21.04c-2.83,5.86-9.88,8.32-15.75,5.49Z"></path><path class="cls-2" d="M487.2,1041.23h2.76c5.07,0,9.18,4.11,9.18,9.18v5.23c0,5.07-4.11,9.18-9.18,9.18h-2.76c-5.07,0-9.18-4.11-9.18-9.18v-5.23c0-5.07,4.11-9.18,9.18-9.18Z" transform="translate(-672.13 1034.91) rotate(-64.22)"></path></g><g><path class="cls-1" d="M455.46,1022.36h0c-5.5-3.49-7.14-10.77-3.65-16.27l12.51-19.74c3.49-5.5,10.77-7.14,16.27-3.65h0c5.5,3.49,7.14,10.77,3.65,16.27l-12.51,19.74c-3.49,5.5-10.77,7.14-16.27,3.65Z"></path><rect class="cls-2" x="439.51" y="1018.52" width="21.12" height="23.58" rx="9.18" ry="9.18" transform="translate(-661.16 859.19) rotate(-57.65)"></rect></g><g><path class="cls-1" d="M420.8,996.22h0c-5.07-4.09-5.87-11.51-1.78-16.58l14.66-18.2c4.09-5.07,11.51-5.87,16.58-1.78h0c5.07,4.09,5.87,11.51,1.78,16.58l-14.66,18.2c-4.09,5.07-11.51,5.87-16.58,1.78Z"></path><rect class="cls-2" x="403.98" y="991.72" width="21.12" height="23.59" rx="9.18" ry="9.18" transform="translate(-626.95 696.64) rotate(-51.14)"></rect></g><g><path class="cls-1" d="M389.26,966.36h0c-4.58-4.63-4.53-12.1.1-16.68l16.63-16.43c4.63-4.58,12.1-4.53,16.68.1h0c4.58,4.63,4.53,12.1-.1,16.68l-16.63,16.43c-4.63,4.58-12.1,4.53-16.68-.1Z"></path><rect class="cls-2" x="371.67" y="961.1" width="21.12" height="23.59" rx="9.18" ry="9.18" transform="translate(-573.43 549.42) rotate(-44.65)"></rect></g><g><path class="cls-1" d="M361.42,933.22h0c-4.02-5.12-3.13-12.54,1.99-16.56l18.38-14.44c5.12-4.02,12.54-3.13,16.56,1.99h0c4.02,5.12,3.13,12.54-1.99,16.56l-18.38,14.44c-5.12,4.02-12.54,3.13-16.56-1.99Z"></path><rect class="cls-2" x="343.13" y="927.12" width="21.12" height="23.59" rx="9.18" ry="9.18" transform="translate(-504.5 419.14) rotate(-38.16)"></rect></g><g><path class="cls-1" d="M337.43,897.01h0c-3.41-5.55-1.69-12.81,3.86-16.23l19.9-12.25c5.55-3.41,12.81-1.69,16.23,3.86h0c3.41,5.55,1.69,12.81-3.86,16.23l-19.9,12.25c-5.55,3.41-12.81,1.69-16.23-3.86Z"></path><rect class="cls-2" x="318.54" y="890" width="21.12" height="23.59" rx="9.18" ry="9.18" transform="translate(-423.92 306.4) rotate(-31.62)"></rect></g><g><path class="cls-1" d="M317.43,858.01h0c-2.75-5.9-.2-12.92,5.7-15.67l21.18-9.88c5.9-2.75,12.92-.2,15.67,5.7h0c2.75,5.9.2,12.92-5.7,15.67l-21.18,9.88c-5.9,2.75-12.92.2-15.67-5.7Z"></path><rect class="cls-2" x="298.04" y="850.01" width="21.12" height="23.59" rx="9.18" ry="9.18" transform="translate(-335.42 211.28) rotate(-25.01)"></rect></g><g><path class="cls-1" d="M301.99,816.63h0c-2.05-6.18,1.31-12.86,7.49-14.9l22.19-7.35c6.18-2.05,12.86,1.31,14.9,7.49h0c2.05,6.18-1.31,12.86-7.49,14.9l-22.19,7.35c-6.18,2.05-12.86-1.31-14.9-7.49Z"></path><path class="cls-2" d="M291.4,807.57h2.76c5.07,0,9.18,4.11,9.18,9.18v5.23c0,5.07-4.11,9.18-9.18,9.18h-2.76c-5.07,0-9.18-4.11-9.18-9.18v-5.23c0-5.07,4.11-9.18,9.18-9.18Z" transform="translate(-242.68 133.53) rotate(-18.32)"></path></g><g><path class="cls-1" d="M291.36,773.15h0c-1.3-6.38,2.81-12.61,9.2-13.92l22.9-4.68c6.38-1.3,12.61,2.81,13.92,9.2h0c1.3,6.38-2.81,12.61-9.2,13.92l-22.9,4.68c-6.38,1.3-12.61-2.81-13.92-9.2Z"></path><rect class="cls-2" x="271.33" y="762.99" width="21.12" height="23.59" rx="9.18" ry="9.18" transform="translate(-149.3 72.06) rotate(-11.54)"></rect></g><g><path class="cls-1" d="M285.86,727.91h0c-.53-6.49,4.3-12.19,10.79-12.72l23.3-1.92c6.49-.53,12.19,4.3,12.72,10.79h0c.53,6.49-4.3,12.19-10.79,12.72l-23.3,1.92c-6.49.53-12.19-4.3-12.72-10.79Z"></path><rect class="cls-2" x="265.7" y="716.61" width="21.12" height="23.59" rx="9.18" ry="9.18" transform="translate(-58.74 25.08) rotate(-4.7)"></rect></g><g><path class="cls-1" d="M285.71,681.71h0c.16-6.51,5.58-11.66,12.09-11.49l23.37.59c6.51.16,11.66,5.58,11.49,12.09h0c-.16,6.51-5.58,11.66-12.09,11.49l-23.37-.59c-6.51-.16-11.66-5.58-11.49-12.09Z"></path><rect class="cls-2" x="264.33" y="670.61" width="23.59" height="21.13" rx="9.18" ry="9.18" transform="translate(-411.81 940) rotate(-88.55)"></rect></g><g><path class="cls-1" d="M290.24,636.51h0c.79-6.47,6.67-11.07,13.13-10.29l23.21,2.82c6.47.79,11.07,6.67,10.29,13.13h0c-.79,6.47-6.67,11.07-13.13,10.29l-23.21-2.82c-6.47-.79-11.07-6.67-10.29-13.13Z"></path><rect class="cls-2" x="268.94" y="624.5" width="23.59" height="21.13" rx="9.18" ry="9.18" transform="translate(-383.54 837.16) rotate(-83.07)"></rect></g><g><path class="cls-1" d="M298.9,592.64h0c1.4-6.36,7.69-10.39,14.05-9l22.84,5.01c6.36,1.4,10.39,7.69,9,14.05h0c-1.4,6.36-7.69,10.39-14.05,9l-22.84-5.01c-6.36-1.4-10.39-7.69-9-14.05Z"></path><rect class="cls-2" x="277.79" y="579.73" width="23.59" height="21.13" rx="9.18" ry="9.18" transform="translate(-349.04 746.71) rotate(-77.63)"></rect></g><g><path class="cls-1" d="M311.51,550.3h0c1.99-6.2,8.63-9.62,14.83-7.64l22.26,7.13c6.2,1.99,9.62,8.63,7.64,14.83h0c-1.99,6.2-8.63,9.62-14.83,7.64l-22.26-7.13c-6.2-1.99-9.62-8.63-7.64-14.83Z"></path><rect class="cls-2" x="290.65" y="536.53" width="23.59" height="21.13" rx="9.18" ry="9.18" transform="translate(-310.83 668.23) rotate(-72.24)"></rect></g><g><path class="cls-1" d="M327.85,509.72h0c2.56-5.99,9.49-8.78,15.48-6.22l21.51,9.17c5.99,2.56,8.78,9.49,6.22,15.48h0c-2.56,5.99-9.49,8.78-15.48,6.22l-21.51-9.17c-5.99-2.56-8.78-9.49-6.22-15.48Z"></path><rect class="cls-2" x="307.33" y="495.11" width="23.59" height="21.13" rx="9.18" ry="9.18" transform="translate(-271.21 600.83) rotate(-66.9)"></rect></g><g><path class="cls-1" d="M347.72,471.08h0c3.1-5.73,10.25-7.87,15.99-4.77l20.57,11.11c5.73,3.1,7.87,10.25,4.77,15.99h0c-3.1,5.73-10.25,7.87-15.99,4.77l-20.57-11.11c-5.73-3.1-7.87-10.25-4.77-15.99Z"></path><rect class="cls-2" x="327.61" y="455.69" width="23.59" height="21.13" rx="9.18" ry="9.18" transform="translate(-232.14 543.23) rotate(-61.62)"></rect></g><g><path class="cls-1" d="M370.93,434.59h0c3.61-5.43,10.93-6.9,16.36-3.29l19.47,12.95c5.43,3.61,6.9,10.93,3.29,16.36h0c-3.61,5.43-10.93,6.9-16.36,3.29l-19.47-12.95c-5.43-3.61-6.9-10.93-3.29-16.36Z"></path><rect class="cls-2" x="351.29" y="418.47" width="23.6" height="21.13" rx="9.18" ry="9.18" transform="translate(-195.21 493.84) rotate(-56.38)"></rect></g><g><path class="cls-1" d="M397.26,400.47h0c4.09-5.08,11.51-5.88,16.59-1.79l18.22,14.66c5.08,4.09,5.88,11.51,1.79,16.59h0c-4.09,5.08-11.51,5.88-16.59,1.79l-18.22-14.66c-5.08-4.09-5.88-11.51-1.79-16.59Z"></path><rect class="cls-2" x="378.16" y="383.65" width="23.6" height="21.13" rx="9.18" ry="9.18" transform="translate(-161.64 450.87) rotate(-51.18)"></rect></g><g><path class="cls-1" d="M426.52,368.89h0c4.53-4.69,12-4.81,16.68-.29l16.82,16.25c4.69,4.53,4.81,12,.29,16.68h0c-4.53,4.69-12,4.81-16.68.29l-16.82-16.25c-4.69-4.53-4.81-12-.29-16.68Z"></path><rect class="cls-2" x="408.02" y="351.44" width="23.6" height="21.13" rx="9.18" ry="9.18" transform="translate(-132.23 412.4) rotate(-45.99)"></rect></g><g><path class="cls-1" d="M458.52,340.04h0c4.93-4.26,12.38-3.71,16.64,1.22l15.28,17.7c4.26,4.93,3.71,12.38-1.22,16.64h0c-4.93,4.26-12.38,3.71-16.64-1.22l-15.28-17.7c-4.26-4.93-3.71-12.38,1.22-16.64Z"></path><rect class="cls-2" x="440.67" y="322.01" width="23.6" height="21.13" rx="9.18" ry="9.18" transform="translate(-107.36 376.43) rotate(-40.8)"></rect></g><g><path class="cls-1" d="M493.01,314.24h0c5.3-3.79,12.67-2.57,16.46,2.73l13.61,19.02c3.79,5.3,2.57,12.67-2.73,16.46h0c-5.3,3.79-12.67,2.57-16.46-2.73l-13.61-19.02c-3.79-5.3-2.57-12.67,2.73-16.46Z"></path><rect class="cls-2" x="475.86" y="295.7" width="23.6" height="21.13" rx="9.18" ry="9.18" transform="translate(-87.15 340.98) rotate(-35.59)"></rect></g><g><path class="cls-1" d="M529.85,291.51h0c5.62-3.29,12.85-1.4,16.14,4.22l11.81,20.18c3.29,5.62,1.4,12.85-4.22,16.14h0c-5.62,3.29-12.85,1.4-16.14-4.22l-11.81-20.18c-3.29-5.62-1.4-12.85,4.22-16.14Z"></path><rect class="cls-2" x="513.46" y="272.51" width="23.6" height="21.13" rx="9.18" ry="9.18" transform="translate(-71.05 304.11) rotate(-30.34)"></rect></g><g><path class="cls-1" d="M568.82,272.17h0c5.9-2.76,12.93-.21,15.69,5.69l9.9,21.19c2.76,5.9.21,12.93-5.69,15.69h0c-5.9,2.76-12.93.21-15.69-5.69l-9.9-21.19c-2.76-5.9-.21-12.93,5.69-15.69Z"></path><rect class="cls-2" x="553.22" y="252.78" width="23.6" height="21.13" rx="9.18" ry="9.18" transform="translate(-58.36 264) rotate(-25.05)"></rect></g><g><path class="cls-1" d="M609.7,256.39h0c6.14-2.2,12.89,1,15.09,7.13l7.88,22.02c2.2,6.14-1,12.89-7.13,15.09h0c-6.14,2.2-12.89-1-15.09-7.13l-7.88-22.02c-2.2-6.14,1-12.89,7.13-15.09Z"></path><rect class="cls-2" x="594.94" y="236.68" width="23.6" height="21.13" rx="9.18" ry="9.18" transform="translate(-47.84 219.03) rotate(-19.7)"></rect></g><g><path class="cls-1" d="M652.31,244.38h0c6.32-1.61,12.74,2.2,14.35,8.52l5.78,22.66c1.61,6.32-2.2,12.74-8.52,14.35h0c-6.32,1.61-12.74-2.2-14.35-8.52l-5.78-22.66c-1.61-6.32,2.2-12.74,8.52-14.35Z"></path><rect class="cls-2" x="638.42" y="224.44" width="23.6" height="21.13" rx="9.19" ry="9.19" transform="translate(-37.9 167.89) rotate(-14.3)"></rect></g><g><path class="cls-1" d="M696.42,236.35h0c6.44-1,12.47,3.4,13.48,9.84l3.6,23.11c1,6.44-3.4,12.47-9.84,13.48h0c-6.44,1-12.47-3.4-13.48-9.84l-3.6-23.11c-1-6.44,3.4-12.47,9.84-13.48Z"></path><path class="cls-2" d="M692.61,216.24h5.23c5.07,0,9.19,4.12,9.19,9.19v2.76c0,5.07-4.12,9.19-9.19,9.19h-5.23c-5.07,0-9.19-4.12-9.19-9.19v-2.76c0-5.07,4.12-9.19,9.19-9.19Z" transform="translate(-26.62 109.66) rotate(-8.85)"></path></g><g><path class="cls-1" d="M741.83,232.49h0c6.51-.38,12.09,4.58,12.47,11.09l1.37,23.35c.38,6.51-4.58,12.09-11.09,12.47h0c-6.51.38-12.09-4.58-12.47-11.09l-1.37-23.35c-.38-6.51,4.58-12.09,11.09-12.47Z"></path><rect class="cls-2" x="729.76" y="212.31" width="23.6" height="21.14" rx="9.19" ry="9.19" transform="translate(-11.81 43.94) rotate(-3.37)"></rect></g><g><path class="cls-1" d="M788.24,233.11h0c6.51.25,11.59,5.73,11.34,12.24l-.89,23.37c-.25,6.51-5.73,11.59-12.24,11.34h0c-6.51-.25-11.59-5.73-11.34-12.24l.89-23.37c.25-6.51,5.73-11.59,12.24-11.34Z"></path><rect class="cls-2" x="778.33" y="211.71" width="21.14" height="23.6" rx="9.19" ry="9.19" transform="translate(535.48 1003.32) rotate(-87.82)"></rect></g><g><path class="cls-1" d="M833.55,238.3h0c6.46.88,10.98,6.84,10.09,13.3l-3.18,23.17c-.88,6.46-6.84,10.98-13.3,10.09h0c-6.46-.88-10.98-6.84-10.09-13.3l3.18-23.17c.88-6.46,6.84-10.98,13.3-10.09Z"></path><rect class="cls-2" x="824.58" y="217.02" width="21.14" height="23.6" rx="9.19" ry="9.19" transform="translate(495.06 1025.16) rotate(-82.2)"></rect></g><g><path class="cls-1" d="M877.23,247.71h0c6.34,1.51,10.25,7.88,8.74,14.22l-5.44,22.75c-1.52,6.34-7.88,10.25-14.22,8.74h0c-6.34-1.52-10.25-7.88-8.74-14.22l5.44-22.75c1.52-6.34,7.88-10.25,14.22-8.74Z"></path><rect class="cls-2" x="869.18" y="226.63" width="21.14" height="23.6" rx="9.19" ry="9.19" transform="translate(443.37 1038.68) rotate(-76.56)"></rect></g><g><path class="cls-1" d="M919.1,261.14h0c6.16,2.13,9.43,8.85,7.3,15.01l-7.64,22.11c-2.13,6.16-8.85,9.43-15.01,7.3h0c-6.16-2.13-9.43-8.85-7.3-15.01l7.64-22.11c2.13-6.16,8.85-9.43,15.01-7.3Z"></path><rect class="cls-2" x="911.95" y="240.35" width="21.14" height="23.61" rx="9.19" ry="9.19" transform="translate(382.86 1041.71) rotate(-70.93)"></rect></g><g><path class="cls-1" d="M958.98,278.38h0c5.92,2.72,8.52,9.73,5.8,15.65l-9.76,21.26c-2.72,5.92-9.73,8.52-15.65,5.8h0c-5.92-2.72-8.52-9.73-5.8-15.65l9.76-21.26c2.72-5.92,9.73-8.52,15.65-5.8Z"></path><rect class="cls-2" x="952.68" y="257.96" width="21.14" height="23.61" rx="9.19" ry="9.19" transform="translate(316.23 1032.65) rotate(-65.34)"></rect></g><g><path class="cls-1" d="M996.67,299.21h0c5.63,3.28,7.54,10.5,4.26,16.14l-11.77,20.22c-3.28,5.63-10.5,7.54-16.14,4.26h0c-5.63-3.28-7.54-10.5-4.26-16.14l11.77-20.22c3.28-5.63,10.5-7.54,16.14-4.26Z"></path><path class="cls-2" d="M1000.37,279.24h2.76c5.07,0,9.19,4.12,9.19,9.19v5.23c0,5.07-4.12,9.19-9.19,9.19h-2.76c-5.07,0-9.19-4.12-9.19-9.19v-5.23c0-5.07,4.12-9.19,9.19-9.19Z" transform="translate(246.31 1010.44) rotate(-59.8)"></path></g><g><path class="cls-1" d="M1032,323.41h0c5.29,3.8,6.5,11.18,2.7,16.47l-13.65,19c-3.8,5.29-11.18,6.5-16.47,2.7h0c-5.29-3.8-6.5-11.18-2.7-16.47l13.65-19c3.8-5.29,11.18-6.5,16.47-2.7Z"></path><rect class="cls-2" x="1027.28" y="303.97" width="21.14" height="23.61" rx="9.19" ry="9.19" transform="translate(175.93 974.52) rotate(-54.31)"></rect></g><g><path class="cls-1" d="M1064.81,350.78h0c4.91,4.29,5.42,11.74,1.13,16.66l-15.38,17.62c-4.29,4.91-11.74,5.42-16.66,1.13h0c-4.91-4.29-5.42-11.74-1.13-16.66l15.38-17.62c4.29-4.91,11.74-5.42,16.66-1.13Z"></path><rect class="cls-2" x="1060.78" y="331.93" width="21.14" height="23.61" rx="9.19" ry="9.19" transform="translate(107.86 924.8) rotate(-48.88)"></rect></g><g><path class="cls-1" d="M1094.97,381.15h0c4.49,4.73,4.29,12.2-.44,16.69l-16.97,16.11c-4.73,4.49-12.2,4.29-16.69-.44h0c-4.49-4.73-4.29-12.2.44-16.69l16.97-16.11c4.73-4.49,12.2-4.29,16.69.44Z"></path><rect class="cls-2" x="1091.57" y="362.94" width="21.14" height="23.61" rx="9.19" ry="9.19" transform="translate(44.76 861.66) rotate(-43.5)"></rect></g><g><path class="cls-1" d="M1122.12,414.18h0c4.03,5.13,3.14,12.55-1.98,16.58l-18.39,14.46c-5.13,4.03-12.55,3.14-16.58-1.98h0c-4.03-5.13-3.14-12.55,1.98-16.58l18.39-14.46c5.13-4.03,12.55-3.14,16.58,1.98Z"></path><rect class="cls-2" x="1119.29" y="396.67" width="21.14" height="23.61" rx="9.19" ry="9.19" transform="translate(-10.83 785.64) rotate(-38.17)"></rect></g><g><path class="cls-1" d="M1146.21,449.76h0c3.54,5.48,1.97,12.78-3.51,16.32l-19.65,12.7c-5.48,3.54-12.78,1.97-16.32-3.51h0c-3.54-5.48-1.97-12.78,3.51-16.32l19.65-12.7c5.48-3.54,12.78-1.97,16.32,3.51Z"></path><rect class="cls-2" x="1143.87" y="432.98" width="21.14" height="23.61" rx="9.19" ry="9.19" transform="translate(-56.55 697.92) rotate(-32.88)"></rect></g><g><path class="cls-1" d="M1167.22,487.7h0c3.02,5.78.79,12.91-4.99,15.93l-20.73,10.84c-5.78,3.02-12.91.79-15.93-4.99h0c-3.02-5.78-.79-12.91,4.99-15.93l20.73-10.84c5.78-3.02,12.91-.79,15.93,4.99Z"></path><rect class="cls-2" x="1165.3" y="471.7" width="21.14" height="23.61" rx="9.19" ry="9.19" transform="translate(-90.18 599.99) rotate(-27.61)"></rect></g><g><path class="cls-1" d="M1184.76,527.72h0c2.48,6.03-.4,12.93-6.43,15.41l-21.64,8.9c-6.03,2.48-12.93-.4-15.41-6.43h0c-2.48-6.03.4-12.93,6.43-15.41l21.64-8.9c6.03-2.48,12.93.4,15.41,6.43Z"></path><path class="cls-2" d="M1192.38,512.53h2.77c5.07,0,9.19,4.12,9.19,9.19v5.23c0,5.07-4.12,9.19-9.19,9.19h-2.77c-5.07,0-9.19-4.12-9.19-9.19v-5.23c0-5.07,4.12-9.19,9.19-9.19Z" transform="translate(-109.71 493.52) rotate(-22.36)"></path></g><g><path class="cls-1" d="M1198.74,569.65h0c1.92,6.23-1.58,12.84-7.81,14.76l-22.36,6.89c-6.23,1.92-12.84-1.58-14.76-7.81h0c-1.92-6.23,1.58-12.84,7.81-14.76l22.36-6.89c6.23-1.92,12.84,1.58,14.76,7.81Z"></path><rect class="cls-2" x="1197.44" y="555.29" width="21.14" height="23.61" rx="9.19" ry="9.19" transform="translate(-113.41 380.72) rotate(-17.12)"></rect></g><g><path class="cls-1" d="M1208.98,613.26h0c1.34,6.38-2.74,12.64-9.12,13.99l-22.9,4.82c-6.38,1.34-12.64-2.74-13.99-9.12h0c-1.34-6.38,2.74-12.64,9.12-13.99l22.9-4.82c6.38-1.34,12.64,2.74,13.99,9.12Z"></path><rect class="cls-2" x="1207.88" y="599.76" width="21.15" height="23.61" rx="9.19" ry="9.19" transform="translate(-99.86 264.18) rotate(-11.89)"></rect></g><g><path class="cls-1" d="M1215.32,658.34h0c.76,6.48-3.88,12.34-10.35,13.1l-23.24,2.72c-6.48.76-12.34-3.88-13.1-10.36h0c-.76-6.48,3.88-12.34,10.36-13.1l23.24-2.72c6.48-.76,12.34,3.88,13.1,10.36Z"></path><rect class="cls-2" x="1214.33" y="645.7" width="21.15" height="23.61" rx="9.19" ry="9.19" transform="translate(-68.11 146.8) rotate(-6.67)"></rect></g><g><path class="cls-1" d="M1217.57,704.67h0c.17,6.52-4.98,11.94-11.5,12.11l-23.39.6c-6.52.17-11.94-4.98-12.11-11.5h0c-.17-6.52,4.98-11.94,11.5-12.11l23.39-.6c6.52-.17,11.94,4.98,12.11,11.5Z"></path><rect class="cls-2" x="1216.62" y="692.91" width="21.15" height="23.61" rx="9.19" ry="9.19" transform="translate(-17.72 31.8) rotate(-1.47)"></rect></g></g><g><g><path class="cls-1" d="M769.89,704.6h0c.09,6.53-5.14,11.9-11.67,11.99l-23.44.31c-6.53.09-11.9-5.14-11.99-11.67h0c-.09-6.53,5.14-11.9,11.67-11.99l23.44-.31c6.53-.09,11.9,5.14,11.99,11.67Z"></path><path class="cls-2" d="M778.14,692.93h2.77c5.08,0,9.21,4.13,9.21,9.21v5.24c0,5.08-4.13,9.21-9.21,9.21h-2.77c-5.08,0-9.21-4.13-9.21-9.21v-5.24c0-5.08,4.13-9.21,9.21-9.21Z" transform="translate(-9.34 10.47) rotate(-.77)"></path></g><g><path class="cls-1" d="M758.45,752.38h0c-2.82,5.89-9.88,8.39-15.77,5.58l-21.15-10.1c-5.89-2.82-8.39-9.88-5.58-15.77h0c2.82-5.89,9.88-8.39,15.77-5.58l21.15,10.1c5.89,2.82,8.39,9.88,5.58,15.77Z"></path><rect class="cls-2" x="755.18" y="746.21" width="23.66" height="21.19" rx="9.21" ry="9.21" transform="translate(-246.48 1122.71) rotate(-64.47)"></rect></g><g><path class="cls-1" d="M728.2,789.25h0c-5.14,4.03-12.57,3.14-16.61-2l-14.47-18.44c-4.03-5.14-3.14-12.57,2-16.61h0c5.14-4.03,12.57-3.14,16.61,2l14.47,18.44c4.03,5.14,3.14,12.57-2,16.61Z"></path><rect class="cls-2" x="722.08" y="786.42" width="23.66" height="21.18" rx="9.21" ry="9.21" transform="translate(-335.49 623.15) rotate(-38.13)"></rect></g><g><path class="cls-1" d="M684.15,809.06h0c-6.42,1.19-12.6-3.04-13.79-9.47l-4.29-23.05c-1.19-6.42,3.04-12.6,9.47-13.79h0c6.42-1.19,12.6,3.04,13.79,9.47l4.29,23.05c1.19,6.42-3.04,12.6-9.47,13.79Z"></path><rect class="cls-2" x="673.79" y="807.99" width="23.66" height="21.18" rx="9.21" ry="9.21" transform="translate(-138.11 139.15) rotate(-10.53)"></rect></g><g><path class="cls-1" d="M634.62,805.53h0c-6.24-1.92-9.75-8.53-7.84-14.78l6.88-22.41c1.92-6.24,8.53-9.75,14.78-7.84h0c6.24,1.92,9.75,8.53,7.84,14.78l-6.88,22.41c-1.92,6.24-8.53,9.75-14.78,7.84Z"></path><rect class="cls-2" x="620.92" y="802.82" width="21.18" height="23.66" rx="9.21" ry="9.21" transform="translate(-332.6 1179.25) rotate(-72.93)"></rect></g><g><path class="cls-1" d="M593.64,780.65h0c-4.74-4.49-4.95-11.98-.46-16.72l16.11-17.03c4.49-4.74,11.98-4.95,16.72-.46h0c4.74,4.49,4.95,11.98.46,16.72l-16.11,17.03c-4.49,4.74-11.98,4.95-16.72.46Z"></path><rect class="cls-2" x="576.22" y="775.62" width="21.18" height="23.65" rx="9.21" ry="9.21" transform="translate(-388.49 672.48) rotate(-46.58)"></rect></g><g><path class="cls-1" d="M567.48,740.53h0c-2.26-6.13.87-12.93,6.99-15.19l21.98-8.13c6.13-2.26,12.93.87,15.19,6.99h0c2.26,6.13-.87,12.93-6.99,15.19l-21.98,8.13c-6.13,2.26-12.93-.87-15.19-6.99Z"></path><rect class="cls-2" x="547.76" y="731.77" width="21.18" height="23.65" rx="9.21" ry="9.21" transform="translate(-223.2 239.74) rotate(-20.29)"></rect></g><g><path class="cls-1" d="M561.51,692.02h0c.35-6.52,5.93-11.52,12.45-11.17l23.4,1.27c6.52.35,11.52,5.93,11.17,12.45h0c-.35,6.52-5.93,11.52-12.45,11.17l-23.4-1.27c-6.52-.35-11.52-5.93-11.17-12.45Z"></path><rect class="cls-2" x="540.09" y="680.61" width="23.65" height="21.18" rx="9.21" ry="9.21" transform="translate(-168.22 1204.79) rotate(-86.89)"></rect></g><g><path class="cls-1" d="M570.41,646.28h0c1.88-6.25,8.48-9.8,14.73-7.92l22.44,6.75c6.25,1.88,9.8,8.48,7.92,14.73h0c-1.88,6.25-8.48,9.8-14.73,7.92l-22.44-6.75c-6.25-1.88-9.8-8.48-7.92-14.73Z"></path><rect class="cls-2" x="549.45" y="632.64" width="23.65" height="21.18" rx="9.21" ry="9.21" transform="translate(-216.35 995.47) rotate(-73.26)"></rect></g><g><path class="cls-1" d="M589.2,604.89h0c3.27-5.65,10.5-7.59,16.16-4.32l20.29,11.73c5.65,3.27,7.59,10.5,4.32,16.16h0c-3.27,5.65-10.5,7.59-16.16,4.32l-20.29-11.73c-5.65-3.27-7.59-10.5-4.32-16.16Z"></path><rect class="cls-2" x="569.19" y="589.22" width="23.65" height="21.18" rx="9.2" ry="9.2" transform="translate(-229.1 802.48) rotate(-59.96)"></rect></g><g><path class="cls-1" d="M616.54,569.18h0c4.46-4.77,11.94-5.02,16.71-.56l17.12,16.01c4.77,4.46,5.02,11.94.56,16.71h0c-4.46,4.77-11.94,5.02-16.71.56l-17.12-16.01c-4.77-4.46-5.02-11.94-.56-16.71Z"></path><path class="cls-2" d="M607.09,551.8h5.24c5.08,0,9.2,4.12,9.2,9.2v2.77c0,5.08-4.12,9.2-9.2,9.2h-5.24c-5.08,0-9.2-4.12-9.2-9.2v-2.77c0-5.08,4.12-9.2,9.2-9.2Z" transform="translate(-217.51 623.49) rotate(-46.91)"></path></g><g><path class="cls-1" d="M651.1,540.53h0c5.42-3.64,12.77-2.2,16.41,3.22l13.07,19.45c3.64,5.42,2.2,12.77-3.22,16.41h0c-5.42,3.64-12.77,2.2-16.41-3.22l-13.07-19.45c-3.64-5.42-2.2-12.77,3.22-16.41Z"></path><rect class="cls-2" x="634.15" y="521.79" width="23.65" height="21.18" rx="9.2" ry="9.2" transform="translate(-187.11 450.64) rotate(-33.89)"></rect></g><g><path class="cls-1" d="M691.62,520.1h0c6.11-2.3,12.93.79,15.23,6.9l8.26,21.93c2.3,6.11-.79,12.93-6.9,15.23h0c-6.11,2.3-12.93-.79-15.23-6.9l-8.26-21.93c-2.3-6.11.79-12.93,6.9-15.23Z"></path><rect class="cls-2" x="676.68" y="500.4" width="23.65" height="21.18" rx="9.2" ry="9.2" transform="translate(-135.92 275.46) rotate(-20.64)"></rect></g><g><path class="cls-1" d="M736.73,509.37h0c6.48-.8,12.38,3.8,13.19,10.28l2.88,23.26c.8,6.48-3.8,12.38-10.28,13.19h0c-6.48.8-12.38-3.8-13.19-10.28l-2.88-23.26c-.8-6.48,3.8-12.38,10.28-13.19Z"></path><path class="cls-2" d="M733.22,489.19h5.24c5.08,0,9.2,4.12,9.2,9.2v2.77c0,5.08-4.12,9.2-9.2,9.2h-5.24c-5.08,0-9.2-4.12-9.2-9.2v-2.77c0-5.08,4.12-9.2,9.2-9.2Z" transform="translate(-55.81 94.17) rotate(-7.06)"></path></g><g><path class="cls-1" d="M784.24,509.87h0c6.49.76,11.13,6.63,10.37,13.12l-2.73,23.27c-.76,6.49-6.63,11.13-13.12,10.37h0c-6.49-.76-11.13-6.63-10.37-13.12l2.73-23.27c.76-6.49,6.63-11.13,13.12-10.37Z"></path><rect class="cls-2" x="775.07" y="488.52" width="21.18" height="23.65" rx="9.2" ry="9.2" transform="translate(197.27 1222.42) rotate(-83.32)"></rect></g><g><path class="cls-1" d="M828.96,521.52h0c6.13,2.26,9.26,9.06,7,15.18l-8.1,21.99c-2.26,6.13-9.06,9.26-15.18,7h0c-6.13-2.26-9.26-9.06-7-15.18l8.1-21.99c2.26-6.13,9.06-9.26,15.18-7Z"></path><rect class="cls-2" x="821.98" y="500.77" width="21.18" height="23.65" rx="9.2" ry="9.2" transform="translate(63.66 1116.49) rotate(-69.77)"></rect></g><g><path class="cls-1" d="M868.98,542.71h0c5.45,3.6,6.95,10.93,3.35,16.38l-12.92,19.55c-3.6,5.45-10.93,6.95-16.38,3.35h0c-5.45-3.6-6.95-10.93-3.35-16.38l12.92-19.55c3.6-5.45,10.93-6.95,16.38-3.35Z"></path><rect class="cls-2" x="863.94" y="523.01" width="21.17" height="23.65" rx="9.2" ry="9.2" transform="translate(-53.8 969.64) rotate(-56.55)"></rect></g><g><path class="cls-1" d="M903.02,572.13h0c4.5,4.73,4.31,12.22-.43,16.71l-16.99,16.14c-4.73,4.5-12.22,4.31-16.71-.43h0c-4.5-4.73-4.31-12.22.43-16.71l16.99-16.14c4.73-4.5,12.22-4.31,16.71.43Z"></path><rect class="cls-2" x="899.62" y="553.89" width="21.17" height="23.65" rx="9.2" ry="9.2" transform="translate(-139.32 782.52) rotate(-43.53)"></rect></g><g><path class="cls-1" d="M929.57,608.37h0c3.31,5.63,1.43,12.87-4.19,16.18l-20.19,11.88c-5.63,3.31-12.87,1.43-16.18-4.19h0c-3.31-5.63-1.43-12.87,4.19-16.18l20.19-11.88c5.63-3.31,12.87-1.43,16.18,4.19Z"></path><rect class="cls-2" x="927.43" y="591.92" width="21.17" height="23.64" rx="9.2" ry="9.2" transform="translate(-176.6 559.05) rotate(-30.47)"></rect></g><g><path class="cls-1" d="M947.53,650.23h0c1.92,6.24-1.58,12.86-7.81,14.78l-22.39,6.9c-6.24,1.92-12.86-1.58-14.78-7.82h0c-1.92-6.24,1.58-12.86,7.82-14.78l22.39-6.9c6.24-1.92,12.86,1.58,14.78,7.81Z"></path><rect class="cls-2" x="946.23" y="635.86" width="21.17" height="23.64" rx="9.2" ry="9.2" transform="translate(-148.33 310.58) rotate(-17.13)"></rect></g><g><path class="cls-1" d="M955.47,696.32h0c.4,6.52-4.57,12.12-11.08,12.52l-23.38,1.42c-6.52.4-12.12-4.57-12.52-11.08h0c-.4-6.52,4.57-12.12,11.08-12.52l23.38-1.42c6.52-.4,12.12,4.57,12.52,11.08Z"></path><rect class="cls-2" x="954.51" y="684.21" width="21.17" height="23.64" rx="9.2" ry="9.2" transform="translate(-40.45 59.83) rotate(-3.48)"></rect></g><g><path class="cls-1" d="M953.17,743.07h0c-.74,6.49-6.6,11.14-13.09,10.4l-23.28-2.66c-6.49-.74-11.14-6.6-10.4-13.09h0c.74-6.49,6.6-11.14,13.09-10.4l23.28,2.66c6.49.74,11.14,6.6,10.4,13.09Z"></path><rect class="cls-2" x="950.88" y="733.87" width="23.64" height="21.17" rx="9.2" ry="9.2" transform="translate(113.83 1616.47) rotate(-83.49)"></rect></g><g><path class="cls-1" d="M943.56,787.53h0c-1.75,6.29-8.27,9.96-14.56,8.21l-22.57-6.29c-6.29-1.75-9.96-8.27-8.21-14.56h0c1.75-6.29,8.27-9.96,14.56-8.21l22.57,6.29c6.29,1.75,9.96,8.27,8.21,14.56Z"></path><rect class="cls-2" x="940.93" y="779.82" width="23.64" height="21.17" rx="9.2" ry="9.2" transform="translate(-64.53 1495.81) rotate(-74.42)"></rect></g><g><path class="cls-1" d="M927.43,829.21h0c-2.71,5.94-9.72,8.56-15.66,5.85l-21.32-9.72c-5.94-2.71-8.56-9.72-5.85-15.66h0c2.71-5.94,9.72-8.56,15.66-5.85l21.32,9.72c5.94,2.71,8.56,9.72,5.85,15.66Z"></path><path class="cls-2" d="M933.44,822.89h5.24c5.08,0,9.2,4.12,9.2,9.2v2.77c0,5.08-4.12,9.2-9.2,9.2h-5.24c-5.08,0-9.2-4.12-9.2-9.2v-2.77c0-5.08,4.12-9.2,9.2-9.2Z" transform="translate(-210.57 1339.55) rotate(-65.5)"></path></g><g><path class="cls-1" d="M905.34,867.52h0c-3.58,5.46-10.91,6.98-16.37,3.4l-19.58-12.85c-5.46-3.58-6.98-10.91-3.4-16.37h0c3.58-5.46,10.91-6.98,16.37-3.4l19.58,12.85c5.46,3.58,6.98,10.91,3.4,16.37Z"></path><rect class="cls-2" x="901.4" y="862.46" width="23.64" height="21.17" rx="9.2" ry="9.2" transform="translate(-317.75 1157.46) rotate(-56.72)"></rect></g><g><path class="cls-1" d="M877.89,901.87h0c-4.36,4.85-11.84,5.25-16.69.89l-17.42-15.66c-4.85-4.36-5.25-11.84-.89-16.69h0c4.36-4.85,11.84-5.25,16.69-.89l17.42,15.66c4.85,4.36,5.25,11.84.89,16.69Z"></path><rect class="cls-2" x="873.03" y="897.94" width="23.64" height="21.17" rx="9.2" ry="9.2" transform="translate(-382.36 959.08) rotate(-48.04)"></rect></g><g><path class="cls-1" d="M845.63,931.73h0c-5.05,4.14-12.49,3.41-16.63-1.64l-14.86-18.11c-4.14-5.05-3.41-12.49,1.64-16.63h0c5.05-4.14,12.49-3.41,16.63,1.64l14.86,18.11c4.14,5.05,3.41,12.49-1.64,16.63Z"></path><rect class="cls-2" x="839.69" y="928.77" width="23.64" height="21.17" rx="9.2" ry="9.2" transform="translate(-402.65 753.52) rotate(-39.38)"></rect></g><g><path class="cls-1" d="M809.16,956.45h0c-5.61,3.33-12.86,1.47-16.19-4.14l-11.94-20.15c-3.33-5.61-1.47-12.86,4.14-16.19h0c5.61-3.33,12.86-1.47,16.19,4.14l11.94,20.15c3.33,5.61,1.47,12.86-4.14,16.19Z"></path><rect class="cls-2" x="802" y="954.29" width="23.64" height="21.17" rx="9.2" ry="9.2" transform="translate(-378.24 549.82) rotate(-30.66)"></rect></g><g><path class="cls-1" d="M769.03,975.53h0c-6.06,2.42-12.94-.52-15.36-6.58l-8.7-21.75c-2.42-6.06.52-12.94,6.58-15.36h0c6.06-2.42,12.94.52,15.36,6.58l8.7,21.75c2.42,6.06-.52,12.94-6.58,15.36Z"></path><rect class="cls-2" x="760.51" y="973.99" width="23.64" height="21.17" rx="9.2" ry="9.2" transform="translate(-310.48 357.37) rotate(-21.81)"></rect></g><g><path class="cls-1" d="M725.81,988.36h0c-6.36,1.45-12.7-2.54-14.14-8.9l-5.19-22.84c-1.45-6.36,2.54-12.7,8.9-14.14h0c6.36-1.45,12.7,2.54,14.14,8.9l5.19,22.84c1.45,6.36-2.54,12.7-8.9,14.14Z"></path><rect class="cls-2" x="715.84" y="987.22" width="23.64" height="21.17" rx="9.2" ry="9.2" transform="translate(-203.05 186.09) rotate(-12.8)"></rect></g><g><path class="cls-1" d="M680.12,994.36h0c-6.51.42-12.13-4.52-12.55-11.03l-1.5-23.37c-.42-6.51,4.52-12.13,11.03-12.55h0c6.51-.42,12.13,4.52,12.55,11.03l1.5,23.37c.42,6.51-4.52,12.13-11.03,12.55Z"></path><rect class="cls-2" x="668.62" y="993.4" width="23.64" height="21.16" rx="9.2" ry="9.2" transform="translate(-63.01 45.72) rotate(-3.68)"></rect></g><g><path class="cls-1" d="M633.42,992.78h0c-6.5-.62-11.26-6.4-10.63-12.89l2.24-23.31c.62-6.5,6.4-11.26,12.89-10.63h0c6.5.62,11.26,6.4,10.63,12.89l-2.24,23.31c-.62,6.5-6.4,11.26-12.89,10.63Z"></path><rect class="cls-2" x="621.63" y="990.51" width="21.16" height="23.63" rx="9.2" ry="9.2" transform="translate(-425.93 1535.89) rotate(-84.52)"></rect></g><g><path class="cls-1" d="M588.71,983.87h0c-6.32-1.64-10.11-8.09-8.47-14.41l5.89-22.67c1.64-6.32,8.09-10.11,14.41-8.47h0c6.32,1.64,10.11,8.09,8.47,14.41l-5.89,22.67c-1.64,6.32-8.09,10.11-14.41,8.47Z"></path><rect class="cls-2" x="575.42" y="981.29" width="21.16" height="23.63" rx="9.2" ry="9.2" transform="translate(-522.54 1310.58) rotate(-75.44)"></rect></g><g><path class="cls-1" d="M546.72,968.37h0c-5.98-2.6-8.73-9.56-6.12-15.55l9.34-21.48c2.6-5.98,9.56-8.73,15.55-6.12h0c5.98,2.6,8.73,9.56,6.12,15.55l-9.34,21.48c-2.6,5.98-9.56,8.73-15.55,6.12Z"></path><path class="cls-2" d="M541.23,965.26h2.77c5.08,0,9.2,4.12,9.2,9.2v5.24c0,5.08-4.12,9.2-9.2,9.2h-2.77c-5.08,0-9.2-4.12-9.2-9.2v-5.24c0-5.08,4.12-9.2,9.2-9.2Z" transform="translate(-569.79 1085.1) rotate(-66.5)"></path></g><g><path class="cls-1" d="M508.04,946.87h0c-5.52-3.49-7.16-10.78-3.68-16.3l12.51-19.8c3.49-5.52,10.78-7.16,16.3-3.68h0c5.52,3.49,7.16,10.78,3.68,16.3l-12.51,19.8c-3.49,5.52-10.78,7.16-16.3,3.68Z"></path><rect class="cls-2" x="492.08" y="943.03" width="21.16" height="23.63" rx="9.2" ry="9.2" transform="translate(-573.05 869.73) rotate(-57.71)"></rect></g><g><path class="cls-1" d="M473.26,919.94h0c-4.93-4.28-5.45-11.74-1.17-16.67l15.35-17.68c4.28-4.93,11.74-5.45,16.67-1.17h0c4.93,4.28,5.45,11.74,1.17,16.67l-15.35,17.68c-4.28,4.93-11.74,5.45-16.67,1.17Z"></path><rect class="cls-2" x="456.15" y="915.19" width="21.16" height="23.63" rx="9.2" ry="9.2" transform="translate(-539.21 671.53) rotate(-49.03)"></rect></g><g><path class="cls-1" d="M442.9,888.14h0c-4.23-4.97-3.62-12.43,1.35-16.65l17.84-15.17c4.97-4.23,12.43-3.62,16.65,1.35h0c4.23,4.97,3.62,12.43-1.35,16.65l-17.84,15.17c-4.97,4.23-12.43,3.62-16.65-1.35Z"></path><rect class="cls-2" x="424.8" y="882.33" width="21.16" height="23.63" rx="9.2" ry="9.2" transform="translate(-475.46 494.87) rotate(-40.37)"></rect></g><g><path class="cls-1" d="M417.74,852.11h0c-3.42-5.55-1.7-12.83,3.86-16.26l19.93-12.29c5.55-3.42,12.83-1.7,16.26,3.86h0c3.42,5.55,1.7,12.83-3.86,16.26l-19.93,12.29c-5.55,3.42-12.83,1.7-16.26-3.86Z"></path><rect class="cls-2" x="398.81" y="845.09" width="21.16" height="23.63" rx="9.2" ry="9.2" transform="translate(-388.78 342.31) rotate(-31.65)"></rect></g><g><path class="cls-1" d="M397.97,812.3h0c-2.53-6.01.29-12.94,6.31-15.47l21.58-9.08c6.01-2.53,12.94.29,15.47,6.31h0c2.53,6.01-.29,12.94-6.31,15.47l-21.58,9.08c-6.01,2.53-12.94-.29-15.47-6.31Z"></path><rect class="cls-2" x="378.41" y="803.94" width="21.16" height="23.63" rx="9.2" ry="9.2" transform="translate(-285.92 214.7) rotate(-22.82)"></rect></g><g><path class="cls-1" d="M384.47,769.37h0c-1.56-6.34,2.31-12.74,8.65-14.3l22.73-5.6c6.34-1.56,12.74,2.31,14.3,8.65h0c1.56,6.34-2.31,12.74-8.65,14.3l-22.73,5.6c-6.34,1.56-12.74-2.31-14.3-8.65Z"></path><rect class="cls-2" x="364.48" y="759.57" width="21.16" height="23.63" rx="9.2" ry="9.2" transform="translate(-173.53 112.03) rotate(-13.83)"></rect></g><g><path class="cls-1" d="M377.74,723.9h0c-.54-6.5,4.3-12.21,10.8-12.74l23.33-1.92c6.5-.54,12.21,4.3,12.74,10.8h0c.54,6.5-4.3,12.21-10.8,12.74l-23.33,1.92c-6.5.54-12.21-4.3-12.74-10.8Z"></path><rect class="cls-2" x="357.55" y="712.58" width="21.16" height="23.63" rx="9.2" ry="9.2" transform="translate(-58.29 32.71) rotate(-4.71)"></rect></g><g><path class="cls-1" d="M378.14,677.35h0c.35-6.52,5.91-11.52,12.42-11.17l23.38,1.24c6.52.35,11.52,5.91,11.17,12.42h0c-.35,6.52-5.91,11.52-12.42,11.17l-23.38-1.24c-6.52-.35-11.52-5.91-11.17-12.42Z"></path><rect class="cls-2" x="356.74" y="665.96" width="23.63" height="21.16" rx="9.2" ry="9.2" transform="translate(-326.59 1008.68) rotate(-86.96)"></rect></g><g><path class="cls-1" d="M384.3,632.23h0c1.12-6.43,7.24-10.73,13.66-9.61l23.06,4.02c6.43,1.12,10.73,7.24,9.61,13.66h0c-1.12,6.43-7.24,10.73-13.66,9.61l-23.06-4.02c-6.43-1.12-10.73-7.24-9.61-13.66Z"></path><rect class="cls-2" x="363.06" y="619.71" width="23.63" height="21.16" rx="9.19" ry="9.19" transform="translate(-310.4 891.44) rotate(-80.12)"></rect></g><g><path class="cls-1" d="M395.57,588.92h0c1.87-6.25,8.45-9.8,14.7-7.93l22.43,6.71c6.25,1.87,9.8,8.45,7.93,14.7h0c-1.87,6.25-8.45,9.8-14.7,7.93l-22.43-6.71c-6.25-1.87-9.8-8.45-7.93-14.7Z"></path><path class="cls-2" d="M383.82,575.31h5.24c5.07,0,9.19,4.12,9.19,9.19v2.77c0,5.07-4.12,9.19-9.19,9.19h-5.24c-5.07,0-9.19-4.12-9.19-9.19v-2.77c0-5.07,4.12-9.19,9.19-9.19Z" transform="translate(-285.62 788.21) rotate(-73.35)"></path></g><g><path class="cls-1" d="M411.62,547.75h0c2.58-5.99,9.54-8.75,15.53-6.17l21.49,9.27c5.99,2.58,8.75,9.54,6.17,15.53h0c-2.58,5.99-9.54,8.75-15.53,6.17l-21.49-9.27c-5.99-2.58-8.75-9.54-6.17-15.53Z"></path><rect class="cls-2" x="391.09" y="533.09" width="23.62" height="21.16" rx="9.19" ry="9.19" transform="translate(-255.9 698.22) rotate(-66.66)"></rect></g><g><path class="cls-1" d="M432.13,509.04h0c3.26-5.65,10.48-7.6,16.13-4.34l20.29,11.68c5.65,3.26,7.6,10.48,4.34,16.13h0c-3.26,5.65-10.48,7.6-16.13,4.34l-20.28-11.68c-5.65-3.26-7.6-10.48-4.34-16.13Z"></path><rect class="cls-2" x="412.13" y="493.41" width="23.62" height="21.15" rx="9.19" ry="9.19" transform="translate(-224.37 619.81) rotate(-60.06)"></rect></g><g><path class="cls-1" d="M456.78,473.12h0c3.88-5.25,11.27-6.35,16.52-2.48l18.82,13.92c5.25,3.88,6.35,11.27,2.48,16.52h0c-3.88,5.25-11.27,6.35-16.52,2.48l-18.82-13.92c-5.25-3.88-6.35-11.27-2.48-16.52Z"></path><rect class="cls-2" x="437.41" y="456.58" width="23.62" height="21.15" rx="9.19" ry="9.19" transform="translate(-193.48 550.67) rotate(-53.52)"></rect></g><g><path class="cls-1" d="M485.25,440.29h0c4.45-4.77,11.92-5.04,16.69-.59l17.13,15.96c4.77,4.45,5.04,11.92.59,16.69h0c-4.45,4.77-11.92,5.04-16.69.59l-17.13-15.96c-4.77-4.45-5.04-11.92-.59-16.69Z"></path><rect class="cls-2" x="466.6" y="422.95" width="23.62" height="21.15" rx="9.19" ry="9.19" transform="translate(-164.9 488.06) rotate(-47.03)"></rect></g><g><path class="cls-1" d="M517.23,410.85h0c4.96-4.24,12.41-3.66,16.65,1.3l15.21,17.79c4.24,4.96,3.66,12.41-1.3,16.65h0c-4.96,4.24-12.41,3.66-16.65-1.3l-15.21-17.79c-4.24-4.96-3.66-12.41,1.3-16.65Z"></path><rect class="cls-2" x="499.4" y="392.77" width="23.62" height="21.15" rx="9.19" ry="9.19" transform="translate(-139.46 429.05) rotate(-40.54)"></rect></g><g><path class="cls-1" d="M552.36,385.27h0c5.41-3.65,12.75-2.22,16.4,3.18l13.09,19.4c3.65,5.41,2.22,12.75-3.18,16.4h0c-5.41,3.65-12.75,2.22-16.4-3.18l-13.09-19.4c-3.65-5.41-2.22-12.75,3.18-16.4Z"></path><rect class="cls-2" x="535.42" y="366.56" width="23.62" height="21.15" rx="9.19" ry="9.19" transform="translate(-117.34 370.63) rotate(-34.01)"></rect></g><g><path class="cls-1" d="M590.4,363.61h0c5.79-3,12.92-.75,15.92,5.04l10.78,20.77c3,5.79.75,12.92-5.04,15.92h0c-5.79,3-12.92.75-15.92-5.04l-10.78-20.77c-3-5.79-.75-12.92,5.04-15.92Z"></path><rect class="cls-2" x="574.43" y="344.36" width="23.62" height="21.15" rx="9.19" ry="9.19" transform="translate(-97.6 309.96) rotate(-27.43)"></rect></g><g><path class="cls-1" d="M630.98,346.37h0c6.1-2.31,12.92.76,15.23,6.86l8.3,21.88c2.31,6.1-.76,12.92-6.86,15.23h0c-6.1,2.31-12.92-.76-15.23-6.86l-8.3-21.88c-2.31-6.1.76-12.92,6.86-15.23Z"></path><rect class="cls-2" x="616.04" y="326.7" width="23.62" height="21.15" rx="9.19" ry="9.19" transform="translate(-78.79 244.5) rotate(-20.76)"></rect></g><g><path class="cls-1" d="M673.79,333.83h0c6.33-1.58,12.74,2.27,14.32,8.6l5.67,22.71c1.58,6.33-2.27,12.74-8.6,14.32h0c-6.33,1.58-12.74-2.27-14.32-8.6l-5.67-22.71c-1.58-6.33,2.27-12.74,8.6-14.32Z"></path><rect class="cls-2" x="659.94" y="313.86" width="23.62" height="21.15" rx="9.19" ry="9.19" transform="translate(-58.57 172.31) rotate(-14.01)"></rect></g><g><path class="cls-1" d="M718.49,326.32h0c6.47-.82,12.38,3.77,13.19,10.24l2.93,23.22c.82,6.47-3.77,12.38-10.24,13.19h0c-6.47.82-12.38-3.77-13.19-10.24l-2.93-23.22c-.82-6.47,3.77-12.38,10.24-13.19Z"></path><path class="cls-2" d="M714.96,306.17h5.23c5.07,0,9.19,4.12,9.19,9.19v2.77c0,5.07-4.12,9.19-9.19,9.19h-5.23c-5.07,0-9.19-4.12-9.19-9.19v-2.77c0-5.07,4.12-9.19,9.19-9.19Z" transform="translate(-33.99 92.26) rotate(-7.19)"></path></g><g><path class="cls-1" d="M764.78,324.15h0c6.52-.04,11.84,5.22,11.87,11.74l.13,23.4c.04,6.52-5.22,11.84-11.74,11.87h0c-6.52.04-11.84-5.22-11.87-11.74l-.13-23.4c-.04-6.52,5.22-11.84,11.74-11.87Z"></path><rect class="cls-2" x="753.22" y="303.96" width="23.62" height="21.15" rx="9.19" ry="9.19" transform="translate(-1.74 4.26) rotate(-.32)"></rect></g><g><path class="cls-1" d="M810.57,327.79h0c6.48.74,11.13,6.6,10.39,13.08l-2.67,23.25c-.74,6.48-6.6,11.13-13.08,10.39h0c-6.48-.74-11.13-6.6-10.39-13.08l2.67-23.25c.74-6.48,6.6-11.13,13.08-10.39Z"></path><rect class="cls-2" x="801.38" y="306.47" width="21.15" height="23.62" rx="9.19" ry="9.19" transform="translate(403.25 1088.69) rotate(-83.46)"></rect></g><g><path class="cls-1" d="M854.77,336.7h0c6.34,1.51,10.27,7.87,8.76,14.21l-5.4,22.77c-1.51,6.34-7.87,10.27-14.21,8.76h0c-6.34-1.51-10.27-7.87-8.76-14.21l5.4-22.77c1.51-6.34,7.87-10.27,14.21-8.76Z"></path><rect class="cls-2" x="846.7" y="315.61" width="21.15" height="23.62" rx="9.19" ry="9.19" transform="translate(340.78 1085.93) rotate(-76.65)"></rect></g><g><path class="cls-1" d="M896.98,350.54h0c6.12,2.24,9.28,9.02,7.04,15.14l-8.03,21.98c-2.24,6.12-9.02,9.28-15.14,7.04h0c-6.12-2.24-9.28-9.02-7.04-15.14l8.03-21.98c2.24-6.12,9.02-9.28,15.14-7.04Z"></path><rect class="cls-2" x="889.99" y="329.81" width="21.15" height="23.61" rx="9.19" ry="9.19" transform="translate(270.58 1070.19) rotate(-69.92)"></rect></g><g><path class="cls-1" d="M936.89,369h0c5.82,2.93,8.17,10.03,5.24,15.85l-10.52,20.9c-2.93,5.82-10.03,8.17-15.85,5.24h0c-5.82-2.93-8.17-10.03-5.24-15.85l10.52-20.9c2.93-5.82,10.03-8.17,15.85-5.24Z"></path><rect class="cls-2" x="930.9" y="348.73" width="21.15" height="23.61" rx="9.19" ry="9.19" transform="translate(196.17 1039.43) rotate(-63.28)"></rect></g><g><path class="cls-1" d="M974.16,391.74h0c5.45,3.58,6.97,10.9,3.39,16.35l-12.84,19.56c-3.58,5.45-10.9,6.97-16.35,3.39h0c-5.45-3.58-6.97-10.9-3.39-16.35l12.84-19.56c3.58-5.45,10.9-6.97,16.35-3.39Z"></path><rect class="cls-2" x="969.11" y="372.06" width="21.15" height="23.61" rx="9.19" ry="9.19" transform="translate(121.2 992.26) rotate(-56.72)"></rect></g><g><path class="cls-1" d="M1008.48,418.46h0c5.01,4.17,5.69,11.62,1.52,16.63l-14.97,17.98c-4.17,5.01-11.62,5.69-16.63,1.52h0c-5.01-4.17-5.69-11.62-1.52-16.63l14.97-17.98c4.17-5.01,11.62-5.69,16.63-1.52Z"></path><path class="cls-2" d="M1013.47,399.45h2.77c5.07,0,9.19,4.12,9.19,9.19v5.23c0,5.07-4.12,9.19-9.19,9.19h-2.77c-5.07,0-9.19-4.12-9.19-9.19v-5.23c0-5.07,4.12-9.19,9.19-9.19Z" transform="translate(49.37 927.89) rotate(-50.21)"></path></g><g><path class="cls-1" d="M1039.6,448.86h0c4.51,4.71,4.34,12.19-.37,16.69l-16.91,16.17c-4.71,4.51-12.19,4.34-16.69-.37h0c-4.51-4.71-4.34-12.19.37-16.69l16.91-16.17c4.71-4.51,12.19-4.34,16.69.37Z"></path><rect class="cls-2" x="1036.18" y="430.62" width="21.14" height="23.61" rx="9.19" ry="9.19" transform="translate(-15.53 846.14) rotate(-43.72)"></rect></g><g><path class="cls-1" d="M1066.98,482.52h0c3.94,5.19,2.93,12.6-2.26,16.54l-18.63,14.15c-5.19,3.94-12.6,2.93-16.54-2.26h0c-3.94-5.19-2.93-12.6,2.26-16.54l18.63-14.15c5.19-3.94,12.6-2.93,16.54,2.26Z"></path><rect class="cls-2" x="1064.24" y="465.14" width="21.14" height="23.61" rx="9.19" ry="9.19" transform="translate(-69.59 747.21) rotate(-37.22)"></rect></g><g><path class="cls-1" d="M1090.55,519.24h0c3.33,5.61,1.47,12.85-4.13,16.17l-20.12,11.93c-5.61,3.33-12.85,1.47-16.17-4.13h0c-3.33-5.61-1.47-12.85,4.13-16.17l20.12-11.93c5.61-3.33,12.85-1.47,16.17,4.13Z"></path><rect class="cls-2" x="1088.4" y="502.79" width="21.14" height="23.61" rx="9.19" ry="9.19" transform="translate(-108.78 632.44) rotate(-30.66)"></rect></g><g><path class="cls-1" d="M1109.88,558.66h0c2.66,5.95-.02,12.93-5.97,15.59l-21.37,9.53c-5.95,2.66-12.93-.02-15.59-5.97h0c-2.66-5.95.02-12.93,5.97-15.59l21.37-9.53c5.95-2.66,12.93.02,15.59,5.97Z"></path><rect class="cls-2" x="1108.21" y="543.21" width="21.14" height="23.61" rx="9.19" ry="9.19" transform="translate(-129.06 503.9) rotate(-24.04)"></rect></g><g><path class="cls-1" d="M1124.66,600.46h0c1.94,6.22-1.53,12.84-7.75,14.78l-22.33,6.97c-6.22,1.94-12.84-1.53-14.78-7.75h0c-1.94-6.22,1.53-12.84,7.75-14.78l22.33-6.97c6.22-1.94,12.84,1.53,14.78,7.75Z"></path><rect class="cls-2" x="1123.36" y="586.08" width="21.14" height="23.61" rx="9.19" ry="9.19" transform="translate(-126.61 364.88) rotate(-17.33)"></rect></g><g><path class="cls-1" d="M1134.58,644.32h0c1.19,6.41-3.04,12.57-9.45,13.76l-23,4.28c-6.41,1.19-12.57-3.04-13.76-9.45h0c-1.19-6.41,3.04-12.57,9.45-13.76l23-4.28c6.41-1.19,12.57,3.04,13.76,9.45Z"></path><rect class="cls-2" x="1133.51" y="631.04" width="21.14" height="23.61" rx="9.19" ry="9.19" transform="translate(-98.25 220.01) rotate(-10.53)"></rect></g><g><path class="cls-1" d="M1139.29,689.89h0c.42,6.51-4.52,12.12-11.02,12.54l-23.34,1.5c-6.51.42-12.12-4.52-12.54-11.02h0c-.42-6.51,4.52-12.12,11.02-12.54l23.34-1.5c6.51-.42,12.12,4.52,12.54,11.02Z"></path><path class="cls-2" d="M1147.52,677.76h2.76c5.07,0,9.19,4.12,9.19,9.19v5.23c0,5.07-4.12,9.19-9.19,9.19h-2.76c-5.07,0-9.19-4.12-9.19-9.19v-5.23c0-5.07,4.12-9.19,9.19-9.19Z" transform="translate(-41.9 75.18) rotate(-3.68)"></path></g><g><path class="cls-1" d="M1138.65,736.13h0c-.26,6.51-5.75,11.59-12.26,11.33l-23.37-.92c-6.51-.26-11.59-5.75-11.33-12.26h0c.26-6.51,5.75-11.59,12.26-11.33l23.37.92c6.51.26,11.59,5.75,11.33,12.26Z"></path><rect class="cls-2" x="1136.44" y="726.23" width="23.61" height="21.14" rx="9.19" ry="9.19" transform="translate(366.73 1855.09) rotate(-87.74)"></rect></g><g><path class="cls-1" d="M1133.47,781.23h0c-.88,6.46-6.83,10.98-13.28,10.11l-23.18-3.15c-6.46-.88-10.98-6.83-10.11-13.28h0c.88-6.46,6.83-10.98,13.28-10.11l23.18,3.15c6.46.88,10.98,6.83,10.11,13.28Z"></path><rect class="cls-2" x="1131.15" y="772.25" width="23.61" height="21.14" rx="9.19" ry="9.19" transform="translate(213.37 1809.96) rotate(-82.26)"></rect></g><g><path class="cls-1" d="M1124.15,824.97h0c-1.49,6.35-7.84,10.29-14.18,8.8l-22.77-5.33c-6.35-1.49-10.29-7.84-8.8-14.18h0c1.49-6.35,7.84-10.29,14.18-8.8l22.77,5.33c6.35,1.49,10.29,7.84,8.8,14.18Z"></path><rect class="cls-2" x="1121.64" y="816.88" width="23.6" height="21.14" rx="9.19" ry="9.19" transform="translate(69.42 1742.44) rotate(-76.82)"></rect></g><g><path class="cls-1" d="M1110.91,867.13h0c-2.07,6.18-8.77,9.51-14.95,7.43l-22.17-7.45c-6.18-2.07-9.51-8.77-7.43-14.95h0c2.07-6.18,8.77-9.51,14.95-7.43l22.17,7.45c6.18,2.07,9.51,8.77,7.43,14.95Z"></path><rect class="cls-2" x="1108.12" y="859.9" width="23.6" height="21.14" rx="9.19" ry="9.19" transform="translate(-61.78 1655.02) rotate(-71.44)"></rect></g><g><path class="cls-1" d="M1093.95,907.5h0c-2.64,5.96-9.61,8.65-15.57,6.01l-21.38-9.47c-5.96-2.64-8.65-9.61-6.01-15.57h0c2.64-5.96,9.61-8.65,15.57-6.01l21.38,9.47c5.96,2.64,8.65,9.61,6.01,15.57Z"></path><rect class="cls-2" x="1090.82" y="901.09" width="23.6" height="21.14" rx="9.19" ry="9.19" transform="translate(-177.51 1550.53) rotate(-66.11)"></rect></g><g><path class="cls-1" d="M1073.48,945.88h0c-3.18,5.69-10.37,7.73-16.06,4.55l-20.42-11.4c-5.69-3.18-7.73-10.37-4.55-16.06h0c3.18-5.69,10.37-7.73,16.06-4.55l20.42,11.4c5.69,3.18,7.73,10.37,4.55,16.06Z"></path><rect class="cls-2" x="1069.92" y="940.25" width="23.6" height="21.14" rx="9.19" ry="9.19" transform="translate(-275.75 1431.91) rotate(-60.83)"></rect></g><g><path class="cls-1" d="M1049.69,982.07h0c-3.68,5.38-11.03,6.75-16.4,3.07l-19.3-13.21c-5.38-3.68-6.75-11.03-3.07-16.4h0c3.68-5.38,11.03-6.75,16.4-3.07l19.3,13.21c5.38,3.68,6.75,11.03,3.07,16.4Z"></path><rect class="cls-2" x="1045.65" y="977.17" width="23.6" height="21.14" rx="9.19" ry="9.19" transform="translate(-354.99 1302.12) rotate(-55.6)"></rect></g><g><path class="cls-1" d="M1022.8,1015.85h0c-4.15,5.02-11.59,5.72-16.61,1.57l-18.02-14.91c-5.02-4.15-5.72-11.59-1.57-16.61h0c4.15-5.02,11.59-5.72,16.61-1.57l18.02,14.91c5.02,4.15,5.72,11.59,1.57,16.61Z"></path><rect class="cls-2" x="1018.21" y="1011.64" width="23.6" height="21.13" rx="9.19" ry="9.19" transform="translate(-414.18 1164.08) rotate(-50.39)"></rect></g><g><path class="cls-1" d="M992.95,1047.12h0c-4.59,4.62-12.06,4.65-16.69.06l-16.59-16.48c-4.62-4.59-4.65-12.06-.06-16.69h0c4.59-4.62,12.06-4.65,16.69-.06l16.59,16.48c4.62,4.59,4.65,12.06.06,16.69Z"></path><rect class="cls-2" x="987.76" y="1043.53" width="23.6" height="21.13" rx="9.18" ry="9.18" transform="translate(-452.72 1020.68) rotate(-45.2)"></rect></g><g><path class="cls-1" d="M960.49,1075.45h0c-4.99,4.19-12.43,3.54-16.62-1.45l-15.03-17.91c-4.19-4.99-3.54-12.43,1.45-16.62h0c4.99-4.19,12.43-3.54,16.62,1.45l15.03,17.91c4.19,4.99,3.54,12.43-1.45,16.62Z"></path><rect class="cls-2" x="954.64" y="1072.43" width="23.6" height="21.13" rx="9.18" ry="9.18" transform="translate(-470.06 874.79) rotate(-40.01)"></rect></g><g><path class="cls-1" d="M925.51,1100.76h0c-5.35,3.72-12.7,2.39-16.42-2.96l-13.34-19.2c-3.72-5.35-2.39-12.7,2.96-16.42h0c5.35-3.72,12.7-2.39,16.42,2.96l13.34,19.2c3.72,5.35,2.39,12.7-2.96,16.42Z"></path><rect class="cls-2" x="918.95" y="1098.25" width="23.6" height="21.13" rx="9.18" ry="9.18" transform="translate(-466.29 729.29) rotate(-34.79)"></rect></g><g><path class="cls-1" d="M888.19,1122.97h0c-5.67,3.21-12.87,1.22-16.08-4.45l-11.53-20.34c-3.21-5.67-1.22-12.87,4.45-16.08h0c5.67-3.21,12.87-1.22,16.08,4.45l11.53,20.34c3.21,5.67,1.22,12.87-4.45,16.08Z"></path><rect class="cls-2" x="880.87" y="1120.91" width="23.6" height="21.13" rx="9.18" ry="9.18" transform="translate(-441.79 587.12) rotate(-29.54)"></rect></g><g><path class="cls-1" d="M848.79,1141.74h0c-5.94,2.67-12.93.03-15.6-5.92l-9.6-21.32c-2.67-5.94-.03-12.93,5.92-15.6h0c5.94-2.67,12.93-.03,15.6,5.92l9.6,21.32c2.67,5.94.03,12.93-5.92,15.6Z"></path><rect class="cls-2" x="840.66" y="1140.05" width="23.6" height="21.13" rx="9.18" ry="9.18" transform="translate(-397.15 451.27) rotate(-24.23)"></rect></g><g><path class="cls-1" d="M807.49,1156.88h0c-6.17,2.11-12.87-1.18-14.98-7.35l-7.56-22.13c-2.11-6.17,1.18-12.87,7.35-14.98h0c6.17-2.11,12.87,1.18,14.98,7.35l7.56,22.13c2.11,6.17-1.18,12.87-7.35,14.98Z"></path><rect class="cls-2" x="798.52" y="1155.5" width="23.6" height="21.13" rx="9.18" ry="9.18" transform="translate(-333.63 324.81) rotate(-18.87)"></rect></g><g><path class="cls-1" d="M764.51,1168.21h0c-6.34,1.52-12.7-2.39-14.22-8.73l-5.44-22.74c-1.52-6.34,2.39-12.7,8.73-14.22h0c6.34-1.52,12.7,2.39,14.22,8.73l5.44,22.74c1.52,6.34-2.39,12.7-8.73,14.22Z"></path><rect class="cls-2" x="754.66" y="1167.05" width="23.6" height="21.13" rx="9.18" ry="9.18" transform="translate(-253.04 210.73) rotate(-13.46)"></rect></g><g><path class="cls-1" d="M720.05,1175.5h0c-6.45.91-12.42-3.59-13.32-10.04l-3.25-23.15c-.91-6.45,3.59-12.42,10.04-13.32h0c6.45-.91,12.42,3.59,13.32,10.04l3.25,23.15c.91,6.45-3.59,12.42-10.04,13.32Z"></path><rect class="cls-2" x="709.29" y="1174.49" width="23.6" height="21.13" rx="9.18" ry="9.18" transform="translate(-157.88 111.86) rotate(-8)"></rect></g><g><path class="cls-1" d="M674.32,1178.57h0c-6.51.29-12.02-4.76-12.3-11.27l-1.02-23.36c-.29-6.51,4.76-12.02,11.27-12.3h0c6.51-.29,12.02,4.76,12.3,11.27l1.02,23.36c.29,6.51-4.76,12.02-11.27,12.3Z"></path><rect class="cls-2" x="662.65" y="1177.61" width="23.59" height="21.13" rx="9.18" ry="9.18" transform="translate(-51.35 30.66) rotate(-2.51)"></rect></g><g><path class="cls-1" d="M628.26,1177.1h0c-6.51-.34-11.5-5.89-11.16-12.4l1.22-23.35c.34-6.51,5.89-11.5,12.4-11.16h0c6.51.34,11.5,5.89,11.16,12.4l-1.22,23.35c-.34,6.51-5.89,11.5-12.4,11.16Z"></path><rect class="cls-2" x="616.9" y="1174.88" width="21.13" height="23.59" rx="9.18" ry="9.18" transform="translate(-590.39 1751.26) rotate(-87)"></rect></g><g><path class="cls-1" d="M583.38,1171.22h0c-6.44-.96-10.89-6.96-9.93-13.41l3.45-23.12c.96-6.44,6.96-10.89,13.41-9.93h0c6.44.96,10.89,6.96,9.93,13.41l-3.45,23.12c-.96,6.44-6.96,10.89-13.41,9.93Z"></path><rect class="cls-2" x="571.11" y="1168.88" width="21.13" height="23.59" rx="9.18" ry="9.18" transform="translate(-671.87 1581.88) rotate(-81.52)"></rect></g><g><path class="cls-1" d="M539.9,1161.23h0c-6.32-1.57-10.18-7.96-8.61-14.29l5.62-22.69c1.57-6.32,7.96-10.18,14.29-8.61h0c6.32,1.57,10.18,7.96,8.61,14.29l-5.62,22.69c-1.57,6.32-7.96,10.18-14.29,8.61Z"></path><rect class="cls-2" x="526.74" y="1158.69" width="21.13" height="23.59" rx="9.18" ry="9.18" transform="translate(-728.07 1410.4) rotate(-76.08)"></rect></g><g><path class="cls-1" d="M498.04,1147.35h0c-6.15-2.15-9.39-8.88-7.23-15.03l7.73-22.06c2.15-6.15,8.88-9.39,15.03-7.23h0c6.15,2.15,9.39,8.88,7.23,15.03l-7.73,22.06c-2.15,6.15-8.88,9.39-15.03,7.23Z"></path><path class="cls-2" d="M493.21,1144.52h2.76c5.07,0,9.18,4.11,9.18,9.18v5.23c0,5.07-4.11,9.18-9.18,9.18h-2.76c-5.07,0-9.18-4.11-9.18-9.18v-5.23c0-5.07,4.11-9.18,9.18-9.18Z" transform="translate(-760.22 1240.75) rotate(-70.69)"></path></g><g><path class="cls-1" d="M458,1129.78h0c-5.92-2.72-8.52-9.72-5.8-15.64l9.74-21.25c2.72-5.92,9.72-8.52,15.64-5.8h0c5.92,2.72,8.52,9.72,5.8,15.64l-9.74,21.25c-2.72,5.92-9.72,8.52-15.64,5.8Z"></path><rect class="cls-2" x="443.17" y="1126.59" width="21.13" height="23.59" rx="9.18" ry="9.18" transform="translate(-770.17 1076.26) rotate(-65.36)"></rect></g><g><path class="cls-1" d="M419.99,1108.72h0c-5.65-3.25-7.59-10.46-4.34-16.11l11.66-20.26c3.25-5.65,10.46-7.59,16.11-4.34h0c5.65,3.25,7.59,10.46,4.34,16.11l-11.66,20.26c-3.25,5.65-10.46,7.59-16.11,4.34Z"></path><rect class="cls-2" x="404.39" y="1105.1" width="21.12" height="23.59" rx="9.18" ry="9.18" transform="translate(-760.09 919.62) rotate(-60.09)"></rect></g><g><path class="cls-1" d="M384.21,1084.38h0c-5.33-3.75-6.61-11.11-2.86-16.43l13.45-19.11c3.75-5.33,11.11-6.61,16.43-2.86h0c5.33,3.75,6.61,11.11,2.86,16.43l-13.45,19.11c-3.75,5.33-11.11,6.61-16.43,2.86Z"></path><rect class="cls-2" x="367.88" y="1080.27" width="21.12" height="23.59" rx="9.18" ry="9.18" transform="translate(-732.41 772.95) rotate(-54.86)"></rect></g><g><path class="cls-1" d="M350.86,1056.97h0c-4.96-4.22-5.57-11.66-1.35-16.62l15.13-17.82c4.22-4.96,11.66-5.57,16.62-1.35h0c4.96,4.22,5.57,11.66,1.35,16.62l-15.13,17.82c-4.22,4.96-11.66,5.57-16.62,1.35Z"></path><rect class="cls-2" x="333.86" y="1052.3" width="21.12" height="23.59" rx="9.18" ry="9.18" transform="translate(-689.59 637.79) rotate(-49.66)"></rect></g><g><path class="cls-1" d="M320.07,1026.64h0c-4.56-4.65-4.49-12.12.15-16.68l16.68-16.37c4.65-4.56,12.12-4.49,16.68.15h0c4.56,4.65,4.49,12.12-.15,16.68l-16.68,16.37c-4.65,4.56-12.12,4.49-16.68-.15Z"></path><rect class="cls-2" x="302.45" y="1021.36" width="21.12" height="23.59" rx="9.18" ry="9.18" transform="translate(-634.14 515.2) rotate(-44.47)"></rect></g><g><path class="cls-1" d="M292.25,993.72h0c-4.12-5.04-3.38-12.47,1.66-16.6l18.09-14.8c5.04-4.12,12.47-3.38,16.6,1.66h0c4.12,5.04,3.38,12.47-1.66,16.6l-18.09,14.8c-5.04,4.12-12.47,3.38-16.6-1.66Z"></path><rect class="cls-2" x="274.07" y="987.78" width="21.12" height="23.59" rx="9.18" ry="9.18" transform="translate(-568.54 406.05) rotate(-39.28)"></rect></g><g><path class="cls-1" d="M267.47,958.33h0c-3.65-5.4-2.23-12.73,3.16-16.38l19.36-13.09c5.4-3.65,12.73-2.23,16.38,3.16h0c3.65,5.4,2.23,12.73-3.16,16.38l-19.36,13.09c-5.4,3.65-12.73,2.23-16.38-3.16Z"></path><path class="cls-2" d="M257.97,951.67h2.76c5.07,0,9.18,4.11,9.18,9.18v5.23c0,5.07-4.11,9.18-9.18,9.18h-2.76c-5.07,0-9.18-4.11-9.18-9.18v-5.23c0-5.07,4.11-9.18,9.18-9.18Z" transform="translate(-495.17 310.61) rotate(-34.07)"></path></g><g><path class="cls-1" d="M245.8,920.62h0c-3.14-5.71-1.06-12.88,4.65-16.02l20.48-11.26c5.71-3.14,12.88-1.06,16.02,4.65h0c3.14,5.71,1.06,12.88-4.65,16.02l-20.48,11.26c-5.71,3.14-12.88,1.06-16.02-4.65Z"></path><rect class="cls-2" x="226.69" y="913.2" width="21.12" height="23.59" rx="9.18" ry="9.18" transform="translate(-416.43 228.86) rotate(-28.81)"></rect></g><g><path class="cls-1" d="M227.63,880.88h0c-2.6-5.97.14-12.92,6.11-15.52l21.43-9.32c5.97-2.6,12.92.14,15.52,6.11h0c2.6,5.97-.14,12.92-6.11,15.52l-21.43,9.32c-5.97,2.6-12.92-.14-15.52-6.11Z"></path><rect class="cls-2" x="208.15" y="872.65" width="21.12" height="23.58" rx="9.18" ry="9.18" transform="translate(-334.66 160.67) rotate(-23.51)"></rect></g><g><path class="cls-1" d="M213.1,839.28h0c-2.03-6.19,1.34-12.85,7.53-14.88l22.21-7.28c6.19-2.03,12.85,1.34,14.88,7.53h0c2.03,6.19-1.34,12.85-7.53,14.88l-22.21,7.28c-6.19,2.03-12.85-1.34-14.88-7.53Z"></path><rect class="cls-2" x="193.33" y="830.2" width="21.12" height="23.58" rx="9.18" ry="9.18" transform="translate(-252.17 105.43) rotate(-18.15)"></rect></g><g><path class="cls-1" d="M202.43,796.04h0c-1.44-6.35,2.55-12.67,8.9-14.1l22.79-5.15c6.35-1.44,12.67,2.55,14.1,8.9h0c1.44,6.35-2.55,12.67-8.9,14.1l-22.79,5.15c-6.35,1.44-12.67-2.55-14.1-8.9Z"></path><rect class="cls-2" x="182.44" y="786.08" width="21.12" height="23.58" rx="9.18" ry="9.18" transform="translate(-171.21 62.21) rotate(-12.74)"></rect></g><g><path class="cls-1" d="M195.8,751.35h0c-.83-6.46,3.74-12.37,10.2-13.19l23.18-2.96c6.46-.83,12.37,3.74,13.19,10.2h0c.83,6.46-3.74,12.37-10.2,13.19l-23.18,2.96c-6.46.83-12.37-3.74-13.19-10.2Z"></path><rect class="cls-2" x="175.68" y="740.49" width="21.12" height="23.58" rx="9.18" ry="9.18" transform="translate(-93.89 29.69) rotate(-7.28)"></rect></g><g><path class="cls-1" d="M193.43,705.45h0c-.2-6.51,4.91-11.95,11.41-12.16l23.36-.73c6.51-.2,11.95,4.91,12.16,11.41h0c.2,6.51-4.91,11.95-11.41,12.16l-23.36.73c-6.51.2-11.95-4.91-12.16-11.41Z"></path><rect class="cls-2" x="173.27" y="693.67" width="21.12" height="23.58" rx="9.18" ry="9.18" transform="translate(-22.08 6.13) rotate(-1.8)"></rect></g></g></svg>