<?xml version="1.0" encoding="UTF-8"?>
<svg id="Layer_1" xmlns="http://www.w3.org/2000/svg" version="1.1" viewBox="0 0 318.9 55.1">
  <!-- Generator: Adobe Illustrator 29.5.1, SVG Export Plug-In . SVG Version: 2.1.0 Build 141)  -->
  <defs>
    <style>
      .st0 {
        fill: #e8bcd3;
      }

      .st1 {
        fill: #f7f7f7;
      }
    </style>
  </defs>
  <path class="st1" d="M312.3,55.1h-57.2V0h57.2c3.4,0,6.1,2.7,6.1,6.1v42.9c0,3.4-2.7,6.1-6.1,6.1Z"/>
  <path class="st0" d="M312.4,0H6.1C2.7,0,0,2.7,0,6.1v42.9c0,3.4,2.7,6.1,6.1,6.1h306.3c3.4,0,6.1-2.7,6.1-6.1V6.1C318.5,2.7,315.8,0,312.4,0ZM315.6,49c0,1.8-1.4,3.2-3.2,3.2h-54.3V2.9h54.3c1.8,0,3.2,1.4,3.2,3.2v42.9Z"/>
  <g>
    <path class="st0" d="M286.8,35.3c3.1,0,5.7-2.6,5.7-5.7s-2.6-5.7-5.7-5.7-5.7,2.6-5.7,5.7,2.6,5.7,5.7,5.7ZM286.8,25.6c2.2,0,4,1.8,4,4s-1.8,4-4,4-4-1.8-4-4,1.8-4,4-4Z"/>
    <path class="st0" d="M309.1,38.7c0-2.9-2.3-5.2-5.2-5.2h-5.6c-2.9,0-5.2,2.3-5.2,5.2v.2c-.9-.9-2.2-1.4-3.5-1.4h-5.6c-1.4,0-2.6.5-3.5,1.4v-.2c0-2.9-2.3-5.2-5.2-5.2h-5.6c-2.9,0-5.2,2.3-5.2,5.2v5.7h14.4v4h16v-4h14.4v-5.7h-.2ZM266.1,42.8v-4.1c0-1.9,1.6-3.5,3.5-3.5h5.6c1.9,0,3.5,1.6,3.5,3.5v4h-12.7.1ZM293.1,46.8h-12.7v-4.1c0-1.9,1.6-3.5,3.5-3.5h5.6c1.9,0,3.5,1.6,3.5,3.5v4.1h.1ZM307.4,42.8h-12.7v-4.1c0-1.9,1.6-3.5,3.5-3.5h5.6c1.9,0,3.5,1.6,3.5,3.5v4.1h.1Z"/>
    <path class="st0" d="M295.4,25.6c0,3.1,2.6,5.7,5.7,5.7s5.7-2.6,5.7-5.7-2.6-5.7-5.7-5.7-5.7,2.6-5.7,5.7ZM301.1,21.6c2.2,0,4,1.8,4,4s-1.8,4-4,4-4-1.8-4-4,1.8-4,4-4Z"/>
    <path class="st0" d="M272.4,31.3c3.1,0,5.7-2.6,5.7-5.7s-2.6-5.7-5.7-5.7-5.7,2.6-5.7,5.7,2.6,5.7,5.7,5.7ZM272.4,21.6c2.2,0,4,1.8,4,4s-1.8,4-4,4-4-1.8-4-4,1.8-4,4-4Z"/>
    <path class="st0" d="M286.1,18.8l10.8-10.8c.3-.3.3-.9,0-1.2s-.9-.3-1.2,0l-9.6,9.6-3.7-3.7c-.3-.3-.9-.3-1.2,0s-.3.9,0,1.2l4.8,4.8h.1Z"/>
  </g>
  <g>
    <path class="st1" d="M31,15.6c1.8.6,3.2,1.6,4.3,3.2.9,1.2,1.5,2.6,1.8,4s.5,2.8.5,4.1c0,3.3-.7,6.1-2,8.5-1.8,3.1-4.6,4.7-8.4,4.7h-10.8V15h10.8c1.6,0,2.8.2,3.9.5ZM21.4,19.4v16.3h4.8c2.5,0,4.2-1.2,5.2-3.7.5-1.3.8-2.9.8-4.8s-.4-4.5-1.2-5.9c-.8-1.4-2.4-2-4.8-2h-4.8Z"/>
    <path class="st1" d="M59.9,19.5h-13.2v5.3h12.2v4.3h-12.2v6.4h13.9v4.5h-19V15h18.4v4.4Z"/>
    <path class="st1" d="M81.2,15h7.5v25h-4.9v-16.9c0-.5,0-1.2,0-2,0-.9,0-1.6,0-2l-4.7,21h-5.1l-4.7-21c0,.5,0,1.2,0,2,0,.9,0,1.6,0,2v16.9h-4.9V15h7.6l4.6,19.7,4.5-19.7Z"/>
    <path class="st1" d="M112.9,37.8c-1.9,1.9-4.6,2.9-8.2,2.9s-6.3-1-8.2-2.9c-2.5-2.4-3.8-5.8-3.8-10.3s1.3-8,3.8-10.3c1.9-1.9,4.6-2.9,8.2-2.9s6.3,1,8.2,2.9c2.5,2.3,3.8,5.7,3.8,10.3s-1.3,7.9-3.8,10.3ZM109.6,34c1.2-1.5,1.8-3.7,1.8-6.5s-.6-5-1.8-6.5c-1.2-1.5-2.9-2.3-4.9-2.3s-3.7.8-5,2.3c-1.2,1.5-1.9,3.7-1.9,6.5s.6,5,1.9,6.5c1.2,1.5,2.9,2.3,5,2.3s3.7-.8,4.9-2.3Z"/>
    <path class="st1" d="M123,17.6c2-2.1,4.6-3.1,7.7-3.1s7.2,1.4,9.1,4.1c1.1,1.6,1.6,3.1,1.7,4.7h-5.2c-.3-1.2-.8-2.1-1.3-2.7-.9-1.1-2.3-1.6-4.1-1.6s-3.3.8-4.4,2.3c-1.1,1.5-1.6,3.7-1.6,6.5s.6,4.9,1.7,6.3c1.1,1.4,2.6,2.1,4.3,2.1s3.2-.6,4.1-1.8c.5-.6,1-1.6,1.3-2.9h5.2c-.4,2.7-1.6,4.9-3.4,6.7-1.8,1.7-4.2,2.6-7.1,2.6s-6.4-1.2-8.4-3.5c-2-2.3-3.1-5.5-3.1-9.5s1.2-7.7,3.5-10.1Z"/>
    <path class="st1" d="M161.8,15.7c.9.4,1.7,1,2.3,1.8.5.6.9,1.3,1.3,2.1.3.8.5,1.6.5,2.6s-.3,2.4-.9,3.5c-.6,1.1-1.6,2-3,2.4,1.2.5,2,1.1,2.5,2s.7,2.2.7,3.9v1.7c0,1.1,0,1.9.1,2.3.1.6.5,1.1,1,1.4v.6h-5.8c-.2-.6-.3-1-.3-1.3-.1-.7-.2-1.4-.2-2.2v-2.3c0-1.6-.3-2.7-.9-3.2-.5-.5-1.5-.8-3-.8h-5.1v9.8h-5.1V15h12c1.7,0,3,.2,4,.6ZM151,19.4v6.7h5.6c1.1,0,2-.1,2.5-.4,1-.5,1.5-1.4,1.5-2.8s-.5-2.5-1.4-3.1c-.5-.3-1.3-.4-2.4-.4h-5.8Z"/>
    <path class="st1" d="M178,15h5.9l8.9,25h-5.7l-1.7-5.1h-9.2l-1.7,5.1h-5.5l8.9-25ZM177.7,30.6h6.4l-3.2-9.9-3.2,9.9Z"/>
    <path class="st1" d="M198.4,17.6c2-2.1,4.6-3.1,7.7-3.1s7.2,1.4,9.1,4.1c1.1,1.6,1.6,3.1,1.7,4.7h-5.2c-.3-1.2-.8-2.1-1.3-2.7-.9-1.1-2.3-1.6-4.1-1.6s-3.3.8-4.4,2.3c-1.1,1.5-1.6,3.7-1.6,6.5s.6,4.9,1.7,6.3c1.1,1.4,2.6,2.1,4.3,2.1s3.2-.6,4.1-1.8c.5-.6,1-1.6,1.3-2.9h5.2c-.4,2.7-1.6,4.9-3.4,6.7-1.8,1.7-4.2,2.6-7.1,2.6s-6.4-1.2-8.4-3.5c-2-2.3-3.1-5.5-3.1-9.5s1.2-7.7,3.5-10.1Z"/>
    <path class="st1" d="M235.4,15h5.9l-8.4,15.6v9.4h-5.2v-9.4l-8.7-15.6h6.2l5.2,10.9,5-10.9Z"/>
  </g>
</svg>